<svg width="812" height="812" viewBox="0 0 812 812" fill="none" xmlns="http://www.w3.org/2000/svg">
<rect width="812" height="812" rx="100" fill="url(#paint0_linear_965_7545)"/>
<path fill-rule="evenodd" clip-rule="evenodd" d="M369.823 363.003C454.945 316.975 541.784 339.162 575.14 350.859L610.528 363.204L594.284 397.043C587.68 410.596 543.993 496.858 447.158 520.163C398.718 531.837 357.485 522.802 335.82 516.227C339.836 506.699 345.994 494.644 355.566 482.164C362.795 472.749 370.18 465.346 376.651 459.71C390.15 460.94 409.517 460.985 431.561 454.946C473.865 443.339 499.725 416.523 510.19 404.222C492.808 401.806 446.131 397.579 401.596 422.047C395.505 425.402 377.276 435.846 358.935 455.259C337.091 478.407 327.14 501.51 322.276 513.096C319.956 518.597 312.258 537.608 308.175 563.954C305.787 579.341 305.341 592.693 305.52 602.959C297.153 598.15 287.469 595.399 277.161 595.399C262.323 595.399 248.802 601.103 238.628 610.384C238.181 591.53 238.516 539.173 260.672 486.638C262.011 483.439 281.512 438.083 312.303 407.152L312.503 406.95C329.438 389.282 348.738 374.409 369.823 363.003Z" fill="#F7F0F5"/>
<path d="M533.05 147.831C512.022 147.831 494.962 164.89 494.962 185.919C494.962 206.948 512.022 224.007 533.05 224.007C554.079 224.007 571.139 206.948 571.139 185.919C571.139 164.89 554.079 147.831 533.05 147.831ZM531.066 208.36V192.56H520.914C519.502 192.56 518.548 191.033 519.235 189.774L533.279 162.41C534.157 160.616 536.867 161.265 536.867 163.287V179.278H546.561C547.973 179.278 548.889 180.767 548.278 182.026L534.692 209.199C533.776 211.031 531.066 210.383 531.066 208.36Z" fill="#F7F0F5"/>
<path d="M277.136 615.823C256.108 615.823 239.048 632.883 239.048 653.912C239.048 674.94 256.108 692 277.136 692C298.165 692 315.225 674.94 315.225 653.912C315.225 632.883 298.165 615.823 277.136 615.823ZM275.152 676.353V660.552H265C263.588 660.552 262.634 659.026 263.321 657.766L277.365 630.402C278.243 628.609 280.953 629.257 280.953 631.28V647.271H290.647C292.059 647.271 292.975 648.76 292.364 650.019L278.777 677.192C277.861 679.024 275.152 678.375 275.152 676.353Z" fill="#F7F0F5"/>
<path d="M265.202 217.829C314.021 156.862 400.393 129.711 493.613 143.532C481.935 154.02 474.58 169.241 474.58 186.16C474.58 194.412 476.321 202.24 479.467 209.33C411.95 200.675 350.011 219.104 317.435 259.786C290.125 293.893 288.675 336.364 288.675 336.364C287.202 365.663 295.792 388.408 301.103 399.926C293.606 406.703 284.77 415.85 276.225 427.726C267.456 439.87 261.499 451.433 257.415 460.849C247.353 446.043 218.034 398.718 221.805 332.786C222.341 323.504 226 266.764 265.202 217.829Z" fill="#F7F0F5"/>
<defs>
<linearGradient id="paint0_linear_965_7545" x1="0" y1="0" x2="812" y2="812" gradientUnits="userSpaceOnUse">
<stop stop-color="#008CFF"/>
<stop offset="1" stop-color="#41A9FF"/>
</linearGradient>
</defs>
</svg>
