<svg width="812" height="812" viewBox="0 0 812 812" fill="none" xmlns="http://www.w3.org/2000/svg">
<rect width="812" height="812" rx="100" fill="url(#paint0_linear_810_857)"/>
<path d="M491.706 143.445C400.775 129.963 316.526 156.447 268.906 215.917C230.666 263.649 227.097 318.995 226.575 328.049C222.896 392.361 251.495 438.523 261.31 452.965C265.293 443.781 271.104 432.502 279.657 420.656C287.993 409.072 296.612 400.149 303.924 393.539C298.745 382.304 290.365 360.118 291.802 331.539C291.802 331.539 293.216 290.111 319.856 256.843C351.631 217.16 412.049 199.184 477.907 207.627C474.838 200.711 473.141 193.076 473.141 185.026C473.141 168.511 480.323 153.655 491.728 143.423L491.706 143.445ZM571.232 345.676C538.695 334.266 453.988 312.625 370.958 357.522C350.391 368.648 331.565 383.155 315.046 400.389C315.046 400.389 314.937 400.498 314.85 400.586C284.815 430.757 265.794 474.999 264.488 478.118C242.876 529.363 242.549 580.433 242.985 598.824C252.909 589.77 266.098 584.207 280.571 584.207C290.626 584.207 300.072 586.891 308.234 591.581C308.06 581.568 308.495 568.544 310.824 553.535C314.806 527.836 322.315 509.293 324.579 503.926C329.323 492.626 339.03 470.09 360.337 447.511C378.227 428.575 396.009 418.387 401.95 415.115C445.392 391.249 490.922 395.372 507.876 397.728C497.669 409.726 472.444 435.883 431.18 447.206C409.677 453.096 390.785 453.052 377.618 451.852C371.306 457.35 364.102 464.571 357.051 473.755C347.714 485.928 341.707 497.687 337.789 506.98C358.922 513.394 399.143 522.208 446.393 510.82C540.849 488.088 583.464 403.945 589.906 390.725L605.75 357.718L571.232 345.654V345.676Z" fill="#F7F0F5"/>
<path fill-rule="evenodd" clip-rule="evenodd" d="M567.342 184.986C567.342 164.382 550.686 147.645 530.184 147.645C509.682 147.645 493.026 164.382 493.026 184.986C493.026 204.755 506.752 225.228 527.998 235.507V222.328H530.184C550.686 222.328 567.342 205.59 567.342 184.986ZM536.438 176.261C536.633 176.694 536.979 177.041 537.41 177.238L548.857 182.467C550.386 183.165 550.386 185.343 548.857 186.042L537.41 191.27C536.979 191.467 536.633 191.814 536.438 192.247L531.24 203.738C530.545 205.275 528.366 205.275 527.67 203.738L522.473 192.247C522.277 191.814 521.932 191.467 521.501 191.27L510.054 186.042C508.524 185.343 508.524 183.165 510.054 182.467L521.501 177.238C521.932 177.041 522.277 176.694 522.473 176.261L527.67 164.77C528.366 163.233 530.545 163.233 531.24 164.77L536.438 176.261Z" fill="#F7F0F5"/>
<path fill-rule="evenodd" clip-rule="evenodd" d="M317.716 641.479C317.716 620.875 301.06 604.138 280.558 604.138C260.056 604.138 243.4 620.875 243.4 641.479C243.4 661.248 257.126 681.721 278.372 692V678.821H280.558C301.06 678.821 317.716 662.083 317.716 641.479ZM286.812 632.754C287.007 633.187 287.353 633.534 287.784 633.731L299.231 638.96C300.76 639.658 300.76 641.836 299.231 642.535L287.784 647.763C287.353 647.96 287.007 648.307 286.812 648.74L281.614 660.231C280.919 661.768 278.74 661.768 278.044 660.231L272.847 648.74C272.651 648.307 272.306 647.96 271.875 647.763L260.428 642.535C258.898 641.836 258.898 639.658 260.428 638.96L271.875 633.731C272.306 633.534 272.651 633.187 272.847 632.754L278.044 621.263C278.74 619.726 280.919 619.726 281.614 621.263L286.812 632.754Z" fill="#F7F0F5"/>
<defs>
<linearGradient id="paint0_linear_810_857" x1="0" y1="0" x2="812" y2="812" gradientUnits="userSpaceOnUse">
<stop stop-color="#EE4266"/>
<stop offset="1" stop-color="#CD3A59"/>
</linearGradient>
</defs>
</svg>
