<svg width="812" height="812" viewBox="0 0 812 812" fill="none" xmlns="http://www.w3.org/2000/svg">
<rect width="812" height="812" rx="100" fill="url(#paint0_linear_1435_1552)"/>
<path d="M493.811 143.54C400.299 129.696 313.579 156.861 264.602 217.984C225.291 266.961 221.634 323.774 220.981 333.046C217.193 399.002 246.579 446.411 256.766 461.3C260.815 451.896 266.823 440.272 275.704 428.126C284.323 416.241 293.204 407.099 300.649 400.308C295.294 388.814 286.674 365.959 288.111 336.703C288.111 336.703 289.548 294.126 316.974 260.039C349.625 219.29 411.792 200.875 479.575 209.495C476.441 202.442 474.612 194.606 474.612 186.247C474.612 169.269 482.057 153.988 493.68 143.54H493.811ZM575.699 351.2C542.265 339.446 455.022 317.243 369.607 363.347C348.45 374.709 329.12 389.598 312.142 407.36C312.142 407.36 312.142 407.36 311.881 407.621C280.928 438.575 261.468 484.025 260.031 487.159C237.829 539.793 237.437 592.165 237.959 611.103C248.146 601.83 261.729 596.083 276.618 596.083C286.936 596.083 296.731 598.826 305.089 603.658C304.959 593.341 305.351 580.019 307.701 564.608C311.75 538.226 319.586 519.157 321.807 513.672C326.639 502.048 336.695 478.931 358.637 455.814C377.052 436.354 395.336 425.906 401.475 422.51C446.141 397.957 493.027 402.267 510.528 404.618C500.08 416.894 474.09 443.799 431.644 455.423C409.572 461.43 390.112 461.43 376.529 460.255C369.999 465.871 362.685 473.315 355.372 482.719C345.707 495.257 339.569 507.272 335.52 516.806C357.2 523.337 398.601 532.479 447.316 520.725C544.485 497.346 588.368 411.017 595.028 397.434L611.354 363.608L575.83 351.2H575.699Z" fill="#F7F0F5"/>
<path d="M527.247 148.4C547.883 145.266 567.212 159.501 570.346 180.006C573.481 200.642 559.245 219.971 538.61 223.106C517.974 226.24 498.645 212.004 495.511 191.369C492.376 170.733 506.612 151.535 527.247 148.4ZM549.058 165.64C548.927 164.464 547.752 163.942 546.576 164.726C539.654 169.689 532.733 174.521 525.811 179.353C525.288 179.745 525.027 180.137 524.766 180.659C522.284 188.626 519.672 196.593 517.06 204.56C516.799 205.605 516.799 206.258 517.452 206.649C518.105 207.172 518.758 206.911 519.542 206.388C526.333 201.556 533.255 196.724 540.046 191.891C540.569 191.499 540.961 191.108 541.091 190.455C543.703 182.488 546.185 174.521 548.797 166.554C548.797 166.293 549.058 165.901 548.927 165.509L549.058 165.64Z" fill="#2ADBD6"/>
<path d="M535.867 185.736C535.867 184.169 534.561 182.863 532.993 182.863C531.426 182.863 530.12 184.169 530.12 185.736C530.12 187.304 531.426 188.61 532.993 188.61C534.561 188.61 535.867 187.304 535.867 185.736Z" fill="#2ADBD6"/>
<path d="M240.965 640.501C248.54 621.041 270.481 611.376 289.941 618.951C309.401 626.526 319.066 648.468 311.491 667.928C303.916 687.388 281.844 697.052 262.515 689.347C243.055 681.772 233.521 659.83 241.096 640.37L240.965 640.501ZM266.694 630.444C265.518 630.052 264.604 630.836 264.735 632.142C265.518 640.631 266.302 648.99 267.086 657.479C267.086 658.132 267.347 658.524 267.739 659.047C273.355 665.185 278.971 671.454 284.587 677.592C285.24 678.376 285.893 678.637 286.546 678.245C287.329 677.854 287.46 677.201 287.329 676.417C286.546 668.058 285.762 659.7 284.978 651.341C284.978 650.688 284.717 650.166 284.325 649.643C278.709 643.374 273.093 637.236 267.477 630.967C267.216 630.706 267.086 630.444 266.694 630.314V630.444Z" fill="#2ADBD6"/>
<path d="M277.665 651.739C276.229 650.955 274.531 651.347 273.616 652.784C272.833 654.22 273.225 655.918 274.661 656.832C276.098 657.616 277.796 657.224 278.71 655.788C279.494 654.351 279.102 652.653 277.665 651.739Z" fill="#2ADBD6"/>
<defs>
<linearGradient id="paint0_linear_1435_1552" x1="1.99551e-05" y1="8.30314" x2="965.751" y2="307.624" gradientUnits="userSpaceOnUse">
<stop stop-color="#142D38"/>
<stop offset="1" stop-color="#0B1220" stop-opacity="0.95"/>
</linearGradient>
</defs>
</svg>
