<svg width="812" height="812" viewBox="0 0 812 812" fill="none" xmlns="http://www.w3.org/2000/svg">
<rect width="812" height="812" rx="100" fill="url(#paint0_linear_1210_5579)"/>
<path fill-rule="evenodd" clip-rule="evenodd" d="M369.823 363.001C454.945 316.974 541.784 339.16 575.14 350.857L610.528 363.203L594.284 397.041C587.68 410.594 543.993 496.856 447.158 520.16C398.718 531.835 357.485 522.799 335.82 516.224C339.836 506.697 345.994 494.642 355.566 482.162C362.795 472.747 370.18 465.344 376.651 459.708C390.15 460.938 409.517 460.983 431.561 454.944C473.865 443.337 499.725 416.521 510.19 404.22C492.808 401.805 446.131 397.578 401.596 422.045C395.505 425.4 377.276 435.844 358.935 455.257C337.091 478.405 327.14 501.508 322.276 513.093C319.956 518.595 312.258 537.605 308.175 563.951C305.787 579.338 305.341 592.69 305.52 602.956C297.153 598.147 287.469 595.396 277.161 595.396C262.323 595.396 248.802 601.099 238.628 610.381C238.181 591.527 238.516 539.171 260.672 486.635C262.011 483.437 281.512 438.081 312.303 407.15L312.503 406.949C329.438 389.28 348.738 374.408 369.823 363.001Z" fill="#F7F0F5"/>
<path d="M552.902 213.516C551.811 213.225 550.866 212.898 549.885 212.753C543.705 211.807 538.216 216.024 537.053 222.676C536.871 223.621 536.58 223.912 535.671 223.949C524.475 224.53 514.806 221.04 506.664 213.334C501.102 208.063 497.467 201.593 495.867 194.141C493.868 184.762 495.177 175.82 499.83 167.423C504.773 158.517 512.262 152.592 521.895 149.611C532.509 146.303 542.76 147.648 552.32 153.283C562.317 159.172 568.751 167.75 570.786 179.346C571.586 183.926 571.441 188.543 570.495 193.159C570.386 193.777 570.132 193.959 569.55 193.85C559.409 192.069 549.594 201.884 552.793 212.934C552.829 213.08 552.829 213.225 552.902 213.516ZM540.688 180.182C540.652 183.308 543.16 185.889 546.322 185.962C549.448 186.035 552.029 183.49 552.066 180.364C552.102 177.238 549.594 174.621 546.468 174.548C543.451 174.475 540.724 177.129 540.688 180.182ZM527.384 178.328C530.546 178.328 533.054 175.784 533.054 172.621C533.054 169.495 530.473 166.951 527.347 166.951C524.221 166.951 521.604 169.604 521.64 172.658C521.676 175.747 524.294 178.328 527.384 178.328ZM531.273 197.522C531.346 192.105 527.202 187.816 521.786 187.707C516.369 187.598 512.044 191.814 511.971 197.194C511.934 202.538 516.224 207.045 521.458 207.118C526.657 207.191 531.164 202.756 531.237 197.522H531.273Z" fill="#F7F0F5"/>
<path d="M257.452 681.505C258.542 681.214 259.487 680.887 260.469 680.742C266.648 679.797 272.137 684.013 273.301 690.666C273.482 691.611 273.773 691.901 274.682 691.938C285.878 692.519 295.547 689.03 303.69 681.323C309.251 676.053 312.887 669.582 314.486 662.13C316.485 652.752 315.177 643.809 310.524 635.412C305.58 626.506 298.092 620.581 288.459 617.601C277.844 614.293 267.594 615.638 258.033 621.272C248.037 627.161 241.603 635.74 239.567 647.335C238.767 651.916 238.913 656.532 239.858 661.149C239.967 661.767 240.221 661.948 240.803 661.839C250.945 660.058 260.76 669.873 257.561 680.924C257.524 681.069 257.524 681.214 257.452 681.505ZM269.666 648.172C269.702 651.298 267.194 653.879 264.031 653.951C260.905 654.024 258.324 651.479 258.288 648.353C258.251 645.227 260.76 642.61 263.886 642.537C266.903 642.464 269.629 645.118 269.666 648.172ZM282.97 646.318C279.807 646.318 277.299 643.773 277.299 640.611C277.299 637.484 279.88 634.94 283.006 634.94C286.132 634.94 288.75 637.593 288.713 640.647C288.677 643.737 286.06 646.318 282.97 646.318ZM279.08 665.511C279.008 660.095 283.152 655.805 288.568 655.696C293.984 655.587 298.31 659.804 298.383 665.184C298.419 670.527 294.13 675.035 288.895 675.107C283.697 675.18 279.189 670.745 279.117 665.511H279.08Z" fill="#F7F0F5"/>
<path d="M265.202 217.828C314.021 156.862 400.393 129.711 493.613 143.532C481.935 154.02 474.58 169.241 474.58 186.159C474.58 194.412 476.321 202.24 479.467 209.33C411.95 200.674 350.011 219.103 317.435 259.785C290.125 293.892 288.675 336.363 288.675 336.363C287.202 365.661 295.792 388.406 301.103 399.924C293.606 406.701 284.77 415.848 276.225 427.724C267.456 439.868 261.499 451.431 257.415 460.847C247.353 446.041 218.034 398.717 221.805 332.785C222.341 323.503 226 266.763 265.202 217.828Z" fill="#F7F0F5"/>
<defs>
<linearGradient id="paint0_linear_1210_5579" x1="0" y1="0" x2="812" y2="812" gradientUnits="userSpaceOnUse">
<stop offset="0.353972" stop-color="#D79F56"/>
<stop offset="1" stop-color="#B57F39"/>
</linearGradient>
</defs>
</svg>
