<svg viewBox="0 0 520 520" fill="none" overflow="visible" xmlns="http://www.w3.org/2000/svg">
  <!-- Figma "Hero Section Main Idle" — Group 78 — exact paths & positions -->

  <!-- V7 top-left -->
  <g transform="translate(36.612, 36.458)">
    <path d="M87.3271 1.84821C51.6722 23.709 22.7296 53.4109 1.8663 87.5389C-2.33894 94.1481 0.901006 103.176 8.19496 106.061L131.295 153.862C137.772 145.373 145.117 137.739 153.846 131.127L106.097 8.20426C103.026 1.03173 94.1033 -2.38196 87.3271 1.84821Z" fill="#39DC8E"/>
  </g>

  <!-- V6 top -->
  <g transform="translate(189.714, 0)">
    <path d="M9.71251 7.02818C2.14525 8.9431 -1.89127 17.408 0.871688 24.7377L54.1796 145.749C64.9269 144.374 75.5122 144.378 86.1945 145.844L139.433 24.9931C142.55 17.7732 138.386 9.21626 130.789 7.26258C91.6496 -2.11007 50.4105 -2.64574 9.71251 7.02818Z" fill="#39DC8E"/>
  </g>

  <!-- V5 top-right -->
  <g transform="translate(329.086, 36.558)">
    <path d="M55.9353 0.955077C52.4629 2.14229 49.543 4.79543 47.8679 8.36757L0 131.46C8.48179 137.938 16.1094 145.284 22.7146 154.015L146.006 106.117C153.177 103.045 156.592 94.1202 152.363 87.3434C130.51 51.6853 100.816 22.7414 66.6959 1.87865C63.2757 -0.261731 59.4833 -0.464845 56.0109 0.722369L55.9353 0.955077Z" fill="#39DC8E"/>
  </g>

  <!-- V4 right -->
  <g transform="translate(374.137, 189.706)">
    <path d="M0.107178 54.1703C1.47765 64.9227 1.46997 75.5136 0 86.2019L120.866 139.456C128.084 142.573 136.64 138.407 138.594 130.809C147.97 91.662 148.51 50.4161 138.842 9.71262C136.929 2.14435 128.466 -1.89187 121.137 0.872377L0.107178 54.1703Z" fill="#39DC8E"/>
  </g>

  <!-- V3 bottom-right -->
  <g transform="translate(329.355, 329.387)">
    <path d="M22.5515 0C16.0738 8.48861 8.72916 16.123 0 22.7348L47.9243 145.996C50.9956 153.168 59.9181 156.582 66.6943 152.352C102.349 130.491 131.292 100.789 152.155 66.6612C156.36 60.052 153.12 51.0237 145.826 48.1392L22.7262 0.343079L22.5515 0Z" fill="#39DC8E"/>
  </g>

  <!-- V2 bottom -->
  <g transform="translate(189.796, 374.155)">
    <path d="M1.04235 120.852L54.2798 0C64.9621 1.46674 75.5474 1.47048 86.2947 0.0952759L139.603 121.107C142.366 128.437 138.33 136.902 130.763 138.816C90.0646 148.49 48.8255 147.955 9.68597 138.582C2.08956 136.628 -2.07519 128.071 1.04235 120.852Z" fill="#39DC8E"/>
  </g>

  <!-- V1 bottom-left -->
  <g transform="translate(36.425, 329.676)">
    <path d="M1.84718 66.4894C-2.38154 59.7126 1.03262 50.7882 8.20434 47.7156L7.89608 47.8727L131.122 0C137.727 8.73121 145.355 16.0768 153.836 22.5547L106.034 145.622C103.149 152.918 94.1218 156.159 87.5142 151.954C53.3942 131.091 23.7004 102.148 1.84718 66.4894Z" fill="#39DC8E"/>
  </g>

  <!-- V0 left -->
  <g transform="translate(0, 189.867)">
    <path d="M7.26843 9.60154C8.24554 5.80261 10.7757 2.76558 14.0911 1.27006C17.4065 -0.22546 21.3501 -0.487779 24.997 0.954476L145.863 54.2064C144.393 64.8947 144.386 75.4856 145.756 86.238L24.7258 139.538C17.397 142.302 8.93392 138.266 7.02017 130.698C-2.6475 89.9943 -2.1072 48.7485 7.26843 9.60154Z" fill="#39DC8E"/>
  </g>

  <!-- Center -->
  <g transform="translate(200.679, 201.484)">
    <path d="M41.5231 117.237C73.0762 127.49 106.967 110.218 117.221 78.66C127.475 47.1021 110.208 13.2082 78.6553 2.95596C47.1022 -7.29631 13.211 9.97533 2.95721 41.5333C-7.29654 73.0912 9.97001 106.985 41.5231 117.237Z" fill="#39DC8E"/>
  </g>
</svg>
