<svg width="1023" height="477" viewBox="0 0 1023 477" fill="none" xmlns="http://www.w3.org/2000/svg">
<path fill-rule="evenodd" clip-rule="evenodd" d="M814.696 192.318C888.106 152.623 962.996 171.757 991.764 181.845L1022.28 192.491L1008.27 221.674C1002.58 233.362 964.901 307.756 881.39 327.854C839.615 337.922 804.055 330.13 785.371 324.459C788.835 316.242 794.145 305.846 802.4 295.084C808.635 286.963 815.004 280.579 820.584 275.719C832.226 276.779 848.928 276.818 867.94 271.61C904.423 261.6 926.725 238.474 935.749 227.865C920.76 225.782 880.505 222.137 842.097 243.238C836.844 246.131 821.123 255.138 805.306 271.88C786.468 291.843 777.886 311.768 773.691 321.759C771.69 326.504 765.051 342.898 761.53 365.619C759.471 378.889 759.086 390.404 759.24 399.258C752.024 395.111 743.673 392.738 734.783 392.738C721.987 392.738 710.326 397.657 701.552 405.661C701.167 389.401 701.455 344.248 720.563 298.941C721.718 296.183 738.535 257.067 765.09 230.392L765.263 230.219C779.868 214.981 796.512 202.155 814.696 192.318Z" fill="#F7F0F5"/>
<path d="M955.467 6.7478C937.332 6.7478 922.62 21.4601 922.62 39.5954C922.62 57.7307 937.332 72.443 955.467 72.443C973.603 72.443 988.315 57.7307 988.315 39.5954C988.315 21.4601 973.603 6.7478 955.467 6.7478ZM953.756 58.9485V45.3223H945.001C943.783 45.3223 942.96 44.0058 943.553 42.9197L955.665 19.3207C956.422 17.7738 958.759 18.3333 958.759 20.0777V33.8685H967.119C968.337 33.8685 969.126 35.1521 968.6 36.2382L956.883 59.6726C956.093 61.2524 953.756 60.6929 953.756 58.9485V58.9485Z" fill="#008CFF"/>
<path d="M734.76 410.356C716.624 410.356 701.912 425.069 701.912 443.204C701.912 461.339 716.624 476.052 734.76 476.052C752.895 476.052 767.607 461.339 767.607 443.204C767.607 425.069 752.895 410.356 734.76 410.356ZM733.048 462.557V448.931H724.293C723.076 448.931 722.253 447.614 722.845 446.528L734.957 422.929C735.714 421.382 738.051 421.942 738.051 423.686V437.477H746.411C747.629 437.477 748.419 438.761 747.892 439.847L736.175 463.281C735.385 464.861 733.048 464.302 733.048 462.557V462.557Z" fill="#008CFF"/>
<path d="M724.469 67.1201C766.57 14.5418 841.058 -8.87346 921.452 3.04579C911.381 12.0912 905.038 25.2178 905.038 39.8085C905.038 46.9257 906.539 53.6765 909.252 59.7907C851.025 52.3263 797.608 68.2196 769.515 103.304C745.962 132.718 744.711 169.346 744.711 169.346C743.441 194.613 750.85 214.229 755.429 224.162C748.964 230.006 741.344 237.895 733.974 248.137C726.412 258.61 721.274 268.582 717.753 276.702C709.075 263.934 683.79 223.121 687.042 166.26C687.504 158.255 690.66 109.322 724.469 67.1201Z" fill="#F7F0F5"/>
<path d="M45.1503 121.913H68.2098V31.9993C65.6353 33.5772 62.5903 34.4907 59.3514 34.4907C55.6973 34.4907 52.3477 33.3558 49.5795 31.418H43.8492C41.0809 33.3558 37.7313 34.4907 34.1049 34.4907C32.6377 34.4907 31.2259 34.297 29.8418 33.9648C23.6963 36.1794 18.1321 39.7505 13.2046 44.7057C4.42921 53.5088 0 64.222 0 76.5961C0 88.9703 4.42921 99.8219 13.2046 108.625C21.98 117.456 32.7208 121.913 45.1503 121.913ZM23.9454 55.585C29.8972 49.6332 36.8455 46.7542 45.1779 46.7542H53.1505V106.66H44.3198C36.3472 106.66 29.7034 103.891 23.9731 98.1609C17.9937 92.2645 15.087 85.2885 15.087 76.8453C15.087 68.402 17.966 61.5367 23.9177 55.585H23.9454Z" fill="#F7F0F5"/>
<path d="M105.056 124.345V121.909H280.37C282.584 123.597 285.076 125.12 287.761 126.476C292.799 128.996 298.197 130.297 303.761 130.297C309.326 130.297 314.613 129.023 319.762 126.476C322.447 125.12 324.911 123.597 327.015 121.909H521.263V0.187988H506.038V106.656H484.501V73.8793C484.501 61.6159 480.016 50.9304 471.213 42.1273C462.41 33.3242 451.669 28.8396 439.323 28.8396C426.977 28.8396 415.793 33.6287 406.381 43.0408L404.609 44.8125L415.239 55.4426L417.038 53.6986C423.71 47.1102 430.991 43.9266 439.351 43.9266C447.711 43.9266 454.659 46.778 460.611 52.7021C466.563 58.5985 469.442 65.5192 469.442 73.8793V106.656H459.448C462.936 101.368 464.68 95.1396 464.68 88.0529C464.68 78.0871 461.22 69.8653 454.355 63.4983C447.572 57.3251 440.347 54.1969 432.818 54.1969C425.288 54.1969 418.09 57.3251 411.419 63.4983C404.471 69.8377 400.955 78.0871 400.955 88.0529C400.955 95.195 402.727 101.424 406.242 106.656H339.25C342.379 100.593 343.957 93.1188 343.957 84.3711C343.957 71.9969 340.136 61.2283 332.579 52.3976C328.87 48.0791 324.579 44.6741 319.734 42.2934C314.613 39.7742 309.215 38.5008 303.761 38.5008C298.308 38.5008 292.827 39.7742 287.761 42.3211C282.972 44.7018 278.626 48.0514 274.778 52.2868C267.248 61.2283 263.428 72.0246 263.428 84.3987C263.428 93.1742 265.006 100.621 268.134 106.683H105.084V32.8813C102.897 33.9055 100.488 34.4592 97.9139 34.4592C95.0626 34.4592 92.3774 33.7671 90.0244 32.5214V124.345C90.0244 127.833 88.4742 130.823 85.3184 133.425C82.4671 135.667 78.6469 137.134 73.9685 137.716L71.7539 137.992V152.996L74.4668 152.775C82.6885 152.055 89.6368 149.453 95.1457 144.968C101.762 139.404 105.111 132.456 105.111 124.345H105.056ZM421.717 74.4607C425.565 71.028 429.302 69.284 432.818 69.284C436.333 69.284 440.153 71.028 443.974 74.4607C447.738 77.8656 449.593 82.3225 449.593 88.0529C449.593 93.7832 447.766 98.2401 444.057 101.645C440.818 104.552 437.136 106.185 432.845 106.656C428.554 106.185 424.956 104.579 421.745 101.645C417.924 98.2401 416.07 93.8109 416.07 88.0805C416.07 82.3502 417.924 77.8933 421.745 74.4883L421.717 74.4607ZM286.128 62.391C291.138 56.4392 296.924 53.5602 303.761 53.5602C310.599 53.5602 316.219 56.4392 321.257 62.391C326.323 68.3705 328.87 75.7617 328.87 84.3711C328.87 88.5788 328.15 92.6482 326.766 96.4684C325.354 100.289 323.499 103.611 321.229 106.351C318.987 109.064 316.302 111.223 313.229 112.801C310.184 114.351 306.973 115.154 303.595 115.154C299.194 115.154 295.152 113.853 291.387 111.14C287.539 108.427 284.384 104.662 282.058 99.9564C279.678 95.2504 278.487 89.9907 278.487 84.3434C278.487 75.7341 281.062 68.3428 286.128 62.3633V62.391Z" fill="#F7F0F5"/>
<path d="M551.156 0.187988H536.069V121.881H551.156V0.187988Z" fill="#F7F0F5"/>
<path d="M51.4619 191.751H45.1503C44.5966 191.751 44.043 191.751 43.517 191.779C40.9979 193.274 38.0358 194.132 34.9077 194.132C33.7174 194.132 32.5824 194.021 31.4751 193.772C24.6928 195.876 18.575 199.641 13.2323 205.039C4.45689 213.842 0 224.583 0 236.929C0 249.276 4.42921 260.155 13.2046 268.958C21.98 277.761 32.7208 282.246 45.1503 282.246H68.2098V192.084C65.8014 193.385 63.0609 194.104 60.1265 194.104C56.943 194.104 53.981 193.246 51.4619 191.724V191.751ZM53.1505 267.021H44.3198C36.3472 267.021 29.7034 264.252 23.9731 258.522C17.9937 252.626 15.087 245.65 15.087 237.179C15.087 228.708 17.966 221.87 23.9177 215.918C29.8695 209.967 36.8178 207.088 45.1503 207.088H53.1228V266.993L53.1505 267.021Z" fill="#F7F0F5"/>
<path d="M101.317 284.682C101.317 288.197 99.7663 291.187 96.6105 293.789C93.7592 296.032 89.939 297.499 85.2606 298.08L83.0737 298.357V313.361L85.7866 313.14C94.0083 312.42 100.957 309.818 106.465 305.333C113.082 299.741 116.431 292.82 116.431 284.709V191.751H101.344V284.709L101.317 284.682Z" fill="#F7F0F5"/>
<path d="M506.036 160.552V267.02H470.796C473.924 260.957 475.502 253.483 475.502 244.735C475.502 232.361 471.682 221.62 464.124 212.762C460.415 208.471 456.124 205.066 451.28 202.657C446.158 200.138 440.76 198.865 435.307 198.865C429.853 198.865 424.344 200.138 419.306 202.685C414.489 205.093 410.171 208.415 406.323 212.679C398.793 221.62 394.946 232.416 394.946 244.763C394.946 253.538 396.523 261.013 399.652 267.047H364.412V196.456C361.477 195.598 358.847 193.965 356.799 191.778H356.411C354.446 193.854 351.982 195.46 349.186 196.346V267.047H318.791V234.686C318.791 222.257 314.306 211.488 305.503 202.713C296.7 193.937 285.932 189.508 273.474 189.508C261.931 189.508 251.799 193.384 243.384 201.052V160.58H228.297V265.165C228.297 266.162 228.186 266.743 228.075 267.047H199.451V191.778H176.392C163.935 191.778 153.194 196.263 144.446 205.066C135.671 213.869 131.241 224.61 131.241 236.956C131.241 249.303 135.671 260.182 144.446 268.985C153.221 277.788 163.962 282.273 176.392 282.273H184.364V284.709C184.364 288.197 182.759 291.214 179.492 293.872C176.06 296.696 171.935 298.052 166.897 298.052C163.685 298.052 160.723 297.415 158.066 296.17C155.408 294.924 153.249 293.235 151.644 291.131L147.159 285.152L135.062 294.259L139.574 300.267C142.73 304.364 146.771 307.547 151.533 309.789C156.294 312.032 161.471 313.139 166.897 313.139C175.589 313.139 183.174 310.509 189.486 305.333C196.102 299.741 199.451 292.82 199.451 284.709V282.273H411.915C414.13 283.961 416.621 285.484 419.306 286.813C424.344 289.332 429.743 290.633 435.307 290.633C440.871 290.633 446.131 289.36 451.307 286.813C453.992 285.484 456.456 283.934 458.588 282.273H521.289V160.58H506.063L506.008 160.635L506.036 160.552ZM184.364 267.02H175.534C167.561 267.02 160.917 264.251 155.187 258.521C149.207 252.625 146.301 245.649 146.301 237.178C146.301 228.707 149.18 221.869 155.132 215.917C161.083 209.966 168.032 207.087 176.364 207.087H184.337V266.992L184.364 267.02ZM303.676 266.992H243.356V234.631C243.356 229.15 244.712 224.056 247.397 219.461C250.083 214.838 253.792 211.184 258.387 208.526C262.983 205.869 268.076 204.54 273.585 204.54C281.945 204.54 288.894 207.391 294.845 213.315C300.769 219.212 303.676 226.188 303.676 234.631V266.992ZM458.283 256.832C456.871 260.653 455.017 263.975 452.747 266.715C450.504 269.428 447.819 271.587 444.746 273.165C441.701 274.715 438.462 275.518 435.113 275.518C430.711 275.518 426.697 274.189 422.877 271.504C419.029 268.791 415.901 265.027 413.548 260.32C411.195 255.587 410.005 250.327 410.005 244.707C410.005 236.098 412.552 228.707 417.618 222.727C422.628 216.776 428.414 213.924 435.279 213.924C442.144 213.924 447.736 216.803 452.774 222.727C457.84 228.707 460.387 236.098 460.387 244.707C460.387 248.915 459.667 253.012 458.283 256.805V256.832Z" fill="#F7F0F5"/>
<path d="M551.156 160.552H536.069V282.273H551.156V160.552Z" fill="#F7F0F5"/>
<path d="M97.8842 27.4265C103.421 27.4265 107.933 22.9142 107.933 17.3777C107.933 11.8411 103.448 7.32886 97.8842 7.32886C92.32 7.32886 87.8354 11.8411 87.8354 17.3777C87.8354 22.9142 92.3477 27.4265 97.8842 27.4265Z" fill="#008CFF"/>
<path d="M34.1 27.4265C37.9479 27.4265 41.2698 25.2672 42.9585 22.1114C43.7059 20.6996 44.1488 19.094 44.1488 17.3777C44.1488 15.6613 43.7336 14.0558 42.9585 12.6439C41.2698 9.48811 37.9479 7.32886 34.1 7.32886C28.5635 7.32886 24.0513 11.8411 24.0513 17.3777C24.0513 22.9142 28.5635 27.4265 34.1 27.4265Z" fill="#F7F0F5"/>
<path d="M59.3752 27.4265C64.9117 27.4265 69.424 22.9142 69.424 17.3777C69.424 11.8411 64.9117 7.32886 59.3752 7.32886C55.5273 7.32886 52.2054 9.48811 50.5168 12.6439C49.7693 14.0558 49.3264 15.6613 49.3264 17.3777C49.3264 19.094 49.7417 20.6996 50.5168 22.1114C52.2054 25.2672 55.5273 27.4265 59.3752 27.4265Z" fill="#F7F0F5"/>
<path d="M34.8776 166.944C29.3411 166.944 24.8289 171.457 24.8289 176.993C24.8289 182.53 29.3411 187.042 34.8776 187.042C38.7255 187.042 42.0474 184.883 43.736 181.755C44.4835 180.343 44.9264 178.709 44.9264 177.021C44.9264 176.938 44.9264 176.855 44.9264 176.799C44.8987 175.166 44.4835 173.616 43.736 172.232C42.0474 169.076 38.6978 166.944 34.8776 166.944Z" fill="#F7F0F5"/>
<path d="M60.1271 167C56.2793 167 52.9574 169.159 51.2687 172.287C50.5213 173.699 50.0784 175.332 50.0784 177.021C50.0784 178.709 50.4936 180.343 51.2687 181.755C52.9574 184.91 56.3069 187.042 60.1271 187.042C65.6636 187.042 70.1759 182.557 70.1759 176.993C70.1759 171.457 65.6636 166.944 60.1271 166.944V167Z" fill="#F7F0F5"/>
<path d="M343.954 169.966C338.39 169.966 333.906 174.479 333.906 180.015C333.906 185.552 338.39 190.064 343.954 190.064C347.802 190.064 351.124 187.905 352.813 184.777C353.56 183.365 354.003 181.731 354.003 180.043C354.003 178.354 353.588 176.721 352.813 175.309C351.124 172.126 347.774 169.994 343.954 169.994V169.966Z" fill="#F7F0F5"/>
<path d="M360.345 175.305C359.598 176.717 359.155 178.323 359.155 180.039C359.155 181.755 359.57 183.361 360.345 184.773C362.034 187.929 365.383 190.088 369.204 190.088C374.74 190.088 379.252 185.576 379.252 180.039C379.252 174.503 374.74 169.99 369.204 169.99C365.383 169.99 362.034 172.149 360.345 175.305Z" fill="#F7F0F5"/>
<path d="M275.194 374.09C276.606 373.231 278.211 372.816 280.011 372.816C281.284 372.816 282.475 372.982 283.582 373.314C284.689 373.647 286.073 374.339 287.734 375.363L290.475 372.29C287.264 369.826 283.803 368.608 280.038 368.608C276.274 368.608 272.979 369.937 270.377 372.595C267.997 375.114 266.806 378.076 266.806 381.426C266.806 385.024 268.19 387.959 270.959 390.256C271.208 390.45 270.959 390.284 270.239 389.786H263.789V394.049H290.336V389.786H281.367V389.73C278.211 389.564 275.609 388.651 273.588 386.99C271.844 385.523 270.986 383.668 270.986 381.426C270.986 380.014 271.346 378.63 272.038 377.328C272.73 376.027 273.782 374.948 275.222 374.09H275.194Z" fill="#008CFF"/>
<path d="M365.324 398.786H360.645V404.184H365.324V398.786Z" fill="#008CFF"/>
<path d="M369.423 389.762H363.499H361.119H355.471H352.509H347.471H316.826H311.179H308.826H302.819V345.22H298.611V394.052H308.826H311.179H316.826H347.471H352.509H355.471H361.119H363.499H373.631V358.286H369.423V389.762Z" fill="#008CFF"/>
<path d="M546.899 345.22V389.762H532.006V345.22H527.743V389.762H512.905V382.398C512.905 377.499 511.133 373.291 507.617 369.83C504.213 366.425 500.116 364.681 495.326 364.598H491.423L507.036 350.48L507.341 344.362L485.997 363.823V368.806H495.382C498.981 368.889 502.081 370.218 504.683 372.792C507.368 375.45 508.725 378.633 508.725 382.398V389.762H471.104V374.979C471.104 370.107 469.36 365.927 465.845 362.439C462.329 358.951 458.149 357.179 453.249 357.179C448.349 357.179 443.948 359.062 440.21 362.827L443.172 365.789C446.135 362.854 449.512 361.387 453.249 361.387C456.986 361.387 460.225 362.716 462.883 365.373C465.54 368.031 466.896 371.215 466.896 374.979V389.762H459.727C458.924 390.343 458.619 390.592 458.785 390.482C461.471 388.018 462.827 384.834 462.827 380.931C462.827 377.028 461.498 373.9 458.841 371.436C456.183 369.028 453.415 367.81 450.536 367.81C447.657 367.81 444.889 369.028 442.287 371.436C439.601 373.9 438.245 377.056 438.245 380.931C438.245 384.807 439.601 388.018 442.287 390.426C442.397 390.592 442.093 390.371 441.345 389.762H389.108V358.259H384.901V396.101C384.901 397.873 384.098 399.423 382.52 400.724C381.164 401.804 379.42 402.468 377.233 402.745V406.953C380.472 406.676 383.157 405.679 385.288 403.935C387.807 401.804 389.081 399.202 389.081 396.101V394.025H551.19V345.193H546.927L546.899 345.22ZM455.906 387.409C454.356 388.793 452.557 389.596 450.508 389.79C448.46 389.596 446.661 388.793 445.166 387.409C443.339 385.776 442.425 383.644 442.425 380.931C442.425 378.218 443.339 376.087 445.166 374.453C446.993 372.82 448.764 372.017 450.508 372.017C452.252 372.017 454.079 372.82 455.879 374.453C457.678 376.087 458.592 378.218 458.592 380.931C458.592 383.644 457.706 385.776 455.934 387.409H455.906Z" fill="#008CFF"/>
</svg>
