<svg width="390" height="552" viewBox="0 0 390 552" fill="none" xmlns="http://www.w3.org/2000/svg">
<path fill-rule="evenodd" clip-rule="evenodd" d="M148.351 223.003C233.472 176.975 320.311 199.162 353.668 210.859L389.055 223.204L372.812 257.043C366.207 270.596 322.52 356.858 225.685 380.163C177.245 391.838 136.012 382.802 114.347 376.227C118.363 366.699 124.522 354.644 134.094 342.164C141.323 332.749 148.708 325.346 155.179 319.71C168.677 320.94 188.044 320.985 210.089 314.946C252.393 303.339 278.253 276.523 288.717 264.222C271.336 261.806 224.659 257.579 180.124 282.047C174.032 285.402 155.803 295.846 137.463 315.259C115.619 338.407 105.668 361.51 100.804 373.096C98.4832 378.597 90.7855 397.608 86.7024 423.954C84.315 439.341 83.8687 452.693 84.0472 462.959C75.6802 458.15 65.9967 455.399 55.6884 455.399C40.8508 455.399 27.3296 461.102 17.1552 470.384C16.709 451.53 17.0436 399.173 39.1997 346.638C40.5384 343.439 60.0393 298.083 90.8301 267.152L91.031 266.95C107.966 249.282 127.266 234.409 148.351 223.003Z" fill="#F7F0F5"/>
<path d="M311.578 7.83081C290.549 7.83081 273.49 24.8904 273.49 45.9191C273.49 66.9478 290.549 84.0074 311.578 84.0074C332.607 84.0074 349.666 66.9478 349.666 45.9191C349.666 24.8904 332.607 7.83081 311.578 7.83081ZM309.593 68.3599V52.5597H299.442C298.03 52.5597 297.075 51.0331 297.762 49.7737L311.807 22.4097C312.685 20.616 315.394 21.2648 315.394 23.2875V39.2784H325.088C326.5 39.2784 327.416 40.7669 326.806 42.0263L313.219 69.1995C312.303 71.0314 309.593 70.3826 309.593 68.3599V68.3599Z" fill="#008CFF"/>
<path d="M55.6637 475.823C34.635 475.823 17.5754 492.883 17.5754 513.912C17.5754 534.94 34.635 552 55.6637 552C76.6924 552 93.752 534.94 93.752 513.912C93.752 492.883 76.6924 475.823 55.6637 475.823ZM53.6791 536.352V520.552H43.5274C42.1153 520.552 41.1612 519.026 41.8481 517.766L55.8927 490.402C56.7705 488.608 59.4802 489.257 59.4802 491.28V507.271H69.174C70.5861 507.271 71.502 508.759 70.8914 510.019L57.3048 537.192C56.3888 539.024 53.6791 538.375 53.6791 536.352V536.352Z" fill="#008CFF"/>
<path d="M43.7299 77.8288C92.5487 16.8619 178.921 -10.2892 272.14 3.53173C260.463 14.0203 253.108 29.2412 253.108 46.1597C253.108 54.4125 254.848 62.2403 257.994 69.3301C190.477 60.6747 128.539 79.1037 95.9628 119.786C68.6527 153.893 67.2024 196.364 67.2024 196.364C65.7298 225.663 74.32 248.408 79.6303 259.926C72.1334 266.703 63.2978 275.85 54.7522 287.726C45.9835 299.87 40.0261 311.433 35.943 320.849C25.8802 306.043 -3.43808 258.718 0.332686 192.786C0.868179 183.504 4.52738 126.764 43.7299 77.8288Z" fill="#F7F0F5"/>
</svg>
