<svg width="846" height="405" viewBox="0 0 846 405" fill="none" xmlns="http://www.w3.org/2000/svg">
<path d="M762.157 2.52603C695.487 -7.35891 633.716 12.0591 598.801 55.6616C570.764 90.6588 568.147 131.238 567.764 137.876C565.067 185.03 586.035 218.875 593.232 229.464C596.152 222.73 600.413 214.46 606.684 205.775C612.796 197.282 619.115 190.74 624.476 185.893C620.679 177.656 614.535 161.389 615.588 140.435C615.588 140.435 616.625 110.061 636.157 85.6683C659.455 56.5733 703.753 43.3934 752.04 49.5835C749.79 44.513 748.546 38.9148 748.546 33.0126C748.546 20.9043 753.812 10.0117 762.173 2.51004L762.157 2.52603ZM820.466 150.8C796.61 142.435 734.503 126.568 673.625 159.485C658.546 167.643 644.742 178.28 632.631 190.916C632.631 190.916 632.551 190.996 632.487 191.06C610.466 213.181 596.519 245.619 595.561 247.906C579.716 285.478 579.476 322.923 579.795 336.407C587.072 329.769 596.742 325.69 607.354 325.69C614.726 325.69 621.652 327.657 627.636 331.096C627.508 323.755 627.827 314.206 629.535 303.201C632.455 284.359 637.96 270.763 639.62 266.828C643.099 258.543 650.216 242.02 665.838 225.465C678.955 211.581 691.992 204.112 696.349 201.712C728.2 184.214 761.583 187.237 774.014 188.964C766.53 197.762 748.035 216.94 717.78 225.241C702.014 229.56 688.163 229.528 678.508 228.648C673.881 232.679 668.599 237.973 663.429 244.707C656.583 253.632 652.179 262.254 649.306 269.068C664.801 273.77 694.29 280.232 728.934 271.883C798.189 255.216 829.434 193.523 834.157 183.83L845.774 159.629L820.466 150.784V150.8Z" fill="#F7F0F5"/>
<path fill-rule="evenodd" clip-rule="evenodd" d="M817.613 32.9834C817.613 17.8766 805.401 5.60498 790.369 5.60498C775.337 5.60498 763.125 17.8766 763.125 32.9834C763.125 47.4778 773.189 62.4882 788.766 70.0248V60.3618H790.369C805.401 60.3618 817.613 48.0902 817.613 32.9834ZM794.954 26.5863C795.098 26.9035 795.351 27.1578 795.667 27.3022L804.06 31.1359C805.181 31.6482 805.181 33.2449 804.06 33.7572L795.667 37.5909C795.351 37.7353 795.098 37.9896 794.954 38.3068L791.144 46.7319C790.634 47.8593 789.036 47.8593 788.526 46.7319L784.715 38.3068C784.572 37.9896 784.319 37.7353 784.003 37.5909L775.61 33.7572C774.488 33.2449 774.488 31.6482 775.61 31.1359L784.003 27.3022C784.319 27.1578 784.572 26.9035 784.715 26.5863L788.526 18.1613C789.036 17.0338 790.634 17.0338 791.144 18.1613L794.954 26.5863Z" fill="#EE4266"/>
<path fill-rule="evenodd" clip-rule="evenodd" d="M634.588 367.681C634.588 352.574 622.376 340.302 607.344 340.302C592.312 340.302 580.1 352.574 580.1 367.681C580.1 382.175 590.164 397.185 605.741 404.722V395.059H607.344C622.376 395.059 634.588 382.787 634.588 367.681ZM611.929 361.284C612.073 361.601 612.326 361.855 612.642 361.999L621.035 365.833C622.156 366.345 622.156 367.942 621.035 368.454L612.642 372.288C612.326 372.433 612.073 372.687 611.929 373.004L608.118 381.429C607.608 382.557 606.011 382.557 605.501 381.429L601.69 373.004C601.547 372.687 601.294 372.433 600.977 372.288L592.585 368.454C591.463 367.942 591.463 366.345 592.585 365.833L600.977 361.999C601.294 361.855 601.547 361.601 601.69 361.284L605.501 352.859C606.011 351.731 607.608 351.731 608.118 352.859L611.929 361.284Z" fill="#EE4266"/>
<g clip-path="url(#clip0_1482_2153)">
<path d="M37.4797 102.539H56.6218V27.9005C54.4847 29.2104 51.9799 29.9687 49.2683 29.9687C46.235 29.9687 43.4545 29.0265 41.1565 27.418H36.3997C34.1017 29.0265 31.3212 29.9687 28.3108 29.9687C27.0929 29.9687 25.921 29.8308 24.772 29.5321C19.6705 31.3705 15.0516 34.3349 10.9612 38.4482C3.67663 45.7558 -0.00012207 54.6489 -0.00012207 64.9208C-0.00012207 75.1927 3.67663 84.2008 10.9612 91.5083C18.2457 98.8388 27.1619 102.539 37.4797 102.539ZM19.8773 47.4792C24.8179 42.5386 30.5858 40.1487 37.5027 40.1487H44.1209V89.8767H36.7903C30.1722 89.8767 24.6571 87.5788 19.9003 82.822C14.9367 77.9273 12.5238 72.1364 12.5238 65.1276C12.5238 58.1188 14.9137 52.4199 19.8543 47.4792H19.8773Z" fill="#F7F0F5"/>
<path d="M87.2107 104.568V102.523H232.741C234.579 103.925 236.648 105.188 238.877 106.314C243.059 108.406 247.54 109.486 252.159 109.486C256.778 109.486 261.167 108.429 265.441 106.314C267.67 105.188 269.715 103.925 271.462 102.523H432.71V1.50415H420.071V89.884H402.193V62.6761C402.193 52.4961 398.471 43.6259 391.163 36.3184C383.855 29.0108 374.939 25.2881 364.69 25.2881C354.441 25.2881 345.158 29.2636 337.345 37.0767L335.874 38.5474L344.698 47.3716L346.192 45.9239C351.73 40.4547 357.774 37.812 364.713 37.812C371.653 37.812 377.421 40.179 382.362 45.0966C387.302 49.9913 389.692 55.7362 389.692 62.6761V89.884H381.397C384.292 85.4949 385.74 80.3245 385.74 74.4417C385.74 66.169 382.867 59.344 377.168 54.0587C371.538 48.9342 365.541 46.3375 359.29 46.3375C353.04 46.3375 347.065 48.9342 341.527 54.0587C335.759 59.321 332.841 66.169 332.841 74.4417C332.841 80.3704 334.311 85.5408 337.23 89.884H281.619C284.216 84.8515 285.525 78.6469 285.525 71.3854C285.525 61.1134 282.354 52.1743 276.081 44.8438C273.001 41.259 269.44 38.4325 265.418 36.4562C261.167 34.3651 256.686 33.308 252.159 33.308C247.632 33.308 243.082 34.3651 238.877 36.4792C234.901 38.4555 231.293 41.236 228.099 44.7519C221.849 52.1743 218.678 61.1364 218.678 71.4083C218.678 78.6929 219.987 84.8744 222.584 89.907H87.2337V28.6432C85.4183 29.4934 83.4191 29.953 81.282 29.953C78.9151 29.953 76.686 29.3785 74.7328 28.3444V104.568C74.7328 107.463 73.4459 109.945 70.8262 112.105C68.4593 113.967 65.2881 115.185 61.4045 115.667L59.5662 115.897V128.352L61.8182 128.168C68.6431 127.571 74.411 125.411 78.984 121.688C84.4761 117.069 87.2567 111.301 87.2567 104.568H87.2107ZM350.075 63.1586C353.269 60.3092 356.372 58.8614 359.29 58.8614C362.209 58.8614 365.38 60.3092 368.551 63.1586C371.676 65.9851 373.216 69.6849 373.216 74.4417C373.216 79.1985 371.722 82.8982 368.62 85.7247C365.931 88.1376 362.875 89.4933 359.313 89.884C355.751 89.4933 352.764 88.1605 350.098 85.7247C346.927 82.8982 345.387 79.2214 345.387 74.4646C345.387 69.7078 346.927 66.0081 350.098 63.1816L350.075 63.1586ZM237.521 53.1395C241.68 48.1989 246.483 45.809 252.159 45.809C257.835 45.809 262.5 48.1989 266.682 53.1395C270.887 58.1031 273.001 64.2387 273.001 71.3854C273.001 74.8783 272.404 78.2563 271.255 81.4505C270.083 84.6217 268.543 87.3792 266.659 89.6542C264.798 91.9062 262.569 93.6986 260.018 95.0085C257.49 96.2953 254.802 96.9617 252.021 96.9617C248.367 96.9617 245.035 95.8817 241.864 93.6297C238.67 91.3777 236.05 88.2524 234.12 84.3459C232.144 80.4394 231.155 76.0732 231.155 71.3854C231.155 64.2387 233.293 58.1031 237.498 53.1395H237.521Z" fill="#F7F0F5"/>
<path d="M457.527 1.50415H445.003V102.523H457.527V1.50415Z" fill="#F7F0F5"/>
<path d="M42.7191 160.518H37.4797C37.0201 160.518 36.5605 160.518 36.1239 160.541C34.0328 161.782 31.574 162.494 28.9773 162.494C27.9891 162.494 27.047 162.402 26.1278 162.195C20.4978 163.965 15.4192 167.067 10.9842 171.548C3.69961 178.879 -0.00012207 187.772 -0.00012207 198.021C-0.00012207 208.27 3.67663 217.301 10.9612 224.608C18.2457 231.916 27.1619 235.638 37.4797 235.638H56.6218V160.794C54.6226 161.874 52.3476 162.471 49.9117 162.471C47.2691 162.471 44.8103 161.759 42.7191 160.495V160.518ZM44.1209 223H36.7903C30.1722 223 24.6571 220.702 19.9003 215.945C14.9367 211.05 12.5238 205.259 12.5238 198.25C12.5238 191.242 14.9137 185.543 19.8543 180.602C24.795 175.661 30.5628 173.272 37.4797 173.272H44.0979V223H44.1209Z" fill="#F7F0F5"/>
<path d="M84.1069 237.682C84.1069 240.601 82.82 243.082 80.2003 245.242C77.8334 247.104 74.6622 248.322 70.7786 248.804L68.9633 249.034V261.489L71.2153 261.305C78.0402 260.708 83.8081 258.548 88.3811 254.825C93.8732 250.183 96.6538 244.438 96.6538 237.705V160.539H84.1298V237.705L84.1069 237.682Z" fill="#F7F0F5"/>
<path d="M420.071 134.625V223.005H390.818C393.414 217.973 394.724 211.768 394.724 204.506C394.724 194.235 391.553 185.318 385.28 177.965C382.2 174.403 378.638 171.577 374.617 169.577C370.366 167.486 365.885 166.429 361.358 166.429C356.831 166.429 352.258 167.486 348.075 169.6C344.077 171.6 340.492 174.357 337.298 177.896C331.047 185.318 327.876 194.28 327.876 204.529C327.876 211.814 329.186 218.019 331.783 223.051H302.53V164.453C300.094 163.741 297.911 162.385 296.21 160.569H295.889C294.257 162.293 292.212 163.626 289.891 164.361V223.051H264.659V196.188C264.659 185.87 260.936 176.931 253.629 169.646C246.321 162.362 237.382 158.685 227.041 158.685C217.459 158.685 209.048 161.902 202.063 168.267V134.671H189.539V221.488C189.539 222.316 189.447 222.798 189.355 223.051H165.594V160.569H146.452C136.111 160.569 127.195 164.292 119.933 171.6C112.649 178.907 108.972 187.823 108.972 198.072C108.972 208.321 112.649 217.352 119.933 224.66C127.218 231.967 136.134 235.69 146.452 235.69H153.07V237.735C153.07 240.631 151.737 243.135 149.025 245.341C146.176 247.685 142.752 248.811 138.57 248.811C135.904 248.811 133.445 248.283 131.239 247.249C129.033 246.215 127.241 244.79 125.908 243.066L122.185 238.103L112.143 245.663L115.889 250.65C118.508 254.028 121.863 256.693 125.816 258.555C129.768 260.416 134.066 261.335 138.57 261.335C145.785 261.335 152.082 259.152 157.321 254.855C162.813 250.213 165.594 244.468 165.594 237.735V235.713H341.963C343.801 237.115 345.869 238.378 348.098 239.482C352.281 241.573 356.762 242.653 361.381 242.653C366 242.653 370.366 241.596 374.663 239.482C376.892 238.378 378.937 237.092 380.707 235.713H432.756V134.694H420.117L420.071 134.74V134.625ZM153.047 223.005H145.716C139.098 223.005 133.583 220.707 128.826 215.95C123.863 211.056 121.45 205.265 121.45 198.233C121.45 191.201 123.84 185.525 128.78 180.585C133.721 175.644 139.489 173.254 146.406 173.254H153.024V222.982L153.047 223.005ZM252.089 222.982H202.017V196.119C202.017 191.569 203.143 187.341 205.372 183.526C207.601 179.688 210.68 176.655 214.495 174.449C218.309 172.243 222.537 171.14 227.11 171.14C234.05 171.14 239.818 173.507 244.759 178.425C249.699 183.319 252.089 189.11 252.089 196.119V222.982ZM380.431 214.549C379.259 217.72 377.719 220.477 375.835 222.752C373.974 225.004 371.744 226.797 369.194 228.107C366.666 229.393 363.977 230.06 361.197 230.06C357.543 230.06 354.211 228.98 351.04 226.728C347.846 224.476 345.249 221.351 343.296 217.444C341.342 213.514 340.354 209.148 340.354 204.483C340.354 197.337 342.468 191.201 346.674 186.238C350.833 181.297 355.636 178.93 361.335 178.93C367.034 178.93 371.676 181.32 375.858 186.238C380.063 191.201 382.177 197.337 382.177 204.483C382.177 207.976 381.58 211.377 380.431 214.526V214.549Z" fill="#F7F0F5"/>
<path d="M457.527 134.625H445.003V235.667H457.527V134.625Z" fill="#F7F0F5"/>
<path d="M81.2586 24.1125C85.8546 24.1125 89.6002 20.3668 89.6002 15.7708C89.6002 11.1749 85.8775 7.4292 81.2586 7.4292C76.6397 7.4292 72.917 11.1749 72.917 15.7708C72.917 20.3668 76.6627 24.1125 81.2586 24.1125Z" fill="#EE4266"/>
<path d="M28.3129 24.1125C31.5071 24.1125 34.2647 22.343 35.6664 19.7004C36.2869 18.5284 36.6546 17.1956 36.6546 15.7708C36.6546 14.3461 36.3099 13.0133 35.6664 11.8413C34.2647 9.22161 31.5071 7.4292 28.3129 7.4292C23.717 7.4292 19.9713 11.1749 19.9713 15.7708C19.9713 20.3668 23.717 24.1125 28.3129 24.1125Z" fill="#F7F0F5"/>
<path d="M49.2927 24.1125C53.8886 24.1125 57.6343 20.3668 57.6343 15.7708C57.6343 11.1749 53.8886 7.4292 49.2927 7.4292C46.0985 7.4292 43.3409 9.22161 41.9392 11.8413C41.3187 13.0133 40.951 14.3461 40.951 15.7708C40.951 17.1956 41.2957 18.5284 41.9392 19.7004C43.3409 22.32 46.0985 24.1125 49.2927 24.1125Z" fill="#F7F0F5"/>
<path d="M36.3116 144.322C34.9098 141.702 32.1293 139.933 28.9581 139.933C24.3621 139.933 20.6165 143.678 20.6165 148.274C20.6165 152.87 24.3621 156.616 28.9581 156.616C32.1523 156.616 34.9098 154.846 36.3116 152.227C36.932 151.078 37.2997 149.722 37.2997 148.297C37.2997 148.297 37.2997 148.297 37.2997 148.274C37.2997 146.849 36.955 145.517 36.3116 144.345V144.322Z" fill="#F7F0F5"/>
<path d="M49.9146 139.979C46.7204 139.979 43.9629 141.771 42.5611 144.368C41.9407 145.54 41.573 146.896 41.573 148.321C41.573 149.745 41.9177 151.078 42.5611 152.25C43.9629 154.87 46.7434 156.639 49.9146 156.639C54.5106 156.639 58.2562 152.917 58.2562 148.298C58.2562 143.702 54.5106 139.956 49.9146 139.956V139.979Z" fill="#F7F0F5"/>
<path d="M285.525 142.438C280.906 142.438 277.183 146.183 277.183 150.779C277.183 155.375 280.906 159.121 285.525 159.121C288.719 159.121 291.477 157.352 292.879 154.732C293.499 153.56 293.867 152.204 293.867 150.779C293.867 149.355 293.522 148.022 292.879 146.85C291.477 144.207 288.696 142.438 285.525 142.438Z" fill="#F7F0F5"/>
<path d="M299.13 146.874C298.509 148.046 298.142 149.379 298.142 150.826C298.142 152.274 298.486 153.584 299.13 154.756C300.531 157.375 303.312 159.168 306.483 159.168C311.079 159.168 314.825 155.422 314.825 150.826C314.825 146.23 311.079 142.485 306.483 142.485C303.312 142.485 300.531 144.277 299.13 146.897V146.874Z" fill="#F7F0F5"/>
<path d="M23.9014 290.211H20.0868V294.531H23.9014V290.211Z" fill="#EE4266"/>
<path d="M55.4958 330.655H51.6812V334.975H55.4958V330.655Z" fill="#EE4266"/>
<path d="M30.4938 323.442H19.6014C15.0974 323.442 11.2368 322.202 8.04264 319.674C4.94039 317.261 3.37777 314.365 3.37777 311.01V302.485H-0.000244141V311.01C-0.000244141 313.239 0.528289 315.331 1.60833 317.33C2.6654 319.237 4.09014 320.915 5.92851 322.362C7.74391 323.787 9.81208 324.867 12.156 325.603C14.408 326.384 16.7979 326.798 19.3027 326.843H33.9178V298.142H30.4938V323.397V323.442Z" fill="#EE4266"/>
<path d="M15.813 290.211H11.9984V294.531H15.813V290.211Z" fill="#EE4266"/>
<path d="M146.519 290.211H142.751V294.577H146.519V290.211Z" fill="#EE4266"/>
<path d="M369.607 290.211H365.793V294.531H369.607V290.211Z" fill="#EE4266"/>
<path d="M361.517 290.211H357.703V294.531H361.517V290.211Z" fill="#EE4266"/>
<path d="M444.865 293.71H441.487V321.929H444.865V293.71Z" fill="#EE4266"/>
<path d="M293.246 290.211H289.477V294.577H293.246V290.211Z" fill="#EE4266"/>
<path d="M214.793 290.211H210.978V294.531H214.793V290.211Z" fill="#EE4266"/>
<path d="M285.159 290.211H281.39V294.577H285.159V290.211Z" fill="#EE4266"/>
<path d="M206.704 290.211H202.889V294.531H206.704V290.211Z" fill="#EE4266"/>
<path d="M63.5868 330.655H59.7722V334.975H63.5868V330.655Z" fill="#EE4266"/>
<path d="M316.065 302.393C313.284 305.174 311.882 308.552 311.882 312.481C311.882 316.411 313.284 319.835 316.065 322.661C318.845 325.442 322.223 326.843 326.199 326.843H329.715V328.498C329.715 329.923 329.071 331.164 327.761 332.221C326.452 333.301 324.866 333.829 323.005 333.829C321.81 333.829 320.684 333.599 319.673 333.117C318.661 332.634 317.834 331.991 317.191 331.164L316.18 329.831L313.468 331.876L314.456 333.209C315.444 334.473 316.685 335.461 318.156 336.15C319.65 336.84 321.258 337.207 322.959 337.207C325.693 337.207 328.037 336.403 329.99 334.771C332.013 333.048 333.047 330.957 333.047 328.498V298.142H326.153C322.2 298.142 318.799 299.544 316.019 302.37L316.065 302.393ZM329.738 323.442H325.923C323.028 323.442 320.569 322.408 318.501 320.34C316.341 318.226 315.26 315.629 315.26 312.596C315.26 309.563 316.318 307.012 318.455 304.898C320.615 302.738 323.188 301.658 326.199 301.658H329.715V323.442H329.738Z" fill="#EE4266"/>
<path d="M396.721 287.712H393.343V326.869H396.721V287.712Z" fill="#EE4266"/>
<path d="M409.086 297.316V300.694C412.418 300.694 415.152 301.751 417.266 303.888C419.427 306.002 420.507 308.576 420.507 311.586V323.444H403.387V326.868H423.885V311.586C423.885 307.68 422.483 304.348 419.656 301.544C416.853 298.718 413.337 297.316 409.086 297.316Z" fill="#EE4266"/>
<path d="M71.2851 323.445H66.0457H64.621H59.3357V298.168H55.9117V323.445H50.6723H49.2476H43.9622V287.712H40.5842V326.869H49.2476H50.6723H64.621H66.0457H74.7091V287.712H71.2851V323.445Z" fill="#EE4266"/>
<path d="M454.103 287.712V323.445H430.549V326.869H457.527V287.712H454.103Z" fill="#EE4266"/>
<path d="M353.475 302.393C350.694 305.174 349.292 308.552 349.292 312.481C349.292 316.411 350.694 319.835 353.475 322.661C356.255 325.442 359.633 326.843 363.609 326.843H370.503V298.142H363.609C359.633 298.142 356.255 299.544 353.475 302.37V302.393ZM367.125 323.442H363.31C360.415 323.442 357.956 322.408 355.888 320.34C353.727 318.226 352.647 315.629 352.647 312.596C352.647 309.563 353.704 307.012 355.842 304.898C358.002 302.738 360.575 301.658 363.609 301.658H367.125V323.442Z" fill="#EE4266"/>
<path d="M439.028 331.803H439.303C439.303 331.803 439.395 332.125 439.395 333.09C439.395 334.193 439.786 335.158 440.59 335.939C441.418 336.766 442.383 337.18 443.486 337.18C444.497 337.18 445.577 336.697 446.726 335.709L445.784 333.09C445.002 333.595 444.543 333.894 444.451 333.94C444.175 334.216 443.853 334.377 443.509 334.377C443.164 334.377 442.865 334.239 442.613 333.986C442.36 333.733 442.222 333.434 442.222 333.09C442.222 332.745 442.337 332.446 442.613 332.193C442.842 331.964 443.072 331.849 443.325 331.803H446.979V328.77H439.028V331.803Z" fill="#EE4266"/>
<path d="M383.302 328.524C383.302 329.949 382.659 331.19 381.395 332.247C380.315 333.097 378.913 333.649 377.167 333.856V337.234C379.763 337.004 381.924 336.2 383.647 334.798C385.669 333.074 386.68 330.983 386.68 328.524V298.168H383.302V328.524Z" fill="#EE4266"/>
<path d="M178.277 287.712H174.899V326.869H178.277V287.712Z" fill="#EE4266"/>
<path d="M164.81 323.441H152.953V298.186H146.013C142.083 298.186 138.728 299.588 135.925 302.414C133.144 305.195 131.742 308.573 131.742 312.502C131.742 316.432 133.144 319.833 135.925 322.636C136.568 323.28 136.821 323.533 136.683 323.441H109.981C107.338 323.257 105.086 322.2 103.179 320.246C101.019 318.086 99.9385 315.513 99.9385 312.502C99.9385 309.492 100.996 306.941 103.133 304.804C105.293 302.644 107.866 301.564 110.9 301.564C113.933 301.564 116.461 302.621 118.598 304.758C118.782 304.988 119.218 305.425 119.885 306.091L120.367 301.817C117.61 299.404 114.462 298.209 110.9 298.209C106.97 298.209 103.592 299.611 100.766 302.437C97.9852 305.218 96.5834 308.596 96.5834 312.525C96.5834 316.455 97.9852 319.856 100.812 322.659C101.455 323.303 101.708 323.556 101.57 323.464H84.7259V287.73H81.3479V326.888H168.234V287.73H164.81V323.464V323.441ZM149.552 323.441H144.565C142.175 323.165 140.107 322.131 138.338 320.338C136.2 318.224 135.143 315.628 135.143 312.594C135.143 309.561 136.2 307.01 138.338 304.896C140.452 302.736 143.025 301.656 146.036 301.656H149.552V323.441Z" fill="#EE4266"/>
<path d="M278.146 302.393C275.366 305.173 273.964 308.551 273.964 312.481C273.964 316.41 275.366 319.811 278.146 322.615C278.79 323.258 279.043 323.511 278.905 323.419H262.497V287.686H259.119V326.843H295.174V298.142H288.235C284.305 298.142 280.95 299.543 278.146 302.37V302.393ZM291.75 323.442H286.764C284.374 323.166 282.306 322.132 280.536 320.34C278.422 318.226 277.342 315.629 277.342 312.596C277.342 309.562 278.399 307.012 280.536 304.898C282.673 302.737 285.224 301.657 288.235 301.657H291.75V323.442Z" fill="#EE4266"/>
<path d="M244.804 301.73C243.196 300.926 241.518 300.535 239.818 300.535C238.117 300.535 236.417 300.926 234.831 301.73C233.314 302.488 231.936 303.545 230.741 304.878C228.328 307.728 227.133 311.152 227.133 315.104C227.133 318.551 227.868 321.332 229.362 323.423H215.712V298.168H208.818C204.842 298.168 201.464 299.57 198.684 302.396C195.903 305.177 194.502 308.555 194.502 312.485C194.502 316.414 195.903 319.838 198.684 322.665C201.487 325.445 204.865 326.847 208.818 326.847H232.28C233.039 327.444 233.889 327.996 234.854 328.455C236.44 329.237 238.094 329.65 239.841 329.65C241.587 329.65 243.219 329.26 244.827 328.455C246.344 327.72 247.7 326.663 248.872 325.261C251.284 322.481 252.479 319.08 252.479 315.081C252.479 311.083 251.261 307.728 248.872 304.901C247.7 303.545 246.344 302.465 244.827 301.707L244.804 301.73ZM212.311 323.446H208.496C205.601 323.446 203.142 322.412 201.074 320.344C198.914 318.229 197.834 315.633 197.834 312.599C197.834 309.566 198.891 307.015 201.028 304.901C203.188 302.741 205.762 301.661 208.795 301.661H212.311V323.446ZM248.32 319.493C247.814 320.849 247.148 322.044 246.321 323.055C245.494 324.043 244.505 324.825 243.379 325.445C242.23 326.02 241.035 326.295 239.772 326.295C238.416 326.295 237.106 325.928 235.865 325.192L235.061 324.756C233.705 323.745 232.602 322.389 231.775 320.711C230.924 318.988 230.488 317.126 230.488 315.104C230.488 312.002 231.407 309.359 233.245 307.199C235.084 305.016 237.267 303.913 239.818 303.913C242.368 303.913 244.505 305.016 246.344 307.199C248.182 309.359 249.101 311.979 249.101 315.104C249.101 316.621 248.849 318.092 248.343 319.493H248.32Z" fill="#EE4266"/>
<path d="M305.218 287.712H301.84V326.869H305.218V287.712Z" fill="#EE4266"/>
</g>
<defs>
<clipPath id="clip0_1482_2153">
<rect width="457.525" height="335.728" fill="white" transform="translate(0 1.50415)"/>
</clipPath>
</defs>
</svg>
