<svg width="194" height="194" viewBox="0 0 194 194" fill="none" xmlns="http://www.w3.org/2000/svg">
<path fill-rule="evenodd" clip-rule="evenodd" d="M105.344 188.481L129.908 134.476C130.833 132.442 132.462 130.812 134.494 129.889L188.476 105.368C195.699 102.086 195.699 91.807 188.476 88.5257L134.494 64.0042C132.462 63.0811 130.833 61.4516 129.908 59.4174L105.344 5.41193C102.062 -1.80397 91.8312 -1.80398 88.5492 5.41192L63.9857 59.4174C63.0605 61.4516 61.431 63.0811 59.3989 64.0042L5.41761 88.5257C-1.806 91.807 -1.806 102.086 5.41761 105.368L59.3989 129.889C61.431 130.812 63.0605 132.442 63.9857 134.476L88.5492 188.481C91.8312 195.697 102.062 195.697 105.344 188.481Z" fill="#F7F0F5"/>
</svg>
