<svg width="279" height="405" viewBox="0 0 279 405" fill="none" xmlns="http://www.w3.org/2000/svg">
<path d="M194.632 2.52603C127.961 -7.35891 66.1901 12.0591 31.2752 55.6616C3.23794 90.6588 0.620913 131.238 0.237933 137.876C-2.45888 185.03 18.5092 218.875 25.706 229.464C28.6263 222.73 32.8869 214.46 39.1582 205.775C45.2699 197.282 51.589 190.74 56.9508 185.893C53.1529 177.656 47.0093 161.389 48.0625 140.435C48.0625 140.435 49.0997 110.061 68.6316 85.6683C91.9295 56.5733 136.227 43.3934 184.515 49.5835C182.265 44.513 181.02 38.9148 181.02 33.0126C181.02 20.9043 186.286 10.0117 194.648 2.51004L194.632 2.52603ZM252.94 150.8C229.084 142.435 166.977 126.568 106.1 159.485C91.0199 167.643 77.2167 178.28 65.105 190.916C65.105 190.916 65.0252 190.996 64.9614 191.06C42.9401 213.181 28.9933 245.619 28.0358 247.906C12.1901 285.478 11.9507 322.923 12.2699 336.407C19.5465 329.769 29.2167 325.69 39.8284 325.69C47.2007 325.69 54.1263 327.657 60.1103 331.096C59.9827 323.755 60.3018 314.206 62.0093 303.201C64.9295 284.359 70.4348 270.763 72.0944 266.828C75.5731 258.543 82.6901 242.02 98.3125 225.465C111.43 211.581 124.467 204.112 128.823 201.712C160.674 184.214 194.057 187.237 206.488 188.964C199.004 197.762 180.509 216.94 150.254 225.241C134.488 229.56 120.637 229.528 110.983 228.648C106.355 232.679 101.073 237.973 95.9029 244.707C89.0572 253.632 84.6529 262.254 81.7806 269.068C97.2753 273.77 126.765 280.232 161.408 271.883C230.664 255.216 261.908 193.523 266.632 183.83L278.249 159.629L252.94 150.784V150.8Z" fill="#F7F0F5"/>
<path fill-rule="evenodd" clip-rule="evenodd" d="M250.088 32.9834C250.088 17.8766 237.876 5.60498 222.843 5.60498C207.811 5.60498 195.599 17.8766 195.599 32.9834C195.599 47.4778 205.663 62.4882 221.241 70.0248V60.3618H222.843C237.876 60.3618 250.088 48.0902 250.088 32.9834ZM227.429 26.5863C227.572 26.9035 227.825 27.1578 228.142 27.3022L236.534 31.1359C237.656 31.6482 237.656 33.2449 236.534 33.7572L228.142 37.5909C227.825 37.7353 227.572 37.9896 227.429 38.3068L223.618 46.7319C223.108 47.8593 221.511 47.8593 221.001 46.7319L217.19 38.3068C217.046 37.9896 216.793 37.7353 216.477 37.5909L208.084 33.7572C206.963 33.2449 206.963 31.6482 208.084 31.1359L216.477 27.3022C216.793 27.1578 217.046 26.9035 217.19 26.5863L221.001 18.1613C221.511 17.0338 223.108 17.0338 223.618 18.1613L227.429 26.5863Z" fill="#EE4266"/>
<path fill-rule="evenodd" clip-rule="evenodd" d="M67.0625 367.681C67.0625 352.574 54.8505 340.302 39.8183 340.302C24.7861 340.302 12.5741 352.574 12.5741 367.681C12.5741 382.175 22.6383 397.185 38.2157 404.722V395.059H39.8183C54.8505 395.059 67.0625 382.787 67.0625 367.681ZM44.4036 361.284C44.5471 361.601 44.8003 361.855 45.1164 361.999L53.5093 365.833C54.6307 366.345 54.6307 367.942 53.5093 368.454L45.1164 372.288C44.8003 372.433 44.5471 372.687 44.4036 373.004L40.5928 381.429C40.0828 382.557 38.4854 382.557 37.9754 381.429L34.1646 373.004C34.0211 372.687 33.7679 372.433 33.4518 372.288L25.0589 368.454C23.9375 367.942 23.9375 366.345 25.0589 365.833L33.4518 361.999C33.7679 361.855 34.0211 361.601 34.1646 361.284L37.9754 352.859C38.4854 351.731 40.0828 351.731 40.5928 352.859L44.4036 361.284Z" fill="#EE4266"/>
</svg>
