<svg width="164" height="194" viewBox="0 0 164 194" fill="none" xmlns="http://www.w3.org/2000/svg">
<path fill-rule="evenodd" clip-rule="evenodd" d="M0 82.4047C1.98751e-06 36.9357 36.7561 -1.9777e-06 82.0005 0C127.245 1.9777e-06 164.001 36.9357 164.001 82.4047C164.001 126.031 133.709 171.209 86.8241 193.893V164.809H82.0005C36.7561 164.809 -1.98751e-06 127.874 0 82.4047ZM68.1996 63.1505C67.7678 64.1051 67.0056 64.8706 66.0541 65.3053L40.793 76.8441C37.4178 78.3859 37.4178 83.1919 40.793 84.7337L66.0541 96.2726C67.0056 96.7072 67.7678 97.4727 68.1995 98.4273L79.6694 123.785C81.2043 127.179 86.0125 127.179 87.5473 123.785L99.0172 98.4273C99.449 97.4727 100.211 96.7072 101.163 96.2726L126.424 84.7337C129.799 83.1919 129.799 78.3859 126.424 76.8441L101.163 65.3053C100.211 64.8706 99.449 64.1051 99.0172 63.1505L87.5473 37.7924C86.0125 34.399 81.2043 34.399 79.6694 37.7924L68.1996 63.1505Z" fill="#F7F0F5"/>
</svg>
