<svg width="490" height="766" viewBox="0 0 490 766" fill="none" xmlns="http://www.w3.org/2000/svg">
<path d="M323.351 22.6568C216.024 12.2584 143.883 39.1928 81.0729 117.244C32.5059 177.563 24.44 241.064 23.8729 251.411C22.9389 268.345 4.85755 387.896 91.3843 454.17C169.439 513.99 278.31 493.028 302.393 487.273C425.512 457.795 480.684 348.104 488.923 331.004C464.106 322.353 340.62 282.197 222.204 345.875C114.063 404.064 55.0327 469.767 46.3772 636.134" stroke="#F7F0F5" stroke-width="7.89249" stroke-miterlimit="10" stroke-linecap="round" stroke-dasharray="39.46 39.46"/>
<path d="M452.438 69.2062C454.522 69.3221 455.712 68.8308 456.226 67.4389C456.779 65.7302 455.956 64.6487 454.825 63.512C442.237 52.8905 429.632 42.262 417.195 31.662C416.199 30.7113 415.102 30.4045 413.838 30.2406C397.512 29.3358 381.039 28.2501 364.713 27.3453C363.927 27.2358 363.443 27.1693 362.905 27.5841C360.671 28.5761 360.35 30.9736 362.37 32.7054C375.106 43.5078 387.677 54.2938 400.413 65.0961C401.274 65.8608 402.185 66.3035 403.471 66.3151C419.797 67.2199 436.135 68.1196 452.445 69.1889L452.438 69.2062ZM403.295 49.7611C402.44 46.561 404.309 43.4054 407.319 42.6702C410.502 41.8041 413.636 43.6782 414.327 46.8619C415.204 49.9098 413.329 53.0532 410.168 53.7669C407.136 54.6545 404.015 52.7753 403.29 49.749L403.295 49.7611Z" fill="#2ADBD6"/>
<path d="M50.796 665.059C49.9365 663.156 48.9514 662.328 47.4794 662.514C45.7086 662.813 45.1291 664.042 44.6426 665.57C41.0321 681.64 37.4233 697.728 33.7619 713.654C33.3783 714.976 33.6124 716.091 34.0509 717.288C40.7851 732.188 47.4267 747.302 54.161 762.202C54.4268 762.95 54.591 763.409 55.2075 763.695C57.1185 765.218 59.3935 764.396 59.9971 761.805C63.7003 745.521 67.4644 729.39 71.1676 713.106C71.4484 711.989 71.4204 710.976 70.8368 709.83C64.1025 694.93 57.3581 680.022 50.7775 665.061L50.796 665.059ZM56.2339 717.629C53.7897 719.864 50.1276 719.663 48.0858 717.332C45.8481 714.908 46.064 711.264 48.569 709.181C50.868 706.996 54.5217 707.208 56.6143 709.683C58.8012 711.962 58.5752 715.599 56.2255 717.639L56.2339 717.629Z" fill="#2ADBD6"/>
</svg>
