<svg width="723" height="240" viewBox="0 0 723 240" fill="none" xmlns="http://www.w3.org/2000/svg">
<g clip-path="url(#clip0_1509_1942)">
<path d="M357.036 79.5349C378.844 82.8506 399.291 67.8023 402.606 45.9949C405.88 24.1876 390.874 3.82562 369.067 0.509879C347.259 -2.80586 326.812 12.2 323.496 33.9223C320.181 55.7721 335.187 76.1766 357.036 79.5349ZM346.069 18.7039L346.069 18.7889C346.282 17.5136 347.557 17.046 348.705 17.8962C356.016 23.0824 363.328 28.2685 370.639 33.4122C371.15 33.7947 371.49 34.2623 371.702 34.8575C374.38 43.2743 377.101 51.6912 379.821 60.0656C380.162 61.1283 380.034 61.8084 379.354 62.276C378.589 62.7862 377.909 62.5311 377.186 62.0635C369.959 56.9199 362.69 51.8187 355.464 46.6751C354.911 46.2925 354.571 45.8249 354.316 45.1448C351.595 36.7279 348.875 28.226 346.154 19.8091C346.026 19.4691 345.941 19.129 345.984 18.7464L346.069 18.7039Z" fill="#F7F0F5"/>
<path d="M363.03 36.8985C364.731 36.8985 366.134 38.3013 366.134 40.0017C366.134 41.7021 364.731 43.1049 363.03 43.1049C361.33 43.1049 359.927 41.7021 359.927 40.0017C359.927 38.3013 361.33 36.8985 363.03 36.8985Z" fill="#F7F0F5"/>
<path d="M676.962 239.54C698.77 242.855 719.217 227.807 722.532 206C725.806 184.193 710.8 163.83 688.992 160.515C667.185 157.199 646.738 172.205 643.422 193.927C640.107 215.777 655.112 236.182 676.962 239.54ZM665.995 178.666L665.995 178.751C666.207 177.476 667.483 177.008 668.63 177.859C675.942 183.045 683.254 188.231 690.565 193.375C691.075 193.757 691.415 194.225 691.628 194.82C694.306 203.237 697.027 211.654 699.747 220.028C700.087 221.091 699.96 221.771 699.28 222.238C698.514 222.749 697.834 222.493 697.112 222.026C689.885 216.882 682.616 211.781 675.389 206.637C674.837 206.255 674.497 205.787 674.242 205.107C671.521 196.69 668.8 188.188 666.08 179.772C665.952 179.431 665.867 179.091 665.91 178.709L665.995 178.666Z" fill="#F7F0F5"/>
<path d="M682.956 196.903C684.657 196.903 686.06 198.306 686.06 200.007C686.06 201.707 684.657 203.11 682.956 203.11C681.256 203.11 679.853 201.707 679.853 200.007C679.853 198.306 681.256 196.903 682.956 196.903Z" fill="#F7F0F5"/>
<path opacity="0.5" d="M243.494 34.0077C240.178 55.815 255.227 76.2621 277.034 79.5778C298.841 82.851 319.203 67.8452 322.519 46.0379C325.835 24.2305 310.829 3.78352 289.107 0.467784C267.257 -2.84795 246.852 12.1579 243.494 34.0077ZM304.367 23.0403L304.282 23.0403C305.558 23.2528 306.025 24.5281 305.175 25.6759C299.989 32.9875 294.803 40.2991 289.659 47.6107C289.277 48.1208 288.809 48.4609 288.214 48.6735C279.797 51.3515 271.38 54.0721 263.006 56.7927C261.943 57.1328 261.263 57.0053 260.795 56.3251C260.285 55.56 260.54 54.8798 261.008 54.1572C266.152 46.9306 271.253 39.6615 276.396 32.4349C276.779 31.8822 277.247 31.5422 277.927 31.2871C286.344 28.5665 294.845 25.8459 303.262 23.1253C303.602 22.9978 303.942 22.9128 304.325 22.9553L304.367 23.0403Z" fill="#F7F0F5"/>
<path opacity="0.5" d="M323.497 113.926C320.181 135.733 335.229 156.18 357.037 159.496C378.844 162.769 399.206 147.763 402.522 125.956C405.837 104.149 390.832 83.7015 369.109 80.3858C347.259 77.07 326.855 92.0758 323.497 113.926ZM384.37 102.958L384.285 102.958C385.56 103.171 386.028 104.446 385.178 105.594C379.992 112.905 374.806 120.217 369.662 127.529C369.279 128.039 368.812 128.379 368.217 128.591C359.8 131.27 351.383 133.99 343.009 136.711C341.946 137.051 341.266 136.923 340.798 136.243C340.288 135.478 340.543 134.798 341.011 134.075C346.154 126.849 351.255 119.579 356.399 112.353C356.782 111.8 357.249 111.46 357.929 111.205C366.346 108.484 374.848 105.764 383.265 103.043C383.605 102.916 383.945 102.831 384.328 102.873L384.37 102.958Z" fill="#F7F0F5"/>
<path d="M516.999 79.5349C538.807 82.8506 559.254 67.8023 562.569 45.9949C565.843 24.1876 550.837 3.82562 529.029 0.509879C507.222 -2.80586 486.775 12.2 483.459 33.9223C480.144 55.7721 495.149 76.1766 516.999 79.5349ZM506.032 18.7039L506.032 18.7889C506.244 17.5136 507.52 17.046 508.667 17.8962C515.979 23.0824 523.291 28.2685 530.602 33.4122C531.112 33.7947 531.453 34.2623 531.665 34.8575C534.343 43.2743 537.064 51.6912 539.784 60.0656C540.124 61.1283 539.997 61.8084 539.317 62.276C538.552 62.7862 537.871 62.5311 537.149 62.0635C529.922 56.9199 522.653 51.8187 515.426 46.6751C514.874 46.2925 514.534 45.8249 514.279 45.1448C511.558 36.7279 508.838 28.226 506.117 19.8091C505.989 19.4691 505.904 19.129 505.947 18.7464L506.032 18.7039Z" fill="#F7F0F5"/>
<path d="M523.036 36.8985C524.736 36.8985 526.139 38.3013 526.139 40.0017C526.139 41.7021 524.736 43.1049 523.036 43.1049C521.335 43.1049 519.933 41.7021 519.933 40.0017C519.933 38.3013 521.335 36.8985 523.036 36.8985Z" fill="#F7F0F5"/>
<path opacity="0.5" d="M563.504 34.0077C560.189 55.815 575.237 76.2621 597.044 79.5778C618.852 82.851 639.214 67.8452 642.529 46.0379C645.845 24.2305 630.839 3.78352 609.074 0.467784C587.225 -2.84795 566.82 12.1579 563.462 34.0077L563.504 34.0077ZM624.335 23.0403L624.25 23.0403C625.526 23.2528 625.993 24.5281 625.143 25.6759C619.957 32.9875 614.771 40.2991 609.627 47.6107C609.244 48.1208 608.777 48.4609 608.182 48.6735C599.765 51.3515 591.348 54.0721 582.974 56.7927C581.911 57.1328 581.231 57.0053 580.763 56.3251C580.253 55.56 580.508 54.8798 580.976 54.1572C586.119 46.9306 591.22 39.6615 596.364 32.4349C596.747 31.8822 597.214 31.5422 597.894 31.2871C606.311 28.5665 614.813 25.8459 623.23 23.1253C623.57 22.9978 623.91 22.9128 624.293 22.9553L624.335 23.0403Z" fill="#F7F0F5"/>
<path opacity="0.5" d="M286.131 40.0017C286.131 41.7021 284.728 43.1049 283.028 43.1049C281.327 43.1049 279.924 41.7021 279.924 40.0017C279.924 38.3013 281.327 36.8985 283.028 36.8985C284.728 36.8985 286.131 38.3013 286.131 40.0017Z" fill="#F7F0F5"/>
<path d="M403.499 34.0072C400.099 56.1971 415.742 76.9842 438.187 79.7473C458.889 82.2554 478.656 67.6746 482.354 47.1426C486.35 24.9102 471.217 3.86802 449.112 0.509776C427.262 -2.80596 406.858 12.1999 403.499 34.0497L403.499 34.0072ZM464.33 23.0398L464.245 23.0398C465.648 23.2948 466.073 24.7401 464.925 25.9729C459.144 32.3068 453.66 38.8108 450.175 46.675C449.537 48.1628 448.729 48.758 447.114 48.843C440.908 49.1405 434.744 50.3733 429.345 53.434C423.946 56.4947 421.821 57.8975 420.801 56.3246C420.291 55.5595 420.546 54.8793 421.013 54.1566C421.056 54.0716 421.141 53.9866 421.183 53.9016C431.471 39.4484 446.094 28.6935 462.97 23.2523C463.055 23.2523 463.14 23.2098 463.225 23.1673C463.565 23.0398 463.905 22.9547 464.288 22.9973L464.33 23.0398Z" fill="#2ADBD6"/>
<path d="M563.505 194.013C560.104 216.203 575.747 236.99 598.192 239.753C618.894 242.261 638.661 227.681 642.36 207.148C646.356 184.916 631.222 163.874 609.117 160.516C587.267 157.2 566.863 172.206 563.505 194.056L563.505 194.013ZM624.336 183.046L624.251 183.046C625.653 183.301 626.079 184.746 624.931 185.979C619.15 192.313 613.666 198.817 610.18 206.681C609.542 208.169 608.735 208.764 607.119 208.849C600.913 209.146 594.749 210.379 589.35 213.44C583.952 216.501 581.826 217.903 580.806 216.33C580.296 215.565 580.551 214.885 581.019 214.163C581.061 214.077 581.146 213.992 581.189 213.907C591.476 199.454 606.099 188.699 622.975 183.258C623.06 183.258 623.145 183.216 623.23 183.173C623.57 183.046 623.911 182.961 624.293 183.003L624.336 183.046Z" fill="#2ADBD6"/>
<path d="M597.045 159.496C618.852 162.812 639.299 147.763 642.615 125.956C645.888 104.149 630.882 83.7866 609.075 80.4708C587.268 77.1551 566.821 92.1609 563.505 113.883C560.189 135.733 575.195 156.138 597.045 159.496ZM586.077 98.6648L586.077 98.7499C586.29 97.4746 587.565 97.007 588.713 97.8572C596.024 103.043 603.336 108.229 610.648 113.373C611.158 113.756 611.498 114.223 611.71 114.818C614.389 123.235 617.109 131.652 619.83 140.026C620.17 141.089 620.042 141.769 619.362 142.237C618.597 142.747 617.917 142.492 617.194 142.024C609.968 136.881 602.698 131.78 595.472 126.636C594.919 126.253 594.579 125.786 594.324 125.106C591.604 116.689 588.883 108.187 586.162 99.7701C586.035 99.43 585.95 99.0899 585.992 98.7073L586.077 98.6648Z" fill="#F7F0F5"/>
<path d="M603.038 116.9C604.739 116.9 606.142 118.303 606.142 120.004C606.142 121.704 604.739 123.107 603.038 123.107C601.338 123.107 599.935 121.704 599.935 120.004C599.935 118.303 601.338 116.9 603.038 116.9Z" fill="#F7F0F5"/>
<path opacity="0.5" d="M483.502 113.969C480.187 135.776 495.235 156.223 517.042 159.539C538.85 162.812 559.212 147.806 562.527 125.999C565.843 104.191 550.837 83.7445 529.115 80.4287C507.265 77.113 486.861 92.1188 483.502 113.969ZM544.333 103.001L544.248 103.001C545.524 103.214 545.991 104.489 545.141 105.637C539.955 112.948 534.769 120.26 529.625 127.572C529.242 128.082 528.775 128.422 528.18 128.634C519.763 131.312 511.346 134.033 502.972 136.754C501.909 137.094 501.229 136.966 500.761 136.286C500.251 135.521 500.506 134.841 500.974 134.118C506.117 126.891 511.218 119.622 516.362 112.396C516.745 111.843 517.212 111.503 517.892 111.248C526.309 108.527 534.811 105.807 543.228 103.086C543.568 102.959 543.908 102.874 544.291 102.916L544.333 103.001Z" fill="#F7F0F5"/>
<path opacity="0.5" d="M526.139 120.004C526.139 121.704 524.736 123.107 523.036 123.107C521.335 123.107 519.932 121.704 519.932 120.004C519.932 118.303 521.335 116.9 523.036 116.9C524.736 116.9 526.139 118.303 526.139 120.004Z" fill="#F7F0F5"/>
<path d="M479.464 193.885C476.148 172.163 455.701 157.115 433.894 160.473C412.086 163.831 397.08 184.151 400.354 205.958C403.627 227.765 424.116 242.814 445.924 239.498C467.774 236.182 482.779 215.735 479.464 193.885ZM456.764 179.73C454.043 188.146 451.322 196.648 448.602 205.065C448.389 205.703 448.049 206.213 447.454 206.596C440.228 211.739 432.958 216.84 425.732 221.984C425.009 222.494 424.329 222.749 423.564 222.196C422.884 221.729 422.756 221.049 423.096 219.986C425.817 211.612 428.537 203.195 431.216 194.778C431.386 194.183 431.726 193.715 432.278 193.333C439.59 188.189 446.901 183.003 454.213 177.817C455.403 176.966 456.636 177.434 456.806 178.709L456.806 178.624C456.934 179.007 456.806 179.347 456.679 179.687L456.764 179.73Z" fill="#F7F0F5"/>
<path d="M439.93 196.903C438.229 196.903 436.827 198.306 436.827 200.007C436.827 201.707 438.229 203.11 439.93 203.11C441.63 203.11 443.033 201.707 443.033 200.007C443.033 198.306 441.63 196.903 439.93 196.903Z" fill="#F7F0F5"/>
<path d="M319.501 193.885C316.185 172.163 295.738 157.115 273.931 160.473C252.123 163.831 237.118 184.151 240.391 205.958C243.664 227.765 264.154 242.814 285.961 239.498C307.811 236.182 322.817 215.735 319.501 193.885ZM296.758 179.73C294.038 188.146 291.317 196.648 288.596 205.065C288.384 205.703 288.044 206.213 287.449 206.596C280.222 211.739 272.953 216.84 265.726 221.984C265.004 222.494 264.324 222.749 263.558 222.196C262.878 221.729 262.751 221.049 263.091 219.986C265.811 211.612 268.532 203.195 271.21 194.778C271.38 194.183 271.72 193.715 272.273 193.333C279.584 188.189 286.896 183.003 294.208 177.817C295.398 176.966 296.631 177.434 296.801 178.709L296.801 178.624C296.928 179.007 296.801 179.347 296.673 179.687L296.758 179.73Z" fill="#F7F0F5"/>
<path d="M279.967 196.903C278.267 196.903 276.864 198.306 276.864 200.007C276.864 201.707 278.267 203.11 279.967 203.11C281.667 203.11 283.07 201.707 283.07 200.007C283.07 198.306 281.667 196.903 279.967 196.903Z" fill="#F7F0F5"/>
<path d="M353.848 160.43C331.744 163.831 316.61 184.873 320.606 207.063C324.304 227.595 344.071 242.176 364.773 239.668C387.218 236.947 402.862 216.16 399.461 193.928C396.145 172.078 375.698 157.072 353.848 160.388L353.848 160.43ZM339.693 183.173C339.693 183.173 339.863 183.215 339.948 183.258C356.824 188.699 371.447 199.454 381.735 213.907C381.777 213.992 381.862 214.077 381.905 214.162C382.415 214.885 382.67 215.565 382.117 216.33C381.054 217.903 378.844 216.458 373.573 213.439C368.302 210.421 362.01 209.146 355.804 208.848C354.188 208.763 353.381 208.168 352.743 206.68C349.257 198.816 343.774 192.312 337.992 185.978C336.845 184.746 337.27 183.3 338.673 183.088L338.588 183.088C338.97 182.96 339.31 183.088 339.65 183.215L339.693 183.173Z" fill="#2ADBD6"/>
<path d="M37.0681 79.5349C58.8755 82.8506 79.3225 67.8023 82.6382 45.9949C85.9115 24.1876 70.9056 3.82562 49.0983 0.509879C27.291 -2.80586 6.84396 12.2 3.52822 33.9223C0.212486 55.7721 15.2183 76.1766 37.0681 79.5349ZM26.1007 18.7039L26.1007 18.7889C26.3133 17.5136 27.5885 17.046 28.7363 17.8962C36.0479 23.0824 43.3595 28.2685 50.6711 33.4122C51.1813 33.7947 51.5213 34.2623 51.7339 34.8575C54.412 43.2743 57.1326 51.6912 59.8532 60.0656C60.1933 61.1283 60.0657 61.8084 59.3856 62.276C58.6204 62.7862 57.9403 62.5311 57.2176 62.0635C49.991 56.9199 42.7219 51.8187 35.4953 46.6751C34.9427 46.2925 34.6026 45.8249 34.3475 45.1448C31.6269 36.7279 28.9064 28.226 26.1857 19.8091C26.0582 19.4691 25.9732 19.129 26.0157 18.7464L26.1007 18.7039Z" fill="#F7F0F5"/>
<path d="M43.0621 36.8985C44.7625 36.8985 46.1653 38.3013 46.1653 40.0017C46.1653 41.7021 44.7625 43.1049 43.0621 43.1049C41.3618 43.1049 39.959 41.7021 39.959 40.0017C39.959 38.3013 41.3618 36.8985 43.0621 36.8985Z" fill="#F7F0F5"/>
<path opacity="0.5" d="M3.52822 113.926C0.21248 135.733 15.2608 156.18 37.0681 159.496C58.8755 162.769 79.2375 147.763 82.5532 125.956C85.8689 104.149 70.8631 83.7015 49.1408 80.3858C27.291 77.07 6.88646 92.0758 3.52822 113.926ZM64.4017 102.958L64.3167 102.958C65.592 103.171 66.0595 104.446 65.2093 105.594C60.0232 112.905 54.8371 120.217 49.6934 127.529C49.3108 128.039 48.8433 128.379 48.2481 128.591C39.8313 131.27 31.4144 133.99 23.04 136.711C21.9773 137.051 21.2972 136.923 20.8296 136.243C20.3195 135.478 20.5745 134.798 21.0421 134.075C26.1857 126.849 31.2869 119.579 36.4305 112.353C36.8131 111.8 37.2807 111.46 37.9609 111.205C46.3777 108.484 54.8796 105.764 63.2964 103.043C63.6365 102.916 63.9766 102.831 64.3592 102.873L64.4017 102.958Z" fill="#F7F0F5"/>
<path d="M197.031 79.5349C218.838 82.8506 239.285 67.8023 242.601 45.9949C245.874 24.1876 230.869 3.82562 209.061 0.509879C187.254 -2.80586 166.807 12.2 163.491 33.9223C160.175 55.7721 175.181 76.1766 197.031 79.5349ZM186.064 18.7039L186.064 18.7889C186.276 17.5136 187.551 17.046 188.699 17.8962C196.011 23.0824 203.322 28.2685 210.634 33.4122C211.144 33.7947 211.484 34.2623 211.697 34.8575C214.375 43.2743 217.095 51.6912 219.816 60.0656C220.156 61.1283 220.029 61.8084 219.348 62.276C218.583 62.7862 217.903 62.5311 217.181 62.0635C209.954 56.9199 202.685 51.8187 195.458 46.6751C194.906 46.2925 194.565 45.8249 194.31 45.1448C191.59 36.7279 188.869 28.226 186.149 19.8091C186.021 19.4691 185.936 19.129 185.979 18.7464L186.064 18.7039Z" fill="#F7F0F5"/>
<path d="M203.068 36.8985C204.768 36.8985 206.171 38.3013 206.171 40.0017C206.171 41.7021 204.768 43.1049 203.068 43.1049C201.367 43.1049 199.964 41.7021 199.964 40.0017C199.964 38.3013 201.367 36.8985 203.068 36.8985Z" fill="#F7F0F5"/>
<path d="M83.5311 34.0072C80.1304 56.1971 95.7738 76.9842 118.219 79.7473C138.921 82.2554 158.688 67.6746 162.386 47.1426C166.382 24.9102 151.249 3.86802 129.144 0.509776C107.294 -2.80596 86.8894 12.1999 83.5311 34.0497L83.5311 34.0072ZM144.362 23.0398L144.277 23.0398C145.68 23.2948 146.105 24.7401 144.957 25.9729C139.176 32.3068 133.692 38.8108 130.206 46.675C129.569 48.1628 128.761 48.758 127.146 48.843C120.939 49.1405 114.775 50.3733 109.377 53.434C103.978 56.4947 101.853 57.8975 100.832 56.3246C100.322 55.5595 100.577 54.8793 101.045 54.1566C101.087 54.0716 101.172 53.9866 101.215 53.9016C111.502 39.4484 126.126 28.6935 143.002 23.2523C143.087 23.2523 143.172 23.2098 143.257 23.1673C143.597 23.0398 143.937 22.9547 144.32 22.9973L144.362 23.0398Z" fill="#2ADBD6"/>
<path opacity="0.5" d="M163.534 113.968C160.218 135.775 175.266 156.222 197.074 159.538C218.881 162.811 239.243 147.805 242.559 125.998C245.875 104.191 230.869 83.7435 209.146 80.4277C187.297 77.112 166.892 92.1178 163.534 113.968ZM224.365 103L224.28 103C225.555 103.213 226.023 104.488 225.172 105.636C219.986 112.947 214.8 120.259 209.656 127.571C209.274 128.081 208.806 128.421 208.211 128.633C199.794 131.312 191.377 134.032 183.003 136.753C181.94 137.093 181.26 136.965 180.793 136.285C180.282 135.52 180.538 134.84 181.005 134.117C186.149 126.891 191.25 119.621 196.394 112.395C196.776 111.842 197.244 111.502 197.924 111.247C206.341 108.526 214.843 105.806 223.26 103.085C223.6 102.958 223.94 102.873 224.322 102.915L224.365 103Z" fill="#F7F0F5"/>
<path opacity="0.5" d="M206.171 120.004C206.171 121.704 204.768 123.107 203.068 123.107C201.367 123.107 199.964 121.704 199.964 120.004C199.964 118.303 201.367 116.9 203.068 116.9C204.768 116.9 206.171 118.303 206.171 120.004Z" fill="#F7F0F5"/>
<path d="M159.495 193.885C156.179 172.163 135.732 157.115 113.925 160.473C92.1178 163.831 77.1119 184.151 80.3852 205.958C83.6584 227.765 104.148 242.814 125.955 239.498C147.805 236.182 162.811 215.735 159.495 193.885ZM136.795 179.73C134.075 188.146 131.354 196.648 128.633 205.065C128.421 205.703 128.081 206.213 127.486 206.596C120.259 211.739 112.99 216.84 105.763 221.984C105.041 222.494 104.36 222.749 103.595 222.196C102.915 221.729 102.788 221.049 103.128 219.986C105.848 211.612 108.569 203.195 111.247 194.778C111.417 194.183 111.757 193.715 112.31 193.333C119.621 188.189 126.933 183.003 134.245 177.817C135.435 176.966 136.668 177.434 136.838 178.709L136.838 178.624C136.965 179.007 136.838 179.347 136.71 179.687L136.795 179.73Z" fill="#F7F0F5"/>
<path d="M119.962 196.903C118.261 196.903 116.858 198.306 116.858 200.007C116.858 201.707 118.261 203.11 119.962 203.11C121.662 203.11 123.065 201.707 123.065 200.007C123.065 198.306 121.662 196.903 119.962 196.903Z" fill="#F7F0F5"/>
<path d="M33.8799 160.43C11.775 163.831 -3.3583 184.873 0.637583 207.063C4.3359 227.595 24.1028 242.176 44.8049 239.668C67.2498 236.947 82.8932 216.16 79.4925 193.928C76.1767 172.078 55.7297 157.072 33.8799 160.388L33.8799 160.43ZM19.7243 183.173C19.7243 183.173 19.8943 183.215 19.9793 183.258C36.8555 188.699 51.4788 199.454 61.7661 213.907C61.8086 213.992 61.8936 214.077 61.9361 214.162C62.4462 214.885 62.7013 215.565 62.1486 216.33C61.0859 217.903 58.8754 216.458 53.6043 213.439C48.3331 210.421 42.0417 209.146 35.8354 208.848C34.22 208.763 33.4123 208.168 32.7747 206.68C29.2889 198.816 23.8052 192.312 18.0239 185.978C16.8762 184.746 17.3013 183.3 18.7041 183.088L18.619 183.088C19.0016 182.96 19.3417 183.088 19.6818 183.215L19.7243 183.173Z" fill="#2ADBD6"/>
<path d="M643.507 113.968C640.107 136.158 655.75 156.945 678.195 159.708C698.897 162.216 718.664 147.636 722.362 127.104C726.358 104.871 711.225 83.829 689.12 80.4707C667.27 77.155 646.866 92.1608 643.507 114.011L643.507 113.968ZM704.338 103.001L704.253 103.001C705.656 103.256 706.081 104.701 704.933 105.934C699.152 112.268 693.668 118.772 690.183 126.636C689.545 128.124 688.737 128.719 687.122 128.804C680.916 129.101 674.752 130.334 669.353 133.395C663.954 136.456 661.829 137.858 660.809 136.286C660.299 135.52 660.554 134.84 661.021 134.118C661.064 134.033 661.149 133.948 661.191 133.863C671.479 119.409 686.102 108.654 702.978 103.213C703.063 103.213 703.148 103.171 703.233 103.128C703.573 103.001 703.913 102.916 704.296 102.958L704.338 103.001Z" fill="#2ADBD6"/>
</g>
<defs>
<clipPath id="clip0_1509_1942">
<rect width="723" height="240.008" fill="white" transform="matrix(-1 -8.74228e-08 -8.74228e-08 1 723 6.32067e-05)"/>
</clipPath>
</defs>
</svg>
