<svg width="125" height="125" viewBox="0 0 125 125" fill="none" xmlns="http://www.w3.org/2000/svg">
<path opacity="0.5" d="M0.710712 52.7482C-4.43355 86.5815 18.9135 118.304 52.7469 123.449C86.5802 128.527 118.171 105.246 123.316 71.4126C128.46 37.5792 105.179 5.85628 71.4113 0.712024C37.512 -4.43224 5.85498 18.8488 0.644771 52.7482H0.710712ZM95.0881 35.7325H94.9562C96.9347 36.0623 97.6602 38.0409 96.3411 39.8216C88.295 51.1653 80.2488 62.5091 72.2686 73.8528C71.6751 74.6442 70.9496 75.1719 70.0263 75.5016C56.9678 79.6566 43.9093 83.8775 30.9167 88.0984C29.2679 88.6261 28.2127 88.4282 27.4872 87.373C26.6958 86.1858 27.0915 85.1306 27.817 84.0094C35.7972 72.7976 43.7114 61.5198 51.6916 50.3079C52.2852 49.4506 53.0107 48.9229 54.0659 48.5272C67.1244 44.3063 80.3148 40.0854 93.3733 35.8645C93.9009 35.6666 94.4285 35.5347 95.0221 35.6006L95.0881 35.7325Z" fill="#F7F0F5"/>
</svg>
