<svg width="124" height="124" viewBox="0 0 124 124" fill="none" xmlns="http://www.w3.org/2000/svg">
<path d="M0.719771 52.6096C-4.54913 86.9892 19.6878 119.195 54.4625 123.476C86.5369 127.362 117.162 104.772 122.892 72.9607C129.083 38.5153 105.637 5.91407 71.3888 0.711037C37.5362 -4.42614 5.92281 18.8228 0.719771 52.6755L0.719771 52.6096ZM94.9671 35.6175L94.8354 35.6175C97.0088 36.0126 97.6674 38.2519 95.8892 40.1619C86.932 49.9752 78.436 60.052 73.0353 72.2363C72.0474 74.5414 70.7961 75.4635 68.2933 75.5952C58.6776 76.0562 49.1277 77.9662 40.7634 82.7082C32.399 87.4502 29.1059 89.6236 27.5253 87.1868C26.7349 86.0013 27.1301 84.9475 27.8546 83.8278C27.9204 83.6961 28.0522 83.5644 28.118 83.4327C44.0564 61.0399 66.7127 44.377 92.8596 35.9468C92.9913 35.9468 93.123 35.8809 93.2547 35.815C93.7816 35.6175 94.3085 35.4857 94.9012 35.5516L94.9671 35.6175Z" fill="#2ADBD6"/>
</svg>
