<svg width="125" height="125" viewBox="0 0 125 125" fill="none" xmlns="http://www.w3.org/2000/svg">
<g opacity="0.5">
<path d="M0.710467 52.7481C-4.43379 86.5815 18.9132 118.304 52.7466 123.449C86.5799 128.527 118.171 105.246 123.315 71.4125C128.459 37.5792 105.178 5.85628 71.4769 0.712023C37.5776 -4.43223 5.92068 18.8488 0.710467 52.7481ZM95.0877 35.7325H94.9558C96.9344 36.0623 97.6598 38.0408 96.3408 39.8215C88.2947 51.1653 80.2485 62.509 72.2683 73.8527C71.6748 74.6442 70.9493 75.1718 70.026 75.5015C56.9675 79.6565 43.909 83.8774 30.9165 88.0984C29.2677 88.626 28.2124 88.4281 27.487 87.3729C26.6955 86.1858 27.0913 85.1305 27.8167 84.0093C35.7969 72.7975 43.7111 61.5197 51.6913 50.3079C52.2849 49.4505 53.0104 48.9229 54.0656 48.5272C67.1241 44.3063 80.3145 40.0853 93.373 35.8644C93.9006 35.6666 94.4282 35.5347 95.0218 35.6006L95.0877 35.7325Z" fill="#F7F0F5"/>
<path d="M66.8594 62.1127C66.8594 64.7508 64.683 66.9272 62.0449 66.9272C59.4068 66.9272 57.2304 64.7508 57.2304 62.1127C57.2304 59.4747 59.4068 57.2982 62.0449 57.2982C64.683 57.2982 66.8594 59.4747 66.8594 62.1127Z" fill="#F7F0F5"/>
</g>
</svg>
