<svg width="812" height="812" viewBox="0 0 812 812" fill="none" xmlns="http://www.w3.org/2000/svg">
<rect width="812" height="812" rx="100" fill="url(#paint0_linear_854_982)"/>
<path d="M493.706 143.524C400.372 129.719 313.896 156.839 265.017 217.736C225.767 266.614 222.103 323.289 221.567 332.56C217.792 398.417 247.146 445.687 257.221 460.476C261.309 451.071 267.274 439.521 276.053 427.391C284.609 415.529 293.455 406.392 300.962 399.623C295.645 388.118 287.044 365.399 288.518 336.135C288.518 336.135 289.971 293.712 317.314 259.644C349.93 219.009 411.944 200.601 479.543 209.247C476.393 202.165 474.651 194.346 474.651 186.103C474.651 169.192 482.023 153.979 493.729 143.502L493.706 143.524ZM575.335 350.61C541.937 338.927 454.992 316.766 369.767 362.741C348.656 374.134 329.333 388.99 312.377 406.638C312.377 406.638 312.265 406.749 312.176 406.839C281.348 437.734 261.823 483.038 260.482 486.233C238.299 538.708 237.964 591.005 238.411 609.837C248.598 600.566 262.136 594.869 276.991 594.869C287.312 594.869 297.007 597.617 305.385 602.42C305.206 592.166 305.653 578.83 308.043 563.46C312.131 537.144 319.838 518.156 322.162 512.66C327.032 501.089 336.995 478.012 358.865 454.891C377.228 435.5 395.48 425.068 401.579 421.717C446.168 397.277 492.902 401.5 510.305 403.912C499.827 416.199 473.936 442.984 431.58 454.578C409.509 460.61 390.118 460.565 376.603 459.336C370.125 464.966 362.73 472.36 355.492 481.765C345.909 494.23 339.743 506.271 335.722 515.788C357.413 522.356 398.697 531.381 447.196 519.72C544.149 496.442 587.89 410.279 594.502 396.741L610.765 362.942L575.335 350.588V350.61Z" fill="#0B1220"/>
<path d="M504.11 161.049C500.13 165.709 497.441 171.157 496.079 176.857C495.792 177.968 496.652 179.079 497.8 179.151L517.123 180.238C517.642 178.762 518.32 177.366 519.237 176.05L507.014 161.085C506.261 160.225 504.863 160.153 504.11 161.049Z" fill="#0B1220"/>
<path d="M513.216 153.274C512.247 153.884 512.068 155.246 512.785 156.142L525.696 170.588C527.132 169.91 528.608 169.432 530.163 169.152L532.111 149.905C532.218 148.758 531.25 147.754 530.103 147.826C524.223 148.292 518.45 150.084 513.216 153.274Z" fill="#0B1220"/>
<path d="M495.72 187.315C495.326 187.674 495.111 188.211 495.147 188.785C495.613 194.663 497.405 200.434 500.596 205.668C501.206 206.635 502.568 206.815 503.465 206.098L517.921 193.193C517.243 191.757 516.764 190.281 516.485 188.725L497.226 186.777C496.652 186.742 496.115 186.957 495.72 187.315Z" fill="#0B1220"/>
<path d="M540.466 149.12C540.036 149.442 539.749 149.944 539.677 150.518L538.58 169.834C540.055 170.353 541.451 171.031 542.767 171.949L557.783 159.694C558.644 158.941 558.715 157.543 557.819 156.79C553.158 152.812 547.708 150.123 542.007 148.761C541.434 148.618 540.896 148.761 540.466 149.084V149.12Z" fill="#0B1220"/>
<path d="M508.412 211.882C507.552 212.635 507.48 214.033 508.376 214.786C513.037 218.765 518.487 221.453 524.188 222.815C525.299 223.102 526.411 222.242 526.483 221.094L527.572 201.784C526.096 201.266 524.7 200.588 523.384 199.67L508.376 211.918L508.412 211.882Z" fill="#0B1220"/>
<path d="M548.31 178.359C548.988 179.795 549.466 181.271 549.745 182.827L569.004 184.775C570.152 184.882 571.156 183.914 571.084 182.767C570.618 176.889 568.825 171.118 565.634 165.885C565.025 164.917 563.662 164.737 562.766 165.454L548.31 178.359Z" fill="#0B1220"/>
<path d="M536.066 202.403L534.119 221.65C534.011 222.797 534.979 223.801 536.127 223.729C542.007 223.263 547.779 221.471 553.014 218.281C553.982 217.671 554.161 216.309 553.444 215.413L540.533 200.967C539.097 201.645 537.621 202.123 536.066 202.403Z" fill="#0B1220"/>
<path d="M549.069 191.284C548.55 192.76 547.872 194.156 546.955 195.472L559.218 210.476C559.971 211.336 561.369 211.408 562.122 210.512C566.102 205.852 568.791 200.404 570.153 194.704C570.44 193.593 569.579 192.482 568.432 192.41L549.109 191.324L549.069 191.284Z" fill="#0B1220"/>
<path d="M533.294 194.764C538.157 194.764 542.099 190.824 542.099 185.963C542.099 181.102 538.157 177.161 533.294 177.161C528.432 177.161 524.49 181.102 524.49 185.963C524.49 190.824 528.432 194.764 533.294 194.764Z" fill="#0B1220"/>
<path fill-rule="evenodd" clip-rule="evenodd" d="M252.092 679.364C252.088 679.369 252.081 679.377 252.076 679.381L267.084 667.133L252.112 679.345L252.092 679.364Z" fill="#0B1220"/>
<path d="M256.485 623.605C255.768 622.708 255.947 621.346 256.915 620.737C262.15 617.547 267.922 615.755 273.802 615.289C274.95 615.217 275.918 616.22 275.81 617.368L273.863 636.615C272.307 636.894 270.832 637.373 269.396 638.051L256.485 623.605ZM276.994 662.227C281.856 662.227 285.798 658.286 285.798 653.425C285.798 648.564 281.856 644.624 276.994 644.624C272.132 644.624 268.19 648.564 268.19 653.425C268.19 658.286 272.132 662.227 276.994 662.227ZM239.42 654.778C239.026 655.136 238.81 655.674 238.846 656.247C239.312 662.126 241.105 667.897 244.296 673.13C244.906 674.098 246.268 674.277 247.164 673.56L261.621 660.656C260.943 659.22 260.464 657.744 260.185 656.188L240.926 654.24C240.352 654.204 239.814 654.419 239.42 654.778ZM239.778 644.32C241.141 638.62 243.83 633.172 247.81 628.512C248.563 627.616 249.961 627.688 250.714 628.548L262.937 643.512C262.019 644.829 261.341 646.225 260.823 647.701L241.499 646.614C240.352 646.542 239.492 645.431 239.778 644.32ZM252.112 679.345C251.251 680.098 251.18 681.496 252.076 682.249C256.737 686.227 262.187 688.916 267.888 690.278C268.999 690.565 270.111 689.704 270.182 688.557L271.272 669.247C269.796 668.728 268.4 668.05 267.084 667.133L252.076 679.381L252.112 679.345ZM277.818 689.113L279.766 669.865C281.321 669.586 282.797 669.108 284.233 668.429L297.144 682.876C297.861 683.772 297.681 685.134 296.713 685.744C291.479 688.934 285.706 690.726 279.826 691.192C278.679 691.264 277.711 690.26 277.818 689.113ZM292.769 658.747C292.25 660.223 291.572 661.619 290.655 662.935L302.917 677.939C303.67 678.799 305.069 678.871 305.821 677.975C309.801 673.315 312.49 667.866 313.853 662.167C314.14 661.056 313.279 659.945 312.132 659.873L292.808 658.786L292.769 658.747ZM293.445 650.289C293.166 648.734 292.687 647.258 292.009 645.822L306.466 632.917C307.362 632.2 308.724 632.379 309.334 633.347C312.525 638.581 314.318 644.352 314.784 650.23C314.855 651.377 313.852 652.345 312.704 652.237L293.445 650.289ZM284.165 616.582C283.735 616.905 283.448 617.407 283.377 617.98L282.279 637.297C283.755 637.816 285.151 638.494 286.467 639.411L301.483 627.157C302.343 626.404 302.415 625.006 301.519 624.253C296.858 620.274 291.408 617.586 285.707 616.224C285.134 616.081 284.596 616.224 284.165 616.547V616.582Z" fill="#0B1220"/>
<defs>
<linearGradient id="paint0_linear_854_982" x1="0" y1="0" x2="812" y2="812" gradientUnits="userSpaceOnUse">
<stop stop-color="#FEFC4F"/>
<stop offset="1" stop-color="#EAFE4F"/>
</linearGradient>
</defs>
</svg>
