<svg width="120" height="48" viewBox="0 0 120 48" fill="none" xmlns="http://www.w3.org/2000/svg">
<path d="M109.475 0.364772C101.337 -0.839107 93.7958 1.52579 89.5335 6.83611C86.1109 11.0984 85.7914 16.0405 85.7446 16.8489C85.4154 22.5917 87.9751 26.7137 88.8537 28.0033C89.2102 27.1832 89.7303 26.1761 90.4959 25.1183C91.2419 24.0839 92.0134 23.2872 92.6679 22.6969C92.2043 21.6937 91.4543 19.7125 91.5828 17.1606C91.5828 17.1606 91.7095 13.4613 94.0939 10.4906C96.938 6.94715 102.346 5.34197 108.24 6.09586C107.966 5.47833 107.814 4.79653 107.814 4.07771C107.814 2.60305 108.457 1.27645 109.477 0.362824L109.475 0.364772ZM116.594 18.423C113.681 17.4041 106.1 15.4717 98.6678 19.4807C96.8269 20.4742 95.1419 21.7697 93.6633 23.3086C93.6633 23.3086 93.6536 23.3183 93.6458 23.3261C90.9575 26.0202 89.255 29.9708 89.1381 30.2494C87.2037 34.8253 87.1745 39.3856 87.2134 41.0278C88.1017 40.2194 89.2822 39.7226 90.5777 39.7226C91.4777 39.7226 92.3231 39.9623 93.0536 40.3811C93.038 39.4869 93.077 38.324 93.2854 36.9837C93.6419 34.689 94.314 33.0331 94.5166 32.5539C94.9412 31.5448 95.8101 29.5325 97.7172 27.5163C99.3184 25.8254 100.91 24.9157 101.442 24.6235C105.33 22.4924 109.405 22.8606 110.923 23.0709C110.009 24.1424 107.751 26.478 104.058 27.4891C102.133 28.015 100.442 28.0111 99.2639 27.904C98.699 28.3949 98.0542 29.0397 97.423 29.8598C96.5873 30.9468 96.0497 31.9968 95.699 32.8266C97.5906 33.3994 101.191 34.1864 105.42 33.1695C113.874 31.1397 117.688 23.6261 118.265 22.4456L119.683 19.4983L116.594 18.421V18.423Z" fill="#F7F0F5"/>
<path d="M116.089 4.07976C116.089 5.89337 114.614 7.36998 112.799 7.36998C110.983 7.36998 109.508 5.89337 109.508 4.07976C109.508 2.26615 110.985 0.789551 112.799 0.789551C114.612 0.789551 116.089 2.2642 116.089 4.07976Z" fill="#13BD84"/>
<path d="M93.8677 44.7096C93.8677 46.5233 92.393 47.9999 90.5774 47.9999C88.7619 47.9999 87.2872 46.5233 87.2872 44.7096C87.2872 42.896 88.7638 41.4194 90.5774 41.4194C92.3911 41.4194 93.8677 42.896 93.8677 44.7096Z" fill="#13BD84"/>
<g clip-path="url(#clip0_2114_171)">
<path d="M7.80185 4.50603C7.32329 4.50603 6.88246 4.35696 6.51908 4.10254H5.93528C5.8777 4.10254 5.8221 4.10254 5.76451 4.10254C5.40113 4.35696 4.9603 4.50603 4.48373 4.50603C4.29111 4.50603 4.10446 4.48218 3.92376 4.43646C3.11558 4.72666 2.38484 5.19773 1.73749 5.84968C0.583798 7.00847 0 8.41771 0 10.0436C0 11.6695 0.583798 13.0966 1.73551 14.2554C2.88722 15.4162 4.30104 16.0026 5.93528 16.0026H8.96547V4.18006C8.62592 4.38677 8.22877 4.50603 7.80185 4.50603ZM6.98373 13.999H5.82408C4.77563 13.999 3.90192 13.6353 3.15132 12.882C2.36696 12.1068 1.98372 11.1905 1.98372 10.0794C1.98372 8.96829 2.36299 8.0659 3.14536 7.28277C3.92574 6.50162 4.83917 6.12198 5.93727 6.12198H6.98572V13.999H6.98373Z" fill="#F7F0F5"/>
<path d="M66.5034 0V13.999H63.6718V9.68777C63.6718 8.0758 63.084 6.67053 61.9263 5.51173C60.7687 4.35294 59.3588 3.7646 57.7345 3.7646C56.1102 3.7646 54.6428 4.39269 53.4037 5.63298L53.1694 5.86554L54.5653 7.26285L54.7996 7.03228C55.6753 6.16766 56.6344 5.74826 57.7325 5.74826C58.8306 5.74826 59.7441 6.12393 60.5264 6.9011C61.3068 7.67628 61.6861 8.58662 61.6861 9.68579V13.997H60.3715C60.8302 13.3033 61.0606 12.4844 61.0606 11.5502C61.0606 10.2403 60.6059 9.15707 59.7043 8.32226C58.8128 7.50932 57.8616 7.09986 56.8747 7.09986C55.8878 7.09986 54.9406 7.5113 54.063 8.32226C53.1515 9.15509 52.6888 10.2403 52.6888 11.5502C52.6888 12.4884 52.9212 13.3073 53.3838 13.997H44.5792C44.9902 13.1999 45.1987 12.218 45.1987 11.0652C45.1987 9.43733 44.6964 8.02213 43.7035 6.86135C43.217 6.29487 42.6511 5.84765 42.0157 5.53161C41.3405 5.19968 40.6336 5.03271 39.9148 5.03271C39.1959 5.03271 38.4771 5.19968 37.8119 5.5336C37.1824 5.84765 36.6106 6.28692 36.1062 6.84544C35.1153 8.02014 34.6129 9.44131 34.6129 11.0672C34.6129 12.22 34.8214 13.2019 35.2325 13.999H13.8047V4.29729C13.5188 4.43245 13.1991 4.50599 12.8615 4.50599C12.4862 4.50599 12.1347 4.41456 11.8249 4.25157V16.3245C11.8249 16.7837 11.6204 17.1772 11.2054 17.5191C10.8321 17.8152 10.3297 18.0061 9.71215 18.0836L9.42224 18.1213V20.0951L9.77967 20.0653C10.8599 19.9718 11.7733 19.628 12.4981 19.0376C13.3659 18.3042 13.8067 17.3919 13.8067 16.3245V16.0025H36.8449C37.1368 16.2251 37.4624 16.4259 37.8159 16.6028C38.4791 16.9347 39.186 17.1037 39.9187 17.1037C40.6515 17.1037 41.3445 16.9367 42.0216 16.6028C42.3731 16.4259 42.6968 16.2251 42.9767 16.0025H68.503V0H66.5014H66.5034ZM42.943 12.6593C42.7583 13.1622 42.5121 13.5995 42.2162 13.9612C41.9223 14.317 41.5689 14.6012 41.1658 14.8099C40.7666 15.0147 40.3417 15.118 39.9009 15.118C39.3211 15.118 38.7929 14.9471 38.2944 14.5913C37.7881 14.2355 37.3751 13.7386 37.0673 13.1204C36.7555 12.5003 36.5986 11.8086 36.5986 11.0692C36.5986 9.93623 36.9362 8.96427 37.6014 8.17915C38.2607 7.39801 39.0192 7.01837 39.9187 7.01837C40.8183 7.01837 41.557 7.39801 42.2182 8.17915C42.8834 8.96427 43.219 9.93822 43.219 11.0692C43.219 11.6237 43.1257 12.1584 42.941 12.6613L42.943 12.6593ZM58.3541 13.3391C57.9271 13.7227 57.4446 13.9374 56.8807 13.999C56.3167 13.9374 55.8421 13.7247 55.4232 13.3391C54.9208 12.8919 54.6765 12.3075 54.6765 11.5542C54.6765 10.8009 54.9208 10.2165 55.4232 9.76728C55.9295 9.31608 56.42 9.08751 56.8807 9.08751C57.3414 9.08751 57.8457 9.31608 58.3461 9.76728C58.8425 10.2165 59.0848 10.8009 59.0848 11.5542C59.0848 12.3075 58.8465 12.8938 58.356 13.3411L58.3541 13.3391Z" fill="#F7F0F5"/>
<path d="M72.4327 0H70.4509V16.0025H72.4327V0Z" fill="#F7F0F5"/>
<path d="M7.90308 25.4976C7.48609 25.4976 7.09689 25.3843 6.76329 25.1855H5.93525C5.86178 25.1855 5.79029 25.1855 5.71881 25.1895C5.38719 25.3863 4.99998 25.4976 4.58695 25.4976C4.43207 25.4976 4.28115 25.4817 4.13421 25.4519C3.24263 25.7302 2.4404 26.2251 1.73548 26.9347C0.583765 28.0935 0.00195312 29.5047 0.00195312 31.1286C0.00195312 32.7525 0.585751 34.1836 1.73548 35.3404C2.88719 36.4992 4.30101 37.0876 5.93525 37.0876H8.96544V25.2313C8.64971 25.4022 8.28831 25.4976 7.90308 25.4976ZM6.9837 35.084H5.82405C4.77559 35.084 3.90188 34.7203 3.15129 33.967C2.36495 33.1918 1.9817 32.2755 1.9817 31.1624C1.9817 30.0493 2.36097 29.1489 3.14334 28.3678C3.92373 27.5866 4.83715 27.207 5.93525 27.207H6.9837V35.084Z" fill="#F7F0F5"/>
<path d="M13.3142 37.4096C13.3142 37.8687 13.1096 38.2623 12.6946 38.6042C12.3213 38.9003 11.8189 39.0911 11.2014 39.1687L10.9135 39.2044V41.1782L11.2709 41.1483C12.3511 41.0549 13.2645 40.7111 13.9893 40.1207C14.8571 39.3873 15.2979 38.475 15.2979 37.4076V25.1836H13.3162V37.4076L13.3142 37.4096Z" fill="#F7F0F5"/>
<path d="M66.5034 21.0851V35.084H61.8707C62.2817 34.287 62.4902 33.3051 62.4902 32.1523C62.4902 30.5244 61.9879 29.1112 60.995 27.9484C60.5085 27.3839 59.9426 26.9367 59.3071 26.6187C58.632 26.2867 57.9251 26.1198 57.2083 26.1198C56.4914 26.1198 55.7686 26.2887 55.1054 26.6206C54.4739 26.9367 53.904 27.374 53.3997 27.9345C52.4088 29.1092 51.9064 30.5284 51.9064 32.1543C51.9064 33.3071 52.1129 34.291 52.526 35.086H47.8933V25.8037C47.5061 25.6904 47.1606 25.4758 46.8925 25.1876H46.8429C46.5847 25.4619 46.2591 25.6725 45.8917 25.7898V35.086H41.8965V30.8305C41.8965 29.1946 41.3087 27.7794 40.151 26.6266C38.9934 25.4738 37.5775 24.8914 35.9433 24.8914C34.4262 24.8914 33.0958 25.4022 31.9898 26.41V21.0871H30.008V34.8376C30.008 34.9688 29.9921 35.0443 29.9782 35.084C29.9703 35.084 29.9604 35.084 29.9485 35.084H26.2173V25.1856H23.1871C21.5509 25.1856 20.1371 25.7739 18.9873 26.9327C17.8356 28.0915 17.2518 29.5027 17.2518 31.1266C17.2518 32.7505 17.8356 34.1816 18.9873 35.3385C20.1391 36.4972 21.5509 37.0856 23.1871 37.0856H24.2356V37.4076C24.2356 37.8667 24.0251 38.2623 23.5942 38.6141C23.1414 38.9838 22.6013 39.1627 21.9401 39.1627C21.5191 39.1627 21.1279 39.0792 20.7784 38.9142C20.431 38.7512 20.147 38.5266 19.9345 38.2504L19.3448 37.4632L17.7562 38.6618L18.3479 39.4509C18.763 39.9876 19.2931 40.4089 19.9206 40.7031C20.5461 40.9973 21.2252 41.1444 21.9401 41.1444C23.0819 41.1444 24.0787 40.8005 24.9087 40.1167C25.7765 39.3813 26.2173 38.471 26.2173 37.4036V37.0816H54.1384C54.4302 37.3022 54.7559 37.503 55.1094 37.6799C55.7726 38.0118 56.4815 38.1808 57.2122 38.1808C57.943 38.1808 58.636 38.0138 59.3151 37.6799C59.6685 37.505 59.9902 37.3022 60.2702 37.0816H68.5109V21.0791H66.5093L66.5034 21.0851ZM24.2276 35.084H23.068C22.0195 35.084 21.1458 34.7203 20.3952 33.967C19.6109 33.1918 19.2276 32.2755 19.2276 31.1624C19.2276 30.0493 19.6069 29.1489 20.3893 28.3678C21.1696 27.5866 22.0831 27.207 23.1812 27.207H24.2296V35.084H24.2276ZM39.9088 35.084H31.9818V30.8285C31.9818 30.109 32.1605 29.4371 32.514 28.8329C32.8674 28.2267 33.3539 27.7437 33.9596 27.3958C34.5632 27.048 35.2344 26.8711 35.9552 26.8711C37.0553 26.8711 37.9667 27.2468 38.7491 28.0239C39.5295 28.7991 39.9088 29.7154 39.9088 30.8265V35.082V35.084ZM60.2285 33.7444C60.0438 34.2472 59.7996 34.6865 59.5017 35.0463C59.2079 35.4021 58.8544 35.6863 58.4513 35.895C58.0522 36.0997 57.6272 36.2051 57.1864 36.2051C56.6066 36.2051 56.0804 36.0321 55.58 35.6783C55.0736 35.3206 54.6626 34.8256 54.3528 34.2075C54.043 33.5854 53.8862 32.8937 53.8862 32.1543C53.8862 31.0233 54.2217 30.0493 54.887 29.2642C55.5462 28.4831 56.3048 28.1054 57.2063 28.1054C58.1078 28.1054 58.8445 28.4851 59.5057 29.2642C60.1709 30.0493 60.5065 31.0233 60.5065 32.1543C60.5065 32.7088 60.4132 33.2455 60.2285 33.7464V33.7444Z" fill="#F7F0F5"/>
<path d="M72.4327 21.085H70.4509V37.0875H72.4327V21.085Z" fill="#F7F0F5"/>
<path d="M12.8635 3.58155C13.5928 3.58155 14.184 2.98977 14.184 2.25977C14.184 1.52977 13.5928 0.937988 12.8635 0.937988C12.1342 0.937988 11.543 1.52977 11.543 2.25977C11.543 2.98977 12.1342 3.58155 12.8635 3.58155Z" fill="#F7F0F5"/>
<path d="M12.8635 3.58155C13.5928 3.58155 14.184 2.98977 14.184 2.25977C14.184 1.52977 13.5928 0.937988 12.8635 0.937988C12.1342 0.937988 11.543 1.52977 11.543 2.25977C11.543 2.98977 12.1342 3.58155 12.8635 3.58155Z" fill="#F7F0F5"/>
<path d="M5.80225 2.25977C5.80225 2.48636 5.74466 2.69705 5.64538 2.88389C5.42496 3.29931 4.98612 3.58155 4.48175 3.58155C3.753 3.58155 3.16125 2.98924 3.16125 2.25977C3.16125 1.53031 3.753 0.937988 4.48175 0.937988C4.98612 0.937988 5.42496 1.22023 5.64538 1.63565C5.74665 1.82249 5.80225 2.03318 5.80225 2.25977Z" fill="#F7F0F5"/>
<path d="M9.12231 2.25977C9.12231 2.98924 8.53057 3.58155 7.80182 3.58155C7.29745 3.58155 6.85861 3.29931 6.63819 2.88389C6.53692 2.69705 6.48132 2.48636 6.48132 2.25977C6.48132 2.03318 6.53891 1.82249 6.63819 1.63565C6.85861 1.22023 7.29745 0.937988 7.80182 0.937988C8.53057 0.937988 9.12231 1.53031 9.12231 2.25977Z" fill="#F7F0F5"/>
<path d="M5.74669 22.6274C5.84797 22.8142 5.90356 23.0269 5.90356 23.2515C5.90356 23.4761 5.84598 23.6908 5.74669 23.8756C5.52429 24.2891 5.08744 24.5713 4.58307 24.5713C3.85431 24.5713 3.26257 23.979 3.26257 23.2495C3.26257 22.5201 3.85431 21.9277 4.58307 21.9277C5.08545 21.9277 5.52429 22.21 5.74669 22.6234V22.6274Z" fill="#F7F0F5"/>
<path d="M6.82887 23.2516C6.82887 23.4682 6.79908 23.6789 6.73951 23.8757C6.63824 23.6888 6.58264 23.4762 6.58264 23.2516C6.58264 23.027 6.64023 22.8123 6.73951 22.6274C6.7971 22.8262 6.82887 23.0349 6.82887 23.2516Z" fill="#F7F0F5"/>
<path d="M5.90356 23.2515C5.90356 23.4781 5.84598 23.6908 5.74669 23.8756C5.52429 24.2891 5.08744 24.5713 4.58307 24.5713C3.85431 24.5713 3.26257 23.979 3.26257 23.2495C3.26257 22.5201 3.85431 21.9277 4.58307 21.9277C5.08545 21.9277 5.52429 22.21 5.74669 22.6234C5.84797 22.8102 5.90356 23.0229 5.90356 23.2475V23.2515Z" fill="#F7F0F5"/>
<path d="M5.74658 22.6274C5.84785 22.8143 5.90345 23.027 5.90345 23.2516C5.90345 23.4762 5.84587 23.6908 5.74658 23.8757C5.689 23.6769 5.65723 23.4682 5.65723 23.2516C5.65723 23.0349 5.68701 22.8242 5.74658 22.6274Z" fill="#F7F0F5"/>
<path d="M9.22168 23.2514C9.22168 23.9809 8.62994 24.5732 7.90118 24.5732C7.3988 24.5732 6.95996 24.2909 6.73756 23.8775C6.63629 23.6907 6.58069 23.478 6.58069 23.2534C6.58069 23.0288 6.63827 22.8141 6.73756 22.6293C6.95996 22.2158 7.39681 21.9336 7.90118 21.9336C8.62994 21.9336 9.22168 22.5259 9.22168 23.2554V23.2514Z" fill="#F7F0F5"/>
<path d="M9.22168 23.2514C9.22168 23.9809 8.62994 24.5732 7.90118 24.5732C7.3988 24.5732 6.95996 24.2909 6.73756 23.8775C6.63629 23.6907 6.58069 23.478 6.58069 23.2534C6.58069 23.0288 6.63827 22.8141 6.73756 22.6293C6.95996 22.2158 7.39681 21.9336 7.90118 21.9336C8.62994 21.9336 9.22168 22.5259 9.22168 23.2554V23.2514Z" fill="#F7F0F5"/>
<path d="M46.3663 23.0229C46.4676 23.2097 46.5232 23.4224 46.5232 23.647C46.5232 23.8716 46.4656 24.0863 46.3663 24.2711C46.1439 24.6846 45.7071 24.9668 45.2027 24.9668C44.472 24.9668 43.8822 24.3745 43.8822 23.645C43.8822 22.9156 44.472 22.3232 45.2027 22.3232C45.7051 22.3232 46.1439 22.6055 46.3663 23.0189V23.0229Z" fill="#F7F0F5"/>
<path d="M49.8393 23.647C49.8393 24.3764 49.2476 24.9688 48.5188 24.9688C48.0164 24.9688 47.5776 24.6865 47.3552 24.2711C47.2559 24.0843 47.2003 23.8736 47.2003 23.647C47.2003 23.4204 47.2579 23.2097 47.3552 23.0229C47.5776 22.6074 48.0164 22.3252 48.5188 22.3252C49.2476 22.3252 49.8393 22.9175 49.8393 23.647Z" fill="#F7F0F5"/>
</g>
<defs>
<clipPath id="clip0_2114_171">
<rect width="72.4327" height="41.18" fill="white"/>
</clipPath>
</defs>
</svg>
