<svg width="562" height="263" viewBox="0 0 562 263" fill="none" xmlns="http://www.w3.org/2000/svg">
<path d="M506.405 1.6809C462.078 -4.89684 421.008 8.02448 397.794 37.0389C379.153 60.3271 377.413 87.3298 377.158 91.7469C375.365 123.124 389.306 145.646 394.091 152.692C396.033 148.211 398.866 142.708 403.035 136.929C407.099 131.277 411.3 126.924 414.865 123.699C412.34 118.218 408.255 107.393 408.955 93.4499C408.955 93.4499 409.645 73.2377 422.631 57.0063C438.121 37.6456 467.574 28.8753 499.679 32.9943C498.183 29.6203 497.355 25.8951 497.355 21.9676C497.355 13.9104 500.856 6.6621 506.416 1.67025L506.405 1.6809ZM545.173 100.347C529.311 94.7804 488.019 84.2219 447.543 106.126C437.517 111.555 428.339 118.633 420.286 127.041C420.286 127.041 420.233 127.094 420.191 127.137C405.55 141.857 396.277 163.442 395.64 164.964C385.105 189.966 384.946 214.883 385.158 223.855C389.996 219.438 396.425 216.724 403.481 216.724C408.382 216.724 412.987 218.033 416.966 220.321C416.881 215.436 417.093 209.082 418.228 201.759C420.17 189.221 423.83 180.174 424.933 177.556C427.246 172.042 431.978 161.047 442.365 150.031C451.086 140.793 459.754 135.822 462.651 134.226C483.828 122.581 506.023 124.593 514.288 125.743C509.312 131.597 497.016 144.358 476.9 149.882C466.417 152.756 457.208 152.735 450.789 152.149C447.712 154.831 444.201 158.355 440.763 162.835C436.212 168.775 433.283 174.511 431.374 179.046C441.676 182.175 461.282 186.475 484.316 180.919C530.362 169.828 551.135 128.776 554.276 122.326L562 106.222L545.173 100.336V100.347Z" fill="#F7F0F5"/>
<path d="M511.346 10.031C509.456 12.2512 508.179 14.8471 507.531 17.5625C507.395 18.0919 507.804 18.6214 508.349 18.6555L517.526 19.1735C517.772 18.4703 518.094 17.8051 518.53 17.1779L512.725 10.0481C512.367 9.63823 511.703 9.60407 511.346 10.031Z" fill="#FEFC4F"/>
<path d="M515.67 6.32662C515.21 6.61695 515.125 7.26592 515.466 7.69287L521.598 14.5759C522.28 14.2529 522.98 14.0248 523.719 13.8918L524.644 4.72126C524.695 4.17476 524.235 3.69657 523.69 3.73073C520.898 3.95275 518.156 4.80666 515.67 6.32662Z" fill="#FEFC4F"/>
<path d="M507.361 22.5454C507.174 22.7162 507.072 22.9723 507.089 23.2456C507.31 26.0464 508.162 28.796 509.677 31.2894C509.966 31.7505 510.614 31.8359 511.039 31.4944L517.905 25.3458C517.583 24.6616 517.356 23.9584 517.223 23.2172L508.076 22.2892C507.804 22.2721 507.549 22.3746 507.361 22.5454Z" fill="#FEFC4F"/>
<path d="M528.612 4.34723C528.408 4.50093 528.272 4.74003 528.238 5.01328L527.716 14.2167C528.417 14.4638 529.08 14.7869 529.705 15.224L536.837 9.3853C537.245 9.02666 537.279 8.36061 536.854 8.00196C534.64 6.10628 532.052 4.82542 529.344 4.17645C529.072 4.10813 528.816 4.17645 528.612 4.33015V4.34723Z" fill="#FEFC4F"/>
<path d="M513.389 34.2505C512.98 34.6091 512.946 35.2751 513.372 35.6338C515.586 37.5295 518.174 38.8103 520.881 39.4593C521.409 39.5959 521.937 39.1861 521.971 38.6396L522.489 29.4392C521.788 29.1921 521.125 28.869 520.5 28.4319L513.372 34.2675L513.389 34.2505Z" fill="#FEFC4F"/>
<path d="M532.337 18.2783C532.659 18.9625 532.887 19.6657 533.019 20.4069L542.166 21.335C542.711 21.3863 543.188 20.9252 543.154 20.3787C542.932 17.5778 542.081 14.8282 540.565 12.3348C540.276 11.8737 539.629 11.7883 539.203 12.1299L532.337 18.2783Z" fill="#FEFC4F"/>
<path d="M526.523 29.7338L525.598 38.9043C525.547 39.4508 526.006 39.929 526.551 39.8949C529.344 39.6729 532.085 38.819 534.572 37.299C535.031 37.0087 535.116 36.3597 534.776 35.9327L528.644 29.0497C527.962 29.3727 527.261 29.6008 526.523 29.7338Z" fill="#FEFC4F"/>
<path d="M532.698 24.4363C532.452 25.1395 532.13 25.8047 531.694 26.4319L537.518 33.5804C537.876 33.9902 538.54 34.0244 538.897 33.5974C540.787 31.3773 542.064 28.7814 542.711 26.066C542.848 25.5365 542.439 25.0071 541.894 24.9729L532.717 24.4553L532.698 24.4363Z" fill="#FEFC4F"/>
<path d="M525.206 26.0945C527.516 26.0945 529.388 24.217 529.388 21.901C529.388 19.585 527.516 17.7075 525.206 17.7075C522.897 17.7075 521.025 19.585 521.025 21.901C521.025 24.217 522.897 26.0945 525.206 26.0945Z" fill="#FEFC4F"/>
<path d="M389.621 232.753C387.731 234.973 386.454 237.569 385.807 240.285C385.671 240.814 386.079 241.344 386.624 241.378L395.801 241.896C396.048 241.192 396.37 240.527 396.805 239.9L391 232.77C390.643 232.36 389.979 232.326 389.621 232.753Z" fill="#FEFC4F"/>
<path d="M393.946 229.049C393.486 229.339 393.401 229.988 393.741 230.415L399.873 237.298C400.555 236.975 401.256 236.747 401.995 236.614L402.919 227.443C402.97 226.897 402.511 226.419 401.966 226.453C399.173 226.675 396.432 227.529 393.946 229.049Z" fill="#FEFC4F"/>
<path d="M385.637 245.268C385.449 245.438 385.347 245.695 385.364 245.968C385.586 248.769 386.437 251.518 387.952 254.012C388.242 254.473 388.889 254.558 389.315 254.217L396.18 248.068C395.858 247.384 395.631 246.681 395.498 245.939L386.352 245.011C386.079 244.994 385.824 245.097 385.637 245.268Z" fill="#FEFC4F"/>
<path d="M406.888 227.069C406.683 227.223 406.547 227.462 406.513 227.735L405.992 236.939C406.693 237.186 407.356 237.509 407.981 237.946L415.112 232.107C415.521 231.749 415.555 231.083 415.129 230.724C412.915 228.828 410.327 227.548 407.62 226.899C407.347 226.83 407.092 226.899 406.888 227.052V227.069Z" fill="#FEFC4F"/>
<path d="M391.664 256.973C391.256 257.331 391.222 257.997 391.647 258.356C393.861 260.252 396.449 261.533 399.157 262.181C399.685 262.318 400.212 261.908 400.247 261.362L400.764 252.161C400.063 251.914 399.4 251.591 398.775 251.154L391.647 256.99L391.664 256.973Z" fill="#FEFC4F"/>
<path d="M410.613 241C410.935 241.685 411.162 242.388 411.295 243.129L420.441 244.057C420.986 244.108 421.463 243.647 421.429 243.101C421.208 240.3 420.356 237.55 418.841 235.057C418.551 234.596 417.904 234.51 417.479 234.852L410.613 241Z" fill="#FEFC4F"/>
<path d="M404.798 252.456L403.873 261.627C403.822 262.173 404.282 262.651 404.827 262.617C407.619 262.395 410.361 261.541 412.847 260.021C413.307 259.731 413.392 259.082 413.051 258.655L406.919 251.772C406.238 252.095 405.537 252.323 404.798 252.456Z" fill="#FEFC4F"/>
<path d="M410.973 247.158C410.727 247.862 410.405 248.527 409.97 249.154L415.793 256.303C416.151 256.712 416.815 256.747 417.173 256.32C419.063 254.099 420.34 251.504 420.987 248.788C421.123 248.259 420.714 247.729 420.17 247.695L410.992 247.177L410.973 247.158Z" fill="#FEFC4F"/>
<path d="M403.482 248.817C405.791 248.817 407.663 246.939 407.663 244.623C407.663 242.307 405.791 240.43 403.482 240.43C401.172 240.43 399.3 242.307 399.3 244.623C399.3 246.939 401.172 248.817 403.482 248.817Z" fill="#FEFC4F"/>
<path d="M24.8931 68.0346H37.6067V18.5213C36.1873 19.3902 34.5085 19.8933 32.7228 19.8933C30.7081 19.8933 28.8613 19.2683 27.3351 18.2012H24.1758C22.6495 19.2683 20.8028 19.8933 18.8034 19.8933C17.9945 19.8933 17.2161 19.7866 16.4529 19.6036C13.0647 20.8232 9.99692 22.7897 7.2802 25.5184C2.442 30.3661 0 36.2656 0 43.0798C0 49.894 2.442 55.8697 7.2802 60.7174C12.1184 65.5803 18.0402 68.0346 24.8931 68.0346ZM13.202 31.5094C16.4835 28.2319 20.3144 26.6465 24.9084 26.6465H29.304V59.635H24.4352C20.0396 59.635 16.3766 58.1106 13.2173 54.955C9.92061 51.708 8.31805 47.8665 8.31805 43.217C8.31805 38.5675 9.90535 34.7869 13.1868 31.5094H13.202Z" fill="#F7F0F5"/>
<path d="M57.9203 69.3724V68.0309H154.578C155.799 68.9608 157.172 69.7992 158.653 70.5462C161.43 71.9334 164.407 72.6499 167.474 72.6499C170.542 72.6499 173.457 71.9487 176.296 70.5462C177.777 69.7992 179.135 68.9608 180.295 68.0309H287.392V1.00195H278.997V59.6313H267.123V41.5821C267.123 34.8289 264.651 28.9446 259.797 24.097C254.944 19.2493 249.022 16.7797 242.215 16.7797C235.408 16.7797 229.242 19.417 224.052 24.6L223.076 25.5757L228.936 31.4295L229.928 30.4691C233.607 26.8409 237.621 25.0879 242.23 25.0879C246.839 25.0879 250.67 26.658 253.952 29.9203C257.233 33.1673 258.82 36.9784 258.82 41.5821V59.6313H253.311C255.234 56.7197 256.195 53.2897 256.195 49.3872C256.195 43.8993 254.287 39.3717 250.502 35.8655C246.763 32.4661 242.779 30.7435 238.628 30.7435C234.477 30.7435 230.508 32.4661 226.83 35.8655C222.999 39.3565 221.061 43.8993 221.061 49.3872C221.061 53.3202 222.038 56.7501 223.976 59.6313H187.041C188.766 56.2928 189.635 52.1769 189.635 47.3597C189.635 40.5455 187.529 34.6155 183.363 29.7526C181.317 27.3745 178.952 25.4995 176.281 24.1884C173.457 22.8012 170.481 22.1 167.474 22.1C164.468 22.1 161.446 22.8012 158.653 24.2037C156.012 25.5147 153.616 27.3592 151.495 29.6916C147.343 34.6155 145.237 40.5608 145.237 47.3749C145.237 52.2074 146.107 56.3081 147.832 59.6466H57.9356V19.0054C56.7299 19.5694 55.402 19.8743 53.9826 19.8743C52.4106 19.8743 50.9301 19.4932 49.6328 18.8072V69.3724C49.6328 71.2932 48.7781 72.9395 47.0382 74.3725C45.4661 75.6073 43.3599 76.4152 40.7806 76.7354L39.5596 76.8878V85.1502L41.0553 85.0282C45.5882 84.6319 49.4191 83.1989 52.4564 80.7293C56.1041 77.6653 57.9509 73.8389 57.9509 69.3724H57.9203ZM232.508 41.9023C234.629 40.012 236.69 39.0516 238.628 39.0516C240.566 39.0516 242.673 40.012 244.779 41.9023C246.855 43.7773 247.877 46.2316 247.877 49.3872C247.877 52.5427 246.87 54.9971 244.825 56.8721C243.039 58.4728 241.009 59.3722 238.643 59.6313C236.278 59.3722 234.294 58.488 232.523 56.8721C230.417 54.9971 229.394 52.558 229.394 49.4024C229.394 46.2469 230.417 43.7925 232.523 41.9175L232.508 41.9023ZM157.752 35.2558C160.515 31.9783 163.705 30.3929 167.474 30.3929C171.244 30.3929 174.343 31.9783 177.12 35.2558C179.913 38.5485 181.317 42.6187 181.317 47.3597C181.317 49.6768 180.921 51.9177 180.158 54.0214C179.379 56.1251 178.357 57.9544 177.105 59.4636C175.869 60.9576 174.388 62.1466 172.694 63.0155C171.015 63.8692 169.245 64.3113 167.383 64.3113C164.956 64.3113 162.728 63.5948 160.652 62.1009C158.531 60.6069 156.791 58.5337 155.509 55.9422C154.196 53.3507 153.54 50.4543 153.54 47.3444C153.54 42.6035 154.959 38.5333 157.752 35.2405V35.2558Z" fill="#F7F0F5"/>
<path d="M303.876 1.00195H295.558V68.0156H303.876V1.00195Z" fill="#F7F0F5"/>
<path d="M28.3729 106.494H24.8931C24.5878 106.494 24.2826 106.494 23.9926 106.509C22.6037 107.332 20.9706 107.805 19.246 107.805C18.5897 107.805 17.9639 107.744 17.3534 107.607C13.6141 108.765 10.2411 110.838 7.29546 113.811C2.45726 118.659 0 124.573 0 131.372C0 138.171 2.442 144.162 7.2802 149.01C12.1184 153.858 18.0402 156.327 24.8931 156.327H37.6067V106.677C36.2789 107.393 34.7679 107.79 33.1501 107.79C31.3949 107.79 29.7618 107.317 28.3729 106.479V106.494ZM29.304 147.943H24.4352C20.0396 147.943 16.3766 146.418 13.2173 143.263C9.92061 140.016 8.31805 136.174 8.31805 131.51C8.31805 126.845 9.90535 123.079 13.1868 119.802C16.4682 116.524 20.2991 114.939 24.8931 114.939H29.2887V147.928L29.304 147.943Z" fill="#F7F0F5"/>
<path d="M55.8607 157.669C55.8607 159.605 55.006 161.251 53.2661 162.684C51.6941 163.919 49.5878 164.727 47.0085 165.047L45.8027 165.2V173.462L47.2985 173.34C51.8314 172.944 55.6623 171.511 58.6995 169.041C62.3473 165.962 64.194 162.151 64.194 157.684V106.494H55.876V157.684L55.8607 157.669Z" fill="#F7F0F5"/>
<path d="M278.998 89.3145V147.944H259.569C261.294 144.605 262.164 140.489 262.164 135.672C262.164 128.858 260.057 122.943 255.891 118.065C253.845 115.702 251.48 113.827 248.809 112.501C245.985 111.114 243.009 110.412 240.002 110.412C236.996 110.412 233.958 111.114 231.181 112.516C228.525 113.842 226.144 115.672 224.023 118.019C219.871 122.943 217.75 128.889 217.75 135.687C217.75 140.52 218.62 144.636 220.344 147.959H200.915V109.086C199.297 108.614 197.847 107.714 196.718 106.51H196.504C195.421 107.653 194.062 108.537 192.521 109.025V147.959H175.763V130.139C175.763 123.294 173.29 117.364 168.437 112.531C163.583 107.699 157.646 105.26 150.778 105.26C144.414 105.26 138.827 107.394 134.188 111.617V89.3297H125.87V146.922C125.87 147.471 125.809 147.791 125.748 147.959H109.966V106.51H97.2525C90.3844 106.51 84.4625 108.98 79.6396 113.827C74.8014 118.675 72.3594 124.59 72.3594 131.389C72.3594 138.187 74.8014 144.178 79.6396 149.026C84.4778 153.874 90.3996 156.343 97.2525 156.343H101.648V157.685C101.648 159.606 100.763 161.267 98.9619 162.731C97.0693 164.286 94.7952 165.033 92.0174 165.033C90.247 165.033 88.6139 164.682 87.1487 163.996C85.6835 163.31 84.493 162.38 83.6078 161.222L81.1353 157.929L74.4656 162.944L76.9534 166.252C78.6933 168.508 80.9216 170.261 83.5468 171.496C86.1719 172.731 89.026 173.341 92.0174 173.341C96.8099 173.341 100.992 171.893 104.472 169.042C108.119 165.963 109.966 162.151 109.966 157.685V156.343H227.106C228.327 157.273 229.7 158.112 231.181 158.843C233.958 160.231 236.935 160.947 240.002 160.947C243.07 160.947 245.97 160.246 248.824 158.843C250.305 158.112 251.663 157.258 252.838 156.343H287.408V89.3297H279.013L278.983 89.3602L278.998 89.3145ZM101.648 147.944H96.7793C92.3837 147.944 88.7208 146.419 85.5614 143.264C82.2647 140.017 80.6622 136.175 80.6622 131.511C80.6622 126.846 82.2495 123.08 85.5309 119.803C88.8123 116.525 92.6432 114.94 97.2372 114.94H101.633V147.929L101.648 147.944ZM167.429 147.929H134.172V130.108C134.172 127.09 134.92 124.285 136.401 121.754C137.881 119.208 139.926 117.196 142.46 115.733C144.993 114.269 147.802 113.538 150.839 113.538C155.448 113.538 159.279 115.108 162.561 118.37C165.827 121.617 167.429 125.459 167.429 130.108V147.929ZM252.67 142.334C251.892 144.438 250.869 146.267 249.618 147.776C248.382 149.27 246.901 150.459 245.207 151.328C243.528 152.182 241.742 152.624 239.896 152.624C237.469 152.624 235.256 151.892 233.15 150.413C231.028 148.919 229.303 146.846 228.006 144.255C226.709 141.648 226.053 138.752 226.053 135.657C226.053 130.916 227.457 126.846 230.25 123.553C233.012 120.276 236.202 118.705 239.987 118.705C243.772 118.705 246.855 120.291 249.633 123.553C252.426 126.846 253.83 130.916 253.83 135.657C253.83 137.974 253.433 140.23 252.67 142.319V142.334Z" fill="#F7F0F5"/>
<path d="M303.875 89.3145H295.557V156.343H303.875V89.3145Z" fill="#F7F0F5"/>
<path d="M53.968 16.0048C57.0205 16.0048 59.5083 13.52 59.5083 10.4712C59.5083 7.42231 57.0358 4.9375 53.968 4.9375C50.9003 4.9375 48.4277 7.42231 48.4277 10.4712C48.4277 13.52 50.9155 16.0048 53.968 16.0048Z" fill="#F7F0F5"/>
<path d="M18.803 16.0048C20.9245 16.0048 22.756 14.8158 23.687 13.0779C24.0991 12.3005 24.3433 11.4163 24.3433 10.4712C24.3433 9.52602 24.1143 8.64185 23.687 7.8644C22.756 6.12655 20.9245 4.9375 18.803 4.9375C15.7505 4.9375 13.2627 7.42231 13.2627 10.4712C13.2627 13.52 15.7505 16.0048 18.803 16.0048Z" fill="#F7F0F5"/>
<path d="M32.7375 16.0048C35.79 16.0048 38.2778 13.52 38.2778 10.4712C38.2778 7.42231 35.79 4.9375 32.7375 4.9375C30.6161 4.9375 28.7846 6.12655 27.8536 7.8644C27.4415 8.64185 27.1973 9.52602 27.1973 10.4712C27.1973 11.4163 27.4262 12.3005 27.8536 13.0779C28.7846 14.8158 30.6161 16.0048 32.7375 16.0048Z" fill="#F7F0F5"/>
<path d="M19.2307 92.8359C16.1782 92.8359 13.6904 95.3207 13.6904 98.3696C13.6904 101.418 16.1782 103.903 19.2307 103.903C21.3522 103.903 23.1837 102.714 24.1147 100.992C24.5268 100.214 24.771 99.3147 24.771 98.3848C24.771 98.3391 24.771 98.2934 24.771 98.2629C24.7557 97.3635 24.5268 96.5098 24.1147 95.7476C23.1837 94.0097 21.3369 92.8359 19.2307 92.8359Z" fill="#F7F0F5"/>
<path d="M33.1497 92.8664C31.0282 92.8664 29.1967 94.0555 28.2657 95.7781C27.8536 96.5555 27.6094 97.4549 27.6094 98.3848C27.6094 99.3147 27.8383 100.214 28.2657 100.992C29.1967 102.729 31.0434 103.903 33.1497 103.903C36.2021 103.903 38.6899 101.434 38.6899 98.3696C38.6899 95.3207 36.2021 92.8359 33.1497 92.8359V92.8664Z" fill="#F7F0F5"/>
<path d="M189.636 94.4941C186.568 94.4941 184.096 96.9789 184.096 100.028C184.096 103.077 186.568 105.561 189.636 105.561C191.757 105.561 193.589 104.372 194.52 102.65C194.932 101.872 195.176 100.973 195.176 100.043C195.176 99.1131 194.947 98.2137 194.52 97.4363C193.589 95.6832 191.742 94.5094 189.636 94.5094V94.4941Z" fill="#F7F0F5"/>
<path d="M198.672 97.4367C198.26 98.2141 198.016 99.0983 198.016 100.043C198.016 100.989 198.245 101.873 198.672 102.65C199.603 104.388 201.45 105.577 203.556 105.577C206.608 105.577 209.096 103.092 209.096 100.043C209.096 96.9946 206.608 94.5098 203.556 94.5098C201.45 94.5098 199.603 95.6988 198.672 97.4367Z" fill="#F7F0F5"/>
<path d="M217.568 192.305H214.912V195.323H217.568V192.305Z" fill="#FEFC4F"/>
<path d="M90.3243 221.209H88.0349C84.8908 221.209 82.2046 220.34 79.9763 218.587C77.8091 216.91 76.7254 214.898 76.7254 212.566V206.636H74.375V212.566C74.375 214.105 74.7566 215.584 75.5044 216.971C76.237 218.298 77.2443 219.471 78.5264 220.478C79.7932 221.468 81.2278 222.215 82.8609 222.734C84.433 223.282 86.0813 223.572 87.8365 223.603H92.7052V197.84H90.3243V221.209Z" fill="#FEFC4F"/>
<path d="M129 213.202C127.504 211.693 126.741 209.909 126.741 207.806C126.741 205.702 127.489 203.949 128.969 202.44C130.465 200.946 132.266 200.184 134.372 200.184C136.478 200.184 138.234 200.915 139.745 202.409C139.882 202.562 140.172 202.867 140.645 203.339L140.981 200.367C139.058 198.69 136.86 197.851 134.387 197.851C131.655 197.851 129.29 198.827 127.336 200.793C125.398 202.745 124.421 205.077 124.421 207.806C124.421 210.534 125.398 212.913 127.367 214.864C127.809 215.306 127.992 215.489 127.901 215.428H116.164V190.564H113.783V215.428H97.376V217.806H142.324V215.428H133.777C131.945 215.291 130.358 214.559 129.03 213.217L129 213.202Z" fill="#FEFC4F"/>
<path d="M156.915 194.727H154.564V214.361H156.915V194.727Z" fill="#FEFC4F"/>
<path d="M211.937 192.305H209.281V195.323H211.937V192.305Z" fill="#FEFC4F"/>
<path d="M85.0131 192.305H82.3574V195.323H85.0131V192.305Z" fill="#FEFC4F"/>
<path d="M107.326 194.727H104.976V214.361H107.326V194.727Z" fill="#FEFC4F"/>
<path d="M172.727 190.551H170.377V217.792H172.727V190.551Z" fill="#FEFC4F"/>
<path d="M250.351 213.202C248.856 211.693 248.093 209.909 248.093 207.806C248.093 205.702 248.825 203.949 250.306 202.44C251.801 200.946 253.602 200.184 255.709 200.184C257.815 200.184 259.57 200.915 261.081 202.409C261.218 202.562 261.508 202.867 261.981 203.339L262.317 200.367C260.394 198.69 258.196 197.851 255.724 197.851C252.977 197.851 250.626 198.827 248.657 200.793C246.719 202.745 245.742 205.077 245.742 207.806C245.742 210.534 246.719 212.913 248.688 214.864C249.13 215.306 249.298 215.489 249.222 215.428H237.485V190.564H235.135V217.806H263.645V215.428H255.098C253.267 215.291 251.679 214.559 250.367 213.217L250.351 213.202Z" fill="#FEFC4F"/>
<path d="M163.341 215.414H146.934V217.792H165.722V190.551H163.341V215.414Z" fill="#FEFC4F"/>
<path d="M230.494 220.443H227.869V223.462H230.494V220.443Z" fill="#FEFC4F"/>
<path d="M301.588 190.551V215.414H293.27V190.551H290.889V215.414H282.571V207.167C282.571 204.454 281.594 202.121 279.626 200.185C277.687 198.219 275.23 197.243 272.269 197.243V199.591C274.589 199.591 276.497 200.338 277.977 201.816C279.473 203.295 280.236 205.079 280.236 207.182V215.429H268.301V217.807H304V190.566H301.619L301.588 190.551Z" fill="#FEFC4F"/>
<path d="M180.282 200.779C178.344 202.731 177.367 205.063 177.367 207.792C177.367 210.52 178.344 212.914 180.282 214.88C182.236 216.831 184.586 217.792 187.349 217.792H189.806V218.95C189.806 219.941 189.348 220.81 188.448 221.527C187.547 222.274 186.433 222.655 185.136 222.655C184.296 222.655 183.518 222.487 182.816 222.152C182.114 221.816 181.534 221.374 181.091 220.795L180.389 219.865L178.497 221.283L179.199 222.213C179.885 223.097 180.74 223.783 181.778 224.271C182.816 224.758 183.93 225.002 185.121 225.002C187.028 225.002 188.661 224.438 190.02 223.31C191.439 222.121 192.141 220.658 192.141 218.935V197.807H187.334C184.571 197.807 182.221 198.782 180.267 200.749L180.282 200.779ZM189.791 215.414H187.135C185.121 215.414 183.396 214.697 181.961 213.264C180.465 211.786 179.702 209.987 179.702 207.868C179.702 205.749 180.435 203.981 181.915 202.502C183.411 201.008 185.212 200.246 187.318 200.246H189.776V215.414H189.791Z" fill="#FEFC4F"/>
<path d="M228.511 217.79V197.82H226.161V215.397H218.209V197.82H213.402C210.639 197.82 208.289 198.796 206.335 200.762C204.397 202.714 203.42 205.046 203.42 207.775C203.42 210.504 204.397 212.897 206.335 214.863C208.273 216.815 210.639 217.775 213.402 217.775H228.511V217.79ZM215.844 215.412H213.188C211.173 215.412 209.449 214.696 208.014 213.263C206.518 211.784 205.755 209.985 205.755 207.866C205.755 205.747 206.488 203.979 207.968 202.5C209.464 201.006 211.265 200.244 213.371 200.244H215.828V215.412H215.844Z" fill="#FEFC4F"/>
<path d="M224.862 220.443H222.237V223.462H224.862V220.443Z" fill="#FEFC4F"/>
</svg>
