<svg width="48" height="48" viewBox="0 0 48 48" fill="none" xmlns="http://www.w3.org/2000/svg">
<g filter="url(#filter0_d_2233_129)">
<path d="M14.8343 16.1811C13.5765 17.6542 12.7266 19.3767 12.296 21.1784C12.2053 21.5297 12.4773 21.881 12.8399 21.9037L19.4577 22.425C19.605 22.0057 19.7976 21.6091 20.0583 21.2351L15.7522 16.1924C15.5142 15.9205 15.0723 15.8978 14.8343 16.1811Z" fill="#FEFC4F"/>
<path d="M17.712 13.7236C17.4061 13.9162 17.3494 14.3468 17.5761 14.6301L21.8935 19.6841C22.3014 19.4915 22.7207 19.3555 23.1626 19.2762L23.6839 12.6584C23.7179 12.2958 23.4119 11.9785 23.0493 12.0011C21.1909 12.1485 19.3665 12.7151 17.712 13.7236Z" fill="#FEFC4F"/>
<path d="M12.1825 24.4848C12.0579 24.5981 11.9899 24.7681 12.0012 24.9494C12.1485 26.8079 12.7151 28.6323 13.7237 30.2867C13.9163 30.5927 14.3469 30.6494 14.6302 30.4227L19.6842 26.1053C19.4915 25.6973 19.3556 25.2781 19.2762 24.8361L12.6585 24.3148C12.4772 24.3035 12.3072 24.3715 12.1825 24.4848Z" fill="#FEFC4F"/>
<path d="M26.3243 12.4111C26.1884 12.5131 26.0977 12.6717 26.075 12.853L25.5538 19.4708C25.973 19.6181 26.3697 19.8108 26.7436 20.0714L31.7976 15.754C32.0696 15.516 32.0922 15.0741 31.8089 14.8361C30.3358 13.5783 28.6134 12.7284 26.8116 12.2978C26.6303 12.2524 26.4603 12.2978 26.3243 12.3998V12.4111Z" fill="#FEFC4F"/>
<path d="M16.1939 32.2501C15.9219 32.4881 15.8992 32.93 16.1825 33.168C17.6557 34.4259 19.3781 35.2757 21.1799 35.7064C21.5311 35.797 21.8824 35.525 21.9051 35.1624L22.4264 28.5446C22.0071 28.3973 21.6105 28.2047 21.2365 27.944L16.1825 32.2615L16.1939 32.2501Z" fill="#FEFC4F"/>
<path d="M28.3186 21.8927C28.5112 22.3007 28.6472 22.7199 28.7265 23.1619L35.3443 23.6831C35.7069 23.7171 36.0242 23.4112 36.0015 23.0486C35.8542 21.1901 35.2876 19.3657 34.2791 17.7113C34.0864 17.4053 33.6558 17.3486 33.3725 17.5753L28.3186 21.8927Z" fill="#FEFC4F"/>
<path d="M24.8397 28.7238L24.3184 35.3416C24.2844 35.7042 24.5904 36.0215 24.953 35.9989C26.8114 35.8515 28.6358 35.2849 30.2903 34.2764C30.5962 34.0838 30.6529 33.6532 30.4262 33.3699L26.1088 28.3159C25.7009 28.5085 25.2816 28.6445 24.8397 28.7238Z" fill="#FEFC4F"/>
<path d="M28.5342 25.5627C28.3868 25.9819 28.1942 26.3785 27.9336 26.7525L32.251 31.8065C32.489 32.0785 32.9309 32.1011 33.1689 31.8178C34.4267 30.3447 35.2766 28.6223 35.7072 26.8205C35.7978 26.4692 35.5259 26.1179 35.1633 26.0953L28.5455 25.574L28.5342 25.5627Z" fill="#FEFC4F"/>
<path d="M23.9829 25.932C25.0594 25.932 25.932 25.0594 25.932 23.9829C25.932 22.9065 25.0594 22.0339 23.9829 22.0339C22.9065 22.0339 22.0339 22.9065 22.0339 23.9829C22.0339 25.0594 22.9065 25.932 23.9829 25.932Z" fill="#FEFC4F"/>
</g>
<defs>
<filter id="filter0_d_2233_129" x="0" y="0" width="48.0024" height="48" filterUnits="userSpaceOnUse" color-interpolation-filters="sRGB">
<feFlood flood-opacity="0" result="BackgroundImageFix"/>
<feColorMatrix in="SourceAlpha" type="matrix" values="0 0 0 0 0 0 0 0 0 0 0 0 0 0 0 0 0 0 127 0" result="hardAlpha"/>
<feOffset/>
<feGaussianBlur stdDeviation="6"/>
<feColorMatrix type="matrix" values="0 0 0 0 0.996078 0 0 0 0 0.988235 0 0 0 0 0.309804 0 0 0 0.25 0"/>
<feBlend mode="normal" in2="BackgroundImageFix" result="effect1_dropShadow_2233_129"/>
<feBlend mode="normal" in="SourceGraphic" in2="effect1_dropShadow_2233_129" result="shape"/>
</filter>
</defs>
</svg>
