<svg width="49" height="48" viewBox="0 0 49 48" fill="none" xmlns="http://www.w3.org/2000/svg">
<g filter="url(#filter0_d_2233_130)">
<path d="M30.2535 15.3064C29.9099 15.398 29.6122 15.501 29.303 15.5468C27.3561 15.8446 25.6268 14.5162 25.2604 12.4204C25.2031 12.1227 25.1115 12.0311 24.8252 12.0196C21.298 11.8364 18.2517 12.9358 15.6865 15.3636C13.9343 17.0242 12.7891 19.0626 12.2852 21.4103C11.6553 24.3649 12.0676 27.1821 13.5335 29.8276C15.091 32.6333 17.4501 34.5 20.4849 35.4391C23.8289 36.4812 27.0584 36.0575 30.0702 34.2824C33.2196 32.4272 35.2466 29.7245 35.8879 26.0713C36.1398 24.6283 36.094 23.1739 35.7963 21.7195C35.7619 21.5248 35.6818 21.4676 35.4985 21.5019C32.3034 22.0631 29.2113 18.971 30.2191 15.4896C30.2306 15.4438 30.2306 15.398 30.2535 15.3064ZM26.4056 25.8079C26.3941 24.823 27.1843 24.0099 28.1807 23.987C29.1655 23.9641 29.9786 24.7658 29.9901 25.7506C30.0015 26.7355 29.2113 27.5601 28.2265 27.583C27.2759 27.6059 26.417 26.7699 26.4056 25.8079ZM22.2141 26.3919C23.2105 26.3919 24.0007 27.1936 24.0007 28.1899C24.0007 29.1748 23.1876 29.9764 22.2027 29.9764C21.2178 29.9764 20.3933 29.1404 20.4047 28.1785C20.4162 27.205 21.2407 26.3919 22.2141 26.3919ZM23.4395 20.3453C23.4624 22.0516 22.1569 23.403 20.4505 23.4373C18.7442 23.4717 17.3814 22.1432 17.3585 20.4483C17.347 18.7649 18.6984 17.3448 20.3474 17.3219C21.9851 17.299 23.4051 18.6962 23.4281 20.3453H23.4395Z" fill="#D79F56"/>
</g>
<defs>
<filter id="filter0_d_2233_130" x="0" y="0" width="48.0513" height="48" filterUnits="userSpaceOnUse" color-interpolation-filters="sRGB">
<feFlood flood-opacity="0" result="BackgroundImageFix"/>
<feColorMatrix in="SourceAlpha" type="matrix" values="0 0 0 0 0 0 0 0 0 0 0 0 0 0 0 0 0 0 127 0" result="hardAlpha"/>
<feOffset/>
<feGaussianBlur stdDeviation="6"/>
<feColorMatrix type="matrix" values="0 0 0 0 0.843137 0 0 0 0 0.623529 0 0 0 0 0.337255 0 0 0 0.25 0"/>
<feBlend mode="normal" in2="BackgroundImageFix" result="effect1_dropShadow_2233_130"/>
<feBlend mode="normal" in="SourceGraphic" in2="effect1_dropShadow_2233_130" result="shape"/>
</filter>
</defs>
</svg>
