<svg width="48" height="48" viewBox="0 0 48 48" fill="none" xmlns="http://www.w3.org/2000/svg">
<g filter="url(#filter0_d_2233_126)">
<path d="M24 12C17.3747 12 12 17.3747 12 24C12 30.6253 17.3747 36 24 36C30.6253 36 36 30.6253 36 24C36 17.3747 30.6253 12 24 12ZM23.3747 31.0701V26.0922H20.1764C19.7315 26.0922 19.4309 25.6112 19.6473 25.2144L24.0721 16.5932C24.3487 16.0281 25.2024 16.2325 25.2024 16.8697V21.9078H28.2565C28.7014 21.9078 28.99 22.3768 28.7976 22.7735L24.517 31.3347C24.2285 31.9118 23.3747 31.7074 23.3747 31.0701Z" fill="#008CFF"/>
</g>
<defs>
<filter id="filter0_d_2233_126" x="0" y="0" width="48" height="48" filterUnits="userSpaceOnUse" color-interpolation-filters="sRGB">
<feFlood flood-opacity="0" result="BackgroundImageFix"/>
<feColorMatrix in="SourceAlpha" type="matrix" values="0 0 0 0 0 0 0 0 0 0 0 0 0 0 0 0 0 0 127 0" result="hardAlpha"/>
<feOffset/>
<feGaussianBlur stdDeviation="6"/>
<feColorMatrix type="matrix" values="0 0 0 0 0 0 0 0 0 0.54902 0 0 0 0 1 0 0 0 0.25 0"/>
<feBlend mode="normal" in2="BackgroundImageFix" result="effect1_dropShadow_2233_126"/>
<feBlend mode="normal" in="SourceGraphic" in2="effect1_dropShadow_2233_126" result="shape"/>
</filter>
</defs>
</svg>
