<svg width="48" height="48" viewBox="0 0 48 48" fill="none" xmlns="http://www.w3.org/2000/svg">
<g filter="url(#filter0_d_2233_127)">
<path d="M22.1953 12.1386C28.7392 11.1398 34.8635 15.646 35.8615 22.1727C36.8595 28.7334 32.3571 34.8628 25.8018 35.8616C19.2579 36.8605 13.1223 32.3429 12.1356 25.7936C11.1489 19.2442 15.6514 13.1375 22.1953 12.1386ZM29.0794 17.621C29.0227 17.2351 28.6485 17.0989 28.2969 17.3486C26.108 18.9037 23.9078 20.4587 21.719 22.0024C21.5602 22.1159 21.4581 22.2521 21.4014 22.4337C20.5962 24.965 19.7796 27.4848 18.9631 30.0047C18.861 30.3225 18.895 30.5268 19.0992 30.663C19.326 30.8219 19.5301 30.7425 19.7456 30.5949C21.9118 29.0512 24.0893 27.5189 26.2555 25.9752C26.4256 25.8617 26.5277 25.7141 26.5957 25.5211C27.4123 22.9899 28.2288 20.4474 29.0454 17.9162C29.0794 17.814 29.1135 17.7119 29.0908 17.5983L29.0794 17.621Z" fill="#2ADBD6"/>
<path d="M24.9285 24.0001C24.9285 23.4861 24.5122 23.0694 23.9986 23.0694C23.485 23.0694 23.0686 23.4861 23.0686 24.0001C23.0686 24.5142 23.485 24.9309 23.9986 24.9309C24.5122 24.9309 24.9285 24.5142 24.9285 24.0001Z" fill="#2ADBD6"/>
</g>
<defs>
<filter id="filter0_d_2233_127" x="0" y="0" width="48" height="48" filterUnits="userSpaceOnUse" color-interpolation-filters="sRGB">
<feFlood flood-opacity="0" result="BackgroundImageFix"/>
<feColorMatrix in="SourceAlpha" type="matrix" values="0 0 0 0 0 0 0 0 0 0 0 0 0 0 0 0 0 0 127 0" result="hardAlpha"/>
<feOffset/>
<feGaussianBlur stdDeviation="6"/>
<feColorMatrix type="matrix" values="0 0 0 0 0.164706 0 0 0 0 0.858824 0 0 0 0 0.839216 0 0 0 0.25 0"/>
<feBlend mode="normal" in2="BackgroundImageFix" result="effect1_dropShadow_2233_127"/>
<feBlend mode="normal" in="SourceGraphic" in2="effect1_dropShadow_2233_127" result="shape"/>
</filter>
</defs>
</svg>
