<svg width="381" height="381" viewBox="0 0 381 381" fill="none" xmlns="http://www.w3.org/2000/svg">
<path d="M288.693 52.4054C283.259 53.8574 278.55 55.491 273.66 56.2171C242.869 60.9364 215.519 39.8811 209.723 6.66452C208.818 1.94523 207.369 0.493129 202.84 0.311618C147.055 -2.59256 98.8758 14.8325 58.3042 53.3129C30.5924 79.632 12.4801 111.941 4.51065 149.151C-5.45112 195.981 1.06931 240.633 24.2531 282.562C48.8858 327.032 86.1972 356.618 134.195 371.502C187.083 388.02 238.159 381.304 285.795 353.169C335.604 323.765 367.663 280.928 377.805 223.026C381.79 200.156 381.066 177.104 376.356 154.052C375.813 150.966 374.545 150.058 371.647 150.603C321.114 159.497 272.211 110.489 288.149 55.3095C288.331 54.5835 288.331 53.8574 288.693 52.4054ZM227.835 218.851C227.654 203.241 240.152 190.354 255.91 189.991C271.486 189.628 284.346 202.334 284.527 217.944C284.708 233.554 272.211 246.622 256.634 246.985C241.601 247.348 228.017 234.098 227.835 218.851ZM161.544 228.108C177.302 228.108 189.8 240.814 189.8 256.605C189.8 272.215 176.94 284.921 161.363 284.921C145.787 284.921 132.746 271.671 132.927 256.424C133.108 240.996 146.149 228.108 161.544 228.108ZM180.925 132.27C181.287 159.315 160.639 180.734 133.651 181.278C106.664 181.823 85.1104 160.768 84.7482 133.904C84.5671 107.222 105.94 84.7144 132.021 84.3513C157.922 83.9883 180.381 106.133 180.743 132.27H180.925Z" fill="#D79F56"/>
</svg>
