<svg width="301" height="140" viewBox="0 0 301 140" fill="none" xmlns="http://www.w3.org/2000/svg">
<path fill-rule="evenodd" clip-rule="evenodd" d="M239.14 56.5538C260.728 44.8804 282.752 50.5072 291.212 53.4738L300.187 56.6048L296.068 65.1869C294.393 68.6242 283.313 90.5019 258.754 96.4123C246.468 99.3732 236.011 97.0816 230.516 95.414C231.535 92.9977 233.097 89.9403 235.524 86.7752C237.358 84.3873 239.231 82.5098 240.872 81.0804C244.295 81.3923 249.207 81.4037 254.798 79.8722C265.527 76.9283 272.086 70.1274 274.74 67.0076C270.331 66.3951 258.493 65.323 247.198 71.5284C245.653 72.3792 241.03 75.0281 236.379 79.9516C230.839 85.8223 228.315 91.6817 227.081 94.6199C226.493 96.0153 224.54 100.837 223.505 107.518C222.899 111.421 222.786 114.807 222.831 117.411C220.709 116.191 218.253 115.494 215.639 115.494C211.876 115.494 208.447 116.94 205.866 119.294C205.753 114.512 205.838 101.234 211.457 87.9097C211.797 87.0986 216.743 75.5953 224.552 67.7507L224.603 67.6997C228.898 63.2186 233.793 59.4466 239.14 56.5538Z" fill="#F7F0F5"/>
<path d="M285.572 18.6434C285.296 18.5696 285.056 18.4867 284.807 18.4498C283.24 18.2101 281.848 19.2795 281.552 20.9667C281.506 21.2064 281.433 21.2801 281.202 21.2893C278.363 21.4368 275.91 20.5518 273.845 18.5973C272.435 17.2605 271.513 15.6195 271.107 13.7295C270.6 11.351 270.932 9.08303 272.112 6.95338C273.366 4.69466 275.265 3.19192 277.708 2.43594C280.4 1.59698 283 1.9381 285.425 3.36708C287.96 4.8606 289.592 7.03635 290.108 9.97729C290.311 11.1389 290.274 12.3098 290.034 13.4806C290.007 13.6373 289.942 13.6834 289.795 13.6558C287.222 13.204 284.733 15.6932 285.544 18.4959C285.554 18.5328 285.554 18.5696 285.572 18.6434ZM282.474 10.1893C282.465 10.9822 283.101 11.6368 283.903 11.6552C284.696 11.6736 285.351 11.0283 285.36 10.2354C285.369 9.44258 284.733 8.77879 283.94 8.76035C283.175 8.74191 282.484 9.41492 282.474 10.1893ZM279.1 9.71916C279.902 9.71916 280.538 9.07381 280.538 8.27173C280.538 7.47887 279.884 6.83353 279.091 6.83353C278.298 6.83353 277.634 7.50653 277.644 8.28095C277.653 9.06459 278.317 9.71916 279.1 9.71916ZM280.087 14.5869C280.105 13.2133 279.054 12.1254 277.68 12.0977C276.307 12.0701 275.21 13.1395 275.191 14.504C275.182 15.8592 276.27 17.0024 277.597 17.0208C278.916 17.0393 280.059 15.9145 280.077 14.5869H280.087Z" fill="#D79F56"/>
<path d="M220.668 137.335C220.391 137.261 220.152 137.178 219.903 137.141C218.335 136.902 216.943 137.971 216.648 139.658C216.602 139.898 216.528 139.972 216.298 139.981C213.458 140.128 211.006 139.243 208.941 137.289C207.53 135.952 206.608 134.311 206.203 132.421C205.696 130.042 206.028 127.774 207.208 125.645C208.461 123.386 210.361 121.883 212.804 121.127C215.496 120.288 218.096 120.63 220.52 122.058C223.056 123.552 224.687 125.728 225.204 128.669C225.407 129.83 225.37 131.001 225.13 132.172C225.102 132.329 225.038 132.375 224.89 132.347C222.318 131.895 219.829 134.385 220.64 137.187C220.649 137.224 220.649 137.261 220.668 137.335ZM217.57 128.881C217.561 129.674 218.197 130.328 218.999 130.347C219.792 130.365 220.447 129.72 220.456 128.927C220.465 128.134 219.829 127.47 219.036 127.452C218.271 127.433 217.579 128.106 217.57 128.881ZM214.196 128.411C214.998 128.411 215.634 127.765 215.634 126.963C215.634 126.17 214.98 125.525 214.187 125.525C213.394 125.525 212.73 126.198 212.739 126.972C212.748 127.756 213.412 128.411 214.196 128.411ZM215.182 133.278C215.201 131.905 214.15 130.817 212.776 130.789C211.402 130.761 210.305 131.831 210.287 133.195C210.278 134.551 211.366 135.694 212.693 135.712C214.011 135.731 215.155 134.606 215.173 133.278H215.182Z" fill="#D79F56"/>
<path d="M212.606 19.7387C224.988 4.27646 246.893 -2.60951 270.536 0.895709C267.574 3.55579 265.709 7.41607 265.709 11.7069C265.709 13.8 266.15 15.7852 266.948 17.5833C249.824 15.3882 234.115 20.0621 225.854 30.3798C218.927 39.0299 218.559 49.8014 218.559 49.8014C218.186 57.232 220.365 63.0006 221.711 65.9218C219.81 67.6404 217.569 69.9604 215.402 72.9723C213.178 76.0523 211.667 78.9848 210.631 81.3728C208.079 77.6178 200.644 65.6155 201.6 48.8938C201.736 46.5399 202.664 32.1495 212.606 19.7387Z" fill="#F7F0F5"/>
<g clip-path="url(#clip0_1238_1278)">
<path d="M13.2115 35.6477H19.9516V9.34673C19.1946 9.80258 18.3154 10.0712 17.363 10.0712C16.2967 10.0712 15.3199 9.73746 14.5058 9.17578H12.829C12.0231 9.7456 11.0381 10.0712 9.97988 10.0712C9.54845 10.0712 9.1333 10.0142 8.73443 9.91654C6.93545 10.5596 5.30741 11.6097 3.86659 13.0587C1.30243 15.6391 0 18.7731 0 22.3955C0 26.0179 1.30243 29.1844 3.85845 31.7648C6.42262 34.3453 9.56473 35.6477 13.2034 35.6477H13.2115ZM7.00057 16.2496C8.73443 14.5158 10.7695 13.6692 13.2115 13.6692H15.5478V31.1869H12.9592C10.623 31.1869 8.67745 30.381 7.00871 28.7041C5.26671 26.9784 4.41199 24.9433 4.41199 22.4687C4.41199 19.9941 5.25857 17.9916 7.00057 16.2496Z" fill="#F7F0F5"/>
<path d="M30.7293 36.3681V35.6518H82.0044C82.6557 36.1483 83.3801 36.596 84.1697 36.9868C85.6431 37.7275 87.2223 38.102 88.8504 38.102C90.4784 38.102 92.025 37.7275 93.531 36.9868C94.3124 36.596 95.0369 36.1483 95.6556 35.6518H152.466V0.0546875H148.013V31.1909H141.713V21.6018C141.713 18.012 140.402 14.8861 137.83 12.3138C135.249 9.73339 132.116 8.43095 128.501 8.43095C124.887 8.43095 121.623 9.83107 118.863 12.5906L118.342 13.1116L121.452 16.2211L121.973 15.7083C123.918 13.7872 126.059 12.8511 128.501 12.8511C130.943 12.8511 132.978 13.6895 134.72 15.4152C136.454 17.141 137.301 19.1679 137.301 21.6099V31.1991H134.378C135.396 29.6525 135.909 27.8372 135.909 25.7533C135.909 22.8391 134.899 20.4296 132.889 18.5736C130.903 16.7665 128.786 15.8548 126.588 15.8548C124.39 15.8548 122.282 16.7665 120.329 18.5736C118.302 20.4296 117.268 22.8391 117.268 25.7533C117.268 27.8372 117.789 29.6606 118.814 31.1991H99.221C100.133 29.4245 100.597 27.243 100.597 24.6788C100.597 21.0564 99.4815 17.9061 97.2673 15.3257C96.1847 14.064 94.9229 13.0709 93.5147 12.3708C92.0087 11.6301 90.4377 11.2637 88.8422 11.2637C87.2467 11.2637 85.6431 11.6382 84.1616 12.3789C82.7615 13.079 81.4916 14.0558 80.3683 15.2931C78.1623 17.9061 77.0471 21.0645 77.0471 24.6869C77.0471 27.2511 77.5111 29.4327 78.4228 31.2072H30.7375V9.61128C30.1025 9.91247 29.3862 10.0753 28.6373 10.0753C27.7989 10.0753 27.0174 9.87177 26.3336 9.50546V36.36C26.3336 37.3775 25.8778 38.2566 24.9579 39.0137C24.1276 39.673 23.0124 40.0963 21.6367 40.2673L20.9937 40.3487V44.7362L21.7914 44.6711C24.1928 44.4595 26.2278 43.6943 27.8396 42.3837C29.7688 40.7557 30.7537 38.7206 30.7537 36.3518L30.7293 36.3681ZM123.349 21.7809C124.472 20.7796 125.571 20.2668 126.596 20.2668C127.622 20.2668 128.745 20.7715 129.861 21.7809C130.968 22.7821 131.505 24.0764 131.505 25.7533C131.505 27.4302 130.976 28.7326 129.885 29.7257C128.933 30.5723 127.858 31.0526 126.605 31.1909C125.351 31.0526 124.293 30.5804 123.357 29.7257C122.241 28.7326 121.696 27.4302 121.696 25.7533C121.696 24.0764 122.241 22.774 123.357 21.7809H123.349ZM83.6813 18.248C85.1466 16.5142 86.8397 15.6676 88.8422 15.6676C90.8447 15.6676 92.489 16.5142 93.9624 18.248C95.4439 19.9982 96.1928 22.1635 96.1928 24.6788C96.1928 25.9161 95.9812 27.1046 95.5742 28.2198C95.1672 29.335 94.6136 30.3037 93.9543 31.1095C93.303 31.8991 92.5134 32.5341 91.618 32.9981C90.7307 33.4539 89.7865 33.6819 88.8015 33.6819C87.5072 33.6819 86.335 33.2993 85.228 32.5097C84.1046 31.7201 83.1848 30.613 82.4929 29.2373C81.8009 27.8616 81.4509 26.3231 81.4509 24.6707C81.4509 22.1472 82.1998 19.99 83.6813 18.2399V18.248Z" fill="#F7F0F5"/>
<path d="M161.201 0.0546875H156.789V35.6518H161.201V0.0546875Z" fill="#F7F0F5"/>
<path d="M15.0512 56.0742H13.2115C13.0487 56.0742 12.8859 56.0742 12.7313 56.0824C11.9905 56.5219 11.1277 56.7661 10.2159 56.7661C9.87406 56.7661 9.53217 56.7336 9.20656 56.6603C7.22036 57.279 5.43765 58.3779 3.86659 59.9571C1.30243 62.5457 0 65.6878 0 69.2939C0 72.9 1.30243 76.091 3.85845 78.6633C6.42262 81.2437 9.56473 82.5461 13.2034 82.5461H19.9435V56.1719C19.2434 56.5545 18.4375 56.7661 17.5828 56.7661C16.6548 56.7661 15.792 56.5138 15.0431 56.0742H15.0512ZM15.5396 78.0935H12.9592C10.623 78.0935 8.67745 77.2876 7.00871 75.6107C5.25857 73.885 4.40385 71.8499 4.40385 69.3753C4.40385 66.9007 5.25043 64.8982 6.99243 63.1562C8.72629 61.4223 10.7613 60.5757 13.2034 60.5757H15.5396V78.0935Z" fill="#F7F0F5"/>
<path d="M29.6388 83.2703C29.6388 84.296 29.1829 85.1751 28.2631 85.9321C27.4328 86.5915 26.3176 87.0148 24.9419 87.1857L24.2988 87.2671V91.6547L25.0966 91.5896C27.4979 91.3779 29.533 90.6209 31.1447 89.3022C33.074 87.6741 34.0589 85.6391 34.0589 83.2703V56.082H29.6469V83.2703H29.6388Z" fill="#F7F0F5"/>
<path d="M148.005 46.9574V78.0936H137.691C138.603 76.3191 139.067 74.1375 139.067 71.5733C139.067 67.9509 137.952 64.8088 135.738 62.2202C134.655 60.9666 133.393 59.9735 131.985 59.2653C130.479 58.5246 128.908 58.1583 127.313 58.1583C125.717 58.1583 124.105 58.5327 122.632 59.2735C121.224 59.9735 119.962 60.9504 118.839 62.1958C116.633 64.8088 115.518 67.9672 115.518 71.5815C115.518 74.1456 115.973 76.3353 116.893 78.1018H106.58V57.4501C105.717 57.1977 104.952 56.7175 104.349 56.0825H104.235C103.657 56.693 102.933 57.1652 102.119 57.4257V78.1018H93.2297V68.6347C93.2297 64.996 91.9191 61.8458 89.3468 59.2816C86.7664 56.7175 83.6161 55.4232 79.9856 55.4232C76.6074 55.4232 73.6444 56.5628 71.186 58.8013V46.9574H66.774V77.5482C66.774 77.8413 66.7415 78.0041 66.7089 78.0936H58.3408V56.0744H51.6007C47.962 56.0744 44.8118 57.385 42.2558 59.9573C39.6916 62.5377 38.3892 65.6717 38.3892 69.2859C38.3892 72.9002 39.6916 76.083 42.2558 78.6553C44.8199 81.2357 47.962 82.5382 51.6007 82.5382H53.9369V83.2545C53.9369 84.272 53.4648 85.1593 52.5124 85.9408C51.503 86.7629 50.3064 87.1618 48.833 87.1618C47.8969 87.1618 47.0259 86.9746 46.2445 86.6083C45.4711 86.242 44.8362 85.7454 44.3641 85.1349L43.0535 83.3848L39.5206 86.0547L40.8394 87.813C41.7592 89.0096 42.9395 89.9458 44.3396 90.597C45.7316 91.2482 47.2457 91.5819 48.833 91.5819C51.3728 91.5819 53.5951 90.8167 55.4429 89.2945C57.3721 87.6584 58.3571 85.6314 58.3571 83.2626V82.5463H120.499C121.151 83.0347 121.875 83.4824 122.665 83.8813C124.138 84.6221 125.717 84.9965 127.345 84.9965C128.973 84.9965 130.512 84.6221 132.026 83.8813C132.815 83.4906 133.532 83.0429 134.15 82.5463H152.49V46.9492H148.038L148.021 46.9655L148.005 46.9574ZM53.9207 78.0936H51.3321C48.9958 78.0936 47.0503 77.2877 45.3816 75.6109C43.6396 73.8851 42.7849 71.8501 42.7849 69.3755C42.7849 66.9009 43.6314 64.8984 45.3735 63.1564C47.1073 61.4225 49.1424 60.5759 51.5844 60.5759H53.9207V78.0936ZM88.8177 78.0936H71.1779V68.6266C71.1779 67.0229 71.5768 65.5333 72.3664 64.1902C73.156 62.8389 74.2386 61.7644 75.5817 60.9911C76.9249 60.2177 78.4227 59.827 80.0263 59.827C82.4765 59.827 84.5034 60.6655 86.2454 62.3912C87.9793 64.1169 88.8258 66.1519 88.8258 68.6266V78.0936H88.8177ZM134.045 75.1224C133.629 76.2377 133.092 77.2145 132.425 78.0122C131.774 78.8018 130.984 79.4367 130.089 79.9007C129.201 80.3566 128.257 80.5927 127.272 80.5927C125.978 80.5927 124.814 80.2101 123.698 79.4205C122.575 78.6227 121.655 77.5238 120.963 76.1481C120.271 74.7643 119.921 73.2258 119.921 71.5815C119.921 69.0661 120.67 66.9008 122.152 65.1507C123.617 63.4168 125.31 62.5703 127.313 62.5703C129.315 62.5703 130.96 63.4168 132.433 65.1507C133.914 66.9008 134.663 69.0661 134.663 71.5815C134.663 72.8188 134.452 74.0072 134.045 75.1224Z" fill="#F7F0F5"/>
<path d="M161.201 46.957H156.789V82.5541H161.201V46.957Z" fill="#F7F0F5"/>
<path d="M28.629 8.02175C30.252 8.02175 31.5677 6.70609 31.5677 5.08314C31.5677 3.46019 30.252 2.14453 28.629 2.14453C27.0061 2.14453 25.6904 3.46019 25.6904 5.08314C25.6904 6.70609 27.0061 8.02175 28.629 8.02175Z" fill="#D79F56"/>
<path d="M9.97181 8.02241C11.0952 8.02241 12.072 7.39561 12.5604 6.46763C12.7802 6.05248 12.9104 5.58035 12.9104 5.07566C12.9104 4.57097 12.7883 4.10697 12.5604 3.68368C12.072 2.76384 11.0952 2.12891 9.97181 2.12891C8.35192 2.12891 7.0332 3.44762 7.0332 5.06752C7.0332 6.68742 8.35192 8.00613 9.97181 8.00613V8.02241Z" fill="#F7F0F5"/>
<path d="M17.3629 8.02176C18.9828 8.02176 20.3015 6.70304 20.3015 5.08314C20.3015 3.46324 18.9828 2.14453 17.3629 2.14453C16.2396 2.14453 15.2628 2.77133 14.7743 3.69931C14.5546 4.11446 14.4243 4.58659 14.4243 5.09128C14.4243 5.59598 14.5464 6.05997 14.7743 6.48326C15.2628 7.41124 16.2396 8.03804 17.3629 8.03804V8.02176Z" fill="#F7F0F5"/>
<path d="M13.1385 51.7706C13.1385 51.2741 13.0164 50.802 12.7884 50.3787C12.2919 49.4588 11.315 48.832 10.1998 48.832C8.57994 48.832 7.26123 50.1507 7.26123 51.7706C7.26123 53.3905 8.57994 54.7093 10.1998 54.7093C11.3232 54.7093 12.2919 54.0825 12.7884 53.1626C13.0082 52.7475 13.1385 52.2753 13.1385 51.7706Z" fill="#F7F0F5"/>
<path d="M17.5827 48.8438C16.4593 48.8438 15.4906 49.4705 14.9941 50.3904C14.7743 50.7974 14.644 51.2777 14.644 51.7824C14.644 52.2871 14.7661 52.751 14.9941 53.1743C15.4906 54.0942 16.4674 54.721 17.5827 54.721C19.2026 54.721 20.5213 53.4023 20.5213 51.7824C20.5213 50.1625 19.2026 48.8438 17.5827 48.8438Z" fill="#F7F0F5"/>
<path d="M100.597 49.7074C98.9688 49.7074 97.6582 51.0261 97.6582 52.646C97.6582 54.2659 98.9688 55.5846 100.597 55.5846C101.72 55.5846 102.689 54.9578 103.185 54.0379C103.405 53.6309 103.535 53.1507 103.535 52.646C103.535 52.1413 103.413 51.6773 103.185 51.254C102.689 50.326 101.712 49.6992 100.597 49.6992V49.7074Z" fill="#F7F0F5"/>
<path d="M105.391 51.2729C105.171 51.688 105.049 52.1602 105.049 52.6648C105.049 53.1695 105.171 53.6335 105.391 54.0568C105.888 54.9848 106.865 55.6116 107.98 55.6116C109.6 55.6116 110.918 54.2929 110.918 52.673C110.918 51.0531 109.6 49.7344 107.98 49.7344C106.865 49.7344 105.888 50.3612 105.391 51.2892V51.2729Z" fill="#F7F0F5"/>
<path d="M56.8503 103.68H55.5723V105.153H56.8503V103.68Z" fill="#D79F56"/>
<path d="M59.6022 103.68H58.3242V105.153H59.6022V103.68Z" fill="#D79F56"/>
<path d="M58.2269 101.27H56.9326V102.743H58.2269V101.27Z" fill="#D79F56"/>
<path d="M48.4339 103.68H47.1396V105.153H48.4339V103.68Z" fill="#D79F56"/>
<path d="M113.775 103.68H112.481V105.153H113.775V103.68Z" fill="#D79F56"/>
<path d="M149.437 103.68H148.143V105.153H149.437V103.68Z" fill="#D79F56"/>
<path d="M152.189 103.68H150.895V105.153H152.189V103.68Z" fill="#D79F56"/>
<path d="M85.8709 104.859H84.7231V114.457H85.8709V104.859Z" fill="#D79F56"/>
<path d="M45.6825 103.68H44.3882V105.153H45.6825V103.68Z" fill="#D79F56"/>
<path d="M123.519 117.438H122.241V118.911H123.519V117.438Z" fill="#D79F56"/>
<path d="M122.55 116.143V106.383H121.403V114.979H117.536V106.383H116.372V117.812H115.257C113.726 117.812 112.416 117.388 111.325 116.534C110.267 115.711 109.738 114.735 109.738 113.587V110.689H108.59V113.587C108.59 114.344 108.777 115.06 109.143 115.736C109.502 116.387 109.99 116.957 110.617 117.453C111.235 117.942 111.935 118.308 112.733 118.552C113.498 118.821 114.312 118.959 115.159 118.976H117.536V116.143H122.55Z" fill="#D79F56"/>
<path d="M160.036 102.824V114.978H155.974V102.824H154.81V114.978H150.748V106.381H149.584V114.978H144.757C145.262 114.269 145.514 113.325 145.514 112.145C145.514 110.793 145.107 109.638 144.285 108.685C143.886 108.221 143.43 107.863 142.909 107.603C142.356 107.334 141.794 107.196 141.208 107.196C140.622 107.196 140.052 107.334 139.506 107.603C138.985 107.863 138.521 108.221 138.114 108.669C137.292 109.638 136.885 110.802 136.885 112.153C136.885 113.333 137.138 114.269 137.642 114.986H132.994V106.39H130.65C129.299 106.39 128.151 106.87 127.198 107.83C126.246 108.783 125.774 109.922 125.774 111.266C125.774 112.609 126.246 113.773 127.198 114.733C128.151 115.686 129.299 116.158 130.65 116.158H131.847V116.728C131.847 117.216 131.627 117.631 131.179 117.989C130.739 118.356 130.194 118.543 129.559 118.543C129.152 118.543 128.77 118.462 128.428 118.299C128.086 118.136 127.801 117.916 127.589 117.631L127.247 117.175L126.327 117.867L126.669 118.323C127.003 118.755 127.426 119.088 127.931 119.324C128.436 119.56 128.981 119.683 129.567 119.683C130.495 119.683 131.293 119.406 131.96 118.86C132.652 118.274 132.994 117.566 132.994 116.728V116.158H138.627C138.888 116.361 139.181 116.549 139.498 116.711C140.036 116.98 140.605 117.118 141.2 117.118C141.794 117.118 142.347 116.98 142.901 116.711C143.227 116.549 143.511 116.37 143.756 116.158H161.184V102.84H160.02L160.036 102.824ZM131.855 114.978H130.56C129.575 114.978 128.737 114.628 128.037 113.927C127.304 113.203 126.938 112.324 126.938 111.29C126.938 110.256 127.296 109.393 128.021 108.669C128.745 107.944 129.632 107.57 130.658 107.57H131.855V114.986V114.978ZM144.114 113.634C143.943 114.098 143.715 114.505 143.43 114.847C143.153 115.181 142.811 115.45 142.429 115.653C142.038 115.849 141.631 115.946 141.2 115.946C140.638 115.946 140.117 115.775 139.629 115.442C139.156 115.1 138.774 114.636 138.481 114.05C138.188 113.463 138.041 112.829 138.041 112.137C138.041 111.078 138.351 110.183 138.977 109.45C139.604 108.71 140.345 108.335 141.208 108.335C142.071 108.335 142.795 108.71 143.422 109.45C144.049 110.183 144.358 111.078 144.358 112.137C144.358 112.658 144.268 113.154 144.098 113.626L144.114 113.634Z" fill="#D79F56"/>
<path d="M97.2834 107.823C96.331 108.776 95.8589 109.915 95.8589 111.258C95.8589 112.602 96.331 113.766 97.2834 114.726C98.2358 115.679 99.3836 116.151 100.735 116.151H101.931V116.721C101.931 117.209 101.712 117.624 101.264 117.982C100.824 118.349 100.279 118.536 99.6441 118.536C99.2371 118.536 98.8545 118.454 98.5126 118.292C98.1707 118.129 97.8858 117.909 97.6741 117.624L97.3323 117.168L96.4124 117.86L96.7543 118.316C97.0881 118.747 97.5113 119.081 98.016 119.317C98.5207 119.553 99.0661 119.675 99.6522 119.675C100.58 119.675 101.378 119.399 102.045 118.853C102.737 118.267 103.079 117.559 103.079 116.721V106.391H100.735C99.3836 106.391 98.2358 106.871 97.2834 107.831V107.823ZM101.931 114.979H100.637C99.6522 114.979 98.8138 114.629 98.1137 113.928C97.3811 113.204 97.0148 112.325 97.0148 111.291C97.0148 110.257 97.373 109.394 98.0974 108.67C98.8301 107.937 99.7092 107.571 100.735 107.571H101.931V114.987V114.979Z" fill="#D79F56"/>
<path d="M61.4013 114.979H58.1615V106.415H57.0138V114.979H53.7902V106.415H52.6262V114.979H48.7433V106.383H46.3989C45.0477 106.383 43.8999 106.863 42.9475 107.824C41.9951 108.776 41.5229 109.916 41.5229 111.259C41.5229 112.602 41.9951 113.766 42.9475 114.727C43.8999 115.679 45.0477 116.151 46.3989 116.151H62.5491V106.424H61.4013V114.987V114.979ZM47.5955 114.979H46.3012C45.3163 114.979 44.4778 114.629 43.7778 113.929C43.0452 113.204 42.6789 112.325 42.6789 111.291C42.6789 110.258 43.037 109.395 43.7615 108.67C44.486 107.946 45.3733 107.571 46.3989 107.571H47.5955V114.987V114.979Z" fill="#D79F56"/>
<path d="M120.768 117.438H119.49V118.911H120.768V117.438Z" fill="#D79F56"/>
<path d="M72.2445 113.894C71.5119 113.162 71.1456 112.282 71.1456 111.257C71.1456 110.231 71.5037 109.368 72.2282 108.636C72.9608 107.903 73.84 107.537 74.8656 107.537C75.8913 107.537 76.7542 107.895 77.4868 108.619C77.5519 108.693 77.6984 108.847 77.9264 109.075L78.0892 107.618C77.153 106.796 76.0785 106.389 74.8656 106.389C73.5307 106.389 72.3747 106.869 71.4142 107.83C70.4618 108.782 69.9897 109.922 69.9897 111.265C69.9897 112.608 70.4699 113.764 71.4305 114.716C71.6503 114.936 71.7317 115.026 71.691 114.993H65.9603V102.84H64.8125V116.157H78.7322V114.993H74.5563C73.6609 114.928 72.8876 114.57 72.2445 113.911V113.894Z" fill="#D79F56"/>
<path d="M89.0124 114.978H81.0024V116.142H90.1764V102.824H89.0124V114.978Z" fill="#D79F56"/>
<path d="M93.596 102.824H92.4482V116.142H93.596V102.824Z" fill="#D79F56"/>
</g>
<defs>
<clipPath id="clip0_1238_1278">
<rect width="161.2" height="119.62" fill="white" transform="translate(0 0.0546875)"/>
</clipPath>
</defs>
</svg>
