<svg width="697" height="695" viewBox="0 0 697 695" fill="none" xmlns="http://www.w3.org/2000/svg">
<path d="M546.593 103.069L564.132 80.689L567.342 83.2046L549.803 105.584L546.593 103.069ZM538.744 112.533C539.668 112.394 540.502 112.616 541.245 113.198C541.988 113.78 542.388 114.525 542.444 115.433C542.524 116.311 542.249 117.151 541.62 117.954C541.038 118.697 540.299 119.149 539.404 119.312C538.533 119.444 537.711 119.208 536.938 118.602C536.225 118.043 535.814 117.313 535.704 116.412C535.648 115.504 535.911 114.679 536.493 113.936C537.122 113.133 537.872 112.666 538.744 112.533ZM560.873 132.077C560.908 132.984 560.592 133.798 559.925 134.519C559.284 135.211 558.524 135.588 557.644 135.649C556.765 135.709 555.992 135.432 555.327 134.816C554.607 134.149 554.243 133.375 554.236 132.494C554.256 131.638 554.587 130.864 555.228 130.171C555.895 129.45 556.654 129.047 557.506 128.961C558.385 128.9 559.172 129.19 559.864 129.831C560.529 130.447 560.866 131.196 560.873 132.077ZM577.282 96.172C580.513 96.1273 583.806 97.6568 587.159 100.76C588.738 102.223 589.862 103.983 590.529 106.041C591.224 108.125 591.403 110.323 591.064 112.634L590.741 114.65L586.791 114.082L587.194 112.062C587.425 110.423 587.298 108.865 586.813 107.387C586.329 105.91 585.546 104.671 584.465 103.67C579.754 99.3097 575.706 98.9584 572.32 102.616C571.448 103.558 570.749 104.481 570.223 105.383C569.724 106.311 569.379 107.072 569.189 107.667C569.051 108.26 569.025 108.956 569.109 109.755C569.221 110.579 569.352 111.215 569.503 111.663C569.654 112.112 569.867 112.771 570.141 113.643C570.552 114.589 570.821 115.326 570.948 115.856C571.075 116.385 571.183 117.103 571.272 118.008C571.413 118.911 571.3 119.784 570.932 120.626C570.564 121.469 570.007 122.292 569.264 123.095L567.955 124.509L565.087 121.854L566.395 120.441C566.857 119.942 567.145 119.436 567.259 118.924C567.398 118.385 567.391 117.864 567.238 117.362C567.139 116.858 566.909 116.105 566.55 115.104C565.512 112.445 565.053 110.245 565.173 108.504C565.33 105.665 566.743 102.805 569.411 99.923C571.719 97.429 574.343 96.1787 577.282 96.172ZM575.45 148.785L580.852 154.668L577.847 157.426L569.727 148.58L604.064 117.054L606.784 120.017L575.45 148.785ZM587.48 162.815L592.545 168.99L589.392 171.576L576.712 156.117L579.865 153.531L584.894 159.662L608.148 140.588L610.734 143.741L587.48 162.815ZM611.201 137.791L615.23 134.486L618.104 137.989L614.075 141.294L611.201 137.791ZM612.491 199.717C612.639 199.53 613.125 199.169 613.947 198.633L624.149 191.982C627.154 190.023 629.015 187.277 629.732 183.745C630.449 180.212 629.828 176.943 627.869 173.938C625.93 170.965 623.2 169.093 619.679 168.324C616.157 167.555 612.894 168.149 609.889 170.109L607.659 171.562L605.462 168.194L607.692 166.74C611.583 164.203 615.828 163.419 620.426 164.388C625.077 165.368 628.681 167.819 631.238 171.742C633.815 175.696 634.604 179.982 633.603 184.601C632.655 189.231 630.236 192.814 626.345 195.351L616.144 202.001C615.479 202.435 615.109 202.834 615.032 203.2C615.008 203.44 614.997 203.561 614.997 203.561L614.604 205.033L612.137 206.642L588.35 170.154L591.766 167.927L612.491 199.717ZM616.103 213.439L657.483 191.976L659.334 195.545L617.954 217.009L616.103 213.439ZM662.354 187.343C662.338 187.394 662.816 187.168 663.788 186.663C664.961 186.055 666.184 185.952 667.457 186.356C668.78 186.775 669.746 187.571 670.355 188.745C670.911 189.817 670.983 191.226 670.569 192.972L667.282 193.401C667.367 192.251 667.433 191.6 667.481 191.447C667.611 191.04 667.579 190.652 667.388 190.283C667.197 189.915 666.898 189.666 666.49 189.537C666.083 189.408 665.695 189.439 665.327 189.63C664.924 189.839 664.659 190.146 664.53 190.554C664.417 190.91 664.413 191.231 664.519 191.517L666.527 195.388L663.309 197.057L658.953 188.66L662.171 186.991L662.354 187.343ZM667.318 248.364L668.713 252.196L640.451 262.484L642.951 269.35L639.118 270.745L636.619 263.879L627.305 267.27L624.457 259.446C623.472 256.63 622.965 253.801 622.935 250.959C622.795 248.036 623.155 245.272 624.016 242.669C624.899 240.017 626.192 237.718 627.894 235.772C629.691 233.751 631.831 232.289 634.314 231.385L643.841 227.917L645.217 231.696L635.69 235.164C631.929 236.533 629.333 239.447 627.902 243.906C626.403 248.51 626.571 253.332 628.405 258.37L629.742 262.043L667.318 248.364ZM666.713 234.118L671.557 232.355L673.107 236.613L668.263 238.376L666.713 234.118ZM645.474 279.684L647.421 287.429L643.466 288.423L638.591 269.033L642.546 268.038L644.479 275.729L673.648 268.396L674.642 272.351L645.474 279.684ZM632.25 283.534L637.248 282.277L638.353 286.672L633.354 287.928L632.25 283.534ZM629.902 274.195L634.901 272.939L636.006 277.333L631.007 278.59L629.902 274.195ZM647.735 304.573C647.088 306.155 646.882 307.75 647.116 309.357C647.334 310.851 647.878 312.222 648.747 313.469C649.653 314.711 650.756 315.733 652.056 316.535C653.393 317.332 654.909 317.912 656.603 318.276C658.334 318.634 660.097 318.682 661.89 318.42C665.552 317.886 668.495 316.35 670.72 313.812C672.982 311.269 673.897 308.521 673.467 305.569C673.031 302.58 671.365 300.19 668.471 298.399C665.614 296.603 662.355 295.972 658.693 296.506C656.302 296.855 654.171 297.681 652.3 298.984C650.462 300.244 649.062 301.765 648.1 303.546L647.735 304.573ZM648.688 296.592C650.898 294.476 654.04 293.121 658.112 292.526C662.783 291.845 667.007 292.679 670.784 295.028C672.56 296.219 674.028 297.646 675.186 299.308C676.393 301.04 677.146 302.934 677.446 304.989C677.741 307.007 677.56 309.036 676.904 311.078C676.268 313.003 675.248 314.773 673.843 316.39C670.932 319.715 667.141 321.718 662.471 322.4C657.763 323.087 653.558 322.25 649.855 319.89C648.009 318.747 646.526 317.342 645.405 315.674C644.193 313.904 643.44 312.011 643.145 309.993C642.845 307.938 643.026 305.908 643.688 303.904C644.085 302.701 644.573 301.6 645.152 300.599L643.124 286.7L647.159 286.111L648.688 296.592ZM668.097 344.496L696.528 344.095L696.585 348.172L668.155 348.574L668.097 344.496ZM655.803 344.33C656.491 344.962 656.842 345.75 656.856 346.694C656.869 347.638 656.54 348.417 655.869 349.03C655.236 349.643 654.409 349.957 653.39 349.972C652.446 349.985 651.63 349.694 650.942 349.1C650.291 348.505 649.959 347.716 649.945 346.735C649.933 345.829 650.243 345.05 650.875 344.399C651.546 343.785 652.354 343.472 653.298 343.459C654.317 343.444 655.152 343.735 655.803 344.33ZM654.538 373.813C653.856 374.412 653.025 374.679 652.045 374.615C651.103 374.554 650.331 374.2 649.73 373.556C649.129 372.911 648.858 372.136 648.917 371.232C648.981 370.252 649.353 369.482 650.033 368.921C650.711 368.398 651.521 368.167 652.463 368.228C653.442 368.293 654.234 368.628 654.838 369.235C655.439 369.88 655.708 370.673 655.647 371.615C655.588 372.52 655.218 373.252 654.538 373.813ZM692.76 363.94C694.831 366.422 695.717 369.942 695.418 374.501C695.278 376.649 694.618 378.63 693.44 380.445C692.259 382.298 690.665 383.821 688.657 385.014L686.887 386.033L684.841 382.607L686.663 381.648C688.082 380.795 689.212 379.715 690.054 378.407C690.896 377.1 691.366 375.712 691.462 374.242C691.881 367.837 689.604 364.471 684.63 364.146C683.349 364.062 682.192 364.1 681.16 364.26C680.125 364.457 679.317 364.669 678.734 364.895C678.187 365.162 677.63 365.58 677.063 366.148C676.494 366.754 676.082 367.257 675.829 367.657C675.576 368.057 675.197 368.637 674.693 369.399C674.217 370.314 673.814 370.988 673.483 371.42C673.152 371.853 672.663 372.388 672.015 373.027C671.403 373.706 670.654 374.168 669.768 374.412C668.881 374.657 667.892 374.744 666.799 374.672L664.877 374.547L665.133 370.647L667.054 370.772C667.733 370.817 668.306 370.722 668.776 370.488C669.283 370.256 669.683 369.923 669.976 369.488C670.305 369.093 670.745 368.441 671.296 367.531C672.708 365.05 674.127 363.307 675.555 362.303C677.859 360.638 680.97 359.933 684.889 360.19C688.28 360.411 690.904 361.662 692.76 363.94ZM650.741 395.66L649.572 403.56L645.537 402.963L647.296 391.085L693.409 397.912L692.82 401.89L650.741 395.66ZM647.398 413.842L645.779 421.663L641.786 420.836L645.84 401.257L649.834 402.084L648.225 409.849L677.677 415.948L676.85 419.941L647.398 413.842ZM681.772 416.564L686.874 417.621L685.955 422.058L680.853 421.002L681.772 416.564ZM634.382 456.482C634.62 456.481 635.207 456.631 636.14 456.935L647.721 460.7C651.133 461.81 654.438 461.534 657.638 459.875C660.838 458.215 662.993 455.68 664.102 452.268C665.199 448.893 664.942 445.593 663.33 442.369C661.718 439.145 659.206 436.978 655.795 435.869L653.263 435.046L654.507 431.221L657.038 432.044C661.455 433.48 664.73 436.292 666.863 440.48C669.02 444.715 669.374 449.059 667.926 453.512C666.467 458 663.625 461.305 659.402 463.426C655.203 465.595 650.895 465.961 646.478 464.525L634.897 460.759C634.143 460.514 633.599 460.476 633.266 460.646C633.064 460.779 632.963 460.845 632.963 460.845L631.57 461.465L628.769 460.554L642.237 419.132L646.116 420.393L634.382 456.482ZM625.965 467.906L668.63 486.685L667.01 490.366L624.345 471.587L625.965 467.906ZM675.293 487.575C675.243 487.595 675.719 487.825 676.722 488.266C677.931 488.798 678.778 489.687 679.262 490.931C679.765 492.225 679.75 493.477 679.218 494.687C678.731 495.793 677.678 496.732 676.059 497.504L673.664 495.213C674.613 494.557 675.161 494.201 675.311 494.143C675.709 493.988 675.992 493.721 676.159 493.34C676.326 492.96 676.333 492.571 676.178 492.173C676.023 491.775 675.756 491.492 675.375 491.325C674.961 491.142 674.554 491.128 674.156 491.283C673.808 491.418 673.555 491.617 673.399 491.878L671.642 495.87L668.324 494.409L672.135 485.752L675.453 487.212L675.293 487.575ZM630.912 529.718L628.802 533.208L603.065 517.645L599.285 523.898L595.795 521.787L599.575 515.535L591.093 510.406L595.402 503.281C596.978 500.748 598.863 498.579 601.058 496.773C603.247 494.831 605.625 493.379 608.193 492.416C610.813 491.441 613.414 491.006 615.998 491.112C618.698 491.245 621.179 491.995 623.441 493.362L632.117 498.608L630.036 502.05L621.36 496.804C617.935 494.733 614.037 494.538 609.666 496.22C605.14 497.94 601.49 501.094 598.716 505.682L596.693 509.027L630.912 529.718ZM641.63 520.313L646.04 522.98L643.696 526.857L639.285 524.19L641.63 520.313ZM592.832 532.351L588.028 538.731L584.77 536.278L596.795 520.305L600.053 522.757L595.284 529.093L619.313 547.181L616.86 550.44L592.832 532.351ZM581.529 524.48L585.647 527.58L582.921 531.2L578.804 528.1L581.529 524.48ZM587.32 516.787L591.438 519.887L588.713 523.507L584.595 520.407L587.32 516.787ZM574.915 549.766C573.278 550.26 571.91 551.104 570.809 552.298C569.785 553.408 569.063 554.694 568.641 556.154C568.247 557.64 568.148 559.14 568.343 560.655C568.566 562.196 569.07 563.739 569.854 565.284C570.667 566.854 571.739 568.254 573.072 569.482C575.793 571.99 578.839 573.309 582.212 573.439C585.612 573.595 588.323 572.576 590.345 570.382C592.392 568.161 593.2 565.363 592.769 561.986C592.365 558.636 590.803 555.706 588.082 553.198C586.305 551.56 584.321 550.425 582.131 549.793C579.994 549.158 577.931 549.028 575.942 549.403L574.915 549.766ZM581.715 545.481C584.75 545.865 587.781 547.452 590.808 550.241C594.278 553.44 596.29 557.247 596.844 561.66C597.038 563.79 596.853 565.828 596.291 567.775C595.706 569.803 594.709 571.581 593.301 573.108C591.919 574.607 590.229 575.745 588.229 576.521C586.335 577.24 584.317 577.562 582.176 577.489C577.76 577.321 573.817 575.638 570.346 572.439C566.848 569.214 564.85 565.421 564.351 561.058C564.077 558.905 564.234 556.868 564.824 554.946C565.435 552.891 566.432 551.113 567.814 549.614C569.221 548.087 570.912 546.949 572.886 546.201C574.07 545.752 575.233 545.437 576.375 545.257L585.895 534.929L588.894 537.693L581.715 545.481ZM556.699 590.719L574.896 612.567L571.763 615.177L553.565 593.329L556.699 590.719ZM549.094 581.057C549.036 581.991 548.644 582.759 547.919 583.363C547.193 583.967 546.381 584.202 545.482 584.066C544.607 583.96 543.843 583.515 543.19 582.731C542.586 582.006 542.299 581.189 542.328 580.28C542.381 579.4 542.785 578.646 543.54 578.017C544.236 577.437 545.036 577.189 545.94 577.271C546.839 577.407 547.591 577.837 548.195 578.562C548.848 579.346 549.147 580.178 549.094 581.057ZM525.357 598.604C524.463 598.449 523.733 597.97 523.168 597.168C522.624 596.396 522.415 595.574 522.539 594.701C522.663 593.828 523.096 593.131 523.837 592.609C524.639 592.044 525.472 591.849 526.336 592.026C527.169 592.225 527.857 592.71 528.4 593.482C528.966 594.285 529.202 595.111 529.108 595.962C528.984 596.835 528.536 597.543 527.764 598.087C527.023 598.609 526.221 598.781 525.357 598.604ZM557.045 622.149C556.413 625.319 554.23 628.219 550.495 630.85C548.735 632.089 546.779 632.821 544.627 633.043C542.443 633.288 540.257 633.004 538.068 632.19L536.163 631.453L537.544 627.709L539.435 628.525C540.99 629.093 542.54 629.294 544.086 629.129C545.632 628.963 547.008 628.457 548.212 627.609C553.46 623.912 554.649 620.026 551.778 615.951C551.039 614.902 550.283 614.025 549.511 613.322C548.708 612.641 548.035 612.145 547.493 611.834C546.941 611.576 546.266 611.404 545.468 611.32C544.639 611.258 543.989 611.253 543.519 611.307C543.049 611.361 542.359 611.431 541.45 611.517C540.439 611.722 539.662 611.831 539.117 611.844C538.573 611.858 537.849 611.814 536.945 611.712C536.032 611.662 535.203 611.369 534.455 610.833C533.708 610.296 533.02 609.581 532.389 608.686L531.28 607.111L534.475 604.861L535.584 606.435C535.976 606.991 536.41 607.378 536.887 607.596C537.386 607.845 537.896 607.947 538.419 607.902C538.932 607.91 539.716 607.843 540.771 607.701C543.588 607.241 545.835 607.251 547.513 607.732C550.256 608.479 552.758 610.457 555.02 613.668C556.977 616.446 557.652 619.273 557.045 622.149ZM505.973 609.37L499.092 613.423L497.022 609.909L507.369 603.816L531.024 643.983L527.559 646.024L505.973 609.37ZM489.735 618.199L482.636 621.858L480.768 618.233L498.54 609.072L500.408 612.697L493.36 616.33L507.14 643.064L503.515 644.932L489.735 618.199ZM509.236 646.635L511.624 651.267L507.596 653.343L505.208 648.711L509.236 646.635ZM448.383 634.867C448.534 635.052 448.785 635.603 449.135 636.52L453.482 647.895C454.762 651.246 457.053 653.645 460.354 655.092C463.656 656.539 466.982 656.622 470.333 655.342C473.649 654.075 476.055 651.802 477.55 648.522C479.046 645.243 479.153 641.927 477.873 638.576L476.923 636.089L480.68 634.654L481.63 637.141C483.287 641.48 483.157 645.794 481.239 650.084C479.299 654.423 476.142 657.428 471.768 659.099C467.359 660.783 463.003 660.649 458.699 658.696C454.374 656.791 451.383 653.669 449.725 649.331L445.379 637.955C445.096 637.214 444.783 636.768 444.442 636.615C444.212 636.541 444.097 636.504 444.097 636.504L442.74 635.81L441.689 633.059L482.377 617.513L483.832 621.323L448.383 634.867ZM434.207 635.499L446.436 680.481L442.556 681.536L430.327 636.554L434.207 635.499ZM449.934 686.222C449.887 686.195 450.008 686.71 450.295 687.767C450.642 689.042 450.484 690.259 449.82 691.418C449.13 692.623 448.148 693.399 446.873 693.745C445.707 694.062 444.314 693.834 442.695 693.061L442.971 689.758C444.077 690.084 444.7 690.286 444.839 690.366C445.209 690.578 445.595 690.63 445.996 690.521C446.397 690.412 446.703 690.172 446.916 689.801C447.128 689.43 447.179 689.044 447.07 688.644C446.952 688.206 446.707 687.882 446.336 687.669C446.012 687.484 445.699 687.412 445.397 687.455L441.189 688.599L440.238 685.101L449.365 682.62L450.316 686.118L449.934 686.222ZM389.225 678.174L385.185 678.725L381.122 648.925L373.882 649.912L373.331 645.871L380.571 644.884L379.232 635.063L387.482 633.938C390.443 633.573 393.315 633.676 396.099 634.25C398.985 634.733 401.609 635.671 403.971 637.064C406.376 638.489 408.349 640.24 409.889 642.316C411.483 644.5 412.458 646.901 412.815 649.52L414.185 659.566L410.2 660.109L408.831 650.064C408.29 646.098 405.992 642.943 401.938 640.599C397.756 638.159 393.009 637.3 387.696 638.025L383.824 638.553L389.225 678.174ZM403.276 680.603L403.972 685.711L399.482 686.323L398.786 681.216L403.276 680.603ZM363.259 650.217L355.277 650.499L355.133 646.424L375.115 645.716L375.259 649.792L367.334 650.072L368.398 680.13L364.322 680.274L363.259 650.217ZM362.262 636.48L362.445 641.631L357.916 641.791L357.734 636.64L362.262 636.48ZM371.885 636.139L372.068 641.29L367.539 641.45L367.357 636.299L371.885 636.139ZM338.449 647.247C337.035 646.286 335.518 645.753 333.898 645.648C332.39 645.551 330.936 645.798 329.536 646.389C328.134 647.017 326.905 647.884 325.85 648.989C324.792 650.132 323.91 651.494 323.202 653.075C322.493 654.695 322.08 656.409 321.963 658.217C321.725 661.91 322.616 665.108 324.637 667.811C326.655 670.552 329.152 672.019 332.129 672.211C335.144 672.405 337.828 671.272 340.181 668.813C342.531 666.392 343.826 663.334 344.064 659.642C344.219 657.23 343.854 654.974 342.967 652.873C342.116 650.813 340.919 649.128 339.377 647.818L338.449 647.247ZM346.058 649.837C347.668 652.439 348.341 655.793 348.077 659.9C347.773 664.61 346.08 668.569 342.998 671.776C341.464 673.266 339.764 674.405 337.896 675.193C335.952 676.014 333.943 676.357 331.87 676.224C329.836 676.093 327.888 675.494 326.027 674.428C324.276 673.407 322.756 672.042 321.466 670.332C318.818 666.793 317.646 662.669 317.95 657.959C318.256 653.211 319.948 649.271 323.025 646.14C324.526 644.571 326.209 643.412 328.074 642.662C330.056 641.844 332.065 641.5 334.1 641.631C336.172 641.765 338.12 642.364 339.944 643.427C341.038 644.065 342.014 644.771 342.872 645.545L356.89 646.449L356.628 650.518L346.058 649.837ZM295.145 658.851L289.595 686.738L285.595 685.942L291.145 658.055L295.145 658.851ZM297.878 646.863C297.115 647.404 296.271 647.583 295.345 647.398C294.42 647.214 293.727 646.73 293.267 645.945C292.8 645.198 292.666 644.324 292.865 643.324C293.049 642.398 293.504 641.661 294.229 641.112C294.947 640.6 295.787 640.44 296.75 640.632C297.639 640.809 298.335 641.275 298.839 642.03C299.299 642.814 299.437 643.67 299.253 644.595C299.054 645.595 298.595 646.351 297.878 646.863ZM269.31 639.427C268.868 638.633 268.782 637.765 269.051 636.82C269.31 635.913 269.818 635.233 270.575 634.781C271.332 634.329 272.146 634.228 273.018 634.476C273.962 634.745 274.637 635.272 275.042 636.054C275.41 636.827 275.465 637.667 275.206 638.575C274.937 639.519 274.442 640.222 273.722 640.684C272.965 641.136 272.132 641.233 271.224 640.974C270.353 640.725 269.715 640.21 269.31 639.427ZM270.904 678.871C268.042 680.372 264.414 680.496 260.02 679.243C257.95 678.653 256.152 677.591 254.626 676.057C253.064 674.512 251.912 672.632 251.169 670.418L250.545 668.473L254.326 667.195L254.879 669.179C255.414 670.745 256.232 672.077 257.332 673.176C258.432 674.275 259.691 675.027 261.107 675.43C267.28 677.19 271.05 675.674 272.417 670.88C272.769 669.645 272.975 668.507 273.037 667.464C273.062 666.411 273.026 665.576 272.927 664.959C272.781 664.368 272.49 663.735 272.054 663.061C271.582 662.377 271.177 661.869 270.84 661.537C270.502 661.205 270.014 660.713 269.376 660.06C268.582 659.401 268.009 658.865 267.656 658.45C267.303 658.035 266.882 657.444 266.394 656.677C265.86 655.936 265.566 655.106 265.514 654.188C265.461 653.27 265.585 652.284 265.885 651.231L266.413 649.379L270.172 650.451L269.644 652.303C269.457 652.956 269.429 653.537 269.559 654.045C269.679 654.59 269.92 655.052 270.284 655.43C270.6 655.834 271.145 656.402 271.918 657.133C274.046 659.035 275.45 660.79 276.131 662.398C277.273 665.001 277.306 668.191 276.23 671.967C275.298 675.235 273.523 677.537 270.904 678.871ZM248.755 631.102L241.281 628.287L242.719 624.471L253.956 628.704L237.522 672.326L233.758 670.908L248.755 631.102ZM231.691 624.004L224.385 620.777L226.033 617.047L244.322 625.126L242.674 628.857L235.421 625.652L223.267 653.164L219.537 651.516L231.691 624.004ZM221.804 657.037L219.698 661.804L215.553 659.973L217.659 655.206L221.804 657.037ZM192.761 602.268C192.712 602.502 192.44 603.043 191.946 603.891L185.816 614.413C184.01 617.513 183.58 620.802 184.525 624.28C185.47 627.759 187.492 630.401 190.592 632.207C193.659 633.994 196.938 634.441 200.43 633.547C203.923 632.654 206.572 630.657 208.377 627.558L209.717 625.257L213.192 627.282L211.852 629.582C209.514 633.595 206.073 636.201 201.529 637.399C196.934 638.611 192.613 638.039 188.567 635.682C184.489 633.306 181.86 629.829 180.68 625.253C179.449 620.69 180.003 616.402 182.341 612.389L188.471 601.867C188.87 601.181 189.022 600.658 188.927 600.297C188.84 600.071 188.796 599.958 188.796 599.958L188.486 598.466L189.968 595.921L227.604 617.848L225.551 621.371L192.761 602.268ZM183.368 591.631L156.078 629.422L152.817 627.068L180.108 589.276L183.368 591.631ZM153.813 635.751C153.804 635.698 153.479 636.116 152.838 637.004C152.064 638.075 151.019 638.717 149.701 638.93C148.33 639.151 147.109 638.875 146.037 638.101C145.058 637.394 144.36 636.167 143.943 634.423L146.685 632.56C147.127 633.625 147.361 634.236 147.387 634.394C147.455 634.816 147.657 635.149 147.994 635.392C148.331 635.635 148.71 635.723 149.132 635.655C149.553 635.586 149.886 635.384 150.129 635.047C150.394 634.68 150.493 634.285 150.425 633.864C150.365 633.495 150.224 633.206 150.001 632.999L146.466 630.446L148.588 627.507L156.256 633.045L154.134 635.983L153.813 635.751ZM121.909 583.511L118.938 580.717L139.541 558.806L134.218 553.801L137.011 550.83L142.334 555.835L149.124 548.614L155.19 554.317C157.338 556.388 159.065 558.686 160.371 561.21C161.812 563.757 162.734 566.387 163.138 569.099C163.544 571.865 163.425 574.5 162.781 577.004C162.086 579.616 160.834 581.885 159.023 583.811L152.078 591.197L149.148 588.443L156.093 581.056C158.835 578.14 159.841 574.369 159.111 569.744C158.376 564.958 156.055 560.729 152.149 557.056L149.302 554.378L121.909 583.511ZM128.864 595.959L125.333 599.714L122.032 596.61L125.563 592.855L128.864 595.959ZM127.297 545.733L122.056 539.706L125.134 537.031L138.253 552.118L135.176 554.794L129.973 548.811L107.277 568.545L104.601 565.468L127.297 545.733ZM137.348 536.317L133.459 539.699L130.486 536.28L134.375 532.898L137.348 536.317ZM143.667 543.583L139.777 546.965L136.804 543.546L140.693 540.164L143.667 543.583ZM114.003 524.575C113.861 522.871 113.322 521.357 112.384 520.031C111.512 518.798 110.406 517.823 109.066 517.105C107.695 516.41 106.249 515.999 104.726 515.874C103.172 515.77 101.558 515.941 99.884 516.385C98.1787 516.851 96.5862 517.608 95.1065 518.654C92.0854 520.791 90.159 523.495 89.3275 526.766C88.4652 530.059 88.8954 532.923 90.6181 535.358C92.3625 537.824 94.9307 539.199 98.3226 539.482C101.684 539.788 104.875 538.872 107.896 536.735C109.869 535.339 111.393 533.636 112.469 531.626C113.536 529.669 114.094 527.679 114.143 525.656L114.003 524.575ZM116.773 532.12C115.763 535.008 113.578 537.641 110.218 540.018C106.365 542.744 102.222 543.916 97.7904 543.536C95.667 543.28 93.712 542.674 91.9254 541.718C90.0644 540.722 88.5343 539.376 87.3349 537.68C86.1574 536.016 85.3979 534.125 85.0565 532.007C84.7496 530.004 84.8556 527.964 85.3744 525.885C86.4607 521.602 88.9306 518.097 92.7841 515.371C96.6684 512.624 100.796 511.462 105.166 511.886C107.329 512.067 109.288 512.647 111.044 513.625C112.927 514.652 114.457 515.998 115.635 517.662C116.834 519.358 117.593 521.249 117.913 523.335C118.105 524.587 118.17 525.79 118.107 526.945L126.219 538.412L122.89 540.767L116.773 532.12ZM77.7767 498.174L52.596 511.38L50.7019 507.768L75.8825 494.562L77.7767 498.174ZM88.8193 492.766C87.9193 492.513 87.25 491.969 86.8115 491.133C86.3731 490.297 86.3145 489.453 86.6358 488.603C86.9237 487.769 87.5191 487.116 88.422 486.643C89.258 486.204 90.1173 486.095 90.9998 486.314C91.8489 486.551 92.5014 487.104 92.9574 487.973C93.3784 488.776 93.4537 489.611 93.1833 490.477C92.862 491.328 92.2833 491.973 91.4473 492.411C90.5444 492.885 89.6684 493.003 88.8193 492.766ZM76.6479 465.873C76.9875 465.032 77.609 464.419 78.5125 464.034C79.3813 463.665 80.2292 463.633 81.0564 463.938C81.8835 464.242 82.4744 464.812 82.829 465.646C83.2131 466.549 83.228 467.405 82.8737 468.212C82.5045 468.984 81.8856 469.555 81.0169 469.924C80.1134 470.309 79.2554 470.366 78.4431 470.096C77.6159 469.791 77.0177 469.204 76.6483 468.335C76.2937 467.501 76.2936 466.681 76.6479 465.873ZM46.9727 491.908C44.0064 490.625 41.6294 487.882 39.8416 483.677C38.9994 481.696 38.6955 479.63 38.9297 477.479C39.1492 475.293 39.8865 473.215 41.1417 471.245L42.2622 469.538L45.6326 471.675L44.4378 473.352C43.5561 474.753 43.0338 476.226 42.8707 477.773C42.7076 479.319 42.9141 480.77 43.4903 482.125C46.0021 488.033 49.5514 490.012 54.1384 488.061C55.3199 487.559 56.3354 487.004 57.185 486.397C58.0199 485.754 58.6462 485.201 59.064 484.736C59.4323 484.251 59.7415 483.627 59.9916 482.864C60.2269 482.067 60.3676 481.433 60.4136 480.962C60.4595 480.491 60.5359 479.802 60.6426 478.895C60.6555 477.864 60.7123 477.08 60.813 476.545C60.9137 476.01 61.1091 475.311 61.3991 474.45C61.6396 473.568 62.1004 472.818 62.7815 472.2C63.4625 471.582 64.3069 471.059 65.3147 470.631L67.0869 469.877L68.6161 473.474L66.8439 474.227C66.2184 474.493 65.7488 474.836 65.4353 475.257C65.0869 475.692 64.8798 476.17 64.8138 476.691C64.6984 477.191 64.5994 477.972 64.5171 479.032C64.375 481.883 63.8927 484.078 63.0702 485.618C61.7639 488.143 59.3037 490.173 55.6898 491.71C52.5623 493.04 49.6566 493.106 46.9727 491.908ZM70.2031 444.653L67.6971 437.07L71.5692 435.79L75.3371 447.192L31.0762 461.819L29.8143 458L70.2031 444.653ZM65.0084 426.914L62.9334 419.202L66.8714 418.143L72.0664 437.45L68.1284 438.51L66.068 430.852L37.0248 438.667L35.9652 434.729L65.0084 426.914ZM33.0909 439.96L28.0589 441.314L26.8816 436.938L31.9136 435.584L33.0909 439.96ZM57.4477 382.976C57.2352 383.085 56.6438 383.214 55.6734 383.363L43.6365 385.21C40.0908 385.754 37.2623 387.487 35.1511 390.409C33.0399 393.33 32.2564 396.564 32.8005 400.11C33.3389 403.618 35.0532 406.45 37.9433 408.604C40.8334 410.758 44.0514 411.563 47.5971 411.019L50.2284 410.615L50.8384 414.59L48.2071 414.994C43.6163 415.698 39.4267 414.66 35.6382 411.88C31.8066 409.068 29.5358 405.348 28.8255 400.72C28.1096 396.054 29.1605 391.825 31.9783 388.03C34.753 384.205 38.4358 381.939 43.0266 381.235L55.0634 379.388C55.8472 379.267 56.3497 379.057 56.5708 378.755C56.6915 378.546 56.7518 378.441 56.7518 378.441L57.7169 377.261L60.6281 376.815L67.2348 419.867L63.2039 420.486L57.4477 382.976ZM59.824 368.985L13.2726 371.424L13.0622 367.408L59.6136 364.969L59.824 368.985ZM6.92215 373.628C6.95788 373.588 6.42897 373.597 5.33542 373.654C4.01561 373.724 2.85966 373.311 1.86756 372.418C0.83578 371.489 0.285322 370.365 0.216188 369.045C0.15298 367.838 0.670307 366.525 1.76817 365.107L4.9384 366.075C4.38641 367.087 4.05682 367.653 3.94962 367.772C3.66375 368.089 3.53168 368.455 3.55341 368.87C3.57514 369.285 3.74474 369.635 4.06221 369.921C4.37968 370.207 4.74581 370.339 5.16061 370.317C5.61311 370.293 5.9823 370.123 6.26817 369.805C6.5183 369.528 6.65432 369.237 6.67623 368.933L6.44809 364.578L10.0681 364.388L10.5629 373.834L6.94289 374.024L6.92215 373.628ZM27.4793 316.108L27.7809 312.041L57.7747 314.265L58.3149 306.978L62.3819 307.28L61.8417 314.566L71.7267 315.299L71.111 323.602C70.8528 326.575 70.1539 329.363 69.0143 331.966C67.9415 334.689 66.4783 337.06 64.6246 339.081C62.7305 341.137 60.6076 342.702 58.2561 343.777C55.7888 344.882 53.2371 345.336 50.6011 345.141L40.4902 344.391L40.7875 340.381L50.8984 341.131C54.8901 341.426 58.4537 339.835 61.5892 336.357C64.8461 332.774 66.6728 328.309 67.0692 322.962L67.3582 319.064L27.4793 316.108ZM22.1814 329.346L17.0412 328.965L17.3762 324.446L22.5164 324.827L22.1814 329.346ZM60.2323 296.521L61.6201 288.656L65.6362 289.365L62.1618 309.055L58.1457 308.346L59.5236 300.537L29.905 295.311L30.6137 291.295L60.2323 296.521ZM73.8752 298.411L68.7993 297.515L69.5867 293.053L74.6626 293.949L73.8752 298.411ZM72.2019 307.893L67.1261 306.998L67.9135 302.535L72.9893 303.431L72.2019 307.893ZM68.3412 272.882C69.5784 271.702 70.4184 270.331 70.8612 268.769C71.2732 267.316 71.3376 265.843 71.0544 264.35C70.7349 262.846 70.1459 261.462 69.2875 260.199C68.3927 258.924 67.2467 257.775 65.8493 256.751C64.4156 255.717 62.8269 254.953 61.0831 254.458C57.5228 253.449 54.2089 253.648 51.1412 255.054C48.0372 256.451 46.0784 258.584 45.2648 261.454C44.4409 264.36 44.9837 267.222 46.893 270.04C48.7661 272.847 51.4827 274.756 55.043 275.765C57.368 276.424 59.6504 276.541 61.8903 276.117C64.0835 275.718 65.9827 274.902 67.5881 273.67L68.3412 272.882ZM64.2085 279.776C61.3268 280.804 57.906 280.757 53.9462 279.634C49.405 278.347 45.891 275.859 43.4041 272.171C42.2697 270.358 41.5137 268.456 41.1361 266.465C40.7428 264.391 40.8294 262.355 41.3958 260.357C41.9519 258.396 42.9467 256.617 44.3801 255.022C45.7464 253.525 47.4011 252.326 49.3443 251.425C53.3602 249.58 57.6388 249.302 62.1799 250.589C66.7573 251.887 70.2532 254.369 72.6674 258.036C73.8848 259.834 74.6642 261.723 75.0054 263.703C75.3884 265.814 75.3018 267.85 74.7457 269.811C74.1793 271.81 73.1845 273.588 71.7613 275.147C70.9075 276.082 70.0118 276.888 69.0744 277.564L65.2433 291.079L61.3198 289.967L64.2085 279.776ZM66.14 228.1L40.0573 216.779L41.681 213.038L67.7637 224.359L66.14 228.1ZM77.2795 233.306C76.9115 232.446 76.9155 231.583 77.2914 230.718C77.6672 229.852 78.2872 229.277 79.1512 228.993C79.9806 228.695 80.863 228.748 81.7982 229.154C82.6642 229.53 83.2886 230.13 83.6715 230.955C84.0198 231.765 83.9985 232.62 83.6077 233.521C83.2468 234.352 82.6442 234.934 81.7998 235.268C80.9357 235.551 80.0707 235.505 79.2048 235.129C78.2695 234.723 77.6278 234.115 77.2795 233.306ZM90.574 206.953C91.4426 206.689 92.3099 206.788 93.1761 207.25C94.009 207.694 94.5665 208.334 94.8485 209.169C95.1305 210.004 95.0582 210.822 94.6316 211.621C94.1695 212.487 93.5131 213.036 92.6623 213.267C91.8294 213.464 90.9964 213.341 90.1635 212.897C89.2973 212.435 88.7143 211.803 88.4146 211.001C88.1326 210.166 88.2137 209.331 88.6581 208.499C89.0846 207.699 89.7233 207.184 90.574 206.953ZM51.6794 200.198C50.8157 197.084 51.4591 193.511 53.6097 189.48C54.6228 187.581 56.0401 186.047 57.8617 184.879C59.701 183.678 61.7812 182.947 64.1024 182.688L66.1348 182.488L66.5875 186.453L64.5317 186.576C62.888 186.769 61.4131 187.287 60.1069 188.131C58.8007 188.975 57.8011 190.047 57.1079 191.346C54.0864 197.01 54.7745 201.015 59.1722 203.361C60.305 203.965 61.3744 204.407 62.3806 204.687C63.4045 204.934 64.2286 205.074 64.8527 205.107C65.4614 205.09 66.1411 204.939 66.8919 204.654C67.6604 204.337 68.2424 204.048 68.6378 203.788C69.0332 203.529 69.6175 203.155 70.3905 202.669C71.2013 202.032 71.8466 201.584 72.3264 201.327C72.8062 201.069 73.4726 200.783 74.3256 200.467C75.163 200.101 76.036 199.989 76.9444 200.131C77.8529 200.273 78.7902 200.602 79.7564 201.118L81.4555 202.024L79.6159 205.472L77.9168 204.566C77.3171 204.246 76.7552 204.096 76.231 204.116C75.6734 204.118 75.1714 204.257 74.7249 204.532C74.2629 204.756 73.5932 205.169 72.7157 205.771C70.4077 207.45 68.3963 208.453 66.6815 208.779C63.896 209.348 60.7709 208.707 57.306 206.859C54.3076 205.259 52.432 203.039 51.6794 200.198ZM103.048 188.614L107.379 181.903L110.805 184.115L104.294 194.204L65.1269 168.927L67.3076 165.548L103.048 188.614ZM113.595 173.435L118.294 166.978L121.592 169.377L109.826 185.543L106.528 183.143L111.195 176.732L86.8776 159.033L89.2775 155.736L113.595 173.435ZM83.4012 156.783L79.1881 153.716L81.8546 150.053L86.0677 153.119L83.4012 156.783ZM143.002 139.929C142.783 139.832 142.311 139.454 141.585 138.793L132.577 130.598C129.924 128.184 126.798 127.075 123.198 127.271C119.599 127.468 116.592 128.893 114.178 131.546C111.789 134.172 110.667 137.285 110.81 140.887C110.953 144.489 112.352 147.497 115.005 149.911L116.974 151.703L114.268 154.677L112.299 152.886C108.863 149.76 107.035 145.85 106.813 141.156C106.589 136.409 108.052 132.303 111.204 128.84C114.38 125.349 118.329 123.505 123.051 123.309C127.771 123.059 131.848 124.497 135.284 127.623L144.291 135.818C144.878 136.352 145.358 136.61 145.731 136.593C145.97 136.555 146.089 136.536 146.089 136.536L147.613 136.544L149.792 138.526L120.479 170.743L117.463 167.999L143.002 139.929ZM155.365 132.967L124.087 98.4031L127.069 95.7047L158.347 130.268L155.365 132.967ZM118.368 94.8696C118.422 94.8722 118.081 94.4676 117.346 93.6556C116.46 92.6757 116.049 91.5191 116.116 90.1857C116.185 88.799 116.71 87.6622 117.69 86.7754C118.586 85.9647 119.93 85.5372 121.724 85.493L122.974 88.5629C121.841 88.7737 121.194 88.8751 121.034 88.8671C120.607 88.8458 120.24 88.9746 119.932 89.2533C119.624 89.532 119.459 89.8847 119.438 90.3113C119.417 90.738 119.545 91.1053 119.824 91.4133C120.128 91.7493 120.494 91.9279 120.92 91.9492C121.294 91.9679 121.605 91.8898 121.854 91.7151L125.088 88.7887L127.52 91.4765L120.507 97.8234L118.075 95.1356L118.368 94.8696ZM176.157 74.5695L179.51 72.2479L196.632 96.975L202.639 92.8155L204.96 96.1683L198.953 100.328L204.596 108.477L197.751 113.217C195.277 114.884 192.669 116.093 189.927 116.843C187.135 117.719 184.371 118.072 181.634 117.9C178.845 117.719 176.293 117.052 173.979 115.898C171.569 114.673 169.612 112.974 168.107 110.801L162.335 102.466L165.642 100.176L171.413 108.512C173.692 111.803 177.169 113.574 181.845 113.827C186.679 114.109 191.3 112.723 195.708 109.671L198.921 107.446L176.157 74.5695ZM162.531 78.769L159.596 74.5314L163.322 71.9519L166.256 76.1895L162.531 78.769ZM211.972 87.7319L218.96 83.865L220.934 87.4333L203.44 97.1141L201.466 93.5459L208.404 89.7064L193.841 63.3908L197.41 61.4162L211.972 87.7319ZM219.082 99.5278L216.587 95.018L220.551 92.824L223.047 97.3339L219.082 99.5278ZM210.657 104.19L208.162 99.6801L212.126 97.4862L214.622 101.996L210.657 104.19ZM235.46 79.1864C237.155 79.408 238.749 79.2005 240.243 78.564C241.633 77.9718 242.819 77.0967 243.803 75.9384C244.773 74.7455 245.479 73.4181 245.924 71.9564C246.353 70.4599 246.528 68.8463 246.447 67.1158C246.351 65.3505 245.948 63.6341 245.238 61.9667C243.787 58.5624 241.551 56.1085 238.529 54.605C235.493 53.0667 232.603 52.8823 229.859 54.0518C227.08 55.2361 225.193 57.456 224.2 60.7115C223.192 63.9323 223.413 67.2448 224.864 70.6491C225.811 72.8723 227.154 74.722 228.891 76.1981C230.579 77.6543 232.407 78.6199 234.374 79.0949L235.46 79.1864ZM227.499 80.3006C224.89 78.7037 222.778 76.0121 221.164 72.2257C219.314 67.8835 219.043 63.5867 220.35 59.3352C221.049 57.3137 222.054 55.5308 223.366 53.9865C224.733 52.3779 226.371 51.1665 228.282 50.3522C230.158 49.5528 232.167 49.2099 234.308 49.3233C236.331 49.4464 238.303 49.981 240.225 50.927C244.183 52.8935 247.087 56.0479 248.937 60.3901C250.802 64.767 251.066 69.0465 249.729 73.2285C249.095 75.3047 248.115 77.0975 246.788 78.6071C245.386 80.2305 243.748 81.4419 241.872 82.2413C239.961 83.0555 237.952 83.3985 235.845 83.2703C234.581 83.1933 233.392 83.0025 232.277 82.6977L219.354 88.2047L217.756 84.4531L227.499 80.3006ZM268.913 49.3343L261.327 21.9312L265.257 20.8432L272.843 48.2463L268.913 49.3343ZM271.864 61.2705C272.301 60.4442 272.975 59.9051 273.885 59.6533C274.795 59.4014 275.631 59.5224 276.395 60.0163C277.148 60.4738 277.661 61.1938 277.933 62.1764C278.185 63.0862 278.11 63.9492 277.71 64.7655C277.299 65.5453 276.62 66.0662 275.674 66.3281C274.8 66.5699 273.969 66.467 273.179 66.0196C272.415 65.5258 271.907 64.8239 271.656 63.9141C271.384 62.9315 271.453 62.0503 271.864 61.2705ZM300.724 55.0633C301.475 55.5734 301.942 56.3106 302.127 57.2749C302.304 58.2022 302.156 59.0377 301.683 59.7816C301.21 60.5255 300.528 60.9825 299.638 61.1526C298.674 61.3368 297.835 61.1703 297.121 60.6532C296.444 60.129 296.017 59.4032 295.84 58.476C295.656 57.5117 295.782 56.6611 296.217 55.9243C296.69 55.1804 297.391 54.7199 298.318 54.5427C299.208 54.3726 300.01 54.5462 300.724 55.0633ZM281.559 20.5504C283.441 17.9228 286.625 16.1803 291.113 15.3229C293.227 14.919 295.311 15.0592 297.364 15.7434C299.454 16.4205 301.328 17.5809 302.988 19.2245L304.42 20.6809L301.618 23.5228L300.231 22C299.049 20.842 297.719 20.0196 296.242 19.5329C294.765 19.0462 293.304 18.941 291.857 19.2173C285.552 20.4219 282.867 23.4721 283.802 28.368C284.043 29.629 284.371 30.739 284.785 31.6979C285.236 32.6497 285.644 33.379 286.01 33.8857C286.406 34.3483 286.95 34.7825 287.643 35.1884C288.372 35.5872 288.963 35.8589 289.413 36.0035C289.864 36.1481 290.521 36.3685 291.385 36.6648C292.39 36.8956 293.143 37.1169 293.645 37.3286C294.147 37.5403 294.788 37.8791 295.569 38.345C296.38 38.7667 297.016 39.3757 297.475 40.1721C297.935 40.9685 298.268 41.9044 298.473 42.98L298.834 44.8716L294.996 45.605L294.634 43.7134C294.507 43.0458 294.271 42.5143 293.926 42.1188C293.574 41.6862 293.151 41.3827 292.656 41.2081C292.192 40.9893 291.45 40.7274 290.43 40.4224C287.674 39.6802 285.631 38.7443 284.3 37.6146C282.109 35.8035 280.645 32.9693 279.908 29.112C279.27 25.7739 279.821 22.9201 281.559 20.5504ZM322.825 53.249L330.766 52.3979L331.2 56.4528L319.261 57.7324L314.293 11.3826L318.292 10.9541L322.825 53.249ZM341.259 51.9078L349.235 51.5032L349.442 55.5761L329.473 56.5891L329.267 52.5162L337.186 52.1144L335.662 22.0769L339.735 21.8703L341.259 51.9078ZM335.227 17.9589L334.963 12.7547L339.488 12.5251L339.752 17.7293L335.227 17.9589ZM385.801 53.6741C385.739 53.4435 385.735 52.8382 385.792 51.858L386.49 39.7003C386.695 36.119 385.589 32.9918 383.17 30.3189C380.752 27.6459 377.752 26.2066 374.171 26.001C370.627 25.7976 367.501 26.8852 364.792 29.2638C362.084 31.6424 360.627 34.6224 360.421 38.2038L360.269 40.8615L356.254 40.631L356.406 37.9733C356.673 33.3364 358.56 29.4544 362.068 26.3274C365.615 23.1649 369.727 21.7178 374.401 21.9862C379.113 22.2567 383.032 24.1648 386.157 27.7104C389.322 31.2204 390.771 35.2939 390.505 39.9308L389.807 52.0885C389.761 52.8802 389.863 53.4156 390.112 53.6946C390.291 53.8562 390.381 53.937 390.381 53.937L391.334 55.1264L391.165 58.0669L347.68 55.5704L347.914 51.499L385.801 53.6741ZM398.993 58.9071L406.264 12.8625L410.237 13.4898L402.965 59.5344L398.993 58.9071ZM405.425 6.19292C405.457 6.23611 405.558 5.71688 405.729 4.63524C405.935 3.3298 406.578 2.28448 407.657 1.49928C408.78 0.682675 409.995 0.37745 411.3 0.583607C412.494 0.772094 413.67 1.55048 414.83 2.91877L413.226 5.81917C412.35 5.06925 411.865 4.62951 411.771 4.49995C411.52 4.15444 411.189 3.94929 410.779 3.8845C410.368 3.8197 409.991 3.91294 409.645 4.1642C409.3 4.41547 409.094 4.74624 409.03 5.15652C408.959 5.6041 409.049 6.00064 409.3 6.34615C409.52 6.64847 409.776 6.84184 410.069 6.92626L414.377 7.60657L413.811 11.1872L404.468 9.7117L405.034 6.13108L405.425 6.19292ZM457.498 38.3799L461.411 39.5307L452.924 68.3846L459.934 70.4464L458.783 74.3588L451.773 72.297L448.976 81.8063L440.988 79.4569C438.137 78.5789 435.559 77.3088 433.253 75.6467C430.817 74.025 428.807 72.0954 427.221 69.8579C425.611 67.5735 424.527 65.1687 423.971 62.6435C423.41 59.999 423.503 57.4089 424.249 54.8731L427.11 45.1464L430.968 46.2812L428.107 56.0078C426.978 59.8478 427.783 63.6664 430.523 67.4638C433.34 71.4018 437.321 74.1273 442.465 75.6404L446.215 76.7432L457.498 38.3799ZM445.672 30.4143L447.126 25.4695L451.473 26.7481L450.019 31.6929L445.672 30.4143ZM469.751 74.5319L477.145 77.5506L475.604 81.3261L457.093 73.7688L458.634 69.9932L465.976 72.9905L477.344 45.1455L481.119 46.6869L469.751 74.5319ZM465.021 87.4672L466.969 82.6953L471.164 84.408L469.216 89.1799L465.021 87.4672ZM456.106 83.8277L458.054 79.0558L462.249 80.7685L460.301 85.5404L456.106 83.8277ZM491.141 87.458C492.032 88.9168 493.195 90.028 494.628 90.7913C495.961 91.5014 497.387 91.8761 498.906 91.9153C500.443 91.9212 501.92 91.6383 503.337 91.0667C504.772 90.4618 506.137 89.5849 507.434 88.4358C508.748 87.2535 509.832 85.8625 510.684 84.2628C512.423 80.9967 512.93 77.7157 512.205 74.4198C511.497 71.0906 509.826 68.7248 507.193 67.3223C504.527 65.9021 501.615 65.827 498.457 67.0969C495.317 68.3335 492.877 70.5848 491.137 73.8509C490.001 75.9838 489.404 78.1898 489.345 80.4688C489.271 82.6967 489.666 84.7255 490.531 86.5554L491.141 87.458ZM485.278 81.9602C484.883 78.9262 485.653 75.5929 487.588 71.9603C489.807 67.7944 492.982 64.8863 497.113 63.236C499.125 62.5109 501.143 62.1745 503.169 62.2267C505.279 62.2812 507.251 62.7966 509.084 63.773C510.884 64.7316 512.411 66.0802 513.667 67.8188C514.841 69.4708 515.663 71.3417 516.132 73.4316C517.085 77.7469 516.452 81.9875 514.233 86.1534C511.996 90.3526 508.83 93.244 504.735 94.8276C502.721 95.6372 500.71 95.9991 498.702 95.9135C496.558 95.8413 494.587 95.3259 492.787 94.3673C490.954 93.3909 489.426 92.0423 488.204 90.3215C487.47 89.289 486.872 88.2431 486.41 87.1839L474.012 80.5799L475.929 76.9806L485.278 81.9602Z" fill="#F7F0F5"/>
</svg>
