<svg width="806" height="807" viewBox="0 0 806 807" fill="none" xmlns="http://www.w3.org/2000/svg">
<path d="M17.2299 429.296L13.8402 429.459L13.1237 414.545L16.5134 414.382L16.3505 410.992L27.8753 410.438L28.0382 413.828L31.4278 413.665L32.1443 428.58L28.7547 428.742L28.9175 432.132L17.3927 432.686L17.2299 429.296ZM49.5458 360.561L18.5969 357.655L18.1274 362.656C17.7256 366.935 18.9126 370.751 21.6883 374.102C24.4232 377.403 27.9305 379.255 32.2102 379.657C36.5349 380.063 40.3502 378.876 43.6562 376.096C46.8593 373.443 48.6533 370.066 49.0382 365.967L49.5458 360.561ZM53.9416 366.018C53.4129 371.649 50.9803 376.261 46.6437 379.853C42.2621 383.441 37.2557 384.971 31.6246 384.442C26.0385 383.917 21.4494 381.487 17.8572 377.15C14.2201 372.81 12.6658 367.824 13.1945 362.192L14.1145 352.394L49.9962 355.763L50.821 346.979L55.6863 347.435L53.9416 366.018ZM7.27219 370.089L1.12297 369.512L1.63053 364.106L7.77975 364.684L7.27219 370.089ZM8.35076 358.602L2.20153 358.025L2.70909 352.619L8.85832 353.196L8.35076 358.602ZM57.8985 315.092L27.5324 308.445L26.4585 313.351C25.5395 317.55 26.2586 321.46 28.6161 325.079C30.9294 328.689 34.1856 330.953 38.3847 331.872C42.628 332.801 46.5544 332.109 50.1641 329.795C53.1811 327.862 55.2514 325.281 56.3748 322.053L57.8985 315.092ZM53.9803 332.993C54.1516 332.845 53.6985 333.117 52.621 333.807C47.8799 336.845 42.7468 337.76 37.2217 336.551C31.7408 335.351 27.4812 332.381 24.4428 327.639C21.3603 322.889 20.4189 317.773 21.6185 312.292L23.7373 302.612L63.7171 311.363L55.3582 349.552L50.5845 348.507L53.9803 332.993ZM15.6446 315.778L9.54486 314.443L10.6913 309.205L16.791 310.541L15.6446 315.778ZM62.9074 296.212L65.7665 287.08L70.43 288.54L66.1313 302.271L12.8244 285.583L14.2641 280.985L62.9074 296.212ZM70.2615 275.315L73.6403 266.361L78.2123 268.087L69.7532 290.502L65.1812 288.777L68.5361 279.887L34.8177 267.162L36.5431 262.59L70.2615 275.315ZM85.9076 280.566L80.1291 278.386L82.0462 273.306L87.8247 275.486L85.9076 280.566ZM81.8338 291.361L76.0553 289.181L77.9724 284.101L83.7509 286.281L81.8338 291.361ZM79.5144 255.107L93.7981 227.269L78.9432 219.647C75.0785 217.664 71.0952 217.349 66.9933 218.703C62.9121 220.016 59.8904 222.585 57.928 226.41C56.6267 228.946 56.0526 231.601 56.2058 234.375C56.3188 237.128 57.1219 239.676 58.6152 242.019C60.1085 244.362 62.1232 246.184 64.6595 247.485L79.5144 255.107ZM77.3555 270.019L73.0077 267.788L76.6639 260.663C76.8498 260.3 76.9138 259.977 76.8561 259.693C76.6786 259.246 76.2074 258.827 75.4426 258.434L44.2834 242.446L46.4833 238.159L52.7634 241.381C52.8222 241.564 52.6861 241.036 52.355 239.798C50.6301 234.438 51.0483 229.262 53.6096 224.27C56.1917 219.238 60.1629 215.859 65.5232 214.134C70.9043 212.369 76.1109 212.778 81.143 215.36L95.998 222.982L100.336 214.528L104.684 216.759L77.3555 270.019ZM48.902 224.524L43.4069 221.705L45.8857 216.874L51.3808 219.694L48.902 224.524ZM62.1547 179.994L64.8411 175.912L111.501 206.619L103.591 218.639L99.509 215.952L104.733 208.015L62.1547 179.994ZM116.884 198.833L71.6715 166.031L74.5013 162.131L119.714 194.932L116.884 198.833ZM126.798 125.2L130.156 121.649L156.343 146.41L162.358 140.048L165.909 143.406L159.893 149.768L168.524 157.928L161.669 165.177C159.18 167.744 156.421 169.805 153.392 171.362C150.336 173.08 147.182 174.177 143.93 174.652C140.615 175.129 137.458 174.977 134.459 174.197C131.331 173.356 128.616 171.848 126.315 169.672L117.487 161.325L120.798 157.823L129.626 166.17C133.111 169.466 137.626 170.683 143.171 169.824C148.908 168.959 153.984 166.193 158.398 161.524L161.616 158.121L126.798 125.2ZM111.859 133.492L107.371 129.249L111.102 125.303L115.589 129.547L111.859 133.492ZM180.03 129.312C182.058 129.026 183.834 128.276 185.355 127.064C186.77 125.935 187.861 124.545 188.627 122.893C189.365 121.206 189.757 119.447 189.803 117.617C189.82 115.751 189.506 113.832 188.859 111.859C188.185 109.851 187.17 107.998 185.817 106.3C183.053 102.832 179.686 100.713 175.716 99.9426C171.718 99.1368 168.321 99.8479 165.526 102.076C162.695 104.332 161.227 107.499 161.12 111.576C160.986 115.617 162.301 119.372 165.064 122.84C166.869 125.104 169.011 126.811 171.489 127.96C173.904 129.103 176.323 129.633 178.747 129.553L180.03 129.312ZM171.193 133.143C167.669 132.133 164.37 129.7 161.296 125.843C157.771 121.42 156.084 116.545 156.235 111.217C156.395 108.659 156.986 106.279 158.007 104.076C159.071 101.781 160.576 99.8585 162.523 98.3074C164.433 96.7845 166.643 95.7463 169.153 95.1926C171.528 94.6881 173.977 94.6749 176.499 95.1529C181.698 96.1588 186.06 98.8731 189.585 103.296C193.139 107.754 194.812 112.612 194.604 117.869C194.536 120.47 193.977 122.853 192.927 125.021C191.827 127.344 190.322 129.267 188.412 130.79C186.465 132.341 184.255 133.379 181.781 133.904C180.297 134.22 178.862 134.38 177.477 134.384L164.314 144.875L161.268 141.054L171.193 133.143ZM231.801 60.5629C228.583 62.2206 226.523 65.0381 225.619 69.0153C224.695 72.9524 225.249 76.8919 227.279 80.8338C228.605 83.4082 230.371 85.5017 232.576 87.1143C234.781 88.7269 237.1 89.721 239.533 90.0965C241.985 90.411 244.257 90.0295 246.349 88.952C247.958 88.1232 249.3 86.9738 250.375 85.5038C251.429 83.9936 252.158 82.3457 252.562 80.56C252.945 78.7341 253.012 76.7905 252.765 74.7294C252.497 72.628 251.865 70.6119 250.871 68.6811C248.84 64.7392 245.954 62.0015 242.212 60.468C238.449 58.8944 234.979 58.926 231.801 60.5629ZM220.343 71.9625C220.388 70.6668 220.573 69.248 220.899 67.7061C221.557 65.2293 222.603 63.011 224.036 61.051C225.529 59.0093 227.382 57.4187 229.594 56.2791C231.766 55.1601 234.137 54.5751 236.707 54.524C239.135 54.4947 241.538 54.9616 243.918 55.9246C248.819 57.9298 252.565 61.4464 255.155 66.4744C257.413 70.8588 258.281 74.8654 257.758 78.494L269.101 72.6508L271.339 76.995L256.315 84.7342C255.784 85.975 255.07 87.2079 254.174 88.4329C252.641 90.4952 250.788 92.0859 248.616 93.2048C246.404 94.3444 244.033 94.9295 241.504 94.9599C239.986 94.9782 238.456 94.8246 236.914 94.4991L232.431 92.7621C228.399 90.6655 225.254 87.425 222.995 83.0406C221.835 80.788 221.114 78.8439 220.831 77.2081C219.926 77.7249 219.018 78.7274 218.105 80.2157C217.193 81.8051 216.708 83.5817 216.651 85.5453C216.634 87.4883 217.092 89.3648 218.024 91.1748L228.778 112.051L224.494 114.258L213.74 93.3816C211.73 89.4799 211.307 85.4477 212.471 81.2852C213.616 77.1836 216.039 74.1797 219.739 72.2733L220.343 71.9625ZM258.499 22.2766L263.071 20.5509L282.797 72.8098L269.335 77.8911L267.609 73.3192L276.499 69.9637L258.499 22.2766ZM294.835 63.5779L303.951 60.6663L305.438 65.3213L291.732 69.6991L274.736 16.4894L279.327 15.0233L294.835 63.5779ZM338.844 27.9078C337.715 27.1785 336.985 26.6876 336.653 26.435C333.008 24.1177 329.106 23.4061 324.948 24.2999C320.745 25.2033 317.463 27.4824 315.102 31.1371C312.785 34.7824 312.073 38.6841 312.967 42.8424C313.87 47.0449 316.149 50.3269 319.804 52.6883C323.038 54.8162 326.52 55.6182 330.249 55.0944L347.368 51.4143L348.395 56.1918L303.406 65.8629L302.379 61.0853L318.504 57.6191C318.709 57.7138 318.274 57.4139 317.2 56.7193C312.426 53.6728 309.444 49.3847 308.256 43.8551C307.077 38.3698 308.015 33.2623 311.071 28.5326C314.162 23.7492 318.45 20.7679 323.935 19.5887C328.89 18.5237 333.653 19.2585 338.224 21.7932L338.844 27.9078ZM372.46 17.8436L372.264 14.4557L387.171 13.5948L387.367 16.9828L390.755 16.7871L391.42 28.306L388.032 28.5016L388.228 31.8896L373.321 32.7504L373.125 29.3625L369.737 29.5582L369.072 18.0393L372.46 17.8436ZM441.505 49.4422L444.105 18.4662L439.1 18.0461C434.816 17.6865 431.013 18.9111 427.69 21.7197C424.415 24.4871 422.598 28.0125 422.239 32.2959C421.875 36.6245 423.1 40.4279 425.912 43.7062C428.597 46.883 431.991 48.6436 436.094 48.988L441.505 49.4422ZM436.091 53.8917C430.455 53.4186 425.819 51.0316 422.185 46.7307C418.554 42.3847 416.975 37.3937 417.448 31.7576C417.917 26.1666 420.302 21.5537 424.603 17.9189C428.908 14.2391 433.878 12.6357 439.514 13.1088L449.321 13.932L446.307 49.8453L455.099 50.5833L454.69 55.4529L436.091 53.8917ZM431.559 7.26474L432.076 1.11012L437.487 1.5643L436.97 7.71892L431.559 7.26474ZM443.057 8.22987L443.574 2.07525L448.984 2.52943L448.468 8.68405L443.057 8.22987ZM487.056 57.3303L493.388 26.8972L488.471 25.8741C484.263 24.9984 480.361 25.758 476.766 28.1527C473.181 30.5032 470.95 33.7826 470.074 37.9909C469.19 42.2436 469.922 46.1627 472.273 49.7483C474.237 52.7452 476.839 54.7886 480.079 55.8786L487.056 57.3303ZM469.115 53.5973C469.264 53.7671 468.988 53.3168 468.287 52.2465C465.2 47.5371 464.232 42.4137 465.384 36.8764C466.527 31.3834 469.453 27.0933 474.163 24.0061C478.881 20.8747 483.987 19.8804 489.48 21.0234L499.182 23.042L490.845 63.1101L452.571 55.1463L453.566 50.362L469.115 53.5973ZM485.932 15.0858L487.204 8.97257L492.454 10.0648L491.182 16.178L485.932 15.0858ZM505.982 62.1334L515.147 64.8889L513.74 69.5687L499.961 65.4256L516.044 11.9334L520.659 13.3209L505.982 62.1334ZM526.961 69.2466L535.953 72.5216L534.281 77.1132L511.769 68.9141L513.441 64.3224L522.369 67.5742L534.703 33.7108L539.295 35.3831L526.961 69.2466ZM521.891 84.9524L524.004 79.1491L529.106 81.0073L526.992 86.8106L521.891 84.9524ZM511.049 81.0038L513.163 75.2005L518.265 77.0586L516.151 82.862L511.049 81.0038ZM547.273 78.2736L575.265 92.2521L582.724 77.3147C584.665 73.4285 584.936 69.4421 583.538 65.3552C582.18 61.2886 579.578 58.2952 575.732 56.3748C573.182 55.1012 570.521 54.5562 567.749 54.7398C564.997 54.8828 562.458 55.7137 560.131 57.2326C557.805 58.7514 556.005 60.7859 554.732 63.3362L547.273 78.2736ZM532.338 76.2779L534.521 71.906L541.686 75.484C542.051 75.6659 542.374 75.7265 542.658 75.6656C543.103 75.4833 543.517 75.0075 543.901 74.2384L559.547 42.9063L563.859 45.0592L560.705 51.3742C560.523 51.435 561.049 51.293 562.283 50.9484C567.625 49.165 572.805 49.5266 577.825 52.0332C582.885 54.5601 586.306 58.4941 588.09 63.8353C589.914 69.1967 589.562 74.4075 587.035 79.4676L579.576 94.405L588.077 98.65L585.894 103.022L532.338 76.2779ZM577.519 47.3287L580.278 41.8031L585.136 44.2288L582.376 49.7545L577.519 47.3287ZM622.232 60.1291L626.341 62.7745L596.102 109.739L584.004 101.95L586.65 97.8413L594.639 102.985L622.232 60.1291ZM603.942 115.045L636.295 69.5103L640.224 72.3014L607.871 117.836L603.942 115.045ZM677.662 124.195L681.248 127.514L656.768 153.964L663.194 159.911L659.875 163.497L653.449 157.55L645.381 166.267L638.059 159.49C635.466 157.029 633.375 154.292 631.786 151.28C630.036 148.241 628.905 145.099 628.396 141.853C627.883 138.543 628.001 135.385 628.75 132.378C629.557 129.241 631.036 126.51 633.188 124.186L641.44 115.269L644.976 118.543L636.724 127.459C633.466 130.979 632.297 135.507 633.215 141.042C634.141 146.77 636.962 151.816 641.677 156.18L645.114 159.361L677.662 124.195ZM669.211 109.345L673.406 104.812L677.391 108.5L673.196 113.033L669.211 109.345ZM674.119 177.463C674.427 179.489 675.196 181.256 676.425 182.764C677.568 184.167 678.97 185.243 680.631 185.991C682.326 186.71 684.089 187.083 685.919 187.109C687.785 187.107 689.701 186.771 691.666 186.103C693.667 185.407 695.509 184.373 697.193 183.001C700.63 180.2 702.713 176.81 703.44 172.832C704.202 168.825 703.455 165.437 701.197 162.666C698.91 159.859 695.728 158.425 691.65 158.363C687.607 158.272 683.866 159.627 680.429 162.429C678.184 164.258 676.5 166.418 675.378 168.908C674.262 171.335 673.757 173.76 673.864 176.183L674.119 177.463ZM670.192 168.669C671.164 165.134 673.562 161.808 677.385 158.693C681.769 155.12 686.626 153.38 691.955 153.474C694.515 153.606 696.901 154.171 699.115 155.169C701.421 156.208 703.36 157.692 704.932 159.621C706.476 161.516 707.538 163.714 708.119 166.218C708.649 168.587 708.689 171.036 708.238 173.563C707.288 178.772 704.621 183.164 700.237 186.736C695.817 190.338 690.978 192.063 685.719 191.913C683.118 191.873 680.728 191.339 678.549 190.313C676.215 189.239 674.276 187.755 672.732 185.861C671.16 183.931 670.098 181.733 669.546 179.264C669.214 177.783 669.039 176.35 669.019 174.965L658.387 161.917L662.175 158.83L670.192 168.669ZM743.416 228.493C741.724 225.293 738.884 223.263 734.897 222.403C730.951 221.522 727.017 222.118 723.098 224.192C720.538 225.546 718.464 227.334 716.875 229.556C715.286 231.778 714.318 234.108 713.969 236.545C713.681 239.001 714.087 241.268 715.187 243.348C716.033 244.948 717.197 246.277 718.679 247.337C720.2 248.374 721.856 249.085 723.646 249.47C725.476 249.832 727.42 249.879 729.478 249.609C731.577 249.318 733.586 248.665 735.506 247.65C739.425 245.576 742.132 242.66 743.624 238.902C745.157 235.122 745.088 231.653 743.416 228.493ZM731.893 217.159C733.189 217.19 734.61 217.36 736.155 217.669C738.639 218.3 740.869 219.322 742.844 220.734C744.902 222.205 746.512 224.04 747.676 226.24C748.818 228.4 749.429 230.764 749.508 233.333C749.564 235.76 749.123 238.169 748.186 240.559C746.234 245.481 742.758 249.265 737.759 251.909C733.399 254.215 729.402 255.127 725.768 254.643L731.734 265.922L727.415 268.207L719.513 253.268C718.266 252.75 717.026 252.05 715.791 251.167C713.712 249.656 712.101 247.821 710.959 245.661C709.795 243.461 709.185 241.097 709.127 238.568C709.092 237.051 709.229 235.52 709.538 233.975L711.226 229.473C713.279 225.418 716.485 222.238 720.844 219.932C723.084 218.747 725.02 218.005 726.653 217.704C726.127 216.805 725.114 215.907 723.616 215.011C722.017 214.116 720.235 213.651 718.271 213.615C716.328 213.619 714.457 214.097 712.657 215.049L691.898 226.029L689.645 221.769L710.404 210.789C714.283 208.737 718.311 208.271 722.485 209.389C726.599 210.489 729.629 212.879 731.576 216.559L731.893 217.159ZM782 254.815L783.772 259.369L731.715 279.623L726.498 266.213L731.052 264.441L734.497 273.297L782 254.815ZM741.069 291.568L744.074 300.654L739.434 302.188L734.917 288.527L787.951 270.99L789.463 275.566L741.069 291.568ZM777.222 335.171C777.938 334.034 778.421 333.298 778.67 332.963C780.946 329.292 781.614 325.383 780.673 321.235C779.723 317.043 777.407 313.787 773.726 311.467C770.055 309.19 766.145 308.523 761.997 309.463C757.805 310.414 754.549 312.73 752.229 316.411C750.137 319.669 749.375 323.159 749.94 326.882L753.813 343.959L749.047 345.04L738.871 300.162L743.636 299.082L747.284 315.166C747.191 315.372 747.486 314.934 748.169 313.852C751.161 309.044 755.416 306.015 760.932 304.764C766.403 303.523 771.521 304.404 776.285 307.407C781.103 310.443 784.132 314.698 785.373 320.169C786.494 325.112 785.812 329.882 783.329 334.482L777.222 335.171ZM787.611 368.653L790.996 368.416L792.037 383.311L788.651 383.548L788.888 386.933L777.378 387.738L777.141 384.352L773.756 384.589L772.715 369.694L776.101 369.457L775.864 366.072L787.374 365.267L787.611 368.653ZM756.746 438.077L787.748 440.336L788.114 435.327C788.426 431.04 787.16 427.25 784.315 423.958C781.511 420.714 777.966 418.936 773.679 418.623C769.347 418.307 765.557 419.574 762.31 422.422C759.163 425.142 757.44 428.555 757.14 432.661L756.746 438.077ZM752.237 432.712C752.648 427.071 754.984 422.41 759.245 418.728C763.55 415.05 768.524 413.416 774.165 413.827C779.761 414.235 784.399 416.569 788.081 420.83C791.808 425.094 793.466 430.046 793.055 435.687L792.34 445.502L756.395 442.883L755.754 451.683L750.88 451.327L752.237 432.712ZM798.811 427.668L804.971 428.117L804.577 433.532L798.417 433.083L798.811 427.668ZM797.973 439.176L804.133 439.625L803.738 445.04L797.578 444.591L797.973 439.176ZM749.356 483.71L779.856 489.71L780.826 484.782C781.655 480.565 780.853 476.672 778.42 473.103C776.03 469.543 772.727 467.349 768.509 466.519C764.247 465.68 760.336 466.456 756.776 468.845C753.801 470.842 751.786 473.466 750.731 476.718L749.356 483.71ZM752.893 465.729C752.725 465.881 753.172 465.6 754.235 464.887C758.91 461.748 764.023 460.725 769.572 461.817C775.078 462.9 779.399 465.779 782.538 470.455C785.72 475.139 786.77 480.233 785.687 485.739L783.774 495.461L743.618 487.562L751.164 449.203L755.959 450.146L752.893 465.729ZM791.586 482.126L797.712 483.331L796.677 488.592L790.551 487.387L791.586 482.126ZM744.752 502.69L742.09 511.882L737.396 510.523L741.399 496.702L795.052 512.239L793.712 516.868L744.752 502.69ZM737.857 523.74L734.677 532.766L730.068 531.142L738.031 508.545L742.639 510.17L739.481 519.131L773.472 531.11L771.848 535.718L737.857 523.74ZM722.099 518.835L727.924 520.888L726.12 526.009L720.294 523.956L722.099 518.835ZM725.934 507.953L731.759 510.005L729.954 515.126L724.129 513.074L725.934 507.953ZM729.039 544.146L715.347 572.279L730.36 579.586C734.266 581.487 738.255 581.717 742.327 580.277C746.38 578.878 749.347 576.246 751.228 572.381C752.475 569.817 752.993 567.151 752.781 564.381C752.61 561.63 751.753 559.1 750.211 556.789C748.668 554.479 746.615 552.699 744.052 551.452L729.039 544.146ZM730.883 529.191L735.277 531.33L731.772 538.531C731.594 538.897 731.536 539.222 731.6 539.504C731.787 539.948 732.267 540.357 733.04 540.733L764.53 556.059L762.421 560.392L756.075 557.303C756.012 557.122 756.159 557.646 756.516 558.877C758.354 564.199 758.046 569.383 755.59 574.428C753.115 579.514 749.216 582.976 743.894 584.813C738.551 586.692 733.337 586.394 728.251 583.919L713.239 576.612L709.081 585.156L704.687 583.018L730.883 529.191ZM760.292 574.074L765.845 576.777L763.469 581.659L757.915 578.957L760.292 574.074ZM747.99 618.867L745.392 623.006L698.087 593.301L705.739 581.115L709.877 583.714L704.824 591.761L747.99 618.867ZM692.869 601.197L738.747 633.061L735.999 637.019L690.12 605.155L692.869 601.197ZM684.512 675.03L681.23 678.651L654.529 654.446L648.649 660.932L645.028 657.65L650.908 651.164L642.109 643.186L648.809 635.794C651.244 633.176 653.959 631.057 656.955 629.437C659.974 627.655 663.105 626.493 666.345 625.949C669.65 625.403 672.81 625.488 675.824 626.205C678.969 626.98 681.715 628.431 684.062 630.558L693.063 638.718L689.826 642.288L680.825 634.128C677.272 630.907 672.732 629.784 667.206 630.76C661.488 631.745 656.472 634.618 652.156 639.378L649.011 642.848L684.512 675.03ZM699.274 666.426L703.85 670.574L700.203 674.597L695.627 670.449L699.274 666.426ZM631.206 672.038C629.184 672.367 627.425 673.153 625.929 674.398C624.538 675.555 623.476 676.968 622.745 678.636C622.043 680.339 621.688 682.105 621.68 683.936C621.702 685.801 622.057 687.714 622.745 689.672C623.461 691.666 624.514 693.497 625.903 695.167C628.739 698.576 632.15 700.623 636.135 701.31C640.149 702.032 643.53 701.25 646.278 698.964C649.061 696.649 650.463 693.452 650.483 689.373C650.533 685.33 649.14 681.603 646.304 678.194C644.452 675.968 642.275 674.307 639.773 673.21C637.335 672.119 634.905 671.639 632.483 671.77L631.206 672.038ZM639.96 668.022C643.505 668.958 646.854 671.321 650.008 675.113C653.626 679.46 655.415 684.299 655.376 689.629C655.269 692.19 654.729 694.582 653.753 696.806C652.738 699.122 651.273 701.076 649.36 702.668C647.482 704.231 645.294 705.315 642.797 705.921C640.433 706.476 637.985 706.54 635.453 706.115C630.234 705.219 625.816 702.597 622.199 698.249C618.553 693.866 616.778 689.045 616.875 683.784C616.889 681.183 617.398 678.788 618.402 676.599C619.452 674.253 620.916 672.299 622.795 670.737C624.708 669.145 626.896 668.061 629.358 667.483C630.836 667.137 632.267 666.947 633.652 666.913L646.591 656.148L649.717 659.905L639.96 668.022ZM580.901 741.859C584.083 740.133 586.083 737.272 586.901 733.277C587.74 729.321 587.103 725.394 584.989 721.496C583.608 718.951 581.798 716.895 579.559 715.33C577.32 713.765 574.981 712.821 572.54 712.497C570.082 712.235 567.818 712.665 565.75 713.787C564.159 714.65 562.842 715.828 561.799 717.321C560.777 718.853 560.083 720.516 559.718 722.31C559.374 724.144 559.348 726.088 559.639 728.144C559.952 730.239 560.627 732.241 561.662 734.15C563.777 738.048 566.721 740.723 570.495 742.176C574.29 743.669 577.759 743.564 580.901 741.859ZM592.113 730.217C592.096 731.514 591.941 732.936 591.649 734.485C591.043 736.975 590.045 739.215 588.654 741.205C587.205 743.278 585.386 744.908 583.199 746.095C581.051 747.26 578.693 747.895 576.126 748.001C573.699 748.083 571.286 747.667 568.886 746.755C563.943 744.855 560.124 741.419 557.427 736.448C555.075 732.113 554.122 728.126 554.567 724.487L543.351 730.571L541.021 726.276L555.876 718.217C556.381 716.965 557.068 715.717 557.938 714.473C559.427 712.379 561.245 710.749 563.393 709.584C565.58 708.397 567.938 707.762 570.466 707.677C571.983 707.627 573.515 707.747 575.064 708.04L579.583 709.681C583.659 711.691 586.873 714.863 589.224 719.198C590.433 721.426 591.196 723.354 591.513 724.983C592.406 724.447 593.294 723.426 594.175 721.918C595.052 720.31 595.499 718.523 595.514 716.559C595.49 714.616 594.992 712.75 594.021 710.96L582.823 690.318L587.059 688.02L598.257 708.662C600.35 712.52 600.858 716.542 599.784 720.729C598.727 724.854 596.369 727.909 592.71 729.894L592.113 730.217ZM555.034 780.705L550.501 782.529L529.656 730.706L543.005 725.337L544.829 729.87L536.013 733.416L555.034 780.705ZM517.818 740.195L508.767 743.302L507.18 738.68L520.789 734.009L538.926 786.84L534.368 788.405L517.818 740.195ZM474.572 776.79C475.715 777.496 476.456 777.971 476.793 778.217C480.487 780.456 484.402 781.085 488.541 780.104C492.723 779.112 495.957 776.764 498.24 773.06C500.48 769.367 501.109 765.451 500.128 761.313C499.136 757.13 496.788 753.897 493.084 751.613C489.806 749.554 486.308 748.826 482.591 749.428L465.553 753.469L464.425 748.714L509.2 738.096L510.328 742.85L494.28 746.656C494.073 746.566 494.514 746.857 495.603 747.528C500.44 750.473 503.511 754.698 504.817 760.201C506.111 765.66 505.281 770.786 502.325 775.579C499.336 780.427 495.112 783.498 489.653 784.793C484.722 785.962 479.945 785.328 475.321 782.891L474.572 776.79ZM441.177 787.557L441.445 790.94L426.56 792.117L426.292 788.734L422.909 789.001L422 777.499L425.383 777.232L425.115 773.849L440.001 772.672L440.268 776.055L443.651 775.787L444.56 787.29L441.177 787.557ZM371.478 757.42L369.532 788.444L374.545 788.758C378.835 789.028 382.612 787.723 385.875 784.845C389.09 782.009 390.833 778.446 391.102 774.156C391.374 769.821 390.069 766.044 387.188 762.826C384.437 759.706 381.007 758.018 376.897 757.76L371.478 757.42ZM376.797 752.857C382.441 753.211 387.126 755.5 390.851 759.723C394.573 763.992 396.257 768.948 395.903 774.593C395.551 780.193 393.264 784.855 389.041 788.58C384.815 792.349 379.879 794.057 374.235 793.703L364.413 793.087L366.669 757.118L357.863 756.566L358.169 751.689L376.797 752.857ZM382.311 799.378L381.925 805.542L376.505 805.203L376.892 799.038L382.311 799.378ZM370.796 798.656L370.409 804.82L364.99 804.48L365.377 798.316L370.796 798.656ZM325.771 750.5L320.087 781.061L325.025 781.979C329.251 782.765 333.135 781.923 336.678 779.452C340.213 777.026 342.373 773.7 343.159 769.474C343.954 765.204 343.138 761.301 340.711 757.766C338.684 754.812 336.039 752.824 332.777 751.803L325.771 750.5ZM343.787 753.851C343.634 753.684 343.919 754.129 344.644 755.184C347.83 759.827 348.906 764.928 347.872 770.489C346.846 776.005 344.012 780.356 339.369 783.543C334.718 786.774 329.635 787.876 324.119 786.851L314.376 785.039L321.86 744.802L360.294 751.951L359.401 756.755L343.787 753.851ZM327.792 792.711L326.65 798.85L321.379 797.87L322.521 791.731L327.792 792.711ZM306.746 746.106L297.524 743.55L298.829 738.841L312.695 742.683L297.779 796.513L293.135 795.226L306.746 746.106ZM285.618 739.435L276.56 736.346L278.138 731.721L300.814 739.454L299.237 744.079L290.243 741.012L278.611 775.123L273.986 773.546L285.618 739.435ZM290.363 723.628L288.37 729.474L283.23 727.721L285.224 721.876L290.363 723.628ZM301.284 727.352L299.29 733.198L294.151 731.445L296.144 725.599L301.284 727.352ZM265.122 730.838L236.839 717.458L229.699 732.551C227.842 736.478 227.655 740.469 229.14 744.525C230.585 748.562 233.249 751.499 237.135 753.338C239.712 754.557 242.384 755.045 245.152 754.802C247.9 754.601 250.421 753.716 252.714 752.148C255.008 750.58 256.764 748.507 257.983 745.931L265.122 730.838ZM280.096 732.515L278.007 736.933L270.767 733.508C270.399 733.334 270.074 733.28 269.792 733.347C269.351 733.539 268.946 734.023 268.579 734.8L253.603 766.458L249.247 764.398L252.265 758.017C252.446 757.953 251.923 758.106 250.697 758.476C245.395 760.373 240.208 760.122 235.136 757.723C230.023 755.304 226.518 751.444 224.622 746.142C222.684 740.82 222.925 735.603 225.343 730.491L232.483 715.398L223.893 711.335L225.983 706.917L280.096 732.515ZM235.542 762.42L232.901 768.003L227.993 765.681L230.634 760.098L235.542 762.42ZM190.551 750.561L186.388 748.003L215.638 700.415L227.896 707.949L225.337 712.113L217.242 707.137L190.551 750.561ZM207.685 695.279L176.341 741.514L172.352 738.81L203.696 692.575L207.685 695.279ZM133.778 687.687L130.123 684.443L154.046 657.489L147.498 651.677L150.742 648.022L157.29 653.834L165.174 644.951L172.636 651.574C175.28 653.98 177.427 656.673 179.079 659.651C180.892 662.652 182.088 665.77 182.665 669.005C183.246 672.304 183.194 675.464 182.509 678.486C181.767 681.639 180.345 684.4 178.243 686.769L170.178 695.855L166.574 692.656L174.639 683.57C177.822 679.983 178.897 675.432 177.864 669.916C176.818 664.209 173.893 659.223 169.088 654.958L165.585 651.85L133.778 687.687ZM142.537 702.358L138.437 706.977L134.376 703.373L138.476 698.753L142.537 702.358ZM136.207 634.356C135.857 632.337 135.052 630.587 133.791 629.105C132.619 627.726 131.195 626.68 129.519 625.966C127.809 625.282 126.039 624.946 124.208 624.959C122.343 625 120.435 625.376 118.484 626.084C116.498 626.823 114.678 627.895 113.023 629.302C109.645 632.174 107.634 635.607 106.99 639.599C106.311 643.621 107.13 646.993 109.445 649.716C111.79 652.474 115.001 653.841 119.08 653.818C123.124 653.825 126.835 652.392 130.213 649.519C132.419 647.643 134.057 645.449 135.128 642.935C136.193 640.486 136.646 638.051 136.489 635.631L136.207 634.356ZM140.317 643.066C139.42 646.621 137.092 649.996 133.335 653.19C129.026 656.854 124.206 658.695 118.876 658.713C116.315 658.634 113.917 658.119 111.683 657.168C109.355 656.177 107.386 654.734 105.774 652.838C104.191 650.976 103.083 648.8 102.45 646.309C101.871 643.951 101.78 641.504 102.178 638.969C103.018 633.74 105.593 629.294 109.902 625.631C114.245 621.938 119.047 620.111 124.308 620.152C126.909 620.138 129.31 620.621 131.51 621.601C133.866 622.627 135.836 624.07 137.419 625.932C139.031 627.828 140.138 630.004 140.742 632.46C141.104 633.934 141.31 635.363 141.358 636.747L152.261 649.57L148.538 652.736L140.317 643.066ZM65.8531 584.798C67.6128 587.961 70.4947 589.931 74.4988 590.706C78.4634 591.504 82.3832 590.825 86.2582 588.669C88.7888 587.262 90.8248 585.43 92.3661 583.175C93.9075 580.919 94.8269 578.57 95.1244 576.126C95.3603 573.665 94.9064 571.406 93.7626 569.35C92.8828 567.768 91.691 566.464 90.1875 565.436C88.6443 564.431 86.9739 563.755 85.1762 563.409C83.339 563.084 81.3943 563.079 79.3421 563.392C77.2504 563.727 75.2555 564.423 73.3575 565.479C69.4825 567.634 66.8385 570.607 65.4254 574.396C63.9729 578.207 64.1154 581.674 65.8531 584.798ZM77.6132 595.886C76.3167 595.882 74.8927 595.743 73.3412 595.467C70.8446 594.888 68.594 593.913 66.5892 592.543C64.5008 591.116 62.8518 589.315 61.642 587.141C60.4542 585.005 59.7937 582.654 59.6604 580.088C59.5536 577.662 59.9434 575.245 60.8298 572.836C62.6773 567.873 66.0723 564.017 71.0149 561.267C75.3249 558.87 79.3017 557.874 82.9452 558.281L76.7423 547.131L81.0128 544.755L89.2283 559.524C90.4855 560.015 91.7406 560.689 92.9936 561.545C95.1039 563.012 96.753 564.813 97.9407 566.948C99.1505 569.123 99.8111 571.474 99.9223 574.001C99.9891 575.517 99.8845 577.051 99.6085 578.602L98.0157 583.139C96.0491 587.236 92.9108 590.483 88.6008 592.881C86.3865 594.112 84.4664 594.896 82.8405 595.231C83.3859 596.118 84.417 596.994 85.9337 597.859C87.5515 598.72 89.3426 599.147 91.3071 599.142C93.2496 599.097 95.1105 598.579 96.8898 597.589L117.412 586.173L119.754 590.385L99.2324 601.801C95.3969 603.934 91.3804 604.486 87.1827 603.455C83.0466 602.442 79.9668 600.117 77.9432 596.479L77.6132 595.886ZM26.7324 559.336L24.8615 554.822L76.4637 533.437L81.9724 546.729L77.458 548.6L73.8202 539.822L26.7324 559.336ZM66.8459 521.704L63.6377 512.688L68.2416 511.05L73.0653 524.606L20.4399 543.332L18.8244 538.792L66.8459 521.704ZM29.7825 478.855C29.0896 480.006 28.6222 480.752 28.3803 481.091C26.1806 484.809 25.5937 488.731 26.6198 492.859C27.6568 497.03 30.0394 500.238 33.7676 502.482C37.4849 504.681 41.4074 505.268 45.535 504.242C49.7065 503.205 52.9142 500.823 55.1578 497.094C57.1815 493.794 57.872 490.289 57.2295 486.579L53.0051 469.585L57.7475 468.406L68.8488 513.064L64.1064 514.242L60.1276 498.237C60.2157 498.028 59.9297 498.473 59.2698 499.569C56.3772 504.438 52.1864 507.554 46.6975 508.919C41.2526 510.272 36.1177 509.497 31.293 506.594C26.4134 503.657 23.2968 499.466 21.9433 494.021C20.7207 489.103 21.3032 484.319 23.6908 479.67L29.7825 478.855Z" fill="#D79F56"/>
</svg>
