<svg width="710" height="712" viewBox="0 0 710 712" fill="none" xmlns="http://www.w3.org/2000/svg">
<path d="M26.389 377.4L23.2665 377.524L22.7195 363.785L25.8421 363.661L25.7177 360.538L36.3343 360.115L36.4587 363.238L39.5812 363.114L40.1282 376.853L37.0056 376.977L37.13 380.1L26.5134 380.522L26.389 377.4ZM54.5528 333.33L55.2355 324.544L59.722 324.893L58.6954 338.103L7.41253 334.118L7.75635 329.693L54.5528 333.33ZM56.8963 313.05L58.1186 304.323L62.5751 304.947L59.515 326.796L55.0585 326.172L56.2721 317.507L23.4054 312.904L24.0296 308.447L56.8963 313.05ZM18.8523 312.518L13.1579 311.721L13.8514 306.769L19.5458 307.567L18.8523 312.518ZM65.3432 275.187L37.5424 268.368L36.4405 272.86C35.4975 276.704 36.0693 280.319 38.156 283.706C40.2022 287.082 43.1475 289.242 46.9919 290.185C50.8767 291.138 54.5073 290.591 57.8837 288.545C60.7057 286.834 62.6711 284.507 63.7798 281.561L65.3432 275.187ZM61.323 291.576C61.4841 291.444 61.0607 291.684 60.0528 292.294C55.6182 294.982 50.8717 295.705 45.8133 294.465C40.7954 293.234 36.9427 290.401 34.2551 285.966C31.5271 281.522 30.7785 276.791 32.0094 271.773L34.1833 262.91L70.7857 271.889L62.2092 306.852L57.8388 305.78L61.323 291.576ZM27.844 269.078L22.2595 267.708L23.4358 262.913L29.0203 264.282L27.844 269.078ZM25.3127 279.397L19.7283 278.027L20.9046 273.232L26.489 274.602L25.3127 279.397ZM70.4635 257.923L73.3713 249.604L77.6192 251.089L73.2472 263.597L24.6906 246.624L26.1548 242.435L70.4635 257.923ZM77.9258 238.919L81.3457 230.797L85.493 232.543L76.9312 252.877L72.7839 251.13L76.1795 243.066L45.5929 230.187L47.3393 226.04L77.9258 238.919ZM90.1374 249.215L84.8956 247.008L86.8117 242.457L92.0535 244.664L90.1374 249.215ZM63.1452 206.968C63.1921 207.139 63.0878 206.648 62.8324 205.496C61.4588 200.496 62.0494 195.75 64.6045 191.26C67.1801 186.733 70.9681 183.782 75.9682 182.409C80.989 180.999 85.7629 181.582 90.2898 184.157L107.564 193.986L84.6308 234.294L80.7196 232.068L84.3667 225.658C84.5521 225.332 84.6239 225.037 84.5821 224.774C84.4366 224.356 84.0198 223.951 83.3318 223.559L44.2194 201.306L46.4139 197.449L63.1452 206.968ZM87.2102 220.66L101.459 195.618L88.0953 188.014C84.6187 186.036 80.9666 185.588 77.139 186.67C73.332 187.716 70.4498 189.959 68.4923 193.4C67.1942 195.681 66.5604 198.101 66.591 200.659C66.5854 203.197 67.2229 205.573 68.5035 207.788C69.7842 210.002 71.5653 211.759 73.8468 213.057L87.2102 220.66ZM112.215 186.739L70.4466 156.72L73.0363 153.116L114.805 183.136L112.215 186.739ZM63.4571 154.236C63.5153 154.227 63.0538 153.869 62.0725 153.164C60.8883 152.313 60.1773 151.161 59.9393 149.707C59.6919 148.195 59.9937 146.847 60.8448 145.663C61.6229 144.58 62.9742 143.807 64.8985 143.342L66.9603 146.364C65.7867 146.854 65.1127 147.114 64.9382 147.142C64.473 147.218 64.1066 147.443 63.8392 147.815C63.5717 148.187 63.476 148.606 63.5521 149.071C63.6283 149.536 63.8524 149.902 64.2246 150.17C64.6306 150.462 65.0662 150.57 65.5315 150.493C65.9385 150.427 66.2562 150.27 66.4846 150.024L69.2933 146.116L72.5414 148.45L66.4499 156.926L63.2018 154.592L63.4571 154.236ZM105.991 142.437L103.675 140.339L112.907 130.149L115.223 132.247L117.321 129.931L125.195 137.064L123.097 139.38L125.413 141.479L116.181 151.669L113.865 149.57L111.767 151.886L103.893 144.753L105.991 142.437ZM156.993 130.737L163.636 124.946L166.593 128.338L156.605 137.045L122.805 98.2721L126.15 95.3561L156.993 130.737ZM172.886 117.917L179.879 112.554L182.617 116.125L165.11 129.551L162.372 125.98L169.315 120.656L149.119 94.321L152.689 91.5825L172.886 117.917ZM146.144 90.8528L142.644 86.2901L146.612 83.2473L150.111 87.81L146.144 90.8528ZM205.453 96.8409L190.408 72.489L186.473 74.92C183.106 77.0006 180.979 79.9797 180.093 83.8575C179.186 87.6997 179.772 91.3046 181.853 94.672C183.955 98.0749 186.928 100.23 190.77 101.138C193.981 101.896 197.015 101.614 199.871 100.29L205.453 96.8409ZM191.098 105.711C191.305 105.729 190.835 105.603 189.688 105.332C184.642 104.14 180.75 101.329 178.012 96.8981C175.296 92.5027 174.535 87.7818 175.727 82.7352C176.897 77.6532 179.679 73.7543 184.075 71.0386L191.838 66.2423L211.647 98.3038L181.021 117.226L178.656 113.398L191.098 105.711ZM182.993 66.1967L179.971 61.3051L184.172 58.7098L187.194 63.6015L182.993 66.1967ZM173.955 71.7814L170.932 66.8898L175.133 64.2945L178.155 69.1862L173.955 71.7814ZM221.197 88.1092L229.097 84.2035L231.091 88.2374L219.213 94.1098L196.416 47.9999L200.394 46.0333L221.197 88.1092ZM239.837 79.77L247.967 76.3712L249.703 80.5231L229.347 89.0321L227.612 84.8802L235.685 81.5056L222.885 50.8857L227.037 49.1501L239.837 79.77ZM241.336 95.6721L239.142 90.4247L243.698 88.5204L245.891 93.7679L241.336 95.6721ZM251.68 46.6173C251.594 46.7717 251.863 46.3485 252.488 45.3476C255.012 40.8177 258.758 37.846 263.728 36.4324C268.737 35.0075 273.507 35.5569 278.037 38.0805C282.607 40.5927 285.605 44.3536 287.03 49.3632L292.467 68.48L247.861 81.1676L246.63 76.8392L253.724 74.8215C254.085 74.7189 254.342 74.559 254.497 74.3417C254.687 73.9413 254.673 73.3603 254.456 72.5989L242.145 29.3157L246.413 28.1017L251.68 46.6173ZM259.255 73.2484L286.968 65.3657L282.761 50.5773C281.667 46.7299 279.375 43.8512 275.886 41.9412C272.437 40.0198 268.809 39.6006 265.002 40.6835C262.477 41.4017 260.329 42.6841 258.559 44.5306C256.777 46.3371 255.566 48.4791 254.928 50.9565C254.29 53.434 254.33 55.9352 255.048 58.46L259.255 73.2484ZM300.862 66.5714L292.122 15.8818L296.495 15.1278L305.235 65.8174L300.862 66.5714ZM288.879 9.21087C288.927 9.24485 288.849 8.66646 288.643 7.47569C288.396 6.03856 288.697 4.71824 289.546 3.51473C290.43 2.26308 291.59 1.51337 293.027 1.26558C294.341 1.03903 295.847 1.43477 297.544 2.45279L296.897 6.05269C295.716 5.57979 295.053 5.29237 294.909 5.19042C294.524 4.91857 294.105 4.82159 293.654 4.89946C293.202 4.97734 292.84 5.20884 292.568 5.59396C292.296 5.97908 292.199 6.39748 292.277 6.84915C292.362 7.34188 292.597 7.72417 292.982 7.99602C293.319 8.23389 293.656 8.34503 293.991 8.32946L298.734 7.51176L299.413 11.4536L289.128 13.227L288.448 9.2852L288.879 9.21087ZM327.511 30.6311L327.333 27.5112L341.06 26.7281L341.238 29.848L344.358 29.6701L344.963 40.2778L341.843 40.4558L342.021 43.5757L328.294 44.3588L328.116 41.2389L324.996 41.4169L324.391 30.8091L327.511 30.6311ZM372.057 58.0449L380.854 58.5753L380.583 63.0671L367.357 62.2697L370.452 10.9254L374.882 11.1925L372.057 58.0449ZM392.373 60.031L401.12 61.0981L400.575 65.565L378.675 62.8935L379.22 58.4266L387.906 59.4861L391.924 26.5428L396.391 27.0877L392.373 60.031ZM392.228 21.9836L392.925 16.2759L397.888 16.8814L397.192 22.5891L392.228 21.9836ZM430.378 67.8161L436.714 39.901L432.203 38.8774C428.343 38.0013 424.738 38.6358 421.389 40.781C418.049 42.8855 415.94 45.8679 415.064 49.728C414.179 53.6288 414.789 57.2494 416.893 60.5897C418.652 63.3816 421.014 65.3062 423.978 66.3636L430.378 67.8161ZM413.922 64.0811C414.056 64.2399 413.81 63.8207 413.182 62.8236C410.417 58.4363 409.612 53.7031 410.764 48.624C411.908 43.5854 414.673 39.6841 419.061 36.9199C423.457 34.1151 428.175 33.2845 433.213 34.428L442.112 36.4477L433.77 73.2005L398.663 65.2325L399.659 60.8441L413.922 64.0811ZM435.835 30.2165L437.108 24.6091L441.923 25.7019L440.65 31.3093L435.835 30.2165ZM425.474 27.8648L426.747 22.2574L431.562 23.3502L430.289 28.9576L425.474 27.8648ZM447.728 72.6257L456.099 75.3798L454.692 79.6544L442.106 75.5135L458.181 26.6524L462.396 28.0393L447.728 72.6257ZM466.864 79.7558L475.043 83.0376L473.367 87.214L452.892 78.9978L454.567 74.8214L462.688 78.08L475.047 47.2797L479.224 48.9555L466.864 79.7558ZM456.777 92.14L458.895 86.8616L463.477 88.7003L461.359 93.9787L456.777 92.14ZM498.552 64.426C498.382 64.4758 498.871 64.363 500.018 64.0877C504.994 62.6275 509.749 63.1359 514.283 65.6127C518.854 68.1094 521.87 71.8456 523.33 76.8213C524.827 81.8169 524.327 86.6001 521.83 91.171L512.302 108.613L471.603 86.3821L473.76 82.4329L480.233 85.9683C480.562 86.1481 480.858 86.2147 481.12 86.1683C481.536 86.0156 481.934 85.5919 482.313 84.8971L503.885 45.4048L507.78 47.5321L498.552 64.426ZM485.279 88.7247L510.565 102.537L517.935 89.0437C519.853 85.5333 520.238 81.8739 519.089 78.0657C517.978 74.2775 515.685 71.4345 512.211 69.537C509.907 68.2786 507.477 67.6869 504.919 67.7618C502.382 67.8002 500.017 68.4788 497.825 69.7977C495.633 71.1165 493.908 72.9278 492.649 75.2315L485.279 88.7247ZM519.626 113.14L548.941 70.8734L552.587 73.4024L523.272 115.669L519.626 113.14ZM551.307 63.8433C551.318 63.9013 551.667 63.4338 552.356 62.4409C553.187 61.2426 554.327 60.5123 555.777 60.25C557.284 59.9773 558.637 60.2565 559.836 61.0876C560.931 61.8475 561.727 63.1855 562.224 65.1018L559.238 67.214C558.727 66.0488 558.456 65.3792 558.425 65.2052C558.341 64.7414 558.111 64.3788 557.734 64.1176C557.358 63.8564 556.937 63.7678 556.473 63.8517C556.01 63.9356 555.647 64.1659 555.386 64.5425C555.101 64.9533 555 65.3907 555.084 65.8546C555.158 66.2605 555.319 66.5755 555.57 66.7997L559.524 69.5425L557.244 72.8293L548.668 66.8808L550.948 63.5939L551.307 63.8433ZM563.818 106.158L565.876 103.807L576.222 112.864L574.164 115.215L576.515 117.273L569.517 125.268L567.166 123.21L565.107 125.561L554.761 116.504L556.82 114.153L554.468 112.095L561.467 104.1L563.818 106.158ZM576.401 156.945L582.293 163.498L578.947 166.507L570.088 156.655L608.335 122.261L611.302 125.56L576.401 156.945ZM589.48 172.614L594.966 179.511L591.444 182.313L577.711 165.045L581.233 162.244L586.679 169.092L612.653 148.434L615.454 151.956L589.48 172.614ZM616.068 145.398L620.569 141.819L623.681 145.732L619.181 149.312L616.068 145.398ZM611.126 204.806L635.21 189.334L632.71 185.443C630.571 182.113 627.554 180.039 623.662 179.221C619.804 178.381 616.21 179.031 612.88 181.171C609.514 183.333 607.412 186.342 606.572 190.2C605.87 193.424 606.206 196.453 607.579 199.284L611.126 204.806ZM602.005 190.608C601.99 190.816 602.108 190.344 602.359 189.192C603.462 184.126 606.204 180.185 610.587 177.37C614.933 174.577 619.64 173.732 624.707 174.836C629.809 175.916 633.756 178.63 636.549 182.977L641.481 190.654L609.772 211.024L590.315 180.735L594.101 178.303L602.005 190.608ZM641.371 181.811L646.209 178.703L648.877 182.857L644.039 185.965L641.371 181.811ZM635.628 172.871L640.466 169.763L643.134 173.918L638.297 177.025L635.628 172.871ZM620.135 220.391L624.182 228.219L620.184 230.286L614.1 218.515L659.794 194.895L661.832 198.837L620.135 220.391ZM628.802 238.883L632.341 246.954L628.22 248.761L619.359 228.556L623.48 226.749L626.995 234.762L657.388 221.433L659.195 225.554L628.802 238.883ZM612.928 240.658L618.137 238.374L620.12 242.895L614.911 245.18L612.928 240.658ZM662.155 250.152C662 250.069 662.427 250.331 663.439 250.939C668.012 253.384 671.048 257.078 672.547 262.022C674.058 267.007 673.592 271.785 671.147 276.358C668.714 280.971 665.005 284.033 660.021 285.544L641.001 291.312L627.544 246.932L631.851 245.626L633.991 252.684C634.1 253.043 634.264 253.298 634.484 253.449C634.888 253.631 635.468 253.608 636.226 253.378L679.289 240.32L680.577 244.566L662.155 250.152ZM635.659 258.187L644.02 285.759L658.734 281.298C662.561 280.137 665.4 277.796 667.249 274.274C669.111 270.793 669.467 267.158 668.319 263.37C667.557 260.858 666.238 258.733 664.361 256.994C662.524 255.244 660.361 254.071 657.873 253.475C655.385 252.88 652.885 252.963 650.373 253.725L635.659 258.187ZM643.052 299.674L693.59 290.101L694.416 294.461L643.877 304.034L643.052 299.674ZM700.207 286.748C700.174 286.797 700.751 286.709 701.938 286.484C703.371 286.213 704.696 286.492 705.913 287.321C707.179 288.184 707.948 289.332 708.22 290.765C708.468 292.075 708.097 293.587 707.107 295.301L703.497 294.713C703.95 293.524 704.227 292.857 704.326 292.711C704.592 292.321 704.682 291.901 704.596 291.451C704.511 291.001 704.274 290.643 703.884 290.377C703.495 290.112 703.075 290.022 702.624 290.107C702.133 290.2 701.755 290.441 701.489 290.831C701.257 291.172 701.151 291.51 701.172 291.845L702.068 296.574L698.138 297.318L696.196 287.063L700.126 286.318L700.207 286.748ZM679.455 325.68L682.572 325.447L683.599 339.158L680.482 339.392L680.716 342.508L670.12 343.302L669.887 340.185L666.771 340.419L665.744 326.707L668.86 326.474L668.627 323.357L679.222 322.564L679.455 325.68ZM652.806 370.708L652.433 379.513L647.937 379.322L648.498 366.084L699.889 368.261L699.702 372.694L652.806 370.708ZM651.165 391.06L650.242 399.824L645.767 399.352L648.078 377.411L652.553 377.883L651.637 386.585L684.641 390.062L684.17 394.537L651.165 391.06ZM689.205 390.291L694.923 390.894L694.4 395.866L688.681 395.264L689.205 390.291ZM644.052 429.192L672.076 435.025L673.019 430.497C673.825 426.622 673.126 423.029 670.921 419.719C668.757 416.417 665.738 414.362 661.862 413.556C657.946 412.74 654.337 413.415 651.035 415.579C648.275 417.388 646.393 419.784 645.389 422.767L644.052 429.192ZM647.491 412.671C647.335 412.808 647.749 412.554 648.735 411.908C653.072 409.066 657.79 408.175 662.889 409.237C667.947 410.29 671.898 412.985 674.74 417.322C677.623 421.667 678.538 426.369 677.485 431.427L675.626 440.361L638.729 432.68L646.066 397.436L650.472 398.353L647.491 412.671ZM681.743 433.973L687.373 435.145L686.367 439.979L680.737 438.807L681.743 433.973ZM683.909 423.571L689.538 424.743L688.532 429.577L682.903 428.405L683.909 423.571ZM639.546 446.625L636.935 455.042L632.637 453.709L636.563 441.054L685.691 456.293L684.376 460.532L639.546 446.625ZM632.756 465.882L629.621 474.118L625.416 472.518L633.262 451.898L637.468 453.498L634.356 461.676L665.374 473.479L663.773 477.684L632.756 465.882ZM620.192 456.019L625.507 458.042L623.751 462.656L618.436 460.634L620.192 456.019ZM648.636 497.304C648.583 497.135 648.704 497.622 648.999 498.765C650.546 503.714 650.12 508.477 647.722 513.054C645.305 517.667 641.621 520.747 636.672 522.293C631.703 523.876 626.912 523.459 622.298 521.042L604.693 511.818L626.216 470.74L630.202 472.828L626.779 479.361C626.605 479.693 626.544 479.99 626.595 480.252C626.755 480.665 627.185 481.055 627.886 481.423L667.747 502.307L665.687 506.238L648.636 497.304ZM624.111 484.454L610.739 509.976L624.358 517.111C627.901 518.968 631.566 519.289 635.354 518.075C639.122 516.898 641.925 514.556 643.762 511.05C644.981 508.725 645.53 506.284 645.411 503.729C645.328 501.192 644.609 498.84 643.252 496.671C641.896 494.502 640.055 492.808 637.73 491.59L624.111 484.454ZM600.292 519.22L643.043 547.822L640.576 551.51L597.824 522.908L600.292 519.22ZM650.112 550.07C650.054 550.081 650.528 550.423 651.532 551.095C652.744 551.906 653.493 553.034 653.78 554.479C654.078 555.982 653.821 557.339 653.011 558.551C652.269 559.659 650.945 560.478 649.037 561.006L646.875 558.056C648.031 557.526 648.696 557.244 648.87 557.21C649.332 557.118 649.691 556.882 649.946 556.501C650.201 556.12 650.282 555.698 650.19 555.236C650.099 554.773 649.862 554.415 649.481 554.16C649.066 553.882 648.627 553.789 648.165 553.88C647.76 553.96 647.448 554.127 647.228 554.381L644.552 558.381L641.227 556.157L647.031 547.482L650.356 549.706L650.112 550.07ZM608.024 563.274L610.411 565.291L601.534 575.793L599.148 573.775L597.13 576.162L589.016 569.303L591.033 566.916L588.646 564.899L597.523 554.398L599.909 556.415L601.927 554.028L610.041 560.887L608.024 563.274ZM557.463 576.729L551.018 582.74L547.949 579.449L557.638 570.411L592.723 608.026L589.478 611.053L557.463 576.729ZM542.02 590.082L535.217 595.683L532.357 592.209L549.389 578.186L552.249 581.66L545.494 587.222L566.588 612.843L563.114 615.704L542.02 590.082ZM569.681 616.207L573.336 620.646L569.476 623.824L565.821 619.385L569.681 616.207ZM510.221 612.293L526.123 636.095L529.969 633.526C533.26 631.327 535.279 628.274 536.027 624.367C536.797 620.495 536.083 616.913 533.884 613.622C531.662 610.296 528.615 608.248 524.743 607.477C521.506 606.833 518.485 607.223 515.678 608.647L510.221 612.293ZM524.253 602.919C524.045 602.907 524.519 603.017 525.675 603.247C530.76 604.258 534.75 606.93 537.643 611.261C540.513 615.557 541.443 620.248 540.431 625.333C539.442 630.454 536.799 634.449 532.503 637.319L524.916 642.388L503.98 611.051L533.914 591.052L536.413 594.794L524.253 602.919ZM533.756 642.12L536.95 646.901L532.845 649.644L529.651 644.863L533.756 642.12ZM542.591 636.217L545.785 640.998L541.68 643.741L538.485 638.96L542.591 636.217ZM494.781 621.566L487.015 625.733L484.888 621.768L496.563 615.503L520.884 660.827L516.974 662.925L494.781 621.566ZM476.449 630.544L468.444 634.23L466.562 630.143L486.602 620.914L488.484 625.002L480.536 628.662L494.418 658.806L490.331 660.689L476.449 630.544ZM474.384 614.705L476.763 619.871L472.279 621.937L469.9 616.771L474.384 614.705ZM465.777 664.097C465.857 663.939 465.603 664.372 465.013 665.394C462.65 670.01 459.01 673.111 454.093 674.698C449.137 676.298 444.351 675.917 439.735 673.554C435.08 671.204 431.952 667.55 430.352 662.594L424.247 643.68L468.379 629.434L469.762 633.716L462.743 635.982C462.386 636.097 462.134 636.266 461.987 636.488C461.812 636.895 461.846 637.475 462.089 638.229L475.913 681.053L471.69 682.416L465.777 664.097ZM457.271 637.748L429.852 646.599L434.575 661.231C435.804 665.037 438.195 667.834 441.749 669.62C445.263 671.419 448.904 671.711 452.671 670.495C455.169 669.688 457.27 668.331 458.975 666.424C460.693 664.556 461.827 662.373 462.378 659.874C462.928 657.376 462.801 654.878 461.994 652.38L457.271 637.748ZM415.92 645.874L426.328 696.247L421.982 697.145L411.574 646.771L415.92 645.874ZM429.79 702.807C429.74 702.775 429.838 703.351 430.082 704.534C430.378 705.962 430.12 707.292 429.311 708.522C428.469 709.803 427.334 710.59 425.906 710.885C424.6 711.155 423.082 710.809 421.352 709.848L421.881 706.228C423.077 706.662 423.748 706.928 423.896 707.025C424.29 707.284 424.711 707.367 425.16 707.274C425.609 707.181 425.963 706.938 426.222 706.544C426.481 706.15 426.564 705.729 426.471 705.28C426.37 704.79 426.123 704.416 425.729 704.157C425.384 703.93 425.044 703.83 424.709 703.857L419.996 704.831L419.187 700.914L429.409 698.802L430.218 702.719L429.79 702.807ZM390.536 682.697L390.822 685.809L377.13 687.071L376.844 683.959L373.732 684.245L372.757 673.665L375.869 673.379L375.582 670.267L389.274 669.005L389.561 672.117L392.673 671.831L393.647 682.411L390.536 682.697ZM345.057 656.843L336.248 656.612L336.366 652.114L349.611 652.462L348.26 703.881L343.824 703.765L345.057 656.843ZM324.686 655.552L315.907 654.784L316.299 650.302L338.278 652.222L337.886 656.705L329.169 655.943L326.28 689.005L321.797 688.613L324.686 655.552ZM326.132 693.572L325.632 699.3L320.651 698.865L321.151 693.137L326.132 693.572ZM286.434 649.108L281.09 677.23L285.634 678.093C289.523 678.832 293.103 678.07 296.375 675.808C299.638 673.586 301.64 670.531 302.379 666.643C303.125 662.713 302.388 659.116 300.166 655.852C298.31 653.125 295.881 651.285 292.881 650.333L286.434 649.108ZM303.012 652.258C302.872 652.104 303.133 652.514 303.796 653.488C306.714 657.775 307.687 662.477 306.715 667.594C305.75 672.67 303.125 676.666 298.838 679.584C294.544 682.543 289.858 683.54 284.783 682.575L275.818 680.872L282.853 643.847L318.22 650.567L317.38 654.988L303.012 652.258ZM282.311 686.877L281.238 692.526L276.387 691.604L277.46 685.955L282.311 686.877ZM292.749 688.861L291.676 694.509L286.825 693.588L287.899 687.939L292.749 688.861ZM268.921 644.895L260.463 642.421L261.726 638.102L274.444 641.822L260.004 691.191L255.745 689.945L268.921 644.895ZM249.556 638.433L241.267 635.442L242.794 631.209L263.547 638.696L262.02 642.929L253.789 639.96L242.527 671.178L238.294 669.651L249.556 638.433ZM259.2 625.7L257.269 631.05L252.625 629.374L254.555 624.024L259.2 625.7ZM218.424 654.866C218.591 654.81 218.107 654.94 216.97 655.255C212.048 656.889 207.279 656.547 202.66 654.231C198.005 651.896 194.86 648.268 193.226 643.346C191.555 638.406 191.888 633.608 194.223 628.953L203.133 611.187L244.586 631.978L242.569 636.001L235.977 632.694C235.641 632.526 235.343 632.47 235.082 632.526C234.672 632.693 234.29 633.13 233.935 633.838L213.76 674.062L209.793 672.072L218.424 654.866ZM230.837 630.117L205.082 617.199L198.189 630.942C196.396 634.518 196.14 638.188 197.421 641.954C198.665 645.701 201.056 648.462 204.594 650.236C206.94 651.413 209.39 651.919 211.943 651.755C214.477 651.628 216.817 650.867 218.962 649.472C221.106 648.077 222.767 646.206 223.944 643.86L230.837 630.117ZM195.655 606.918L167.82 650.173L164.088 647.772L191.924 604.517L195.655 606.918ZM165.698 657.281C165.686 657.223 165.353 657.703 164.699 658.719C163.91 659.945 162.795 660.715 161.356 661.027C159.858 661.352 158.497 661.119 157.27 660.33C156.149 659.609 155.307 658.299 154.745 656.401L157.656 654.187C158.206 655.334 158.5 655.993 158.538 656.166C158.638 656.627 158.88 656.981 159.266 657.229C159.651 657.477 160.074 657.551 160.535 657.451C160.996 657.351 161.35 657.109 161.598 656.723C161.869 656.303 161.954 655.862 161.854 655.402C161.767 654.999 161.594 654.689 161.336 654.474L157.289 651.87L159.454 648.506L168.231 654.154L166.066 657.518L165.698 657.281ZM151.72 615.406L149.742 617.826L139.095 609.126L141.072 606.706L138.652 604.729L145.375 596.501L147.794 598.479L149.772 596.059L160.42 604.758L158.442 607.178L160.862 609.156L154.14 617.383L151.72 615.406ZM137.416 565.09L131.29 558.754L134.526 555.626L143.735 565.152L106.753 600.904L103.669 597.713L137.416 565.09ZM123.79 549.885L118.07 543.181L121.493 540.26L135.814 557.044L132.39 559.964L126.711 553.308L101.464 574.849L98.5436 571.426L123.79 549.885ZM98.156 578.001L93.7818 581.733L90.5364 577.93L94.9106 574.197L98.156 578.001ZM101.04 518.465L77.5095 534.765L80.1431 538.567C82.3971 541.821 85.4835 543.788 89.4022 544.47C93.2868 545.175 96.856 544.401 100.11 542.147C103.398 539.869 105.395 536.788 106.1 532.903C106.689 529.657 106.248 526.642 104.777 523.86L101.04 518.465ZM110.65 532.337C110.657 532.129 110.556 532.604 110.346 533.764C109.419 538.866 106.815 542.9 102.534 545.866C98.2868 548.808 93.6121 549.816 88.5101 548.889C83.3738 547.987 79.3346 545.412 76.3925 541.165L71.1965 533.664L102.177 512.203L122.677 541.797L118.977 544.359L110.65 532.337ZM71.6139 542.498L66.8872 545.772L64.0756 541.714L68.8024 538.439L71.6139 542.498ZM77.6641 551.232L72.9374 554.507L70.1258 550.448L74.8525 547.174L77.6641 551.232ZM91.5044 503.187L87.2023 495.496L91.1296 493.299L97.598 504.863L52.7064 529.974L50.5401 526.101L91.5044 503.187ZM82.2117 485.01L78.39 477.07L82.4448 475.118L92.0126 494.998L87.9578 496.95L84.1632 489.065L54.2588 503.457L52.3073 499.403L82.2117 485.01ZM98.013 482.677L92.8881 485.143L90.7469 480.694L95.8717 478.228L98.013 482.677ZM48.4818 474.931C48.6405 475.009 48.2037 474.762 47.1713 474.19C42.5146 471.909 39.3496 468.324 37.6761 463.436C35.9891 458.508 36.2863 453.716 38.5677 449.06C40.8356 444.364 44.4333 441.172 49.3609 439.485L68.1644 433.048L83.1853 476.923L78.9278 478.38L76.5391 471.403C76.4176 471.048 76.2443 470.799 76.0191 470.656C75.6093 470.488 75.0299 470.532 74.2809 470.789L31.7068 485.364L30.2695 481.166L48.4818 474.931ZM74.6767 465.963L65.3443 438.704L50.7982 443.683C47.0138 444.979 44.2599 447.419 42.5364 451.004C40.7995 454.549 40.572 458.195 41.8541 461.94C42.7044 464.423 44.0982 466.5 46.0355 468.171C47.9334 469.856 50.1361 470.951 52.6438 471.458C55.1514 471.965 57.647 471.793 60.1305 470.943L74.6767 465.963ZM65.8199 424.763L15.6502 436.113L14.671 431.785L64.8408 420.435L65.8199 424.763ZM9.15585 439.696C9.1873 439.647 8.61374 439.755 7.43519 440.022C6.0128 440.343 4.67869 440.111 3.43285 439.325C2.13718 438.507 1.32846 437.387 1.00668 435.965C0.712487 434.665 1.02982 433.14 1.95868 431.392L5.58727 431.853C5.17607 433.057 4.9233 433.733 4.82896 433.883C4.57739 434.282 4.50217 434.704 4.6033 435.151C4.70443 435.599 4.95433 435.948 5.353 436.199C5.75166 436.451 6.17452 436.526 6.62155 436.425C7.10923 436.315 7.47885 436.06 7.73042 435.662C7.95054 435.313 8.04415 434.971 8.01124 434.637L6.94937 429.943L10.8508 429.06L13.1538 439.241L9.25238 440.123L9.15585 439.696Z" fill="#F7F0F5"/>
</svg>
