<svg width="210" height="435" viewBox="0 0 210 435" fill="none" xmlns="http://www.w3.org/2000/svg">
<path d="M-107.142 46.115L-109.178 73.3181L-138.564 71.2191L-134.429 42.7146L-107.142 46.115Z" fill="url(#paint0_linear_2288_277)"/>
<path d="M-96.5841 390.246L-125.97 396.585C-124.459 391.4 -131.26 371.691 -129.308 369.214C-128.006 367.535 -104.12 362.896 -102.818 363.883L-96.5841 390.267V390.246Z" fill="url(#paint1_linear_2288_277)"/>
<path d="M136.405 362.98C134.537 367.808 134.6 388.294 131.913 389.973C127.526 392.702 111.301 385.964 104.899 388.168L109.055 359.664L136.405 362.98Z" fill="url(#paint2_linear_2288_277)"/>
<path d="M-187.849 141.011C-185.12 141.242 -173.68 161.203 -174.436 164.226C-175.276 167.563 -194.167 177.932 -196.308 177.764C-199.435 177.512 -209.258 158.999 -209.804 154.423C-209.321 152.744 -189.444 140.885 -187.828 141.032L-187.849 141.011Z" fill="url(#paint3_linear_2288_277)"/>
<path d="M197.255 169.872C187.809 165.296 168.96 164.729 173.704 151.59C182.562 127.031 188.943 133.37 207.624 145.943L197.255 169.872Z" fill="url(#paint4_linear_2288_277)"/>
<path d="M-0.785812 0L18.9868 17.6526L0.725464 37.4881L-18.7742 19.4997L-0.785812 0Z" fill="url(#paint5_linear_2288_277)"/>
<path d="M209.744 280.93L184.703 293.713L172.298 269.533C172.403 268.168 194.694 255.742 196.016 256.057C197.78 256.477 210.793 279.461 209.744 280.93Z" fill="url(#paint6_linear_2288_277)"/>
<path d="M-180.712 299.863C-183.21 301.647 -204.641 291.278 -205.564 288.13C-207.201 282.504 -195.972 271.464 -197.315 264.306C-195.552 262.753 -170.49 274.234 -170.112 275.977L-180.712 299.842V299.863Z" fill="url(#paint7_linear_2288_277)"/>
<path d="M22.765 411.53C26.1024 417.302 8.78562 429.896 4.92346 434.199L-14.5762 416.232L3.39122 396.732C6.11992 399.083 22.1353 410.48 22.744 411.551L22.765 411.53Z" fill="url(#paint8_linear_2288_277)"/>
<path d="M127.757 37.866C129.037 38.6846 133.235 63.3478 132.039 64.7541C131.157 65.8036 108.95 68.7213 105.004 69.0361L100.89 42.001C101.666 40.8885 125.805 36.6066 127.778 37.866H127.757Z" fill="url(#paint9_linear_2288_277)"/>
<path d="M34.8972 372.174C36.1146 372.992 46.0849 382.144 46.0849 382.921C46.0849 384.012 33.7217 398.831 30.8041 398.369C28.0544 397.949 14.222 386.615 14.8307 383.193C14.9777 382.312 26.1443 370.746 27.3408 370.222C30.7831 368.71 32.3364 370.431 34.8972 372.174Z" fill="url(#paint10_linear_2288_277)"/>
<path d="M173.158 224.551C174.628 224.677 185.102 241.637 184.514 244.177C183.884 246.884 168.121 254.546 165.056 253.664C162.516 252.929 154.981 238.09 155.443 236.2C156.135 233.241 170.241 227.804 173.158 224.572V224.551Z" fill="url(#paint11_linear_2288_277)"/>
<path d="M-23.8748 369.424C-21.482 369.004 -8.84596 381.577 -8.57309 383.214C-8.23725 385.187 -20.8942 400.741 -22.0697 400.72C-39.5333 386.384 -43.6894 385.292 -23.8748 369.424Z" fill="url(#paint12_linear_2288_277)"/>
<path d="M-65.2671 356.83L-60.8802 379.751C-65.456 378.555 -81.5133 384.033 -83.9062 381.766C-84.6828 381.031 -85.4175 364.092 -88.1881 360.902L-65.2671 356.83Z" fill="url(#paint13_linear_2288_277)"/>
<path d="M-105.043 348.203L-128.069 352.485C-126.873 347.909 -132.351 331.852 -130.084 329.459C-129.35 328.682 -112.411 327.948 -109.22 325.177L-105.064 348.203H-105.043Z" fill="url(#paint14_linear_2288_277)"/>
<path d="M136.405 142.543L144.822 121.574C154.645 125.058 168.037 125.121 164.175 137.757C157.794 158.642 151.329 146.72 136.405 142.543Z" fill="url(#paint15_linear_2288_277)"/>
<path d="M164.657 172.454C166.798 172.118 181.575 178.856 182.415 181.731C183.317 184.796 175.635 200.559 172.927 201.189C169.065 199.867 156.471 194.997 155.464 191.576C154.582 188.574 162.243 172.811 164.657 172.454Z" fill="url(#paint16_linear_2288_277)"/>
<path d="M-28.0728 31.485C-25.68 31.0652 -13.065 43.6172 -12.7711 45.2544C-12.2254 48.3819 -24.6514 58.4571 -26.2677 62.7811C-43.7313 48.4449 -47.8874 47.3534 -28.0728 31.485Z" fill="url(#paint17_linear_2288_277)"/>
<path d="M24.4022 31.485L41.9078 47.0806L26.2073 62.7811C24.2133 60.1154 10.5488 48.214 10.5488 47.0806C10.5488 46.0311 23.1848 31.6949 24.4022 31.485Z" fill="url(#paint18_linear_2288_277)"/>
<path d="M-155.482 199.069C-160.184 199.972 -172.295 210.32 -176.178 207.507C-176.955 206.94 -184.826 190.967 -184.616 190.001C-184.007 187.336 -169.965 181.27 -166.88 178.667C-163.731 178.898 -154.244 197.327 -155.482 199.069Z" fill="url(#paint19_linear_2288_277)"/>
<path d="M-161.695 262.228L-182.601 253.706C-183.672 252.258 -175.15 233.367 -173.072 232.905C-172.064 232.674 -154.957 239.832 -154.16 241.154L-161.695 262.228Z" fill="url(#paint20_linear_2288_277)"/>
<path d="M136.342 325.282C137.307 326.667 132.312 341.969 134.306 346.188L111.427 343.879L113.316 321C117.535 324.253 134.348 322.448 136.342 325.303V325.282Z" fill="url(#paint21_linear_2288_277)"/>
<path d="M-149.248 128.018C-148.324 132.699 -137.997 144.831 -140.81 148.714C-141.377 149.491 -157.35 157.362 -158.295 157.131C-161.401 156.396 -167.572 142.753 -169.755 139.374C-169.608 137.61 -151.368 126.528 -149.248 127.997V128.018Z" fill="url(#paint22_linear_2288_277)"/>
<path d="M138.504 285.359C144.276 284.75 152.399 275.431 158.109 277.089C160.648 277.824 168.184 292.664 167.722 294.553C167.008 297.575 152.903 302.886 150.006 306.244L138.483 285.359H138.504Z" fill="url(#paint23_linear_2288_277)"/>
<path d="M-136.465 289.536C-134.933 291.257 -144.399 312.457 -145.89 312.562C-152.732 305.95 -165.893 308.154 -163.311 297.386C-157.938 275.032 -152.439 286.199 -136.465 289.536Z" fill="url(#paint24_linear_2288_277)"/>
<path d="M85.7769 50.46C87.729 51.7194 88.5476 67.4409 90.2268 71.1771L67.1378 75.3961L65.0598 52.3281C70.1604 53.6924 82.2506 48.172 85.7769 50.439V50.46Z" fill="url(#paint25_linear_2288_277)"/>
<path d="M-71.69 56.8199C-70.3676 58.9399 -70.7665 74.7874 -73.3692 76.5925C-75.972 78.3976 -91.5465 78.4606 -93.5826 75.543C-95.4717 72.8353 -95.4507 57.3657 -92.5331 55.3506C-89.6155 53.3356 -73.2223 54.3851 -71.69 56.8199Z" fill="url(#paint26_linear_2288_277)"/>
<path d="M130.024 81.798C135.041 104.278 133.55 104.32 111.322 106.839L107.019 83.8131L130.024 81.798Z" fill="url(#paint27_linear_2288_277)"/>
<path d="M-113.376 87.9901L-115.58 111.016L-136.507 109.001C-138.06 82.6586 -137.032 85.954 -113.397 87.9901H-113.376Z" fill="url(#paint28_linear_2288_277)"/>
<path d="M92.074 356.914C94.4458 359.706 90.6676 375.196 90.1848 379.793L67.0959 375.553C71 370.809 67.1798 358.299 71.1679 355.508C74.0855 353.472 90.6677 355.277 92.053 356.914H92.074Z" fill="url(#paint29_linear_2288_277)"/>
<path d="M67.0749 339.828C49.4433 340.059 48.7926 338.128 50.3249 320.979C69.9715 319.531 71.1679 321.231 67.0749 339.828Z" fill="url(#paint30_linear_2288_277)"/>
<path d="M-107.1 300.094C-106.24 301.227 -111.424 315.899 -114.636 316.634C-117.091 315.186 -129.643 311.114 -130.168 310.463C-130.714 309.77 -122.192 297.869 -123.85 293.692C-121.226 294.469 -107.646 299.359 -107.1 300.094Z" fill="url(#paint31_linear_2288_277)"/>
<path d="M127.988 117.376L130.108 136.267L113.337 138.387C112.077 135.029 109.79 120.818 111.196 119.475C111.805 118.887 124.713 119.643 127.988 117.376Z" fill="url(#paint32_linear_2288_277)"/>
<path d="M-102.881 268.546L-110.354 285.254C-112.788 283.68 -125.466 279.629 -125.991 278.978C-126.537 278.264 -119.4 265.23 -119.652 262.207L-102.902 268.546H-102.881Z" fill="url(#paint33_linear_2288_277)"/>
<path d="M45.3922 62.97C49.0234 62.3403 55.5724 72.1216 58.7209 74.3676C46.6726 88.3679 45.686 88.4309 33.5958 74.3676C36.5344 72.3315 42.8314 63.4108 45.3922 62.97Z" fill="url(#paint34_linear_2288_277)"/>
<path d="M-81.8912 297.89L-79.8551 314.598C-96.857 320.538 -98.8721 316.34 -100.803 300.031L-81.8912 297.911V297.89Z" fill="url(#paint35_linear_2288_277)"/>
<path d="M-128.069 260.15C-128.951 262.774 -133.694 276.375 -134.408 276.921C-135.122 277.467 -148.136 270.351 -151.158 270.582C-150.298 268.084 -145.554 254.357 -144.84 253.832C-142.678 252.216 -131.91 260.78 -128.069 260.15Z" fill="url(#paint36_linear_2288_277)"/>
<path d="M125.868 289.515C125.301 294.951 133.487 300.199 132.081 304.985C131.367 307.441 121.166 312.751 118.836 312.31C114.722 311.534 111.616 302.256 109.349 298.919L125.868 289.515Z" fill="url(#paint37_linear_2288_277)"/>
<path d="M-73.4742 344.068C-92.6171 349.861 -92.3442 349.043 -94.4852 329.417C-76.6646 326.898 -76.035 325.03 -73.4742 344.068Z" fill="url(#paint38_linear_2288_277)"/>
<path d="M19.9103 329.417C33.9107 341.465 33.9736 342.452 19.9103 354.542C5.91 342.494 5.84702 341.507 19.9103 329.417Z" fill="url(#paint39_linear_2288_277)"/>
<path d="M-19.6768 331.642C-16.0455 331.012 -9.49664 340.794 -6.34814 343.04C-18.3964 357.04 -19.3829 357.103 -31.4732 343.04C-28.5346 341.003 -22.2376 332.083 -19.6768 331.642Z" fill="url(#paint40_linear_2288_277)"/>
<path d="M-115.475 201.315C-119.295 200.706 -130.084 209.249 -132.246 207.633C-132.834 207.192 -138.543 194.976 -138.417 194.262C-137.829 190.757 -128.237 186.559 -124.9 185.09C-121.709 185.363 -114.279 199.699 -115.496 201.315H-115.475Z" fill="url(#paint41_linear_2288_277)"/>
<path d="M98.6229 325.177C99.2736 325.828 99.4205 341.108 96.5658 343.186C94.2989 344.845 83.8669 340.332 79.6898 341.969L81.8308 323.078C85.2102 326.436 97.9512 324.505 98.6229 325.156V325.177Z" fill="url(#paint42_linear_2288_277)"/>
<path d="M-117.616 119.496C-118.225 123.316 -109.661 134.105 -111.298 136.246C-111.739 136.834 -123.955 142.543 -124.669 142.417C-127.209 141.997 -134.219 130.453 -134.093 128.879C-133.967 127.304 -119.484 118.09 -117.637 119.496H-117.616Z" fill="url(#paint43_linear_2288_277)"/>
<path d="M-12.4982 65.048C-12.0994 64.3553 -2.44402 58.1003 -1.07967 54.469C12.9836 66.5383 12.8997 67.5458 -1.07967 79.5731C-3.3256 76.4666 -14.6182 68.7003 -12.4982 65.048Z" fill="url(#paint44_linear_2288_277)"/>
<path d="M125.763 153.248C127.463 155.62 121.292 169.011 118.353 169.704C102.317 165.8 102.023 158.6 112.224 146.972C114.155 149.512 125.343 152.618 125.763 153.227V153.248Z" fill="url(#paint45_linear_2288_277)"/>
<path d="M-81.8912 90.0891L-84.0321 109.001L-100.803 106.902C-101.832 88.9556 -98.6832 88.7037 -81.8912 90.0891Z" fill="url(#paint46_linear_2288_277)"/>
<path d="M-52.799 94.6019C-51.1408 97.2677 -53.2818 107.07 -52.5052 111.1L-71.4171 108.959C-69.1082 105.643 -69.9059 92.7968 -69.3181 92.1881C-68.4576 91.2855 -53.9745 92.7338 -52.82 94.6019H-52.799Z" fill="url(#paint47_linear_2288_277)"/>
<path d="M-21.7758 75.564C-18.7952 75.0392 -10.4412 83.918 -10.4412 86.9616C-10.4412 90.8447 -17.3679 95.8403 -20.2435 98.3591L-33.5722 86.9616C-30.6336 84.9465 -24.3366 76.0048 -21.7758 75.564Z" fill="url(#paint48_linear_2288_277)"/>
<path d="M125.763 278.852C125.322 279.461 114.386 283.449 112.371 285.296C101.561 272.597 102.464 267.413 118.353 262.333C121.25 263.005 127.463 276.501 125.763 278.831V278.852Z" fill="url(#paint49_linear_2288_277)"/>
<path d="M146.879 247.535L153.197 264.306C138.84 270.036 137.37 273.857 130.633 256.96C130.905 253.769 145.242 246.339 146.858 247.556L146.879 247.535Z" fill="url(#paint50_linear_2288_277)"/>
<path d="M-121.793 249.634C-122.486 250.201 -134.723 242.434 -138.564 243.316C-137.704 240.818 -132.96 227.091 -132.246 226.545C-131.365 225.873 -115.874 232.002 -115.475 233.955C-118.183 236.473 -121.163 249.109 -121.814 249.634H-121.793Z" fill="url(#paint51_linear_2288_277)"/>
<path d="M56.5379 348.392C57.6084 349.483 56.0551 361.805 56.6638 365.1C52.088 364.575 41.3831 366.821 38.6334 363.085L39.8718 346.188C42.5585 346.482 55.9502 347.804 56.5379 348.413V348.392Z" fill="url(#paint52_linear_2288_277)"/>
<path d="M138.651 220.08C136.951 217.708 143.122 204.317 146.06 203.624C162.097 207.528 162.39 214.728 152.189 226.356C150.258 223.816 139.071 220.71 138.651 220.101V220.08Z" fill="url(#paint53_linear_2288_277)"/>
<path d="M-50.5111 321.126C-49.9024 321.714 -48.559 335.084 -48.2862 337.792C-52.3372 336.764 -62.3495 341.549 -64.9312 339.744C-66.5055 338.653 -67.0512 326.101 -69.3181 323.12C-65.7079 322.029 -52.4002 319.3 -50.5111 321.126Z" fill="url(#paint54_linear_2288_277)"/>
<path d="M-136.465 213.972C-138.438 216.848 -143.392 230.344 -145.869 230.533C-146.624 230.596 -159.071 224.95 -159.512 224.341C-160.373 223.187 -155.167 208.536 -151.977 207.801L-136.444 213.972H-136.465Z" fill="url(#paint55_linear_2288_277)"/>
<path d="M94.3199 86.038C94.9286 86.6257 96.251 100.017 96.5449 102.704C92.7667 101.214 81.453 105.937 79.8158 104.782C78.5774 103.9 77.6748 90.8867 75.5338 88.053C79.1231 86.9616 92.4518 84.2329 94.3409 86.059L94.3199 86.038Z" fill="url(#paint56_linear_2288_277)"/>
<path d="M-39.9111 67.0211L-42.0311 85.8911C-45.3056 83.6451 -58.2144 84.3798 -58.8231 83.7921C-59.5158 83.1414 -58.3194 70.0646 -58.8231 66.9791H-39.9111V67.0211Z" fill="url(#paint57_linear_2288_277)"/>
<path d="M-81.8912 117.397L-84.0111 136.288C-87.3905 132.909 -100.11 134.861 -100.803 134.21C-101.496 133.559 -101.622 118.279 -98.7461 116.222L-81.8912 117.418V117.397Z" fill="url(#paint58_linear_2288_277)"/>
<path d="M-31.5361 354.626C-29.668 357.292 -42.0521 368.899 -43.0387 368.899C-46.523 368.899 -56.955 360.776 -52.6311 353.451C-44.382 339.471 -41.0236 351.394 -31.5361 354.626Z" fill="url(#paint59_linear_2288_277)"/>
<path d="M-8.30022 361.007C0.221722 358.551 -2.2971 347.447 8.44978 355.55C20.582 364.68 10.129 367.472 3.11833 375.532C0.662502 372.237 -10.3572 364.701 -8.30022 361.007Z" fill="url(#paint60_linear_2288_277)"/>
<path d="M138.378 241.049C132.501 242.476 128.429 248.71 121.88 247.388L115.604 233.85C127.631 223.061 135.229 224.551 138.378 241.049Z" fill="url(#paint61_linear_2288_277)"/>
<path d="M98.6019 316.802C95.8312 315.543 82.4396 315.249 81.8308 314.682C81.0332 313.926 82.3346 301.018 81.8098 297.89C86.3857 298.415 97.0696 296.169 99.8402 299.905L98.6019 316.802Z" fill="url(#paint62_linear_2288_277)"/>
<path d="M132.165 207.654C116.003 200.412 115.016 202.218 121.796 184.628C141.484 187.63 139.427 191.995 132.165 207.654Z" fill="url(#paint63_linear_2288_277)"/>
<path d="M-130.168 178.226L-146.918 186.664C-146.414 182.067 -153.866 174.406 -153.089 171.131C-152.543 168.823 -142.174 163.449 -139.887 163.89C-135.793 164.667 -132.183 174.553 -130.168 178.226Z" fill="url(#paint64_linear_2288_277)"/>
<path d="M-116.021 149.176C-112.977 148.735 -112.474 148.819 -110.228 150.939C-95.3667 164.96 -122.486 180.031 -127.817 156.166C-127.691 154.57 -118.078 149.47 -116.021 149.176Z" fill="url(#paint65_linear_2288_277)"/>
<path d="M146.627 177.974C142.723 180.409 134.6 174.826 130.276 173.86C128.576 171.446 134.726 158.118 137.664 157.425C141.086 158.223 150.027 161.77 150.93 164.918C151.497 166.912 147.299 177.533 146.627 177.953V177.974Z" fill="url(#paint66_linear_2288_277)"/>
<path d="M66.9489 92.377C68.4392 93.4055 70.3493 106.461 68.943 108.707C67.8515 110.47 53.7462 112.15 52.5288 110.995C51.9201 110.407 50.6397 97.0158 50.3249 94.3081C54.4179 95.3366 64.2622 90.5508 66.9279 92.377H66.9489Z" fill="url(#paint67_linear_2288_277)"/>
<path d="M98.3919 115.529C100.197 116.788 100.47 128.921 102.821 132.069L83.9298 134.21C85.3571 130.684 80.7603 118.593 81.8308 117.418C82.3975 116.809 96.8596 114.479 98.3919 115.55V115.529Z" fill="url(#paint68_linear_2288_277)"/>
<path d="M20.2042 77.663C22.807 77.2222 30.5733 85.2824 33.5538 87.0245L22.0093 100.563C19.9733 97.6245 11.0526 91.3275 10.6118 88.7667C10.171 86.2059 18.525 77.9359 20.2042 77.663Z" fill="url(#paint69_linear_2288_277)"/>
<path d="M34.6033 100.668L43.9859 110.051C34.4144 124.89 18.567 111.1 34.6033 100.668Z" fill="url(#paint70_linear_2288_277)"/>
<path d="M115.415 253.79C105.193 257.883 104.332 259.331 98.7068 248.564L111.196 241.238L115.436 253.79H115.415Z" fill="url(#paint71_linear_2288_277)"/>
<path d="M-6.03331 331.201C-8.5731 326.835 -2.02419 321.63 0.998367 318.985C14.1171 327.654 7.19039 341.066 -6.03331 331.201Z" fill="url(#paint72_linear_2288_277)"/>
<path d="M-111.025 190.673C-111.424 190.379 -115.412 182.382 -115.307 181.668C-114.845 178.772 -108.423 175.938 -106.009 174.175C-94.9469 179.989 -105.589 194.577 -111.025 190.673Z" fill="url(#paint73_linear_2288_277)"/>
<path d="M73.4348 299.989H60.8199V312.604H73.4348V299.989Z" fill="url(#paint74_linear_2288_277)"/>
<path d="M86.1967 287.269C85.735 286.933 83.531 278.81 81.8308 276.942C91.1294 273.835 95.5583 268.777 98.4549 281.938C97.7623 284.96 88.3797 288.843 86.1967 287.269Z" fill="url(#paint75_linear_2288_277)"/>
<path d="M-102.86 213.993C-106.135 226.23 -108.464 225.013 -119.673 222.326L-115.433 209.753L-102.86 213.993Z" fill="url(#paint76_linear_2288_277)"/>
<path d="M41.9498 314.682H29.3349V327.297H41.9498V314.682Z" fill="url(#paint77_linear_2288_277)"/>
<path d="M-58.8231 300.01C-53.6386 323.75 -79.7712 312.436 -71.1653 302.319C-70.7665 301.836 -59.2429 299.548 -58.8231 300.01Z" fill="url(#paint78_linear_2288_277)"/>
<path d="M-32.5647 312.646C-17.7247 322.05 -32.0819 336.008 -41.9682 322.029L-32.5647 312.646Z" fill="url(#paint79_linear_2288_277)"/>
<path d="M111.175 188.763L98.6229 184.523C102.317 174.784 104.878 169.032 114.491 178.226L111.196 188.763H111.175Z" fill="url(#paint80_linear_2288_277)"/>
<path d="M-31.5152 104.782V117.397C-42.7238 118.719 -45.4315 115.886 -44.1301 104.803H-31.5152V104.782Z" fill="url(#paint81_linear_2288_277)"/>
<path d="M-84.0111 274.801C-83.5494 275.242 -81.4714 286.912 -81.8912 287.395C-82.311 287.878 -92.2812 289.179 -94.4852 289.515L-96.6051 276.921C-93.7295 277.97 -84.7458 274.108 -84.0111 274.801Z" fill="url(#paint82_linear_2288_277)"/>
<path d="M-63.252 131.838C-64.7423 133.161 -72.6555 131.544 -75.5941 132.09C-78.008 122.833 -67.7439 113.262 -61.8037 121.553C-60.7542 123.022 -62.8112 131.439 -63.273 131.859L-63.252 131.838Z" fill="url(#paint83_linear_2288_277)"/>
<path d="M71.2939 117.376C71.8186 117.754 74.3584 128.69 73.3299 129.886L60.8409 132.09L58.7209 119.496C61.6804 120.588 70.3283 116.683 71.2729 117.355L71.2939 117.376Z" fill="url(#paint84_linear_2288_277)"/>
<path d="M115.31 222.242C106.053 228.644 98.8537 201.084 114.89 209.228C120.788 212.23 117.619 220.647 115.31 222.242Z" fill="url(#paint85_linear_2288_277)"/>
<path d="M-98.6832 247.556L-103.931 260.045C-120.093 255.175 -114.426 240.21 -98.6832 247.556Z" fill="url(#paint86_linear_2288_277)"/>
<path d="M-90.9588 144.915C-82.7937 144.222 -82.0801 161.035 -93.1208 159.02C-100.782 157.614 -100.215 145.692 -90.9588 144.915Z" fill="url(#paint87_linear_2288_277)"/>
<path d="M96.2719 154.948C95.9151 155.347 87.4351 157.446 85.9658 156.375C77.9267 150.603 88.1278 138.912 94.4878 143.467C96.8387 145.146 97.5523 153.5 96.2719 154.948Z" fill="url(#paint88_linear_2288_277)"/>
<path d="M1.01935 94.371C10.045 101.508 10.15 103.817 1.01935 111.016C-8.00635 103.879 -8.1113 101.571 1.01935 94.371Z" fill="url(#paint89_linear_2288_277)"/>
<defs>
<linearGradient id="paint0_linear_2288_277" x1="209.804" y1="217.1" x2="-0.000108832" y2="217.1" gradientUnits="userSpaceOnUse">
<stop stop-color="#39DC8E"/>
<stop offset="1" stop-color="#39DC8E" stop-opacity="0"/>
</linearGradient>
<linearGradient id="paint1_linear_2288_277" x1="209.804" y1="217.1" x2="-0.000108832" y2="217.1" gradientUnits="userSpaceOnUse">
<stop stop-color="#39DC8E"/>
<stop offset="1" stop-color="#39DC8E" stop-opacity="0"/>
</linearGradient>
<linearGradient id="paint2_linear_2288_277" x1="209.804" y1="217.1" x2="-0.000108832" y2="217.1" gradientUnits="userSpaceOnUse">
<stop stop-color="#39DC8E"/>
<stop offset="1" stop-color="#39DC8E" stop-opacity="0"/>
</linearGradient>
<linearGradient id="paint3_linear_2288_277" x1="209.804" y1="217.1" x2="-0.000108832" y2="217.1" gradientUnits="userSpaceOnUse">
<stop stop-color="#39DC8E"/>
<stop offset="1" stop-color="#39DC8E" stop-opacity="0"/>
</linearGradient>
<linearGradient id="paint4_linear_2288_277" x1="209.804" y1="217.1" x2="-0.000108832" y2="217.1" gradientUnits="userSpaceOnUse">
<stop stop-color="#39DC8E"/>
<stop offset="1" stop-color="#39DC8E" stop-opacity="0"/>
</linearGradient>
<linearGradient id="paint5_linear_2288_277" x1="209.804" y1="217.1" x2="-0.000108832" y2="217.1" gradientUnits="userSpaceOnUse">
<stop stop-color="#39DC8E"/>
<stop offset="1" stop-color="#39DC8E" stop-opacity="0"/>
</linearGradient>
<linearGradient id="paint6_linear_2288_277" x1="209.804" y1="217.1" x2="-0.000108832" y2="217.1" gradientUnits="userSpaceOnUse">
<stop stop-color="#39DC8E"/>
<stop offset="1" stop-color="#39DC8E" stop-opacity="0"/>
</linearGradient>
<linearGradient id="paint7_linear_2288_277" x1="209.804" y1="217.1" x2="-0.000108832" y2="217.1" gradientUnits="userSpaceOnUse">
<stop stop-color="#39DC8E"/>
<stop offset="1" stop-color="#39DC8E" stop-opacity="0"/>
</linearGradient>
<linearGradient id="paint8_linear_2288_277" x1="209.804" y1="217.1" x2="-0.000108832" y2="217.1" gradientUnits="userSpaceOnUse">
<stop stop-color="#39DC8E"/>
<stop offset="1" stop-color="#39DC8E" stop-opacity="0"/>
</linearGradient>
<linearGradient id="paint9_linear_2288_277" x1="209.804" y1="217.1" x2="-0.000108832" y2="217.1" gradientUnits="userSpaceOnUse">
<stop stop-color="#39DC8E"/>
<stop offset="1" stop-color="#39DC8E" stop-opacity="0"/>
</linearGradient>
<linearGradient id="paint10_linear_2288_277" x1="209.804" y1="217.1" x2="-0.000108832" y2="217.1" gradientUnits="userSpaceOnUse">
<stop stop-color="#39DC8E"/>
<stop offset="1" stop-color="#39DC8E" stop-opacity="0"/>
</linearGradient>
<linearGradient id="paint11_linear_2288_277" x1="209.804" y1="217.1" x2="-0.000108832" y2="217.1" gradientUnits="userSpaceOnUse">
<stop stop-color="#39DC8E"/>
<stop offset="1" stop-color="#39DC8E" stop-opacity="0"/>
</linearGradient>
<linearGradient id="paint12_linear_2288_277" x1="209.804" y1="217.1" x2="-0.000108832" y2="217.1" gradientUnits="userSpaceOnUse">
<stop stop-color="#39DC8E"/>
<stop offset="1" stop-color="#39DC8E" stop-opacity="0"/>
</linearGradient>
<linearGradient id="paint13_linear_2288_277" x1="209.804" y1="217.1" x2="-0.000108832" y2="217.1" gradientUnits="userSpaceOnUse">
<stop stop-color="#39DC8E"/>
<stop offset="1" stop-color="#39DC8E" stop-opacity="0"/>
</linearGradient>
<linearGradient id="paint14_linear_2288_277" x1="209.804" y1="217.1" x2="-0.000108832" y2="217.1" gradientUnits="userSpaceOnUse">
<stop stop-color="#39DC8E"/>
<stop offset="1" stop-color="#39DC8E" stop-opacity="0"/>
</linearGradient>
<linearGradient id="paint15_linear_2288_277" x1="209.804" y1="217.1" x2="-0.000108832" y2="217.1" gradientUnits="userSpaceOnUse">
<stop stop-color="#39DC8E"/>
<stop offset="1" stop-color="#39DC8E" stop-opacity="0"/>
</linearGradient>
<linearGradient id="paint16_linear_2288_277" x1="209.804" y1="217.1" x2="-0.000108832" y2="217.1" gradientUnits="userSpaceOnUse">
<stop stop-color="#39DC8E"/>
<stop offset="1" stop-color="#39DC8E" stop-opacity="0"/>
</linearGradient>
<linearGradient id="paint17_linear_2288_277" x1="209.804" y1="217.1" x2="-0.000108832" y2="217.1" gradientUnits="userSpaceOnUse">
<stop stop-color="#39DC8E"/>
<stop offset="1" stop-color="#39DC8E" stop-opacity="0"/>
</linearGradient>
<linearGradient id="paint18_linear_2288_277" x1="209.804" y1="217.1" x2="-0.000108832" y2="217.1" gradientUnits="userSpaceOnUse">
<stop stop-color="#39DC8E"/>
<stop offset="1" stop-color="#39DC8E" stop-opacity="0"/>
</linearGradient>
<linearGradient id="paint19_linear_2288_277" x1="209.804" y1="217.1" x2="-0.000108832" y2="217.1" gradientUnits="userSpaceOnUse">
<stop stop-color="#39DC8E"/>
<stop offset="1" stop-color="#39DC8E" stop-opacity="0"/>
</linearGradient>
<linearGradient id="paint20_linear_2288_277" x1="209.804" y1="217.1" x2="-0.000108832" y2="217.1" gradientUnits="userSpaceOnUse">
<stop stop-color="#39DC8E"/>
<stop offset="1" stop-color="#39DC8E" stop-opacity="0"/>
</linearGradient>
<linearGradient id="paint21_linear_2288_277" x1="209.804" y1="217.1" x2="-0.000108832" y2="217.1" gradientUnits="userSpaceOnUse">
<stop stop-color="#39DC8E"/>
<stop offset="1" stop-color="#39DC8E" stop-opacity="0"/>
</linearGradient>
<linearGradient id="paint22_linear_2288_277" x1="209.804" y1="217.1" x2="-0.000108832" y2="217.1" gradientUnits="userSpaceOnUse">
<stop stop-color="#39DC8E"/>
<stop offset="1" stop-color="#39DC8E" stop-opacity="0"/>
</linearGradient>
<linearGradient id="paint23_linear_2288_277" x1="209.804" y1="217.1" x2="-0.000108832" y2="217.1" gradientUnits="userSpaceOnUse">
<stop stop-color="#39DC8E"/>
<stop offset="1" stop-color="#39DC8E" stop-opacity="0"/>
</linearGradient>
<linearGradient id="paint24_linear_2288_277" x1="209.804" y1="217.1" x2="-0.000108832" y2="217.1" gradientUnits="userSpaceOnUse">
<stop stop-color="#39DC8E"/>
<stop offset="1" stop-color="#39DC8E" stop-opacity="0"/>
</linearGradient>
<linearGradient id="paint25_linear_2288_277" x1="209.804" y1="217.1" x2="-0.000108832" y2="217.1" gradientUnits="userSpaceOnUse">
<stop stop-color="#39DC8E"/>
<stop offset="1" stop-color="#39DC8E" stop-opacity="0"/>
</linearGradient>
<linearGradient id="paint26_linear_2288_277" x1="209.804" y1="217.1" x2="-0.000108832" y2="217.1" gradientUnits="userSpaceOnUse">
<stop stop-color="#39DC8E"/>
<stop offset="1" stop-color="#39DC8E" stop-opacity="0"/>
</linearGradient>
<linearGradient id="paint27_linear_2288_277" x1="209.804" y1="217.1" x2="-0.000108832" y2="217.1" gradientUnits="userSpaceOnUse">
<stop stop-color="#39DC8E"/>
<stop offset="1" stop-color="#39DC8E" stop-opacity="0"/>
</linearGradient>
<linearGradient id="paint28_linear_2288_277" x1="209.804" y1="217.1" x2="-0.000108832" y2="217.1" gradientUnits="userSpaceOnUse">
<stop stop-color="#39DC8E"/>
<stop offset="1" stop-color="#39DC8E" stop-opacity="0"/>
</linearGradient>
<linearGradient id="paint29_linear_2288_277" x1="209.804" y1="217.1" x2="-0.000108832" y2="217.1" gradientUnits="userSpaceOnUse">
<stop stop-color="#39DC8E"/>
<stop offset="1" stop-color="#39DC8E" stop-opacity="0"/>
</linearGradient>
<linearGradient id="paint30_linear_2288_277" x1="209.804" y1="217.1" x2="-0.000108832" y2="217.1" gradientUnits="userSpaceOnUse">
<stop stop-color="#39DC8E"/>
<stop offset="1" stop-color="#39DC8E" stop-opacity="0"/>
</linearGradient>
<linearGradient id="paint31_linear_2288_277" x1="209.804" y1="217.1" x2="-0.000108832" y2="217.1" gradientUnits="userSpaceOnUse">
<stop stop-color="#39DC8E"/>
<stop offset="1" stop-color="#39DC8E" stop-opacity="0"/>
</linearGradient>
<linearGradient id="paint32_linear_2288_277" x1="209.804" y1="217.1" x2="-0.000108832" y2="217.1" gradientUnits="userSpaceOnUse">
<stop stop-color="#39DC8E"/>
<stop offset="1" stop-color="#39DC8E" stop-opacity="0"/>
</linearGradient>
<linearGradient id="paint33_linear_2288_277" x1="209.804" y1="217.1" x2="-0.000108832" y2="217.1" gradientUnits="userSpaceOnUse">
<stop stop-color="#39DC8E"/>
<stop offset="1" stop-color="#39DC8E" stop-opacity="0"/>
</linearGradient>
<linearGradient id="paint34_linear_2288_277" x1="209.804" y1="217.1" x2="-0.000108832" y2="217.1" gradientUnits="userSpaceOnUse">
<stop stop-color="#39DC8E"/>
<stop offset="1" stop-color="#39DC8E" stop-opacity="0"/>
</linearGradient>
<linearGradient id="paint35_linear_2288_277" x1="209.804" y1="217.1" x2="-0.000108832" y2="217.1" gradientUnits="userSpaceOnUse">
<stop stop-color="#39DC8E"/>
<stop offset="1" stop-color="#39DC8E" stop-opacity="0"/>
</linearGradient>
<linearGradient id="paint36_linear_2288_277" x1="209.804" y1="217.1" x2="-0.000108832" y2="217.1" gradientUnits="userSpaceOnUse">
<stop stop-color="#39DC8E"/>
<stop offset="1" stop-color="#39DC8E" stop-opacity="0"/>
</linearGradient>
<linearGradient id="paint37_linear_2288_277" x1="209.804" y1="217.1" x2="-0.000108832" y2="217.1" gradientUnits="userSpaceOnUse">
<stop stop-color="#39DC8E"/>
<stop offset="1" stop-color="#39DC8E" stop-opacity="0"/>
</linearGradient>
<linearGradient id="paint38_linear_2288_277" x1="209.804" y1="217.1" x2="-0.000108832" y2="217.1" gradientUnits="userSpaceOnUse">
<stop stop-color="#39DC8E"/>
<stop offset="1" stop-color="#39DC8E" stop-opacity="0"/>
</linearGradient>
<linearGradient id="paint39_linear_2288_277" x1="209.804" y1="217.1" x2="-0.000108832" y2="217.1" gradientUnits="userSpaceOnUse">
<stop stop-color="#39DC8E"/>
<stop offset="1" stop-color="#39DC8E" stop-opacity="0"/>
</linearGradient>
<linearGradient id="paint40_linear_2288_277" x1="209.804" y1="217.1" x2="-0.000108832" y2="217.1" gradientUnits="userSpaceOnUse">
<stop stop-color="#39DC8E"/>
<stop offset="1" stop-color="#39DC8E" stop-opacity="0"/>
</linearGradient>
<linearGradient id="paint41_linear_2288_277" x1="209.804" y1="217.1" x2="-0.000108832" y2="217.1" gradientUnits="userSpaceOnUse">
<stop stop-color="#39DC8E"/>
<stop offset="1" stop-color="#39DC8E" stop-opacity="0"/>
</linearGradient>
<linearGradient id="paint42_linear_2288_277" x1="209.804" y1="217.1" x2="-0.000108832" y2="217.1" gradientUnits="userSpaceOnUse">
<stop stop-color="#39DC8E"/>
<stop offset="1" stop-color="#39DC8E" stop-opacity="0"/>
</linearGradient>
<linearGradient id="paint43_linear_2288_277" x1="209.804" y1="217.1" x2="-0.000108832" y2="217.1" gradientUnits="userSpaceOnUse">
<stop stop-color="#39DC8E"/>
<stop offset="1" stop-color="#39DC8E" stop-opacity="0"/>
</linearGradient>
<linearGradient id="paint44_linear_2288_277" x1="209.804" y1="217.1" x2="-0.000108832" y2="217.1" gradientUnits="userSpaceOnUse">
<stop stop-color="#39DC8E"/>
<stop offset="1" stop-color="#39DC8E" stop-opacity="0"/>
</linearGradient>
<linearGradient id="paint45_linear_2288_277" x1="209.804" y1="217.1" x2="-0.000108832" y2="217.1" gradientUnits="userSpaceOnUse">
<stop stop-color="#39DC8E"/>
<stop offset="1" stop-color="#39DC8E" stop-opacity="0"/>
</linearGradient>
<linearGradient id="paint46_linear_2288_277" x1="209.804" y1="217.1" x2="-0.000108832" y2="217.1" gradientUnits="userSpaceOnUse">
<stop stop-color="#39DC8E"/>
<stop offset="1" stop-color="#39DC8E" stop-opacity="0"/>
</linearGradient>
<linearGradient id="paint47_linear_2288_277" x1="209.804" y1="217.1" x2="-0.000108832" y2="217.1" gradientUnits="userSpaceOnUse">
<stop stop-color="#39DC8E"/>
<stop offset="1" stop-color="#39DC8E" stop-opacity="0"/>
</linearGradient>
<linearGradient id="paint48_linear_2288_277" x1="209.804" y1="217.1" x2="-0.000108832" y2="217.1" gradientUnits="userSpaceOnUse">
<stop stop-color="#39DC8E"/>
<stop offset="1" stop-color="#39DC8E" stop-opacity="0"/>
</linearGradient>
<linearGradient id="paint49_linear_2288_277" x1="209.804" y1="217.1" x2="-0.000108832" y2="217.1" gradientUnits="userSpaceOnUse">
<stop stop-color="#39DC8E"/>
<stop offset="1" stop-color="#39DC8E" stop-opacity="0"/>
</linearGradient>
<linearGradient id="paint50_linear_2288_277" x1="209.804" y1="217.1" x2="-0.000108832" y2="217.1" gradientUnits="userSpaceOnUse">
<stop stop-color="#39DC8E"/>
<stop offset="1" stop-color="#39DC8E" stop-opacity="0"/>
</linearGradient>
<linearGradient id="paint51_linear_2288_277" x1="209.804" y1="217.1" x2="-0.000108832" y2="217.1" gradientUnits="userSpaceOnUse">
<stop stop-color="#39DC8E"/>
<stop offset="1" stop-color="#39DC8E" stop-opacity="0"/>
</linearGradient>
<linearGradient id="paint52_linear_2288_277" x1="209.804" y1="217.1" x2="-0.000108832" y2="217.1" gradientUnits="userSpaceOnUse">
<stop stop-color="#39DC8E"/>
<stop offset="1" stop-color="#39DC8E" stop-opacity="0"/>
</linearGradient>
<linearGradient id="paint53_linear_2288_277" x1="209.804" y1="217.1" x2="-0.000108832" y2="217.1" gradientUnits="userSpaceOnUse">
<stop stop-color="#39DC8E"/>
<stop offset="1" stop-color="#39DC8E" stop-opacity="0"/>
</linearGradient>
<linearGradient id="paint54_linear_2288_277" x1="209.804" y1="217.1" x2="-0.000108832" y2="217.1" gradientUnits="userSpaceOnUse">
<stop stop-color="#39DC8E"/>
<stop offset="1" stop-color="#39DC8E" stop-opacity="0"/>
</linearGradient>
<linearGradient id="paint55_linear_2288_277" x1="209.804" y1="217.1" x2="-0.000108832" y2="217.1" gradientUnits="userSpaceOnUse">
<stop stop-color="#39DC8E"/>
<stop offset="1" stop-color="#39DC8E" stop-opacity="0"/>
</linearGradient>
<linearGradient id="paint56_linear_2288_277" x1="209.804" y1="217.1" x2="-0.000108832" y2="217.1" gradientUnits="userSpaceOnUse">
<stop stop-color="#39DC8E"/>
<stop offset="1" stop-color="#39DC8E" stop-opacity="0"/>
</linearGradient>
<linearGradient id="paint57_linear_2288_277" x1="209.804" y1="217.1" x2="-0.000108832" y2="217.1" gradientUnits="userSpaceOnUse">
<stop stop-color="#39DC8E"/>
<stop offset="1" stop-color="#39DC8E" stop-opacity="0"/>
</linearGradient>
<linearGradient id="paint58_linear_2288_277" x1="209.804" y1="217.1" x2="-0.000108832" y2="217.1" gradientUnits="userSpaceOnUse">
<stop stop-color="#39DC8E"/>
<stop offset="1" stop-color="#39DC8E" stop-opacity="0"/>
</linearGradient>
<linearGradient id="paint59_linear_2288_277" x1="209.804" y1="217.1" x2="-0.000108832" y2="217.1" gradientUnits="userSpaceOnUse">
<stop stop-color="#39DC8E"/>
<stop offset="1" stop-color="#39DC8E" stop-opacity="0"/>
</linearGradient>
<linearGradient id="paint60_linear_2288_277" x1="209.804" y1="217.1" x2="-0.000108832" y2="217.1" gradientUnits="userSpaceOnUse">
<stop stop-color="#39DC8E"/>
<stop offset="1" stop-color="#39DC8E" stop-opacity="0"/>
</linearGradient>
<linearGradient id="paint61_linear_2288_277" x1="209.804" y1="217.1" x2="-0.000108832" y2="217.1" gradientUnits="userSpaceOnUse">
<stop stop-color="#39DC8E"/>
<stop offset="1" stop-color="#39DC8E" stop-opacity="0"/>
</linearGradient>
<linearGradient id="paint62_linear_2288_277" x1="209.804" y1="217.1" x2="-0.000108832" y2="217.1" gradientUnits="userSpaceOnUse">
<stop stop-color="#39DC8E"/>
<stop offset="1" stop-color="#39DC8E" stop-opacity="0"/>
</linearGradient>
<linearGradient id="paint63_linear_2288_277" x1="209.804" y1="217.1" x2="-0.000108832" y2="217.1" gradientUnits="userSpaceOnUse">
<stop stop-color="#39DC8E"/>
<stop offset="1" stop-color="#39DC8E" stop-opacity="0"/>
</linearGradient>
<linearGradient id="paint64_linear_2288_277" x1="209.804" y1="217.1" x2="-0.000108832" y2="217.1" gradientUnits="userSpaceOnUse">
<stop stop-color="#39DC8E"/>
<stop offset="1" stop-color="#39DC8E" stop-opacity="0"/>
</linearGradient>
<linearGradient id="paint65_linear_2288_277" x1="209.804" y1="217.1" x2="-0.000108832" y2="217.1" gradientUnits="userSpaceOnUse">
<stop stop-color="#39DC8E"/>
<stop offset="1" stop-color="#39DC8E" stop-opacity="0"/>
</linearGradient>
<linearGradient id="paint66_linear_2288_277" x1="209.804" y1="217.1" x2="-0.000108832" y2="217.1" gradientUnits="userSpaceOnUse">
<stop stop-color="#39DC8E"/>
<stop offset="1" stop-color="#39DC8E" stop-opacity="0"/>
</linearGradient>
<linearGradient id="paint67_linear_2288_277" x1="209.804" y1="217.1" x2="-0.000108832" y2="217.1" gradientUnits="userSpaceOnUse">
<stop stop-color="#39DC8E"/>
<stop offset="1" stop-color="#39DC8E" stop-opacity="0"/>
</linearGradient>
<linearGradient id="paint68_linear_2288_277" x1="209.804" y1="217.1" x2="-0.000108832" y2="217.1" gradientUnits="userSpaceOnUse">
<stop stop-color="#39DC8E"/>
<stop offset="1" stop-color="#39DC8E" stop-opacity="0"/>
</linearGradient>
<linearGradient id="paint69_linear_2288_277" x1="209.804" y1="217.1" x2="-0.000108832" y2="217.1" gradientUnits="userSpaceOnUse">
<stop stop-color="#39DC8E"/>
<stop offset="1" stop-color="#39DC8E" stop-opacity="0"/>
</linearGradient>
<linearGradient id="paint70_linear_2288_277" x1="209.804" y1="217.1" x2="-0.000108832" y2="217.1" gradientUnits="userSpaceOnUse">
<stop stop-color="#39DC8E"/>
<stop offset="1" stop-color="#39DC8E" stop-opacity="0"/>
</linearGradient>
<linearGradient id="paint71_linear_2288_277" x1="209.804" y1="217.1" x2="-0.000108832" y2="217.1" gradientUnits="userSpaceOnUse">
<stop stop-color="#39DC8E"/>
<stop offset="1" stop-color="#39DC8E" stop-opacity="0"/>
</linearGradient>
<linearGradient id="paint72_linear_2288_277" x1="209.804" y1="217.1" x2="-0.000108832" y2="217.1" gradientUnits="userSpaceOnUse">
<stop stop-color="#39DC8E"/>
<stop offset="1" stop-color="#39DC8E" stop-opacity="0"/>
</linearGradient>
<linearGradient id="paint73_linear_2288_277" x1="209.804" y1="217.1" x2="-0.000108832" y2="217.1" gradientUnits="userSpaceOnUse">
<stop stop-color="#39DC8E"/>
<stop offset="1" stop-color="#39DC8E" stop-opacity="0"/>
</linearGradient>
<linearGradient id="paint74_linear_2288_277" x1="209.804" y1="217.1" x2="-0.000108832" y2="217.1" gradientUnits="userSpaceOnUse">
<stop stop-color="#39DC8E"/>
<stop offset="1" stop-color="#39DC8E" stop-opacity="0"/>
</linearGradient>
<linearGradient id="paint75_linear_2288_277" x1="209.804" y1="217.1" x2="-0.000108832" y2="217.1" gradientUnits="userSpaceOnUse">
<stop stop-color="#39DC8E"/>
<stop offset="1" stop-color="#39DC8E" stop-opacity="0"/>
</linearGradient>
<linearGradient id="paint76_linear_2288_277" x1="209.804" y1="217.1" x2="-0.000108832" y2="217.1" gradientUnits="userSpaceOnUse">
<stop stop-color="#39DC8E"/>
<stop offset="1" stop-color="#39DC8E" stop-opacity="0"/>
</linearGradient>
<linearGradient id="paint77_linear_2288_277" x1="209.804" y1="217.1" x2="-0.000108832" y2="217.1" gradientUnits="userSpaceOnUse">
<stop stop-color="#39DC8E"/>
<stop offset="1" stop-color="#39DC8E" stop-opacity="0"/>
</linearGradient>
<linearGradient id="paint78_linear_2288_277" x1="209.804" y1="217.1" x2="-0.000108832" y2="217.1" gradientUnits="userSpaceOnUse">
<stop stop-color="#39DC8E"/>
<stop offset="1" stop-color="#39DC8E" stop-opacity="0"/>
</linearGradient>
<linearGradient id="paint79_linear_2288_277" x1="209.804" y1="217.1" x2="-0.000108832" y2="217.1" gradientUnits="userSpaceOnUse">
<stop stop-color="#39DC8E"/>
<stop offset="1" stop-color="#39DC8E" stop-opacity="0"/>
</linearGradient>
<linearGradient id="paint80_linear_2288_277" x1="209.804" y1="217.1" x2="-0.000108832" y2="217.1" gradientUnits="userSpaceOnUse">
<stop stop-color="#39DC8E"/>
<stop offset="1" stop-color="#39DC8E" stop-opacity="0"/>
</linearGradient>
<linearGradient id="paint81_linear_2288_277" x1="209.804" y1="217.1" x2="-0.000108832" y2="217.1" gradientUnits="userSpaceOnUse">
<stop stop-color="#39DC8E"/>
<stop offset="1" stop-color="#39DC8E" stop-opacity="0"/>
</linearGradient>
<linearGradient id="paint82_linear_2288_277" x1="209.804" y1="217.1" x2="-0.000108832" y2="217.1" gradientUnits="userSpaceOnUse">
<stop stop-color="#39DC8E"/>
<stop offset="1" stop-color="#39DC8E" stop-opacity="0"/>
</linearGradient>
<linearGradient id="paint83_linear_2288_277" x1="209.804" y1="217.1" x2="-0.000108832" y2="217.1" gradientUnits="userSpaceOnUse">
<stop stop-color="#39DC8E"/>
<stop offset="1" stop-color="#39DC8E" stop-opacity="0"/>
</linearGradient>
<linearGradient id="paint84_linear_2288_277" x1="209.804" y1="217.1" x2="-0.000108832" y2="217.1" gradientUnits="userSpaceOnUse">
<stop stop-color="#39DC8E"/>
<stop offset="1" stop-color="#39DC8E" stop-opacity="0"/>
</linearGradient>
<linearGradient id="paint85_linear_2288_277" x1="209.804" y1="217.1" x2="-0.000108832" y2="217.1" gradientUnits="userSpaceOnUse">
<stop stop-color="#39DC8E"/>
<stop offset="1" stop-color="#39DC8E" stop-opacity="0"/>
</linearGradient>
<linearGradient id="paint86_linear_2288_277" x1="209.804" y1="217.1" x2="-0.000108832" y2="217.1" gradientUnits="userSpaceOnUse">
<stop stop-color="#39DC8E"/>
<stop offset="1" stop-color="#39DC8E" stop-opacity="0"/>
</linearGradient>
<linearGradient id="paint87_linear_2288_277" x1="209.804" y1="217.1" x2="-0.000108832" y2="217.1" gradientUnits="userSpaceOnUse">
<stop stop-color="#39DC8E"/>
<stop offset="1" stop-color="#39DC8E" stop-opacity="0"/>
</linearGradient>
<linearGradient id="paint88_linear_2288_277" x1="209.804" y1="217.1" x2="-0.000108832" y2="217.1" gradientUnits="userSpaceOnUse">
<stop stop-color="#39DC8E"/>
<stop offset="1" stop-color="#39DC8E" stop-opacity="0"/>
</linearGradient>
<linearGradient id="paint89_linear_2288_277" x1="209.804" y1="217.1" x2="-0.000108832" y2="217.1" gradientUnits="userSpaceOnUse">
<stop stop-color="#39DC8E"/>
<stop offset="1" stop-color="#39DC8E" stop-opacity="0"/>
</linearGradient>
</defs>
</svg>
