<svg width="34" height="29" viewBox="0 0 34 29" fill="none" xmlns="http://www.w3.org/2000/svg">
<path d="M4.59277 11.8047C4.70413 11.9181 4.812 12.0822 4.88965 12.2051C4.98784 12.3605 5.10629 12.56 5.23926 12.792C5.50587 13.2572 5.84774 13.8799 6.23828 14.5986C7.02253 16.042 8.00838 17.8831 9.01074 19.6895C10.0143 21.4979 11.0222 23.2491 11.8457 24.5078C12.1449 24.9652 12.41 25.3432 12.6348 25.6299C12.6352 25.5172 12.6404 25.3907 12.6582 25.2598L12.7002 24.9473L12.9531 24.7588C13.4381 24.3978 14.0673 24.3801 14.5596 24.4287C15.0866 24.4808 15.6577 24.6317 16.1826 24.8037C17.2221 25.1444 18.2655 25.6351 18.5762 25.7627L19.041 25.9531V26.1963C19.2138 25.9405 19.3936 25.6675 19.582 25.3857C19.9121 24.8922 20.2734 24.3693 20.6396 23.9678C20.8238 23.7659 21.0317 23.5695 21.2598 23.4199C21.4857 23.2718 21.7809 23.1377 22.125 23.1377C22.523 23.1376 23.496 23.0029 24.7451 22.7188C25.9746 22.4391 27.4062 22.0292 28.7041 21.5107C30.0214 20.9845 31.1202 20.3777 31.7559 19.7373C32.0677 19.4231 32.2272 19.1416 32.2822 18.8994C32.3326 18.6773 32.3109 18.4218 32.1279 18.1016C31.9171 17.7326 31.708 17.5347 31.5098 17.415C31.3059 17.292 31.0609 17.2193 30.7295 17.1768C30.3795 17.1318 30.0131 17.1273 29.5215 17.1035C29.054 17.0809 28.5204 17.0414 27.9404 16.918C27.7939 16.8887 27.6784 16.8261 27.6113 16.7861C27.5357 16.741 27.4657 16.6895 27.4053 16.6406C27.2842 16.5428 27.1581 16.422 27.0371 16.2959C26.7931 16.0414 26.5233 15.7181 26.2803 15.3945C26.0392 15.0737 25.8059 14.7287 25.6455 14.4297C25.6041 14.3526 25.5625 14.2684 25.5254 14.1816L25.2344 14.209L24.9805 13.915C24.3686 13.2066 23.4166 11.8678 22.6045 10.5537C22.1964 9.89342 21.8137 9.2244 21.5225 8.62988C21.3024 8.18058 21.1048 7.7148 21.0088 7.30762C20.9613 7.30963 20.9072 7.31338 20.8447 7.31836C20.7347 7.32712 20.5569 7.34375 20.4111 7.34375H20.041L19.8154 7.0498C19.6676 6.85652 19.5772 6.65459 19.5166 6.50977C19.364 6.5018 19.1898 6.49704 18.9961 6.49414C18.6349 6.48874 18.1682 6.48948 17.7578 6.48047C17.3335 6.47116 16.8911 6.45048 16.4961 6.39453C16.1247 6.3419 15.6894 6.24569 15.3516 6.02051C15.2631 5.96805 15.1764 5.90746 15.1064 5.85449C15.0035 5.77647 14.8844 5.68035 14.7559 5.57324C14.4992 5.35932 14.176 5.07815 13.8164 4.76758C13.0903 4.14036 12.1928 3.3711 11.2734 2.66699C10.3453 1.9562 9.43644 1.34417 8.68555 1.00781C8.30821 0.838794 8.01995 0.76299 7.81934 0.751953C7.63412 0.741796 7.58936 0.787596 7.57715 0.799805C7.31628 1.06054 6.98636 1.23503 6.67969 1.35938C6.36637 1.48641 6.02563 1.58162 5.7041 1.6582C5.53741 1.69791 5.36835 1.73464 5.20508 1.76855C5.49575 2.1206 5.78685 2.47386 5.87402 2.58594C6.09177 2.86522 6.12546 3.20849 6.01074 3.50586C5.91879 3.74406 5.75017 3.9094 5.63574 4.00684C5.39558 4.2113 5.07045 4.38093 4.80078 4.50586C4.51544 4.63804 4.22232 4.75197 4.00586 4.83203C3.93489 4.85828 3.8706 4.88037 3.81738 4.89941C3.70849 5.0203 3.59945 5.15489 3.46582 5.32227C3.302 5.52746 3.10089 5.77463 2.84961 6L2.58398 6.23828L2.23047 6.18164L1.04883 5.99316C0.953269 6.21489 0.868445 6.43749 0.814453 6.63281C0.977776 6.65007 1.10628 6.70914 1.17383 6.74609C1.3058 6.81836 1.41478 6.91391 1.49414 6.99121C1.65787 7.15071 1.82735 7.36551 1.98926 7.58887C2.31934 8.04424 2.70387 8.65876 3.07031 9.26758C3.4365 9.87598 3.80533 10.5136 4.0918 10.9971C4.23765 11.2432 4.36245 11.4491 4.45996 11.6025C4.50879 11.6794 4.54706 11.7367 4.5752 11.7764C4.60361 11.8164 4.60704 11.82 4.59277 11.8047Z" stroke="url(#paint0_linear_2299_294)" stroke-width="1.5"/>
<defs>
<linearGradient id="paint0_linear_2299_294" x1="16.3987" y1="28.1406" x2="16.3987" y2="0.140625" gradientUnits="userSpaceOnUse">
<stop stop-color="#39DC8E"/>
<stop offset="1" stop-color="#39DC8E" stop-opacity="0.5"/>
</linearGradient>
</defs>
</svg>
