<svg width="990" height="990" viewBox="0 0 990 990" fill="none" xmlns="http://www.w3.org/2000/svg">
<path d="M816.756 116.789C756.039 64.9565 685.047 29.9346 610.786 12.1901C596.308 8.45446 581.829 19.6615 580.895 34.6042L566.73 286.271C585.96 293.024 604.152 301.854 621.304 313.801L816.288 154.613C827.498 144.807 828.432 126.595 816.756 116.789Z" fill="#0B1220"/>
<path d="M918.063 235.379C910.123 222.771 892.375 220.437 880.699 229.776L692.462 397.928C701.298 416.627 707.535 435.846 711.173 456.103L961.965 481.467C976.911 482.868 989.988 470.26 989.054 455.317C982.983 378.736 959.63 303.555 918.063 235.379Z" fill="#0B1220"/>
<path d="M474.516 7.52172C469.846 2.38517 462.84 -0.416582 455.367 0.050377C378.771 6.12085 303.576 29.4688 235.387 71.0282C222.776 78.9665 220.441 96.7109 229.782 108.385L397.931 296.661C416.642 287.831 435.873 281.598 456.143 277.962L481.522 27.134C481.989 19.6627 479.187 12.6583 474.516 7.52172Z" fill="#0B1220"/>
<path d="M972.195 590.285C967.991 584.681 961.452 580.945 953.98 580.011L702.286 565.719C695.529 584.938 686.694 603.118 674.739 620.259L834.415 815.826C844.223 827.033 862.438 827.967 872.246 816.293C924.088 755.588 959.117 684.61 976.865 610.364C978.733 602.892 976.865 595.888 972.662 590.285H972.195Z" fill="#0B1220"/>
<path d="M154.409 172.822C144.601 161.615 126.386 160.681 116.578 172.355C64.7354 233.059 29.7067 304.037 11.9587 378.284C8.22234 392.759 19.4315 407.235 34.3771 408.169L285.986 422.357C292.743 403.139 301.579 384.959 313.533 367.818L153.942 172.355L154.409 172.822Z" fill="#0B1220"/>
<path d="M591.212 692.444C572.501 701.274 553.27 707.507 533 711.143L507.617 961.971C506.215 976.914 518.826 989.989 533.771 989.055C610.368 982.984 685.563 959.636 753.752 918.077C766.362 910.139 768.698 892.394 759.357 880.72L591.212 692.444Z" fill="#0B1220"/>
<path d="M277.928 532.983L27.1358 507.621C12.1902 506.22 -0.887249 518.828 0.0468515 533.771C6.11851 610.352 29.471 685.532 71.0385 753.708C78.9784 766.316 96.7262 768.651 108.402 759.312L296.639 591.158C287.803 572.459 281.566 553.24 277.928 532.983Z" fill="#0B1220"/>
<path d="M422.804 702.331C403.573 695.578 385.382 686.748 368.23 674.801L172.734 834.507C161.525 844.313 160.591 862.525 172.267 872.331C232.984 924.163 303.976 959.185 378.237 976.93C392.715 980.665 407.194 969.458 408.128 954.516L422.284 702.85L422.804 702.331Z" fill="#0B1220"/>
<path d="M377.455 496.884C377.455 560.212 428.8 611.55 492.138 611.55C555.475 611.55 606.82 560.212 606.82 496.884C606.82 433.556 555.475 382.219 492.138 382.219C428.8 382.219 377.455 433.556 377.455 496.884Z" fill="#0B1220"/>
</svg>
