<svg width="850" height="398" viewBox="0 0 850 398" fill="none" xmlns="http://www.w3.org/2000/svg">
<path d="M764.863 2.54951C697.511 -7.42161 635.05 12.1444 599.775 56.1678C571.46 91.443 568.826 132.362 568.356 139.041C565.628 186.545 586.793 220.691 594.131 231.415C597.047 224.642 601.374 216.27 607.77 207.522C613.979 198.962 620.375 192.377 625.737 187.486C621.88 179.208 615.672 162.746 616.707 141.675C616.707 141.675 617.741 111.009 637.496 86.4575C661.012 57.1085 705.789 43.845 754.609 50.0535C752.352 44.9738 751.035 39.3298 751.035 33.3095C751.035 21.0808 756.397 10.0749 764.769 2.54951H764.863ZM823.843 152.116C799.762 143.65 736.925 127.659 675.405 160.865C660.166 169.048 646.244 179.772 634.015 192.565C634.015 192.565 634.015 192.565 633.827 192.753C611.533 215.047 597.517 247.783 596.482 250.04C580.491 287.949 580.209 325.67 580.585 339.31C587.922 332.631 597.705 328.492 608.429 328.492C615.86 328.492 622.915 330.468 628.936 333.948C628.841 326.517 629.124 316.922 630.817 305.822C633.733 286.821 639.377 273.087 640.976 269.136C644.457 260.764 651.7 244.114 667.503 227.464C680.767 213.448 693.936 205.923 698.357 203.477C730.528 185.792 764.298 188.897 776.903 190.59C769.378 199.432 750.659 218.81 720.087 227.182C704.189 231.509 690.173 231.509 680.39 230.662C675.687 234.707 670.419 240.069 665.151 246.842C658.19 255.873 653.769 264.527 650.853 271.394C666.468 276.097 696.288 282.682 731.375 274.216C801.361 257.378 832.968 195.199 837.765 185.416L849.523 161.053L823.937 152.116H823.843Z" fill="#F7F0F5"/>
<path d="M788.944 6.04997C803.806 3.79235 817.728 14.0457 819.986 28.8142C822.243 43.6769 811.99 57.5988 797.127 59.8564C782.265 62.114 768.343 51.8607 766.085 36.9981C763.828 22.1355 774.081 8.30758 788.944 6.04997ZM804.653 18.4668C804.559 17.6202 803.712 17.244 802.866 17.8084C797.88 21.3829 792.894 24.8634 787.909 28.3439C787.533 28.6261 787.344 28.9083 787.156 29.2846C785.369 35.0227 783.488 40.7608 781.606 46.4989C781.418 47.2514 781.418 47.7217 781.889 48.0039C782.359 48.3802 782.829 48.1921 783.394 47.8158C788.285 44.3353 793.271 40.8548 798.162 37.3743C798.538 37.0921 798.821 36.8099 798.915 36.3396C800.796 30.6015 802.583 24.8634 804.465 19.1253C804.465 18.9372 804.653 18.655 804.559 18.3728L804.653 18.4668Z" fill="#2ADBD6"/>
<path d="M795.152 32.9413C795.152 31.8125 794.211 30.8719 793.082 30.8719C791.954 30.8719 791.013 31.8125 791.013 32.9413C791.013 34.0702 791.954 35.0108 793.082 35.0108C794.211 35.0108 795.152 34.0702 795.152 32.9413Z" fill="#2ADBD6"/>
<path d="M582.748 360.489C588.204 346.473 604.007 339.512 618.023 344.968C632.039 350.424 639 366.227 633.544 380.243C628.088 394.259 612.191 401.22 598.269 395.67C584.253 390.214 577.386 374.411 582.842 360.395L582.748 360.489ZM601.279 353.246C600.433 352.963 599.774 353.528 599.868 354.469C600.433 360.583 600.997 366.603 601.562 372.718C601.562 373.188 601.75 373.47 602.032 373.846C606.077 378.268 610.122 382.783 614.167 387.204C614.637 387.768 615.107 387.956 615.578 387.674C616.142 387.392 616.236 386.922 616.142 386.357C615.578 380.337 615.013 374.317 614.449 368.296C614.449 367.826 614.261 367.45 613.978 367.074C609.933 362.558 605.889 358.137 601.844 353.622C601.656 353.434 601.562 353.246 601.279 353.152V353.246Z" fill="#2ADBD6"/>
<path d="M609.181 368.583C608.147 368.018 606.924 368.301 606.265 369.335C605.701 370.37 605.983 371.593 607.018 372.252C608.053 372.816 609.275 372.534 609.934 371.499C610.498 370.464 610.216 369.241 609.181 368.583Z" fill="#2ADBD6"/>
<path d="M49.4806 28.5955C46.4704 28.5955 43.6484 27.6548 41.3908 26.0557H36.5933C34.3357 27.6548 31.5137 28.5955 28.5035 28.5955C27.2807 28.5955 26.0578 28.4073 24.929 28.1251C19.8494 30.0065 15.146 32.9226 11.1011 37.0615C3.76384 44.3988 0.0952148 53.3352 0.0952148 63.6825C0.0952148 74.0299 3.76384 83.0604 11.1011 90.3976C18.4383 97.7349 27.3747 101.498 37.7221 101.498H56.9119V26.526C54.7483 27.8429 52.2085 28.5955 49.5746 28.5955H49.4806ZM44.3069 88.7044H36.9696C30.2908 88.7044 24.7409 86.4468 20.0375 81.6494C15.0519 76.7579 12.6062 70.9257 12.6062 63.8707C12.6062 56.8156 15.0519 51.0775 19.9434 46.186C24.929 41.2005 30.6671 38.8488 37.6281 38.8488H44.3069V88.7985V88.7044Z" fill="#F7F0F5"/>
<path d="M421.609 0.00878906V88.7142H403.643V61.4347C403.643 51.1814 399.88 42.339 392.543 35.0018C385.205 27.6646 376.269 23.9019 365.922 23.9019C355.574 23.9019 346.356 27.8527 338.454 35.7543L336.949 37.2594L345.791 46.1017L347.296 44.5966C352.846 39.1408 358.961 36.4128 365.922 36.4128C372.883 36.4128 378.715 38.7645 383.606 43.75C388.592 48.6415 390.943 54.4737 390.943 61.4347V88.7142H382.571C385.488 84.293 386.899 79.1193 386.899 73.1931C386.899 64.9152 383.983 58.0483 378.338 52.7805C372.694 47.6068 366.674 45.067 360.372 45.067C354.069 45.067 348.143 47.7009 342.593 52.7805C336.855 58.0483 333.845 64.9152 333.845 73.1931C333.845 79.1193 335.35 84.293 338.266 88.7142H282.484C285.118 83.6346 286.435 77.4261 286.435 70.1829C286.435 59.8355 283.236 50.8992 276.934 43.5619C273.83 39.9874 270.255 37.1653 266.21 35.0959C261.977 33.0264 257.462 31.8976 252.853 31.8976C248.243 31.8976 243.728 32.9323 239.495 35.0959C235.544 37.0713 231.876 39.8933 228.677 43.3738C222.375 50.8051 219.177 59.8355 219.177 70.0889C219.177 77.4261 220.494 83.6346 223.127 88.7142H87.2942V27.2883C85.5069 28.1349 83.4374 28.6052 81.2739 28.6052C78.9222 28.6052 76.6646 28.0408 74.6892 27.0061V103.483C74.6892 106.399 73.3722 108.845 70.7383 111.008C68.3867 112.889 65.1884 114.112 61.2376 114.583L59.3562 114.865V127.376L61.6138 127.188C68.4807 126.623 74.2188 124.46 78.8281 120.697C84.284 116.088 87.1061 110.256 87.1061 103.483V101.413H233.193C235.074 102.824 237.143 104.141 239.307 105.176C243.54 107.245 247.961 108.374 252.665 108.374C257.368 108.374 261.695 107.339 266.022 105.176C268.28 104.047 270.349 102.824 272.042 101.413H433.838V0.00878906H421.139H421.609ZM272.231 80.2481C271.102 83.4464 269.503 86.1744 267.621 88.526C265.74 90.7837 263.482 92.5709 260.942 93.8879C258.403 95.2048 255.675 95.8633 252.947 95.8633C249.278 95.8633 245.892 94.7345 242.787 92.5709C239.589 90.3133 236.955 87.2091 234.98 83.2583C233.004 79.3075 231.97 74.9804 231.97 70.277C231.97 63.1279 234.133 56.9195 238.366 51.9339C242.505 46.9483 247.397 44.5966 253.041 44.5966C258.685 44.5966 263.388 47.0424 267.621 51.9339C271.854 56.9195 273.924 63.1279 273.924 70.277C273.924 73.7575 273.359 77.1439 272.136 80.3422L272.231 80.2481ZM369.966 84.5752C367.239 87.021 364.228 88.3379 360.654 88.7142C357.079 88.3379 354.069 87.021 351.435 84.5752C348.237 81.7532 346.732 78.0846 346.732 73.2872C346.732 68.4897 348.237 64.8211 351.435 61.9991C354.634 59.1771 357.738 57.672 360.654 57.672C363.57 57.672 366.768 59.083 369.966 61.9991C373.071 64.8211 374.67 68.5838 374.67 73.2872C374.67 77.9905 373.165 81.7532 370.061 84.5752H369.966Z" fill="#F7F0F5"/>
<path d="M459.238 0.00878906H446.633V101.413H459.238V0.00878906Z" fill="#F7F0F5"/>
<path d="M50.1379 161.627C47.504 161.627 45.0583 160.874 42.8947 159.651H37.6269C37.6269 159.651 36.6863 159.651 36.2159 159.651C34.1464 160.874 31.7007 161.627 29.0668 161.627C28.1261 161.627 27.0914 161.533 26.1507 161.345C20.5067 163.132 15.427 166.236 10.9118 170.751C3.66863 178.089 0 187.025 0 197.278C0 207.532 3.66863 216.656 11.0059 223.993C18.3431 231.331 27.2795 235.093 37.6269 235.093H56.8167V159.934C54.8413 161.062 52.4896 161.627 50.0438 161.627H50.1379ZM44.3057 222.3H36.9685C30.2897 222.3 24.7397 220.043 20.0363 215.245C15.0508 210.354 12.605 204.521 12.605 197.466C12.605 190.411 15.0508 184.673 19.9423 179.782C24.9278 174.796 30.666 172.445 37.6269 172.445H44.3057V222.394V222.3Z" fill="#F7F0F5"/>
<path d="M84.3795 237.077C84.3795 239.993 83.0626 242.439 80.4287 244.602C78.077 246.484 74.8787 247.706 70.9279 248.177L69.1406 248.365V260.876L71.3982 260.688C78.2652 260.123 84.0033 257.96 88.6126 254.197C94.0685 249.588 96.8905 243.756 96.8905 236.983V159.565H84.2855V236.983L84.3795 237.077Z" fill="#F7F0F5"/>
<path d="M421.607 133.585V222.29H392.258C394.892 217.211 396.209 211.002 396.209 203.759C396.209 193.412 393.011 184.475 386.708 177.138C383.604 173.564 380.03 170.742 375.985 168.672C371.752 166.603 367.236 165.474 362.721 165.474C358.206 165.474 353.597 166.508 349.364 168.672C345.319 170.647 341.744 173.469 338.546 177.044C332.243 184.475 329.045 193.506 329.045 203.759C329.045 211.096 330.362 217.305 332.996 222.384H303.647V163.592C301.201 162.84 299.038 161.523 297.344 159.642H297.062C295.463 161.335 293.394 162.746 291.042 163.498V222.384H265.738V195.387C265.738 185.04 261.975 176.009 254.638 168.766C247.301 161.429 238.364 157.76 227.923 157.76C218.328 157.76 209.862 160.959 202.901 167.355V133.585H190.296V220.691C190.296 221.538 190.202 222.008 190.108 222.29H166.309V159.548H147.119C136.771 159.548 127.741 163.31 120.498 170.647C113.161 177.985 109.492 186.921 109.492 197.268C109.492 207.616 113.161 216.646 120.498 223.984C127.835 231.321 136.771 235.084 147.119 235.084H153.798V237.153C153.798 240.069 152.481 242.609 149.753 244.772C146.837 247.124 143.45 248.253 139.311 248.253C136.677 248.253 134.138 247.689 131.974 246.654C129.81 245.619 127.929 244.208 126.612 242.421L122.85 237.435L112.784 245.055L116.547 250.04C119.181 253.427 122.567 256.155 126.518 257.942C130.469 259.823 134.796 260.764 139.311 260.764C146.554 260.764 152.857 258.6 158.125 254.273C163.581 249.57 166.403 243.832 166.403 237.059V234.989H343.437C345.319 236.4 347.388 237.623 349.552 238.752C353.785 240.822 358.206 241.95 362.909 241.95C367.613 241.95 371.94 240.916 376.267 238.752C378.525 237.623 380.594 236.4 382.287 234.989H434.495V133.585H421.796H421.607ZM153.61 222.29H146.272C139.593 222.29 134.044 220.033 129.34 215.235C124.355 210.344 121.909 204.512 121.909 197.457C121.909 190.402 124.355 184.663 129.246 179.772C134.232 174.786 139.97 172.435 146.931 172.435H153.61V222.384V222.29ZM253.039 222.29H202.807V195.293C202.807 190.778 203.936 186.451 206.193 182.688C208.451 178.831 211.555 175.821 215.318 173.564C219.174 171.4 223.407 170.271 228.017 170.271C234.978 170.271 240.81 172.623 245.701 177.608C250.687 182.5 253.039 188.332 253.039 195.387V222.384V222.29ZM381.817 213.824C380.688 217.023 379.089 219.751 377.208 222.102C375.326 224.36 373.069 226.147 370.529 227.464C367.989 228.781 365.261 229.439 362.533 229.439C358.864 229.439 355.478 228.311 352.374 226.147C349.176 223.89 346.542 220.785 344.566 216.834C342.591 212.884 341.65 208.462 341.65 203.853C341.65 196.704 343.814 190.496 347.953 185.51C352.092 180.525 356.983 178.173 362.627 178.173C368.271 178.173 372.975 180.619 377.208 185.51C381.441 190.496 383.51 196.704 383.51 203.853C383.51 207.334 382.946 210.814 381.723 213.918L381.817 213.824Z" fill="#F7F0F5"/>
<path d="M459.238 133.585H446.633V234.989H459.238V133.585Z" fill="#F7F0F5"/>
<path d="M81.5566 22.6873C86.1659 22.6873 89.9286 18.9246 89.9286 14.3153C89.9286 9.70605 86.1659 5.94336 81.5566 5.94336C76.9473 5.94336 73.1846 9.70605 73.1846 14.3153C73.1846 18.9246 76.9473 22.6873 81.5566 22.6873Z" fill="#F7F0F5"/>
<path d="M81.5566 22.6873C86.1659 22.6873 89.9286 18.9246 89.9286 14.3153C89.9286 9.70605 86.1659 5.94336 81.5566 5.94336C76.9473 5.94336 73.1846 9.70605 73.1846 14.3153C73.1846 18.9246 76.9473 22.6873 81.5566 22.6873Z" fill="#F7F0F5"/>
<path d="M36.7789 14.3153C36.7789 15.7263 36.4026 17.0433 35.7442 18.2662C34.3331 20.9 31.6052 22.6873 28.4069 22.6873C23.7976 22.6873 20.0349 18.9246 20.0349 14.3153C20.0349 9.70605 23.7976 5.94336 28.4069 5.94336C31.6052 5.94336 34.4272 7.73064 35.7442 10.3645C36.4026 11.5874 36.7789 12.9043 36.7789 14.3153Z" fill="#F7F0F5"/>
<path d="M57.8521 14.3153C57.8521 18.9246 54.0894 22.6873 49.4801 22.6873C46.2819 22.6873 43.4598 20.9 42.1429 18.2662C41.4844 17.0433 41.1082 15.7263 41.1082 14.3153C41.1082 12.9043 41.4844 11.5874 42.1429 10.3645C43.5539 7.73064 46.2819 5.94336 49.4801 5.94336C54.0894 5.94336 57.8521 9.70605 57.8521 14.3153Z" fill="#F7F0F5"/>
<path d="M36.4036 143.369C37.062 144.592 37.4383 145.909 37.4383 147.32C37.4383 148.731 37.062 150.142 36.4036 151.271C34.9926 153.905 32.2646 155.692 29.0663 155.692C24.457 155.692 20.6943 151.93 20.6943 147.32C20.6943 142.711 24.457 138.948 29.0663 138.948C32.2646 138.948 34.9926 140.736 36.4036 143.369Z" fill="#F7F0F5"/>
<path d="M43.2703 147.329C43.2703 148.74 43.0822 150.057 42.7059 151.28C42.0474 150.057 41.6711 148.74 41.6711 147.329C41.6711 145.918 42.0474 144.507 42.7059 143.378C43.0822 144.601 43.2703 145.918 43.2703 147.329Z" fill="#F7F0F5"/>
<path d="M37.4383 147.32C37.4383 148.731 37.062 150.142 36.4036 151.271C34.9926 153.905 32.2646 155.692 29.0663 155.692C24.457 155.692 20.6943 151.93 20.6943 147.32C20.6943 142.711 24.457 138.948 29.0663 138.948C32.2646 138.948 34.9926 140.736 36.4036 143.369C37.062 144.592 37.4383 145.909 37.4383 147.32Z" fill="#F7F0F5"/>
<path d="M36.4033 143.378C37.0617 144.601 37.438 145.918 37.438 147.329C37.438 148.74 37.0617 150.151 36.4033 151.28C36.027 150.057 35.8389 148.74 35.8389 147.329C35.8389 145.918 36.027 144.601 36.4033 143.378Z" fill="#F7F0F5"/>
<path d="M58.5098 147.32C58.5098 151.93 54.7472 155.692 50.1379 155.692C46.9396 155.692 44.2116 153.905 42.8006 151.271C42.1421 150.048 41.7659 148.731 41.7659 147.32C41.7659 145.909 42.1421 144.498 42.8006 143.369C44.2116 140.736 46.9396 138.948 50.1379 138.948C54.7472 138.948 58.5098 142.711 58.5098 147.32Z" fill="#F7F0F5"/>
<path d="M58.5098 147.32C58.5098 151.93 54.7472 155.692 50.1379 155.692C46.9396 155.692 44.2116 153.905 42.8006 151.271C42.1421 150.048 41.7659 148.731 41.7659 147.32C41.7659 145.909 42.1421 144.498 42.8006 143.369C44.2116 140.736 46.9396 138.948 50.1379 138.948C54.7472 138.948 58.5098 142.711 58.5098 147.32Z" fill="#F7F0F5"/>
<path d="M293.961 145.907C294.619 147.13 294.996 148.447 294.996 149.858C294.996 151.269 294.619 152.68 293.961 153.809C292.55 156.443 289.822 158.23 286.624 158.23C282.014 158.23 278.252 154.468 278.252 149.858C278.252 145.249 282.014 141.486 286.624 141.486C289.822 141.486 292.55 143.274 293.961 145.907Z" fill="#F7F0F5"/>
<path d="M315.971 149.858C315.971 154.468 312.209 158.23 307.599 158.23C304.401 158.23 301.673 156.443 300.262 153.809C299.604 152.586 299.322 151.269 299.322 149.858C299.322 148.447 299.698 147.13 300.262 145.907C301.673 143.274 304.495 141.486 307.599 141.486C312.209 141.486 315.971 145.249 315.971 149.858Z" fill="#F7F0F5"/>
<path d="M128.185 322.587V299.635H124.516C121.318 299.635 118.59 300.764 116.332 303.021C114.075 305.279 112.946 308.007 112.946 311.111C112.946 314.215 114.075 317.037 116.332 319.295C118.496 321.458 121.13 322.587 124.14 322.587H128.185ZM124.516 326.162C120.377 326.162 116.803 324.657 113.793 321.741C110.876 318.73 109.371 315.156 109.371 311.017C109.371 306.878 110.876 303.303 113.793 300.387C116.709 297.377 120.283 295.966 124.516 295.966H131.759V322.587H138.25V326.162H124.422H124.516ZM118.308 292.109V287.594H122.353V292.109H118.308ZM126.774 292.109V287.594H130.819V292.109H126.774ZM170.421 322.587C170.421 322.587 170.327 321.835 170.327 320.988V310.17C170.327 306.972 169.198 304.244 166.941 302.081C164.683 299.823 161.955 298.694 158.757 298.694C155.558 298.694 152.925 299.823 150.667 302.081C148.409 304.338 147.28 307.066 147.28 310.17V312.522H143.706V310.17C143.706 306.031 145.211 302.551 148.127 299.635C151.137 296.625 154.618 295.214 158.851 295.214C163.084 295.214 166.564 296.719 169.574 299.635C172.585 302.551 173.996 306.125 173.996 310.17V320.988C173.996 321.646 174.09 322.117 174.372 322.399C174.56 322.493 174.654 322.587 174.654 322.587L175.595 323.622V326.256H137.027V322.681H170.609L170.421 322.587ZM185.942 322.587H218.432V326.162H182.368V284.866H185.942V322.493V322.587ZM227.556 322.587H234.612V326.162H216.927V322.587H223.982V295.966H227.556V322.587ZM228.027 334.722V330.207H232.072V334.722H228.027ZM219.561 334.722V330.207H223.606V334.722H219.561ZM233.201 326.162V322.587H240.256V296.06H243.83V322.587H253.801V296.06H257.376V322.587H267.441V295.966H271.016V322.587H278.071V326.162H233.295H233.201ZM283.432 284.866H287.007V326.162H276.377V322.587H283.432V284.96V284.866ZM294.062 326.162V284.866H297.637V326.162H294.062ZM323.505 322.587V299.635H319.837C316.638 299.635 313.91 300.764 311.653 303.021C309.395 305.279 308.266 308.007 308.266 311.111C308.266 314.215 309.395 317.037 311.653 319.295C313.816 321.458 316.45 322.587 319.46 322.587H323.505ZM326.986 327.949C326.986 330.583 325.951 332.746 323.787 334.534C321.718 336.227 319.272 337.074 316.356 337.074C314.569 337.074 312.876 336.697 311.276 335.945C309.677 335.192 308.36 334.157 307.326 332.84L306.291 331.429L309.113 329.266L310.148 330.677C310.806 331.524 311.653 332.276 312.781 332.746C313.816 333.217 315.039 333.499 316.262 333.499C318.237 333.499 319.931 332.935 321.248 331.806C322.659 330.677 323.317 329.36 323.317 327.855V326.068H319.648C315.509 326.068 311.935 324.563 308.925 321.646C306.009 318.636 304.504 315.062 304.504 310.923C304.504 306.784 306.009 303.209 308.925 300.293C311.841 297.283 315.415 295.872 319.648 295.872H326.892V327.855L326.986 327.949ZM340.061 333.499C341.942 333.311 343.353 332.652 344.482 331.806C345.799 330.677 346.458 329.36 346.458 327.855V295.872H350.032V322.493H356.523V326.068H350.032V327.855C350.032 330.489 348.997 332.652 346.834 334.44C345.047 335.945 342.789 336.791 340.061 336.979V333.405V333.499ZM373.173 292.203V287.594H377.124V292.203H373.173ZM380.322 299.635H376.653C373.455 299.635 370.727 300.764 368.563 303.021C366.306 305.279 365.177 308.007 365.177 311.111C365.177 314.215 366.306 317.037 368.563 319.295C370.445 321.176 372.608 322.211 375.148 322.587H380.416V299.635H380.322ZM355.112 326.162V322.587H366.87C366.87 322.587 366.776 322.399 366.024 321.741C363.107 318.824 361.602 315.25 361.602 311.017C361.602 306.784 363.107 303.303 366.024 300.387C368.94 297.377 372.514 295.966 376.653 295.966H383.99V322.587H390.951V326.162H355.112ZM389.446 326.162V322.587H396.501V296.06H400.076V322.587H410.047V296.06H413.622V322.587H423.687V295.966H427.261V322.587H434.316V326.162H389.54H389.446ZM443.347 322.587H450.402V326.162H432.717V322.587H439.772V284.96H443.347V322.587ZM455.952 284.866H459.526V326.162H448.897V322.587H455.952V284.96V284.866Z" fill="#2ADBD6"/>
</svg>
