<svg width="234" height="309" viewBox="0 0 234 309" fill="none" xmlns="http://www.w3.org/2000/svg">
<path fill-rule="evenodd" clip-rule="evenodd" d="M0.658208 9.0638V8.48135L0.0757552 8.77263C-0.215466 11.3936 0.366979 13.7234 1.24064 16.0532C10.5597 44.8841 19.8788 73.8606 29.1979 102.837C38.517 131.814 47.8361 160.79 57.1551 189.621C58.9025 194.281 61.2323 197.484 65.0181 200.105C88.2251 216.623 111.496 233.077 134.771 249.527C136.316 250.619 137.881 251.725 139.426 252.817C164.252 270.363 189.079 287.909 213.832 305.527C218.783 308.731 223.443 310.478 228.685 306.983C233.344 303.78 234.218 299.12 231.888 291.84C213.25 234.469 194.612 176.807 176.265 119.146C174.809 115.068 172.479 111.865 168.984 109.244C118.894 74.0063 68.804 38.4772 18.714 2.94818C10.851 -2.87625 2.11432 0.327157 0.658208 9.0638ZM116.858 133.419C128.507 133.419 138.117 143.03 138.117 154.678C138.117 166.327 128.507 175.938 116.858 175.938C105.209 175.938 95.599 166.327 95.599 154.678C95.599 143.03 105.209 133.419 116.858 133.419Z" fill="#2ADBD6"/>
</svg>
