<svg width="125" height="124" viewBox="0 0 125 124" fill="none" xmlns="http://www.w3.org/2000/svg">
<path d="M52.6987 123.201C86.5003 128.341 118.194 105.016 123.333 71.214C128.406 37.4123 105.147 5.85095 71.3456 0.711516C37.544 -4.42792 5.85079 18.8313 0.711356 52.5012C-4.42808 86.3687 18.8311 117.996 52.6987 123.201ZM35.699 28.8466V28.9784C36.0285 27.0017 38.0052 26.2769 39.7842 27.5947C51.1173 35.6333 62.4504 43.6719 73.7836 51.6446C74.5742 52.2376 75.1014 52.9624 75.4308 53.8849C79.5819 66.9312 83.7989 79.9774 88.0158 92.9578C88.5429 94.605 88.3453 95.6593 87.291 96.384C86.105 97.1747 85.0508 96.7794 83.9306 96.0546C72.7293 88.0819 61.4621 80.1751 50.2608 72.2024C49.4042 71.6093 48.8771 70.8846 48.4817 69.8303C44.2648 56.7841 40.0478 43.606 35.8308 30.5598C35.6331 30.0327 35.5014 29.5055 35.5673 28.9125L35.699 28.8466Z" fill="#F7F0F5"/>
<path d="M61.9898 57.1144C64.6254 57.1144 66.7998 59.2888 66.7998 61.9244C66.7998 64.56 64.6254 66.7343 61.9898 66.7343C59.3542 66.7343 57.1798 64.56 57.1798 61.9244C57.1798 59.2888 59.3542 57.1144 61.9898 57.1144Z" fill="#F7F0F5"/>
</svg>
