<svg width="316" height="242" viewBox="0 0 316 242" fill="none" xmlns="http://www.w3.org/2000/svg">
<path d="M-1.36433 27.6162C-4.50811 34.4369 -12.3221 41.2074 -18.6828 45.6612C-25.8285 50.6647 -38.8258 52.2334 -50.4209 51.712C-28.2575 86.4888 3.23477 118.74 31.8874 131.225C24.2253 184.661 51.6076 223.557 65.2765 241.446C69.0586 233.761 74.6747 224.959 83.3199 219.366C91.965 213.773 99.4268 211.296 109.047 208.056C101.235 197.841 86.3967 175.047 85.1483 147.786C107.066 153.248 129.655 154.973 152.003 152.569C230.934 144.054 279.76 88.9006 297.09 65.5927L315.451 40.8989L288.907 25.691C270.642 15.2286 205.432 -16.7405 132.516 11.1406C90.1714 27.3115 65.3832 51.0822 50.897 73.7721C23.3152 63.7954 11.6869 44.9579 -1.36433 27.6162ZM102.361 95.5872C113.61 81.6649 126.39 74.3244 148.046 66.0523C176.552 55.1564 197.153 59.6585 217.716 65.3175C199.043 81.9024 182.039 94.3556 146.533 98.181C131.844 99.7658 116.96 98.8192 102.361 95.5872Z" fill="#13BD84"/>
</svg>
